<?xml version="1.0" encoding="utf-8"?>
<!-- Generator: Adobe Illustrator 26.0.0, SVG Export Plug-In . SVG Version: 6.00 Build 0)  -->
<svg version="1.1" id="圖層_1" xmlns="http://www.w3.org/2000/svg" xmlns:xlink="http://www.w3.org/1999/xlink" x="0px" y="0px"
	 viewBox="0 0 50 50" style="enable-background:new 0 0 50 50;" xml:space="preserve">
<style type="text/css">
	.st0{fill:#4F3934;}
</style>
<path class="st0" d="M25,20.82c1.84,0,3.68,0,5.52,0c2.31,0,3.86,1.54,3.86,3.84c0,3.33,0.02,6.67-0.01,10
	c-0.04,4.49-3.61,8.4-8.06,9c-4.9,0.66-9.35-2.55-10.42-7.1c-0.16-0.67-0.26-1.34-0.26-2.02c0-3.33,0-6.67,0-10
	c0-2.1,1.59-3.69,3.71-3.71C21.22,20.8,23.11,20.82,25,20.82z"/>
<path class="st0" d="M14.87,20.82c-0.67,0.89-1.11,1.79-1.24,2.8c-0.05,0.35-0.06,0.71-0.06,1.07c0,2.81,0.03,5.63-0.01,8.44
	c-0.03,2.12,0.13,4.18,1.13,6.16c-1.72,0.43-3.37,0.39-5-0.2c-3.32-1.21-5.45-4.19-5.51-7.79c-0.04-2.24-0.03-4.49,0-6.73
	c0.02-2.22,1.6-3.74,3.81-3.75C10.25,20.81,12.51,20.82,14.87,20.82z"/>
<path class="st0" d="M35.35,39.3c0.39-0.94,0.73-1.88,0.91-2.87c0.13-0.76,0.18-1.51,0.18-2.28c0-3.12-0.02-6.25,0.01-9.37
	c0.01-1.38-0.32-2.63-1.15-3.74c-0.03-0.05-0.05-0.11-0.07-0.15c0.07-0.11,0.16-0.08,0.24-0.08c2.25,0,4.49-0.02,6.74,0
	c1.96,0.02,3.54,1.48,3.6,3.44c0.08,2.65,0.15,5.31-0.03,7.95c-0.24,3.48-3.25,6.64-6.71,7.22C37.82,39.65,36.6,39.63,35.35,39.3z"
	/>
<path class="st0" d="M31.25,12.49c0,3.47-2.78,6.26-6.24,6.26c-3.47,0-6.26-2.78-6.26-6.24c0-3.47,2.77-6.26,6.24-6.26
	C28.46,6.26,31.25,9.03,31.25,12.49z"/>
<path class="st0" d="M11.48,18.75c-2.88,0.01-5.22-2.31-5.22-5.18c-0.01-2.9,2.34-5.26,5.22-5.25c2.85,0.01,5.21,2.37,5.21,5.22
	C16.69,16.4,14.35,18.74,11.48,18.75z"/>
<path class="st0" d="M43.74,13.53c0,2.89-2.31,5.22-5.18,5.22c-2.9,0-5.26-2.34-5.25-5.21c0.01-2.85,2.36-5.21,5.22-5.22
	C41.39,8.32,43.74,10.66,43.74,13.53z"/>
</svg>
