<?xml version="1.0" encoding="utf-8"?>
<!-- Generator: Adobe Illustrator 26.0.0, SVG Export Plug-In . SVG Version: 6.00 Build 0)  -->
<svg version="1.1" id="圖層_1" xmlns="http://www.w3.org/2000/svg" xmlns:xlink="http://www.w3.org/1999/xlink" x="0px" y="0px"
	 viewBox="0 0 50 50" style="enable-background:new 0 0 50 50;" xml:space="preserve">
<style type="text/css">
	.st0{fill:#503A35;}
</style>
<g>
	<path class="st0" d="M28.55,0c8.02,0.29,15.61,4.14,20.95,11.78c0.74,1.06,0.68,1.41-0.27,2.29c-5.26,4.92-10.53,9.83-15.79,14.75
		c-1.02,0.96-1.02,1.49,0.01,2.46c3.65,3.41,7.3,6.82,10.95,10.24c0.99,0.93,0.96,1.51-0.11,2.38C30.48,54.97,9.35,50.41,2.14,34.78
		C-2.98,23.7,1.37,10.47,12.26,3.99C16.76,1.31,21.6-0.01,28.55,0z M37.58,42.24c-0.19-0.19-0.34-0.35-0.5-0.5
		c-2.5-2.33-5-4.67-7.49-7c-0.29-0.28-0.59-0.56-0.84-0.87c-2.13-2.56-1.84-6.01,0.71-8.4c4.47-4.19,8.95-8.37,13.44-12.55
		c0.18-0.16,0.41-0.27,0.6-0.39C36.39,4.24,23.47,2.46,14.05,8.89C4.85,15.18,2.59,27.48,9.08,36.26
		C15.91,45.51,28.62,47.25,37.58,42.24z"/>
	<path class="st0" d="M32.13,15.02c-0.01,1.37-1.22,2.48-2.69,2.47c-1.46-0.01-2.67-1.14-2.67-2.5c0-1.38,1.26-2.54,2.73-2.51
		C30.96,12.52,32.14,13.65,32.13,15.02z"/>
</g>
</svg>
