<?xml version="1.0" encoding="utf-8"?>
<!-- Generator: Adobe Illustrator 26.0.0, SVG Export Plug-In . SVG Version: 6.00 Build 0)  -->
<svg version="1.1" id="圖層_1" xmlns="http://www.w3.org/2000/svg" xmlns:xlink="http://www.w3.org/1999/xlink" x="0px" y="0px"
	 viewBox="0 0 50 50" style="enable-background:new 0 0 50 50;" xml:space="preserve">
<style type="text/css">
	.st0{fill:#4F3934;}
</style>
<path class="st0" d="M40.62,23.42c0,0.18,0,0.35,0,0.53c0,7.03,0,14.06,0,21.08c0,1.26-0.59,1.84-1.86,1.84c-9.17,0-18.35,0-27.52,0
	c-1.27,0-1.86-0.58-1.86-1.84c0-5.6,0-11.19,0-16.79c0-1.2,1.03-1.97,2.1-1.58c0.64,0.24,1.02,0.81,1.02,1.56c0,2.96,0,5.92,0,8.88
	c0,2.08,0.01,4.16-0.01,6.25c0,0.32,0.08,0.4,0.4,0.4c8.07-0.01,16.14-0.01,24.21,0c0.32,0,0.4-0.08,0.4-0.4
	c-0.01-7.61-0.01-15.23,0-22.84c0-0.25-0.09-0.42-0.25-0.59c-3.98-3.98-7.97-7.95-11.94-11.95C25.03,7.7,24.92,7.76,24.68,8
	c-6.23,6.24-12.47,12.47-18.7,18.71c-0.48,0.48-1.01,0.76-1.7,0.57c-1.1-0.31-1.51-1.62-0.77-2.5c0.1-0.12,0.22-0.24,0.34-0.35
	c6.6-6.6,13.21-13.21,19.81-19.81c0.95-0.95,1.74-0.95,2.68-0.02c6.63,6.63,13.25,13.25,19.88,19.87c0.45,0.45,0.75,0.95,0.62,1.6
	c-0.12,0.58-0.47,0.99-1.04,1.18c-0.62,0.2-1.16,0.05-1.61-0.4c-1.11-1.1-2.21-2.21-3.31-3.31c-0.06-0.06-0.09-0.13-0.13-0.2
	C40.7,23.37,40.66,23.39,40.62,23.42z"/>
</svg>
