<?xml version="1.0" encoding="utf-8"?>
<!-- Generator: Adobe Illustrator 26.0.0, SVG Export Plug-In . SVG Version: 6.00 Build 0)  -->
<svg version="1.1" id="圖層_1" xmlns="http://www.w3.org/2000/svg" xmlns:xlink="http://www.w3.org/1999/xlink" x="0px" y="0px"
	 viewBox="0 0 50 50" style="enable-background:new 0 0 50 50;" xml:space="preserve">
<style type="text/css">
	.st0{fill:#4F3934;}
</style>
<g>
	<path class="st0" d="M42.1,22.87c0,0.19,0,0.39,0,0.58c0,7.69,0,15.39,0,23.08c0,1.38-0.64,2.01-2.03,2.01
		c-10.04,0-20.09,0-30.13,0c-1.39,0-2.03-0.64-2.03-2.01c0-6.13,0-12.25,0-18.38c0-1.31,1.13-2.16,2.3-1.73
		c0.7,0.26,1.12,0.89,1.12,1.71c0,3.24,0,6.48,0,9.73c0,2.28,0.01,4.56-0.01,6.84c0,0.35,0.09,0.44,0.44,0.44
		c8.83-0.01,17.67-0.01,26.5,0c0.35,0,0.44-0.08,0.44-0.44c-0.01-8.34-0.01-16.67,0-25.01c0-0.28-0.09-0.46-0.28-0.64
		c-4.36-4.35-8.72-8.71-13.07-13.08c-0.3-0.31-0.43-0.24-0.7,0.02C17.83,12.82,11,19.64,4.18,26.47C3.65,27,3.07,27.31,2.31,27.1
		c-1.21-0.34-1.65-1.77-0.85-2.74c0.11-0.14,0.25-0.26,0.37-0.38C9.07,16.74,16.3,9.51,23.52,2.28c1.04-1.04,1.91-1.05,2.93-0.02
		c7.25,7.25,14.51,14.51,21.77,21.76c0.5,0.5,0.83,1.04,0.68,1.75c-0.13,0.64-0.51,1.09-1.14,1.29c-0.67,0.22-1.27,0.06-1.76-0.43
		c-1.21-1.2-2.42-2.42-3.63-3.63c-0.06-0.06-0.1-0.15-0.14-0.22C42.19,22.82,42.14,22.84,42.1,22.87z"/>
	<g>
		<path class="st0" d="M40.85,22.87c0,4.53,0,9.06,0,13.59c0,2.37,0,4.75,0,7.12c0,0.95,0.27,2.33-0.01,3.24
			c-0.22,0.72-1.12,0.47-1.76,0.47c-9.39,0-18.77,0-28.16,0c-0.69,0-1.49,0.23-1.76-0.47c-0.16-0.4-0.01-1.09-0.01-1.54
			c0-0.66,0-1.32,0-1.99c0-2.4,0-4.8,0-7.2c0-2.32,0-4.64,0-6.96c0-0.36-0.18-1.16,0.14-1.42c0.25-0.2,0.53-0.22,0.73,0.1
			c0.21,0.33,0.05,1.17,0.05,1.52c0,0.65,0,1.3,0,1.95c0,2.27,0,4.54,0,6.81c0,1.14,0,2.28,0,3.42c0,1.12-0.14,2.33,0.02,3.44
			c0.3,2.03,3.14,1.42,4.6,1.42c2.37,0,4.74,0,7.12,0c4.66,0,9.32,0,13.99,0c1.57,0,3.99,0.49,4.14-1.68
			c0.17-2.34-0.01-4.76-0.01-7.11c0-4.66,0-9.32,0-13.98c0-1.14,0.02-2.29,0-3.43c-0.01-0.79-0.11-1.41-0.64-2.02
			c-1.55-1.75-3.34-3.33-4.99-4.99c-1.66-1.66-3.33-3.33-4.99-4.99c-0.74-0.75-1.49-1.49-2.23-2.24c-0.61-0.61-1.25-1.49-2.21-1.4
			c-0.92,0.09-1.57,1.01-2.17,1.62c-0.88,0.88-1.76,1.77-2.65,2.65c-1.65,1.65-3.29,3.3-4.94,4.95c-3.35,3.36-6.71,6.71-10.06,10.07
			c-0.36,0.36-1.82,2.25-2.41,2.07c-0.94-0.3,0.37-1.32,0.6-1.56c1.63-1.63,3.26-3.27,4.9-4.9c3.32-3.32,6.65-6.65,9.97-9.97
			c1.69-1.69,3.38-3.38,5.07-5.07c0.41-0.41,0.8-0.84,1.22-1.22c0.58-0.52,0.77-0.38,1.34,0.16c0.9,0.85,1.76,1.76,2.63,2.63
			c3.28,3.28,6.55,6.55,9.83,9.83c1.7,1.7,3.39,3.39,5.09,5.09c0.82,0.82,1.64,1.64,2.46,2.46c0.39,0.39,2.28,1.76,1.85,2.39
			c-0.49,0.72-1.56-0.79-1.89-1.12c-0.76-0.76-1.84-1.55-2.42-2.44c-0.37-0.56-1.11-0.81-1.71-0.45c-0.04,0.03-0.09,0.05-0.13,0.08
			c-1.38,0.83-0.12,2.99,1.26,2.16c0.04-0.03,0.09-0.05,0.13-0.08c-0.57-0.15-1.14-0.3-1.71-0.45c0.49,0.74,1.2,1.33,1.82,1.96
			c0.75,0.75,1.47,1.57,2.27,2.25c1.1,0.93,2.65,1.05,3.83,0.14c3.43-2.66-1.71-6.38-3.47-8.14c-3.16-3.16-6.32-6.32-9.48-9.48
			c-1.52-1.52-3.04-3.04-4.56-4.56c-1.52-1.52-2.98-3.29-4.68-4.61c-1.44-1.13-2.98-0.75-4.24,0.42c-1.57,1.45-3.04,3.04-4.55,4.55
			c-3.09,3.09-6.18,6.18-9.27,9.27c-1.57,1.57-3.15,3.15-4.72,4.72c-0.76,0.76-1.52,1.52-2.27,2.27c-0.58,0.58-1.29,1.15-1.68,1.89
			c-1.54,2.94,2.23,5.52,4.64,3.49c1.86-1.56,3.5-3.48,5.21-5.19c1.71-1.71,3.41-3.41,5.12-5.12c1.77-1.77,3.53-3.53,5.29-5.3
			c1.75-1.76,3.44-3.73,5.35-5.31c-0.29,0.12-0.59,0.24-0.88,0.37c-0.29,0.03,0.64,0.87,0.61,0.84c0.34,0.34,0.69,0.69,1.03,1.03
			c0.63,0.63,1.26,1.26,1.89,1.89c1.26,1.26,2.52,2.52,3.78,3.79c1.32,1.32,2.64,2.64,3.96,3.95c0.29,0.29,0.57,0.57,0.86,0.86
			c0.18,0.18,0.64,0.84,0.43,0.28c0.14,0.38,0,1.05,0,1.47c0,0.49,0,0.98,0,1.47c0,3.6,0,7.19,0,10.79c0,1.8,0,3.6,0,5.39
			c0,0.98,0,1.96,0,2.94c0,0.49,0,0.98,0,1.47c0,0.15-0.1,1.28,0.2,0.99c0.29-0.12,0.59-0.24,0.88-0.37
			c-2.15,0.28-4.48,0.03-6.65,0.03c-2.29,0-4.58,0-6.87,0s-4.58,0-6.87,0c-2.16,0-4.51,0.25-6.65-0.03
			c0.29,0.12,0.59,0.24,0.88,0.37c-0.04-0.04-0.09-0.09-0.13-0.13c0.12,0.29,0.24,0.59,0.37,0.88c-0.23-1.82-0.02-3.8-0.03-5.64
			c0-2.11,0-4.22,0-6.33c0-1.71,0.17-3.51-0.03-5.2c-0.17-1.42-1.2-2.57-2.66-2.71C6,24.72,6.65,29.69,6.65,32.12
			c0,3.97,0,7.95,0,11.92c0,1.42-0.29,3.19,0.51,4.46c0.73,1.14,2.03,1.28,3.26,1.29c3.95,0.04,7.9,0,11.86,0c3.95,0,7.9,0,11.86,0
			c1.97,0,3.96,0.1,5.93,0c1.18-0.06,2.29-0.4,2.89-1.5c0.38-0.69,0.38-1.49,0.39-2.26c0.01-1.15,0-2.29,0-3.44
			c0-2.13,0-4.26,0-6.39c0-4.45,0-8.9,0-13.35C43.35,21.26,40.85,21.26,40.85,22.87z"/>
	</g>
</g>
</svg>
