<?xml version="1.0" encoding="utf-8"?>
<!-- Generator: Adobe Illustrator 26.0.0, SVG Export Plug-In . SVG Version: 6.00 Build 0)  -->
<svg version="1.1" id="圖層_1" xmlns="http://www.w3.org/2000/svg" xmlns:xlink="http://www.w3.org/1999/xlink" x="0px" y="0px"
	 viewBox="0 0 50 50" style="enable-background:new 0 0 50 50;" xml:space="preserve">
<style type="text/css">
	.st0{fill:#4F3934;}
</style>
<g>
	<path class="st0" d="M33.74,49.49c-3.16,0-6.32,0.07-9.48-0.01c-7.4-0.2-13.82-5.27-15.8-12.41c-0.15-0.55-0.28-1.11-0.36-1.68
		c-0.06-0.45-0.22-0.61-0.71-0.63c-3.31-0.17-6.13-2.62-6.75-5.8c-0.87-4.45,2.06-8.36,6.66-8.86c0.46-0.05,0.56-0.19,0.55-0.61
		c-0.08-2.6,0.03-5.18,0.98-7.63c2.38-6.11,6.76-9.95,13.23-11.12C31.3-0.94,39.99,5.09,41.86,14.3c0.35,1.72,0.33,3.47,0.3,5.21
		c-0.01,0.41,0.08,0.53,0.52,0.58c3.57,0.38,6.07,2.66,6.75,6.1c0.81,4.11-2.42,8.31-6.61,8.56c-0.51,0.03-0.68,0.16-0.66,0.69
		c0.04,1.47,0.04,2.95-0.01,4.43c-0.04,1.18-0.94,2.12-2.07,2.26c-1.24,0.15-2.3-0.5-2.7-1.65c-0.11-0.32-0.12-0.64-0.12-0.96
		c0-2.32-0.01-4.64,0-6.96c0.01-1.69,0.99-2.65,2.69-2.66c0.67,0,1.34,0.01,2.01,0c1.57-0.02,2.67-1.06,2.65-2.48
		c-0.03-1.41-1.12-2.41-2.66-2.42c-0.73,0-1.46,0-2.18,0c-1.55,0-2.58-1.19-2.54-2.75c0.06-2.2,0.18-4.41-0.14-6.6
		c-0.72-4.99-4.94-9.28-9.92-10.08c-6.71-1.08-12.73,3.02-14.18,9.65c-0.2,0.94-0.24,1.9-0.25,2.86c-0.01,1.64,0.04,3.29-0.06,4.93
		c-0.07,1.15-1.15,1.98-2.29,1.99c-0.82,0.01-1.65-0.01-2.47,0C6.5,25,5.44,26,5.39,27.36c-0.05,1.33,0.96,2.42,2.38,2.51
		c0.78,0.05,1.57,0.01,2.36,0.02c1.64,0.02,2.67,1.09,2.65,2.73c-0.08,5.67,4.27,10.93,9.85,11.92c0.87,0.15,1.74,0.23,2.63,0.23
		c6.4-0.01,12.8-0.01,19.2,0c1.58,0,2.66,1.07,2.63,2.56c-0.03,1.15-0.92,2.16-2.07,2.35c-0.37,0.06-0.67-0.17-1.04-0.17
		c-3.41,0.03-6.82,0.02-10.23,0.02C33.74,49.51,33.74,49.5,33.74,49.49z"/>
	<g>
		<path class="st0" d="M33.74,49.24c-5.69,0.01-11.84,0.8-17.01-2.07c-2.16-1.2-4.05-2.87-5.5-4.88c-0.61-0.85-1.14-1.75-1.58-2.69
			c-0.66-1.41-0.85-2.82-1.32-4.27c-0.19-0.6-0.35-0.68-0.95-0.82C5.9,34.16,4.65,33.98,3.41,33c-2.08-1.64-3.06-4.33-2.57-6.93
			c0.46-2.43,2.2-4.41,4.51-5.27c0.64-0.24,1.27-0.29,1.93-0.46c0.23-0.06,0.45-0.05,0.63-0.24c0.52-0.57,0.14-2.19,0.16-2.91
			c0.19-5.22,2.77-10.4,7.09-13.43c3.87-2.72,9.02-3.7,13.63-2.66c4.6,1.04,8.61,4.05,10.92,8.15c1.37,2.42,2.1,5.1,2.19,7.88
			c0.02,0.71-0.01,1.43,0.01,2.14c0,0.25-0.04,0.57,0.12,0.79c0.42,0.55,1.82,0.46,2.42,0.67c5.23,1.75,6.42,8.73,2.2,12.22
			c-1.15,0.96-2.4,1.31-3.84,1.55c-0.51,0.09-0.75,0.15-0.9,0.67c-0.18,0.61,0.01,1.61,0.01,2.24c0,0.73,0.03,1.48-0.03,2.21
			c-0.08,1.01-0.53,1.91-1.56,2.2c-1.13,0.31-2.35-0.3-2.72-1.42c-0.24-0.73-0.11-1.64-0.11-2.39c0-0.75,0-1.49,0-2.24
			c0-1.4-0.46-3.78,0.55-4.92c1.49-1.68,4.33,0.07,6-1.52c1.12-1.06,1.04-2.97-0.15-3.95c-1.84-1.52-5.49,0.57-6.33-2.28
			c-0.41-1.4-0.02-3.2-0.04-4.65c-0.02-1.31-0.1-2.65-0.41-3.93c-0.51-2.09-1.62-4.02-3.1-5.56c-2.98-3.1-7.31-4.43-11.53-3.59
			c-4.02,0.8-7.4,3.6-8.99,7.37c-1.07,2.53-1,5.08-1.01,7.78c-0.01,1.94,0.19,4.08-2.36,4.2c-1.18,0.06-2.53-0.24-3.62,0.36
			c-1.39,0.76-1.8,2.66-0.86,3.93c1.6,2.16,4.87-0.02,6.39,2c0.7,0.93,0.44,2.32,0.6,3.42c0.16,1.06,0.46,2.09,0.89,3.07
			c0.86,1.95,2.22,3.68,3.91,4.98c4.47,3.44,10.4,2.53,15.68,2.53c3.28,0,6.56,0,9.85,0c1.41,0,3.16-0.15,3.74,1.48
			c0.33,0.94-0.05,2.04-0.88,2.59c-0.73,0.48-1.75,0.16-2.59,0.17c-3.17,0.02-6.33,0.01-9.5,0.01c0.08,0.08,0.17,0.17,0.25,0.25
			c0-0.01,0-0.01,0-0.02c0-0.32-0.5-0.32-0.5,0c0,0.01,0,0.01,0,0.02c0,0.14,0.11,0.25,0.25,0.25c1.71,0,3.41,0,5.12,0
			c1.84,0,3.75-0.13,5.57,0.08c1.78,0.2,3.22-1.41,2.84-3.2c-0.5-2.32-2.94-2.13-4.79-2.13c-3.45,0-6.89,0-10.34,0
			c-3.3,0-6.91,0.42-10.14-0.36c-2.66-0.64-5.02-2.3-6.64-4.49c-0.78-1.06-1.4-2.24-1.8-3.49c-0.44-1.37-0.4-2.67-0.57-4.06
			c-0.29-2.35-2.36-2.45-4.28-2.47C7.8,29.63,6.87,29.62,6.2,28.9c-0.66-0.7-0.74-1.82-0.23-2.63c1.04-1.66,3.24-0.79,4.82-1.08
			c2.71-0.49,2.21-3.59,2.2-5.66c-0.01-3.11,0.3-5.95,2.05-8.6c1.4-2.11,3.47-3.74,5.85-4.6c5.28-1.89,11.24,0.13,14.26,4.86
			c1.69,2.65,1.94,5.6,1.89,8.67c-0.03,1.86-0.48,4.39,1.75,5.19c1.21,0.43,2.55-0.04,3.78,0.23c2.14,0.46,2.43,3.42,0.34,4.18
			c-1.8,0.66-4.38-0.61-5.53,1.51c-0.57,1.05-0.36,2.42-0.36,3.55c0,1.74-0.15,3.57,0.01,5.29c0.16,1.72,1.73,2.95,3.46,2.47
			c2.53-0.69,1.98-3.9,1.95-5.87c-0.01-0.91-0.07-1.22,0.81-1.46c0.56-0.16,1.1-0.2,1.65-0.4c0.98-0.37,1.88-0.97,2.62-1.71
			c3.08-3.06,3-8.26-0.31-11.14c-0.72-0.62-1.55-1.1-2.44-1.41c-0.54-0.19-1.13-0.22-1.66-0.4c-0.3-0.1,0,0.71-0.69-0.38
			c-0.2-0.32,0.02-1.51,0.01-1.9c-0.04-2.57-0.55-5.06-1.65-7.4c-1.86-3.98-5.23-7.17-9.31-8.8c-4.33-1.72-9.24-1.55-13.52,0.26
			c-4.22,1.78-7.29,5.22-9.07,9.38c-0.53,1.23-0.9,2.49-1.09,3.82c-0.09,0.62-0.15,1.25-0.18,1.87c-0.02,0.46-0.03,0.91-0.04,1.37
			c0,0.34,0.17,1.12,0.02,1.37c-0.28,0.48-1.26,0.5-1.72,0.63c-0.45,0.12-0.88,0.29-1.3,0.48c-0.97,0.45-1.84,1.11-2.54,1.92
			c-2.76,3.21-2.23,8.28,1.09,10.89c0.83,0.65,1.8,1.13,2.82,1.39c0.56,0.14,1.59,0.11,1.92,0.67c0.35,0.59,0.35,1.69,0.57,2.36
			c0.69,2.14,1.81,4.14,3.27,5.86c2.97,3.49,7.28,5.69,11.86,6.01c3.38,0.24,6.81,0.05,10.2,0.05
			C34.06,49.74,34.06,49.24,33.74,49.24z"/>
	</g>
</g>
<g>
	<path class="st0" d="M25,34.39c-1.46,0-2.91,0-4.37,0c-0.22,0-0.46,0.05-0.44-0.32c0.06-1.75-0.13-3.51,0.1-5.25
		c0.31-2.3,2.37-4.01,4.73-4c2.33,0.01,4.37,1.72,4.68,4c0.23,1.74,0.04,3.5,0.1,5.25c0.01,0.36-0.21,0.32-0.44,0.32
		C27.91,34.39,26.46,34.39,25,34.39z"/>
	<g>
		<path class="st0" d="M25,33.64c-0.82,0-1.65,0-2.47,0c-0.38,0-0.76,0-1.14,0c-0.19,0-0.38,0-0.57,0c-0.09,0-0.19,0-0.28,0
			c-0.11,0.01-0.12,0-0.05-0.01c0.11,0.06,0.22,0.13,0.33,0.19c-0.02-0.02-0.04-0.04-0.06-0.06c0.06,0.11,0.13,0.22,0.19,0.33
			c-0.11-0.29-0.01-0.83-0.01-1.15c0-0.47-0.02-0.94-0.02-1.41c-0.01-0.88-0.03-1.78,0.11-2.65c0.19-1.19,0.92-2.21,1.97-2.8
			c2.16-1.22,5.12-0.16,5.84,2.27c0.25,0.86,0.24,1.81,0.23,2.7c0,0.53-0.02,1.06-0.02,1.6c0,0.25-0.01,0.5-0.01,0.75
			c0,0.2,0.06,0.49,0,0.68c0.06-0.11,0.13-0.22,0.19-0.33c0.27-0.09,0.31-0.13,0.13-0.12c-0.06,0-0.13,0-0.19,0
			c-0.19,0-0.38,0-0.57,0c-0.41,0-0.82,0-1.23,0C26.58,33.64,25.79,33.64,25,33.64c-0.97,0-0.97,1.5,0,1.5c1.48,0,2.98,0.07,4.46,0
			c0.58-0.03,1.03-0.33,1.08-0.94c0.07-0.78,0-1.6,0.02-2.39c0.02-1.3,0.09-2.72-0.32-3.98c-0.35-1.06-1.01-1.97-1.9-2.64
			c-1.75-1.33-4.19-1.48-6.1-0.4c-0.92,0.52-1.72,1.33-2.18,2.28c-0.58,1.18-0.64,2.51-0.64,3.81c0,0.81,0.03,1.63,0.03,2.44
			c0,0.66-0.13,1.57,0.71,1.78c0.33,0.08,0.71,0.04,1.04,0.04c0.38,0,0.76,0,1.14,0c0.89,0,1.77,0,2.66,0
			C25.97,35.14,25.97,33.64,25,33.64z"/>
	</g>
</g>
<g>
	<path class="st0" d="M20.23,20.04c-1.32,0.01-2.39-1.04-2.41-2.35c-0.01-1.35,1.03-2.43,2.38-2.44c1.33-0.01,2.43,1.08,2.42,2.4
		C22.61,18.96,21.54,20.03,20.23,20.04z"/>
	<g>
		<path class="st0" d="M20.23,19.29c-0.07,0-0.13,0-0.2-0.01c-0.15-0.01-0.03,0,0,0c-0.11-0.02-0.21-0.04-0.32-0.07
			c-0.06-0.02-0.12-0.04-0.18-0.06c0.03,0.01,0.13,0.06,0,0c-0.11-0.06-0.22-0.12-0.33-0.19c-0.12-0.08-0.02-0.02,0,0
			c-0.05-0.04-0.1-0.08-0.14-0.13c-0.03-0.03-0.06-0.06-0.09-0.09c-0.02-0.02-0.15-0.18-0.04-0.04c-0.06-0.08-0.12-0.17-0.17-0.27
			c-0.02-0.04-0.04-0.08-0.06-0.11c-0.08-0.15,0.02,0.09-0.02-0.06c-0.03-0.1-0.07-0.2-0.09-0.31c-0.01-0.03-0.02-0.24-0.01-0.06
			c0-0.04-0.01-0.09-0.01-0.13c0-0.11,0-0.22,0.01-0.33c0.02-0.21-0.04,0.14,0.01-0.06c0.02-0.06,0.03-0.13,0.05-0.19
			c0.01-0.04,0.02-0.08,0.04-0.12c0.01-0.03,0.1-0.21,0.02-0.05c0.05-0.09,0.09-0.18,0.15-0.27c0.02-0.03,0.05-0.07,0.07-0.1
			c0.11-0.16-0.1,0.1,0.04-0.04c0.08-0.08,0.18-0.15,0.24-0.24c0.06-0.08-0.13,0.08,0.02-0.01c0.03-0.02,0.07-0.05,0.1-0.07
			c0.09-0.06,0.18-0.1,0.27-0.15c-0.16,0.08,0.03-0.01,0.05-0.02c0.04-0.01,0.08-0.03,0.12-0.04c0.06-0.02,0.12-0.03,0.19-0.04
			c0.16-0.04-0.12,0,0.06-0.01c0.11-0.01,0.22-0.01,0.33-0.01c0.04,0,0.09,0.01,0.13,0.01c-0.18-0.02,0.03,0.01,0.06,0.02
			c0.11,0.02,0.21,0.06,0.31,0.09c0.03,0.01,0.12,0.06,0,0c0.07,0.03,0.13,0.07,0.2,0.1c0.08,0.05,0.16,0.1,0.24,0.16
			c-0.13-0.09,0.09,0.09,0.13,0.13c0.04,0.05,0.09,0.09,0.13,0.14c0.09,0.1,0.02,0.02,0,0c0.07,0.11,0.13,0.21,0.2,0.32
			c0.1,0.17-0.02-0.09,0.01,0.02c0.02,0.05,0.04,0.1,0.05,0.15c0.03,0.1,0.05,0.21,0.07,0.31c-0.03-0.15,0-0.04,0,0
			c0,0.07,0.01,0.13,0.01,0.2c0,0.04,0,0.09,0,0.13c0,0.04-0.01,0.09-0.01,0.13c0.01-0.08,0.01-0.09,0-0.04
			c-0.03,0.11-0.06,0.23-0.09,0.34c-0.06,0.19,0.07-0.12-0.02,0.06c-0.03,0.06-0.06,0.11-0.09,0.17c-0.03,0.05-0.06,0.09-0.08,0.13
			c-0.02,0.03-0.04,0.05-0.05,0.08c0.05-0.07,0.05-0.07,0,0c-0.08,0.08-0.16,0.17-0.24,0.25c-0.03,0.03-0.14,0.11-0.02,0.02
			c-0.05,0.04-0.1,0.07-0.16,0.11c-0.05,0.03-0.11,0.06-0.17,0.09c-0.03,0.02-0.21,0.08-0.06,0.03c-0.12,0.04-0.25,0.07-0.37,0.11
			c-0.03,0.01-0.15,0.03,0,0C20.41,19.28,20.32,19.28,20.23,19.29c-0.39,0.01-0.77,0.34-0.75,0.75c0.02,0.4,0.33,0.76,0.75,0.75
			c1.35-0.03,2.5-0.87,2.97-2.13c0.44-1.2,0.02-2.63-0.97-3.42c-1.03-0.83-2.5-0.99-3.65-0.28c-1.14,0.7-1.68,2.03-1.44,3.33
			c0.26,1.46,1.64,2.49,3.09,2.5c0.39,0,0.77-0.35,0.75-0.75C20.96,19.63,20.65,19.29,20.23,19.29z"/>
	</g>
</g>
<g>
	<path class="st0" d="M29.77,15.25c1.32-0.01,2.39,1.04,2.4,2.36c0.01,1.35-1.04,2.43-2.38,2.43c-1.33,0-2.43-1.09-2.42-2.41
		C27.39,16.32,28.46,15.26,29.77,15.25z"/>
	<g>
		<path class="st0" d="M29.77,16c0.07,0,0.13,0,0.2,0.01c0.14,0.01,0.03,0,0,0c0.11,0.02,0.21,0.04,0.31,0.07
			c0.06,0.02,0.12,0.04,0.18,0.06c-0.03-0.01-0.13-0.06-0.01,0c0.11,0.06,0.22,0.12,0.32,0.19c0.16,0.1-0.05-0.07,0.02,0.01
			c0.03,0.04,0.08,0.07,0.12,0.1c0.07,0.07,0.14,0.15,0.21,0.23c-0.09-0.11-0.02-0.03-0.01,0c0.03,0.05,0.07,0.1,0.1,0.16
			c0.02,0.04,0.04,0.07,0.06,0.11c0.02,0.04,0.04,0.07,0.05,0.11c-0.03-0.07-0.04-0.08-0.02-0.03c0.01,0.1,0.07,0.2,0.09,0.31
			c0.01,0.04,0.03,0.18,0.01,0.02c0.01,0.05,0.01,0.11,0.01,0.16c0.01,0.11-0.01,0.22-0.01,0.33c0,0.12,0.04-0.17,0,0.03
			c-0.01,0.06-0.02,0.13-0.04,0.19c-0.02,0.06-0.04,0.12-0.06,0.18c-0.01,0.03-0.05,0.14,0.01,0c-0.04,0.1-0.09,0.19-0.14,0.28
			c-0.02,0.04-0.07,0.09-0.08,0.13c-0.04,0.1,0.11-0.12-0.01,0.02c-0.08,0.09-0.17,0.18-0.26,0.26c-0.1,0.09-0.02,0.02,0.01,0
			c-0.05,0.04-0.1,0.07-0.15,0.1c-0.09,0.06-0.18,0.1-0.27,0.15c0.03-0.01,0.14-0.05,0.01,0c-0.06,0.02-0.12,0.04-0.18,0.06
			c-0.04,0.01-0.08,0.02-0.12,0.03c-0.04,0.01-0.08,0.02-0.13,0.02c0.08-0.01,0.09-0.01,0.04-0.01c-0.1,0-0.2,0.01-0.3,0.01
			c-0.07,0-0.13-0.01-0.2-0.01c0.15,0.01,0.04,0.01,0,0c-0.11-0.03-0.21-0.05-0.31-0.08c-0.03-0.01-0.21-0.09-0.06-0.02
			c-0.06-0.03-0.11-0.06-0.17-0.09c-0.09-0.05-0.18-0.11-0.27-0.17c0.12,0.09,0.01,0-0.02-0.02c-0.04-0.04-0.08-0.07-0.11-0.11
			c-0.03-0.04-0.07-0.09-0.11-0.12c-0.08-0.06,0.08,0.13-0.02-0.02c-0.07-0.11-0.13-0.21-0.19-0.33c-0.02-0.03-0.06-0.13,0,0.01
			c-0.02-0.06-0.04-0.12-0.06-0.18c-0.03-0.09-0.04-0.19-0.07-0.28c-0.03-0.12,0,0.17,0-0.03c0-0.06-0.01-0.11-0.01-0.17
			c0-0.06,0.01-0.11,0.01-0.17c0-0.18-0.03,0.09,0.01-0.06c0.03-0.13,0.06-0.25,0.1-0.38c0.06-0.18-0.05,0.07,0.01-0.03
			c0.04-0.06,0.07-0.13,0.1-0.2c0.02-0.04,0.04-0.07,0.07-0.11c0.02-0.04,0.05-0.07,0.07-0.1c-0.05,0.07-0.05,0.07,0,0
			c0.07-0.08,0.14-0.15,0.22-0.22c0.02-0.02,0.18-0.14,0.05-0.04c0.05-0.04,0.1-0.07,0.16-0.11c0.05-0.03,0.11-0.06,0.17-0.09
			c0.03-0.02,0.21-0.08,0.06-0.03c0.12-0.04,0.25-0.07,0.37-0.11c0.03-0.01,0.15-0.02,0,0C29.59,16.01,29.68,16,29.77,16
			c0.39-0.01,0.77-0.34,0.75-0.75c-0.02-0.4-0.33-0.76-0.75-0.75c-1.35,0.03-2.51,0.86-2.97,2.12c-0.46,1.24,0.01,2.68,1.04,3.48
			c1.02,0.8,2.49,0.92,3.6,0.22c1.13-0.71,1.66-2.04,1.42-3.33c-0.28-1.45-1.64-2.47-3.08-2.48c-0.39,0-0.77,0.35-0.75,0.75
			C29.04,15.66,29.35,16,29.77,16z"/>
	</g>
</g>
</svg>
