<?xml version="1.0" encoding="utf-8"?>
<!-- Generator: Adobe Illustrator 26.0.0, SVG Export Plug-In . SVG Version: 6.00 Build 0)  -->
<svg version="1.1" id="圖層_1" xmlns="http://www.w3.org/2000/svg" xmlns:xlink="http://www.w3.org/1999/xlink" x="0px" y="0px"
	 viewBox="0 0 50 50" style="enable-background:new 0 0 50 50;" xml:space="preserve">
<style type="text/css">
	.st0{fill:#4F3934;}
</style>
<g>
	<path class="st0" d="M7.52,30.17c0-5.56,0-11.13,0-16.69c0-1.49,0.66-2.14,2.16-2.14c1.92,0,3.84-0.03,5.76,0.02
		c0.64,0.02,0.77-0.19,0.73-0.77c-0.09-1.43,0.08-2.83,0.64-4.17c1.58-3.78,5.41-5.94,9.55-5.36c3.81,0.53,6.88,3.74,7.38,7.69
		c0.09,0.7,0.09,1.4,0.06,2.1c-0.01,0.4,0.11,0.5,0.5,0.5c2.02-0.02,4.04-0.01,6.06-0.01c1.4,0,2.09,0.69,2.09,2.1
		c0,11.17,0,22.34,0,33.51c0,1.44-0.69,2.14-2.12,2.14c-10.25,0-20.5,0-30.74,0c-1.4,0-2.08-0.69-2.08-2.11
		C7.52,41.38,7.52,35.78,7.52,30.17z M11.13,30.23c0,4.9,0.01,9.81-0.01,14.71c0,0.43,0.07,0.62,0.54,0.56
		c0.37-0.05,0.76-0.01,1.14-0.01c8.49,0,16.97,0,25.46,0.01c0.4,0,0.63,0,0.62-0.55c-0.02-9.83-0.02-19.66-0.01-29.48
		c0-0.42-0.1-0.54-0.53-0.53c-1.36,0.03-2.72,0.03-4.08,0c-0.39-0.01-0.46,0.12-0.45,0.47c0.02,1.28,0.01,2.56,0.01,3.84
		c-0.01,1.15-0.76,1.97-1.81,1.98c-1.06,0-1.79-0.8-1.8-1.97c-0.01-1.28-0.01-2.56,0.01-3.84c0.01-0.36-0.08-0.48-0.46-0.48
		c-3.18,0.02-6.36,0.02-9.55,0c-0.38,0-0.47,0.1-0.46,0.47c0.02,1.28,0.01,2.56,0.01,3.84c-0.01,1.16-0.76,1.98-1.8,1.98
		c-1.06,0.01-1.8-0.8-1.8-1.97c-0.01-1.22-0.02-2.44,0.01-3.66c0.01-0.5-0.07-0.7-0.64-0.67c-1.28,0.05-2.56,0.04-3.84,0
		c-0.47-0.01-0.59,0.11-0.59,0.59C11.14,20.42,11.13,25.33,11.13,30.23z M24.97,11.34c1.22,0,2.44,0,3.66,0c1.64,0,1.64,0,1.59-1.68
		c-0.08-2.64-2-4.76-4.61-5.11c-2.49-0.33-4.92,1.28-5.65,3.75c-0.24,0.82-0.16,1.66-0.2,2.5c-0.02,0.41,0.09,0.55,0.52,0.54
		C21.85,11.33,23.41,11.34,24.97,11.34z"/>
	<g>
		<path class="st0" d="M8.27,30.17c0-5.48-0.06-10.97,0-16.45c0.01-1.25,0.41-1.62,1.65-1.63c1.36-0.02,2.72-0.02,4.08-0.01
			c0.74,0.01,1.8,0.25,2.44-0.24c0.61-0.46,0.47-1.22,0.46-1.9c-0.02-4.64,3.74-8.34,8.37-8.23c4.47,0.1,7.75,3.94,7.79,8.29
			c0.01,0.64-0.16,1.46,0.46,1.89c0.75,0.52,2.26,0.19,3.11,0.19c1.23,0,2.5-0.08,3.73,0c1.55,0.11,1.34,1.33,1.34,2.59
			c0,5.42,0,10.84,0,16.26c0,2.71,0,5.42,0,8.13c0,1.31,0,2.63,0,3.94c0,1.38,0.19,2.9-0.01,4.26c-0.19,1.26-1.35,1.07-2.35,1.07
			c-1.4,0-2.81,0-4.21,0c-2.73,0-5.45,0-8.18,0c-3.06,0-6.12,0-9.17,0c-1.57,0-3.14,0-4.71,0c-0.74,0-1.49,0-2.23,0
			c-0.55,0-1.44,0.15-1.96-0.1c-1.1-0.55-0.62-2.97-0.62-3.97c0-1.57,0-3.13,0-4.7C8.27,36.44,8.27,33.31,8.27,30.17
			c0-0.97-1.5-0.97-1.5,0c0,3.21,0,6.43,0,9.64c0,1.48,0,2.97,0,4.45c0,1.25-0.24,2.77,0.21,3.97c0.81,2.2,3.79,1.61,5.6,1.61
			c3.14,0,6.28,0,9.42,0s6.28,0,9.42,0c3.04,0,6.22,0.26,9.24-0.01c1.96-0.18,2.54-1.59,2.56-3.37c0.03-3.2,0-6.41,0-9.61
			c0-6.32,0-12.65,0-18.97c0-1.47,0.07-2.96,0-4.44c-0.04-0.86-0.23-1.71-0.93-2.27c-0.69-0.55-1.54-0.58-2.38-0.58
			c-1.55-0.01-3.11-0.01-4.67,0c-0.19,0-1.1-0.21-0.81,0.13c0.32,0.38,0.14-0.6,0.14-0.71c-0.01-0.49-0.04-0.97-0.1-1.46
			c-0.15-1.12-0.5-2.2-1.02-3.21c-0.98-1.89-2.61-3.46-4.55-4.32c-3.9-1.74-8.7-0.58-11.37,2.75c-0.73,0.91-1.29,1.95-1.66,3.06
			c-0.22,0.67-0.35,1.36-0.42,2.06c-0.03,0.32,0.13,1.57-0.01,1.72c-0.18,0.2-2.34-0.03-2.64-0.03c-0.88,0-1.76,0-2.64,0.01
			c-0.94,0.01-1.94,0.03-2.65,0.73c-0.72,0.71-0.73,1.7-0.74,2.65c-0.01,1.8,0,3.6,0,5.4c0,3.6,0,7.2,0,10.8
			C6.77,31.14,8.27,31.14,8.27,30.17z"/>
		<path class="st0" d="M10.38,30.23c0,2.78,0,5.56,0,8.34c0,1.31,0,2.62,0,3.92c0,0.9-0.26,2.27,0.12,3.11
			c0.31,0.68,0.89,0.63,1.55,0.62c1.42-0.01,2.84,0.01,4.26,0.01c2.75,0,5.49,0,8.24,0c2.75,0,5.49,0,8.24,0c1.33,0,2.66,0,3.99,0
			c0.71,0,1.87,0.24,2.47-0.28c0.6-0.51,0.4-1.58,0.4-2.26c0-1.42,0-2.83-0.01-4.25c0-2.83-0.01-5.66-0.01-8.5c0-2.67,0-5.33,0-8
			c0-1.33,0-2.67,0-4c0-0.67,0-1.33,0-2c0-0.6,0.14-1.38-0.05-1.96c-0.2-0.61-0.64-0.76-1.23-0.82c-1.23-0.13-2.61-0.03-3.86,0
			c-2.11,0.05-1.41,2.6-1.42,4.1c0,0.58,0.12,1.38-0.3,1.85c-0.43,0.47-1.19,0.42-1.58-0.06c-0.36-0.44-0.23-1.26-0.23-1.78
			c0-0.72,0-1.44,0-2.16c0.01-0.66,0.11-1.39-0.52-1.78c-0.75-0.47-2.22-0.16-3.07-0.16c-1.27,0-2.55,0-3.82,0
			c-0.64,0-1.27,0-1.91,0c-0.56,0-1.32-0.14-1.86,0.04c-0.52,0.18-0.71,0.54-0.77,1.06c-0.16,1.3,0.17,2.66,0,3.96
			c-0.1,0.75-0.64,1.56-1.52,1.13c-0.66-0.32-0.58-1.2-0.58-1.8c0-0.69-0.01-1.37,0-2.06c0.01-0.48,0.12-1.1-0.06-1.57
			c-0.31-0.79-1.06-0.76-1.78-0.75c-0.8,0.01-1.6,0.02-2.4,0.01c-0.49-0.01-1.07-0.12-1.54,0.06c-0.85,0.33-0.76,1.22-0.76,1.99
			c0.01,1.55,0.01,3.11,0.01,4.66C10.38,24.02,10.38,27.13,10.38,30.23c0,0.97,1.5,0.97,1.5,0c0-2.53,0-5.07,0-7.6
			c0-1.23,0-2.45,0-3.68c0-0.57,0-1.14,0-1.72c0-0.25,0-0.49,0-0.74c0-0.25,0-0.49,0-0.74c0.06-0.3,0-0.33-0.16-0.08
			c0.3-0.17,1.36,0.03,1.68,0.03c0.55,0,1.14,0.06,1.68-0.02c0.18-0.02,0.58,0.13,0.37-0.09c0.05,0.05-0.02,0.93-0.02,0.92
			c-0.01,0.61,0,1.22,0,1.83c0.01,1.49,0.2,3.12,1.91,3.55c1.29,0.33,2.6-0.4,3.03-1.66c0.31-0.91,0.18-1.97,0.18-2.91
			c0-0.41,0.19-1.33-0.01-1.68c0-0.08,0-0.16,0-0.24c-0.39,0.24-0.4,0.34-0.05,0.28c0.25,0.14,0.88,0,1.19,0.01
			c2.39,0.01,4.77,0.01,7.16,0c0.14,0,0.78-0.08,0.95,0c-0.42-0.17-0.14-0.63-0.3,0.21c-0.1,0.53-0.01,1.14-0.01,1.68
			c0,0.94-0.14,2.02,0.26,2.91c0.55,1.24,2,1.81,3.26,1.29c1.67-0.68,1.59-2.45,1.6-3.97c0-0.6,0.09-1.33-0.01-1.92
			c-0.03-0.19,0.15-0.67-0.16-0.34c-0.35,0.36,0.29,0.15,0.53,0.15c0.53,0.01,1.06,0.01,1.59,0.01c0.3,0,0.6,0,0.91-0.01
			c0.19,0,1.09,0.15,0.79-0.12c-0.27-0.24-0.09,0.22-0.11,0.39c-0.04,0.31,0,0.68,0,1c0,0.67,0,1.33,0,2c0,1.33,0,2.67,0,4
			c0,5.08,0,10.16,0,15.24c0,1.17,0,2.33,0,3.5c0,0.67,0,1.33,0,2c0,0.25-0.02,0.5,0,0.75c0.06,0.89,0.2,0.25-0.12,0.3
			c-1.18,0.18-2.55,0-3.74,0c-1.33,0-2.66,0-3.99,0c-5.66,0-11.31,0.02-16.97,0c-0.29,0-0.59-0.01-0.88-0.01
			c-0.13,0-0.98-0.12-0.66,0.11c0.32,0.23,0.1-0.43,0.1-0.64c0-0.41,0-0.82,0-1.23c0-1.39,0-2.78,0.01-4.17c0-2.86,0-5.72,0-8.58
			C11.88,29.27,10.38,29.26,10.38,30.23z"/>
		<path class="st0" d="M24.97,12.09c1.39,0,2.79,0.03,4.18,0c0.73-0.02,1.49-0.15,1.75-0.94c0.25-0.79,0.1-1.89-0.07-2.68
			C30.6,7.45,30.1,6.5,29.4,5.72c-1.44-1.6-3.76-2.3-5.85-1.78c-2.14,0.53-3.97,2.37-4.4,4.55c-0.15,0.78-0.18,1.65-0.14,2.45
			c0.03,0.59,0.35,1.02,0.94,1.13c0.75,0.14,1.6,0.01,2.37,0.01C23.2,12.09,24.09,12.09,24.97,12.09c0.97,0,0.97-1.5,0-1.5
			c-1.19,0-2.38-0.01-3.56,0c-0.3,0-0.61,0-0.92,0.01c-0.02,0-0.24-0.01-0.25,0.01c0.05,0.05,0.09,0.11,0.14,0.16
			c0.12,0.21,0.16,0.22,0.14,0.04c0.09-0.16,0.01-0.59,0.02-0.77c0-0.32,0-0.64,0.04-0.96c0.2-1.63,1.49-3.08,3.03-3.59
			C25.09,5,26.79,5.35,27.96,6.4c1.2,1.08,1.56,2.53,1.53,4.1c0,0.08-0.01,0.22-0.03,0.22c-0.03,0,0.17-0.22,0.14-0.16
			c0,0-0.09,0.01-0.14,0.02c-0.18,0.02-0.37,0.01-0.55,0.01c-1.31,0.01-2.62,0-3.94,0C24,10.59,24,12.09,24.97,12.09z"/>
	</g>
</g>
</svg>
