<?xml version="1.0" encoding="utf-8"?>
<!-- Generator: Adobe Illustrator 26.0.0, SVG Export Plug-In . SVG Version: 6.00 Build 0)  -->
<svg version="1.1" id="圖層_1" xmlns="http://www.w3.org/2000/svg" xmlns:xlink="http://www.w3.org/1999/xlink" x="0px" y="0px"
	 viewBox="0 0 50 50" style="enable-background:new 0 0 50 50;" xml:space="preserve">
<style type="text/css">
	.st0{fill:#4F3934;}
</style>
<path class="st0" d="M9.47,28.56c0-4.52,0-9.05,0-13.57c0-1.21,0.53-1.74,1.76-1.74c1.56,0,3.12-0.03,4.68,0.01
	c0.52,0.01,0.62-0.15,0.59-0.62c-0.07-1.16,0.07-2.3,0.52-3.39c1.28-3.08,4.4-4.83,7.76-4.36c3.1,0.43,5.59,3.04,6,6.25
	c0.07,0.57,0.07,1.14,0.05,1.7c-0.01,0.33,0.09,0.41,0.41,0.41c1.64-0.02,3.29-0.01,4.93-0.01c1.14,0,1.7,0.56,1.7,1.71
	c0,9.08,0,18.16,0,27.24c0,1.17-0.56,1.74-1.73,1.74c-8.33,0-16.66,0-24.99,0c-1.14,0-1.69-0.56-1.69-1.71
	C9.47,37.67,9.47,33.11,9.47,28.56z M12.4,28.61c0,3.99,0,7.97-0.01,11.96c0,0.35,0.06,0.5,0.44,0.45c0.3-0.04,0.62-0.01,0.93-0.01
	c6.9,0,13.79,0,20.69,0c0.33,0,0.51,0,0.51-0.44c-0.02-7.99-0.01-15.98,0-23.96c0-0.34-0.08-0.44-0.43-0.43
	c-1.11,0.02-2.21,0.02-3.32,0c-0.32-0.01-0.37,0.1-0.37,0.39c0.02,1.04,0.01,2.08,0.01,3.12c-0.01,0.94-0.62,1.61-1.47,1.61
	c-0.86,0-1.46-0.65-1.46-1.6c0-1.04-0.01-2.08,0.01-3.12c0-0.29-0.06-0.39-0.37-0.39c-2.59,0.01-5.17,0.01-7.76,0
	c-0.31,0-0.38,0.08-0.37,0.38c0.02,1.04,0.01,2.08,0.01,3.12c-0.01,0.94-0.62,1.61-1.46,1.61c-0.86,0-1.46-0.65-1.46-1.6
	c0-0.99-0.02-1.99,0.01-2.98c0.01-0.4-0.06-0.57-0.52-0.55c-1.04,0.04-2.08,0.03-3.12,0c-0.38-0.01-0.48,0.09-0.48,0.48
	C12.4,20.63,12.4,24.62,12.4,28.61z M23.65,13.25c0.99,0,1.98,0,2.98,0c1.34,0,1.34,0,1.29-1.36c-0.07-2.14-1.62-3.87-3.74-4.15
	c-2.03-0.27-4,1.04-4.59,3.05c-0.2,0.67-0.13,1.35-0.17,2.03c-0.02,0.33,0.07,0.45,0.42,0.44C21.11,13.24,22.38,13.25,23.65,13.25z"
	/>
</svg>
