<?xml version="1.0" encoding="utf-8"?>
<!-- Generator: Adobe Illustrator 26.0.0, SVG Export Plug-In . SVG Version: 6.00 Build 0)  -->
<svg version="1.1" id="圖層_1" xmlns="http://www.w3.org/2000/svg" xmlns:xlink="http://www.w3.org/1999/xlink" x="0px" y="0px"
	 viewBox="0 0 50 50" style="enable-background:new 0 0 50 50;" xml:space="preserve">
<style type="text/css">
	.st0{fill:#4F3934;}
</style>
<path class="st0" d="M26.03,45.83c-5.08,0-10.15-0.03-15.23,0.02c-1.73,0.02-2.56-1.14-2.49-2.49c0.06-1.12,0-2.24,0.02-3.37
	c0.01-0.32-0.08-0.43-0.4-0.41c-0.55,0.03-1.11,0.02-1.66,0c-1.23-0.04-2.1-0.93-2.09-2.11c0.01-1.16,0.88-2.02,2.09-2.05
	c0.55-0.02,1.11-0.02,1.66,0c0.28,0.01,0.41-0.04,0.4-0.37c-0.02-1.15-0.02-2.31,0-3.47c0-0.29-0.09-0.35-0.36-0.34
	c-0.55,0.02-1.11,0.01-1.66,0c-1.22-0.01-2.13-0.89-2.13-2.06c-0.01-1.17,0.89-2.08,2.09-2.12c0.57-0.02,1.14-0.02,1.71,0
	c0.28,0.01,0.35-0.08,0.35-0.36c-0.01-1.15-0.01-2.31,0-3.47c0-0.26-0.08-0.33-0.33-0.32c-0.55,0.02-1.11,0.01-1.66,0
	c-1.24-0.02-2.16-0.92-2.16-2.1c0-1.19,0.92-2.07,2.17-2.08c0.55,0,1.11-0.01,1.66,0.01c0.26,0.01,0.33-0.07,0.32-0.33
	c-0.01-1.17-0.01-2.34,0-3.51c0-0.26-0.08-0.34-0.33-0.33c-0.55,0.02-1.11,0.01-1.66,0c-1.27-0.03-2.16-0.89-2.16-2.09
	c0-1.19,0.9-2.05,2.17-2.08c0.5-0.01,1.01-0.03,1.51,0.01c0.41,0.03,0.48-0.13,0.47-0.5C8.31,8.78,8.32,7.62,8.32,6.47
	c0-1.43,0.84-2.29,2.26-2.29c10.3,0,20.59,0,30.89,0c1.43,0,2.26,0.85,2.26,2.28c0,10.31,0,20.63,0,30.94c0,1.1-0.69,1.98-1.68,2.15
	c-1.04,0.17-1.98-0.35-2.35-1.31c-0.13-0.34-0.15-0.69-0.15-1.05c0-9.42,0-18.84,0.01-28.26c0-0.45-0.08-0.6-0.57-0.59
	c-8.65,0.02-17.31,0.02-25.96,0c-0.41,0-0.59,0.06-0.54,0.52c0.05,0.5-0.17,1.18,0.09,1.46c0.29,0.33,0.98,0.08,1.49,0.1
	c0.36,0.02,0.72-0.02,1.07,0.07c0.94,0.25,1.63,1.23,1.53,2.17c-0.11,1.04-0.88,1.84-1.89,1.9c-0.65,0.04-1.3,0.03-1.95,0.02
	c-0.25,0-0.34,0.06-0.33,0.33c0.01,1.17,0.02,2.34,0,3.51c0,0.3,0.11,0.34,0.37,0.33c0.55-0.02,1.11-0.01,1.66,0
	c1.21,0.01,2.14,0.89,2.16,2.05c0.02,1.14-0.9,2.09-2.1,2.13c-0.59,0.02-1.17,0.02-1.76,0c-0.25-0.01-0.33,0.07-0.33,0.32
	c0.01,1.17,0.01,2.34,0,3.51c0,0.23,0.06,0.31,0.3,0.3c0.57-0.02,1.14-0.01,1.71,0c1.23,0.02,2.18,0.93,2.18,2.1
	c0,1.17-0.94,2.07-2.18,2.08c-0.57,0-1.14,0.01-1.71,0c-0.24-0.01-0.3,0.07-0.3,0.3c0.01,1.19,0.01,2.38,0,3.56
	c0,0.23,0.07,0.31,0.3,0.31c0.57-0.01,1.14-0.01,1.71,0c1.25,0.03,2.18,0.92,2.17,2.09c-0.01,1.17-0.93,2.05-2.19,2.07
	c-0.55,0.01-1.11,0.01-1.66,0c-0.25-0.01-0.35,0.06-0.34,0.32c0.02,0.49,0.02,0.98,0,1.46c-0.01,0.24,0.08,0.32,0.31,0.3
	c0.11-0.01,0.23,0,0.34,0c9.4,0,18.81,0,28.21,0c1.26,0,2.05,0.54,2.32,1.58c0.31,1.19-0.53,2.43-1.75,2.56
	c-0.23,0.02-0.45,0.03-0.68,0.03C36.18,45.83,31.1,45.83,26.03,45.83z"/>
<path class="st0" d="M27.12,18.75c1.35,0,2.7,0,4.05,0c1.23,0,2.13,0.86,2.16,2.04c0.02,1.19-0.88,2.13-2.12,2.14
	c-2.75,0.02-5.5,0.02-8.24,0c-1.22-0.01-2.17-0.97-2.15-2.12c0.02-1.18,0.95-2.05,2.2-2.05C24.39,18.75,25.76,18.75,27.12,18.75z"/>
<path class="st0" d="M27.05,31.25c-1.35,0-2.7,0-4.05,0c-1.24,0-2.17-0.9-2.18-2.08c0-1.16,0.94-2.09,2.17-2.1
	c2.73-0.01,5.46-0.01,8.19,0c1.24,0.01,2.15,0.93,2.14,2.11c-0.01,1.19-0.93,2.06-2.18,2.06C29.78,31.25,28.41,31.25,27.05,31.25z"
	/>
</svg>
