<?xml version="1.0" encoding="utf-8"?>
<!-- Generator: Adobe Illustrator 26.0.0, SVG Export Plug-In . SVG Version: 6.00 Build 0)  -->
<svg version="1.1" id="圖層_1" xmlns="http://www.w3.org/2000/svg" xmlns:xlink="http://www.w3.org/1999/xlink" x="0px" y="0px"
	 viewBox="0 0 50 50" style="enable-background:new 0 0 50 50;" xml:space="preserve">
<style type="text/css">
	.st0{fill:#4F3934;}
</style>
<g>
	<g>
		<path class="st0" d="M27.43,49.54c-5.98,0-11.95-0.04-17.93,0.02c-2.03,0.02-3.01-1.35-2.93-2.94c0.07-1.32,0-2.64,0.02-3.96
			c0.01-0.37-0.09-0.5-0.48-0.48c-0.65,0.03-1.3,0.02-1.95,0c-1.45-0.05-2.48-1.09-2.46-2.48c0.02-1.37,1.04-2.37,2.47-2.42
			c0.65-0.02,1.3-0.02,1.95,0c0.33,0.01,0.48-0.05,0.47-0.43c-0.02-1.36-0.02-2.72,0-4.08c0-0.34-0.11-0.41-0.42-0.4
			c-0.65,0.02-1.3,0.01-1.95,0.01c-1.43-0.01-2.5-1.05-2.51-2.43c-0.01-1.38,1.05-2.45,2.47-2.49c0.67-0.02,1.34-0.02,2.01,0
			c0.33,0.01,0.42-0.1,0.41-0.42c-0.02-1.36-0.02-2.72,0-4.08c0-0.31-0.1-0.39-0.39-0.38c-0.65,0.02-1.3,0.01-1.95,0
			C2.78,22.55,1.7,21.5,1.7,20.1c0-1.4,1.08-2.44,2.55-2.45c0.65,0,1.3-0.02,1.95,0.01c0.31,0.01,0.39-0.09,0.38-0.39
			c-0.02-1.38-0.01-2.76,0-4.14c0-0.3-0.09-0.4-0.39-0.39c-0.65,0.02-1.3,0.02-1.95,0c-1.5-0.03-2.55-1.05-2.54-2.46
			c0-1.41,1.06-2.42,2.56-2.44c0.59-0.01,1.19-0.04,1.78,0.01C6.52,7.89,6.6,7.7,6.59,7.27C6.57,5.91,6.58,4.55,6.58,3.19
			c0-1.68,0.99-2.7,2.66-2.7c12.13-0.01,24.25,0,36.38,0c1.69,0,2.66,1,2.66,2.68c0,12.15,0,24.29,0,36.44
			c0,1.3-0.82,2.33-1.98,2.53c-1.22,0.21-2.34-0.41-2.77-1.54c-0.15-0.4-0.18-0.82-0.18-1.24c0-11.09,0-22.19,0.01-33.28
			c0-0.53-0.1-0.7-0.67-0.7c-10.19,0.02-20.38,0.02-30.57,0c-0.48,0-0.69,0.07-0.64,0.61c0.06,0.59-0.2,1.39,0.1,1.72
			c0.34,0.38,1.15,0.09,1.76,0.12c0.42,0.02,0.85-0.02,1.26,0.09c1.11,0.29,1.92,1.45,1.81,2.56c-0.12,1.22-1.03,2.16-2.23,2.24
			c-0.76,0.05-1.53,0.03-2.3,0.02c-0.3,0-0.4,0.08-0.39,0.38c0.02,1.38,0.02,2.76,0,4.14c-0.01,0.35,0.13,0.4,0.43,0.39
			c0.65-0.02,1.3-0.01,1.95-0.01c1.43,0.01,2.52,1.05,2.54,2.42c0.02,1.34-1.07,2.46-2.47,2.5c-0.69,0.02-1.38,0.02-2.07,0
			c-0.3-0.01-0.39,0.08-0.39,0.38c0.02,1.38,0.01,2.76,0,4.14c0,0.27,0.07,0.37,0.35,0.36c0.67-0.02,1.34-0.01,2.01,0
			c1.45,0.02,2.56,1.1,2.56,2.47c0,1.38-1.11,2.44-2.57,2.45c-0.67,0-1.34,0.01-2.01-0.01c-0.28-0.01-0.35,0.09-0.35,0.36
			c0.01,1.4,0.01,2.8,0,4.2c0,0.28,0.08,0.37,0.36,0.36c0.67-0.02,1.34-0.02,2.01,0c1.48,0.03,2.57,1.09,2.56,2.46
			c-0.01,1.38-1.09,2.41-2.58,2.44c-0.65,0.01-1.3,0.02-1.95,0c-0.29-0.01-0.41,0.07-0.4,0.38c0.02,0.57,0.02,1.15,0,1.72
			c-0.01,0.29,0.1,0.38,0.37,0.35c0.13-0.01,0.27,0,0.4,0c11.07,0,22.14,0,33.22,0c1.48,0,2.41,0.64,2.73,1.87
			c0.37,1.4-0.63,2.86-2.06,3.01c-0.27,0.03-0.54,0.03-0.8,0.03C39.38,49.54,33.4,49.54,27.43,49.54z"/>
		<g>
			<path class="st0" d="M27.43,49.29c-3.65,0-7.31-0.01-10.96-0.01c-1.83,0-3.65,0.01-5.48,0.02c-1.62,0.01-3.68,0.15-4.12-1.88
				c-0.19-0.88-0.02-1.88-0.03-2.78c0-0.64,0.2-1.64-0.02-2.22c-0.28-0.73-1-0.48-1.69-0.48c-1.04,0-2.16-0.01-2.81-0.96
				c-0.47-0.69-0.5-1.66-0.08-2.38c0.53-0.91,1.46-1.04,2.41-1.08c0.47-0.02,1.49,0.25,1.89-0.06c0.62-0.47,0.28-1.75,0.28-2.42
				c0-0.67,0.36-2.39-0.28-2.86c-0.37-0.27-1.4-0.03-1.84-0.05c-0.97-0.03-1.9-0.15-2.45-1.07c-0.5-0.84-0.37-1.99,0.32-2.69
				c0.75-0.76,1.82-0.69,2.8-0.68c0.83,0.01,1.29,0.18,1.47-0.65c0.14-0.68-0.01-1.56-0.01-2.27c0-0.51,0.25-1.66-0.03-2.12
				c-0.45-0.71-1.86-0.27-2.55-0.32c-2-0.15-3.31-2.72-1.35-4.03c0.83-0.55,1.89-0.38,2.82-0.4c0.27,0,0.67,0.1,0.9-0.09
				c0.22-0.18,0.16-0.28,0.22-0.53c0.2-0.81-0.01-1.92-0.01-2.76c0-0.65,0.29-1.65-0.4-1.99c-0.52-0.26-1.59,0.02-2.19-0.03
				c-1.03-0.08-1.97-0.58-2.23-1.66C1.43,8.39,3.88,8.08,5.6,8.08c0.81,0,1.15,0.05,1.25-0.81c0.18-1.59-0.35-3.38,0.1-4.94
				c0.55-1.92,2.72-1.59,4.3-1.59c7.31,0,14.62,0,21.93,0c3.65,0,7.31,0,10.96,0c1.74,0,3.66-0.09,3.9,2.11
				c0.19,1.73,0.01,3.58,0.01,5.32c0,7.32,0,14.64,0,21.96c0,1.83,0,3.66,0,5.49c0,0.83,0,1.66,0,2.5c0,1.04,0.17,2.27-0.58,3.12
				c-0.81,0.92-2.32,0.92-3.18,0.06c-0.77-0.77-0.66-1.92-0.66-2.92c0-1.82,0-3.64,0-5.46c0-7.28,0-14.57,0.01-21.85
				c0-0.99,0-1.99,0-2.98c0-0.7,0.17-1.6-0.01-2.26c-0.2-0.73-0.7-0.66-1.4-0.67c-3.61-0.05-7.23,0.01-10.85,0.01
				c-3.62,0-7.23,0-10.85,0c-1.81,0-3.62,0-5.42,0c-0.82,0-1.64-0.01-2.47,0c-0.3,0-0.84-0.08-1.12,0.13
				c-0.44,0.34-0.37,1.58-0.3,2.05c0.14,0.85,0.74,0.86,1.5,0.81c1.03-0.06,2.11-0.16,2.88,0.68c0.69,0.75,0.78,1.89,0.2,2.74
				c-0.6,0.87-1.55,0.94-2.51,0.96c-0.42,0.01-1.38-0.21-1.74,0.05c-0.65,0.48-0.27,2.2-0.27,2.87c0,0.65-0.34,2.05,0.35,2.45
				c0.49,0.28,1.7-0.02,2.27,0.02c0.99,0.07,1.9,0.56,2.2,1.58c0.28,0.96-0.14,1.99-0.99,2.5c-0.83,0.5-1.88,0.33-2.8,0.35
				c-0.95,0.01-1.04,0.14-1.05,1.08c0,0.77,0.01,1.53,0.01,2.3c0,0.4-0.21,1.38,0.05,1.72c0.46,0.61,1.91,0.21,2.55,0.26
				c2.17,0.17,3.34,3.06,1.1,4.17c-0.82,0.41-1.83,0.24-2.71,0.25c-0.24,0-0.59-0.08-0.8,0.09c-0.2,0.17-0.15,0.27-0.21,0.51
				c-0.21,0.81,0.01,1.95,0.01,2.8c0,0.77-0.33,1.75,0.53,2c1.44,0.41,3.2-0.57,4.14,1.19c0.52,0.97,0.2,2.21-0.71,2.82
				c-0.7,0.47-1.55,0.42-2.35,0.42c-0.85,0-1.42-0.25-1.62,0.62c-0.09,0.36-0.16,1.68,0.04,2.01c0.08,0.13,0.16,0.21,0.29,0.29
				c0.32,0.18,1.3,0.02,1.68,0.02c0.99,0,1.98,0,2.97,0c7.27,0,14.54,0,21.81,0c1.82,0,3.64,0,5.45,0c1.59,0,3.98-0.34,4.48,1.68
				c0.28,1.14-0.42,2.34-1.56,2.65c-0.8,0.21-1.74,0.08-2.55,0.08c-1.83,0-3.65,0-5.48,0C34.73,49.29,31.08,49.29,27.43,49.29
				c-0.32,0-0.32,0.5,0,0.5c4.15,0,8.3,0,12.45,0c1.95,0,3.94,0.12,5.88-0.01c1.06-0.07,1.97-0.48,2.48-1.46
				c0.99-1.89-0.46-3.75-2.39-3.93c-1.9-0.18-3.9-0.01-5.81-0.01c-2.15,0-4.3,0-6.45,0c-3.97,0-7.93,0-11.9,0c-1.98,0-3.97,0-5.95,0
				c-0.99,0-1.98,0-2.97,0c-0.65,0-0.92,0.24-1-0.53c0.01-0.29,0.01-0.57,0-0.86c-0.07-0.54,0.14-0.72,0.62-0.55
				c0.54-0.16,1.29,0.05,1.87-0.04c0.53-0.08,1.04-0.27,1.46-0.62c0.71-0.59,1.07-1.5,0.94-2.42c-0.13-0.97-0.79-1.77-1.7-2.12
				c-0.49-0.19-0.96-0.2-1.48-0.22c-0.29-0.01-0.95,0.12-1.21,0c-0.76-0.35-0.5-1.33-0.5-1.97c0-0.32-0.24-2.08-0.01-2.33
				c0.3-0.33,1.64-0.07,2.11-0.1c1.02-0.07,1.98-0.48,2.49-1.41c1.21-2.2-0.82-3.97-2.89-4.02c-0.39-0.01-0.82,0.04-1.21,0
				c-0.84-0.09-0.35-0.08-0.5-0.56c-0.22-0.72-0.04-2,0-2.76c0-0.15,0-0.31,0-0.46c-0.08-0.53,0.1-0.73,0.55-0.58
				c0.33-0.1,0.89,0.01,1.24,0c0.65-0.02,1.25-0.08,1.81-0.42c1.87-1.12,1.68-3.96-0.35-4.79c-0.53-0.22-1.05-0.22-1.61-0.23
				c-0.3-0.01-0.7,0.06-0.98,0c-0.16,0-0.33,0.01-0.49,0.01c-0.16-0.34-0.22-0.69-0.17-1.06c-0.06-0.86-0.11-1.91,0-2.76
				c0.11-0.85,0.37-0.58,1.06-0.58c0.55,0,1.15,0.04,1.7-0.08c2.03-0.42,2.85-2.95,1.43-4.48c-0.78-0.83-1.82-0.92-2.9-0.86
				c-0.58,0.03-1.07,0.31-1.33-0.65C11.68,6.84,11.7,6.1,11.75,6c0.35-0.74,2.64-0.36,3.35-0.36c4.11,0,8.22,0.01,12.33,0.01
				c3.94,0,7.89,0,11.83-0.01c0.92,0,2.06-0.19,2.96-0.01c0.78,0.16,0.77,0.16,0.92,0.95c0.08,0.45,0,1.03,0,1.49
				c0,2.15,0,4.3-0.01,6.46c-0.01,8.11-0.06,16.23-0.01,24.34c0.01,1.16,0.09,2.26,1.09,3.02c0.79,0.6,1.93,0.72,2.83,0.29
				c0.87-0.42,1.36-1.28,1.48-2.21c0.27-2.04,0.02-4.28,0.02-6.34c0-8.15,0-16.31,0-24.46c0-1.99,0.1-4,0-5.99
				c-0.04-0.93-0.28-1.83-1.07-2.4c-0.96-0.7-2.22-0.53-3.34-0.53c-2.16,0-4.32,0-6.48,0c-8.14,0-16.28,0-24.42,0
				c-1.56,0-3.46-0.31-4.97,0.13C7.47,0.6,6.85,1.15,6.55,1.93C6.04,3.25,6.32,4.98,6.33,6.36c0,0.46,0.17,0.95-0.29,1.24
				C5.86,7.72,4.94,7.58,4.7,7.59C4.08,7.6,3.46,7.63,2.89,7.92c-1.66,0.85-1.94,3.24-0.5,4.43c0.42,0.35,0.92,0.53,1.45,0.62
				c0.43,0.07,2.1-0.22,2.36,0.03c0.44,0.43,0.13,2.32,0.13,2.9c0,0.2,0.13,1.25,0.01,1.38c-0.29,0.3-1.18,0.12-1.6,0.13
				c-1.07,0.02-2.1,0.18-2.78,1.1c-0.54,0.73-0.66,1.72-0.34,2.57c0.31,0.84,1.05,1.45,1.91,1.66c0.7,0.18,1.52-0.1,2.18,0.1
				c0.16,0,0.33-0.01,0.49-0.01c0.13,0.34,0.17,0.68,0.13,1.04c0.03,0.6,0,1.21,0,1.81c0,0.2,0.13,1.22,0.01,1.36
				c-0.25,0.29-0.61,0.16-0.97,0.15c-0.64,0-1.33-0.05-1.95,0.12c-0.91,0.26-1.64,0.98-1.88,1.9c-0.24,0.93,0.02,1.96,0.71,2.63
				c0.34,0.33,0.76,0.56,1.22,0.68c0.27,0.07,0.47,0.08,0.75,0.1c0.33,0.02,1.74-0.2,1.95-0.01c0.46,0.43,0.16,2.29,0.16,2.87
				c0,0.21,0.14,1.21,0.01,1.36c-0.27,0.33-0.82,0.16-1.2,0.16c-1.16,0-2.34,0.05-3.12,1.03c-1.32,1.65-0.25,4,1.74,4.35
				c0.29,0.05,0.59,0.04,0.88,0.05c0.24,0.01,1.3-0.14,1.47-0.02c0.51,0.39,0.24,2.09,0.24,2.71c0,1.18-0.22,2.45,0.5,3.47
				c0.53,0.75,1.38,1.1,2.28,1.19c2.07,0.2,4.26-0.02,6.35-0.02c3.98-0.01,7.97,0.01,11.95,0.01
				C27.75,49.79,27.75,49.29,27.43,49.29z"/>
		</g>
	</g>
	<g>
		<path class="st0" d="M28.72,17.65c1.59,0,3.18,0,4.77,0c1.44,0,2.51,1.02,2.54,2.4c0.03,1.4-1.04,2.51-2.49,2.52
			c-3.24,0.02-6.47,0.02-9.71,0c-1.44-0.01-2.55-1.14-2.53-2.5c0.03-1.39,1.12-2.41,2.6-2.42C25.5,17.65,27.11,17.65,28.72,17.65z"
			/>
		<g>
			<path class="st0" d="M28.72,17.9c1.5,0,2.99-0.01,4.49,0c1.32,0.01,2.54,0.68,2.57,2.15c0.03,1.5-1.19,2.25-2.54,2.27
				c-1.52,0.02-3.04,0.01-4.56,0.01c-1.52,0-3.04,0.01-4.56-0.01c-1.33-0.02-2.6-0.77-2.57-2.25c0.02-1.49,1.3-2.15,2.63-2.17
				C25.69,17.89,27.21,17.9,28.72,17.9c0.32,0,0.32-0.5,0-0.5c-1.61,0-3.22-0.05-4.82,0c-0.92,0.03-1.8,0.38-2.36,1.15
				c-1.17,1.63-0.11,3.91,1.82,4.23c0.68,0.11,1.4,0.05,2.09,0.05c0.83,0,1.67,0,2.5,0.01c1.67,0,3.33,0,5-0.01
				c1.07-0.01,2.07-0.14,2.77-1.04c0.57-0.74,0.72-1.75,0.4-2.62c-0.34-0.95-1.2-1.58-2.19-1.72c-0.78-0.11-1.61-0.04-2.4-0.04
				c-0.93,0-1.87,0-2.8,0C28.4,17.4,28.4,17.9,28.72,17.9z"/>
		</g>
	</g>
	<g>
		<path class="st0" d="M28.63,32.37c-1.59,0-3.18,0-4.77,0c-1.46-0.01-2.56-1.06-2.57-2.45c-0.01-1.37,1.11-2.47,2.56-2.47
			c3.22-0.01,6.43-0.01,9.65,0c1.46,0.01,2.53,1.09,2.52,2.49c-0.01,1.4-1.09,2.43-2.57,2.43C31.85,32.37,30.24,32.37,28.63,32.37z"
			/>
		<g>
			<path class="st0" d="M28.63,32.12c-1.5,0-2.99,0.02-4.49,0c-1.33-0.01-2.59-0.71-2.6-2.2c0-1.49,1.27-2.21,2.6-2.22
				c1.51-0.02,3.02-0.01,4.53-0.01c1.51,0,3.02-0.01,4.53,0.01c1.35,0.02,2.58,0.74,2.56,2.24c-0.02,1.5-1.27,2.17-2.6,2.18
				C31.66,32.13,30.15,32.12,28.63,32.12c-0.32,0-0.32,0.5,0,0.5c1.61,0,3.22,0.05,4.82,0c0.92-0.03,1.8-0.38,2.34-1.15
				c1.15-1.63,0.11-3.92-1.82-4.23c-0.68-0.11-1.4-0.04-2.08-0.05c-0.83,0-1.66,0-2.49,0c-1.66,0-3.31,0-4.97,0.01
				c-1.07,0-2.07,0.14-2.79,1.03c-0.59,0.72-0.76,1.72-0.44,2.6c0.34,0.96,1.22,1.62,2.22,1.76c0.78,0.11,1.61,0.04,2.4,0.04
				c0.93,0,1.87,0,2.8,0C28.95,32.62,28.95,32.12,28.63,32.12z"/>
		</g>
	</g>
</g>
</svg>
