<?xml version="1.0" encoding="utf-8"?>
<!-- Generator: Adobe Illustrator 25.0.1, SVG Export Plug-In . SVG Version: 6.00 Build 0)  -->
<svg version="1.1" id="圖層_1" xmlns="http://www.w3.org/2000/svg" xmlns:xlink="http://www.w3.org/1999/xlink" x="0px" y="0px"
	 viewBox="0 0 500 500" style="enable-background:new 0 0 500 500;" xml:space="preserve">
<style type="text/css">
	.st0{fill:#FFFFFF;}
</style>
<g>
	<path class="st0" d="M324.25,428.35c5.82,3.74,3.6,9.33,1.46,15.06c-1.37,3.65-2.6,7.43-3.39,11.28c-0.33,1.61,0.44,3.69,1.1,5.36
		c1.24,3.15,1.69,5.91-0.76,8.7c-0.66,0.75-0.59,2.52-0.61,3.83c-0.08,4.17,0.43,8.43-0.14,12.5c-1.34,9.67-8.71,15.85-17.02,14.85
		c-3.25-0.39-6.17-4.75-4.8-8.39c2.56-6.81,1.95-13.9,2.6-20.91c0.4-4.4,2.21-8.64,3.39-12.94c0.43-1.55,1.09-3.06,1.3-4.64
		c1.31-9.92,2.47-19.87,3.84-29.77c0.24-1.74,1.25-3.37,2-4.99c1.49-3.22,2.98-6.45,4.6-9.58c2.01-3.89,3.9-7.9,6.3-11.45
		c1.99-2.94,2.46-4.6-0.03-6.99c-2.35-2.26-5.18-3.83-7.62-5.99c-1.97-1.75-4.07-3.61-5.4-5.96c-1.84-3.26-0.5-5.92,2.86-5.71
		c3.48,0.22,6.91,1.33,10.38,1.96c2.81,0.51,5.65,1.33,8.45,1.23c3.98-0.16,6.01-2.89,6.65-7.4c0.81-5.76,1.88-11.48,2.64-17.25
		c0.29-2.17,0.05-4.44,0.05-7.85c-11.55,4.56-22.42,8.83-33.26,13.19c-1.01,0.4-1.93,1.25-2.75,2.09
		c-7.81,8-15.65,15.95-23.33,24.11c-3.39,3.6-4.96,8.27-6.02,13.6c-2.05,10.33-4.51,20.64-7.72,30.57
		c-3.45,10.68-12.23,13.54-18.96,6.88c-0.99-0.98-1.7-3.26-1.5-4.75c1.31-9.4,2.91-18.74,4.41-28.1c0.08-0.5,0.02-1.08,0.22-1.49
		c3.74-7.57,7.6-15.05,11.26-22.67c6.99-14.56,19.73-21.18,30.7-30.38c10.55-8.85,21.91-13.59,34.98-13.52
		c3.15,0.02,6.39-1.78,9.42-3.21c2.5-1.18,2.47-3.84,0.11-5.42c-2.09-1.4-4.25-2.67-6.44-3.88c-0.63-0.35-1.44-0.45-2.14-0.37
		c-3.28,0.39-6.55,0.88-9.82,1.33c0.12-0.52,0.23-1.05,0.35-1.57c-1.4-1.52-2.59-3.63-4.25-4.44c-4.34-2.11-8.87-3.74-13.37-5.4
		c-4.94-1.82-9.81-3.52-13.69-7.98c-1.05-1.2-3.65-1.51-5.25-1.01c-5.71,1.81-11.31,4.08-16.91,6.35c-0.82,0.33-1.28,1.71-2.03,2.41
		c-3.57,3.3-7.17,6.53-10.77,9.78c-0.94,0.84-1.93,1.6-2.85,2.47c-1.95,1.85-3.79,3.88-5.83,5.58c-2.75,2.29-5.72,3.61-9.26,2.23
		c-2.7-1.06-5.6-1.48-8.24-2.67c-1.56-0.7-3.65-2.11-3.99-3.64c-0.58-2.64,3.08-7.04,5.39-7.62c1.16-0.29,2.37-0.64,3.4-1.31
		c2.28-1.49,4.07-3.35,1.58-6.97c1.53-0.78,2.77-1.45,4.03-2.05c6.29-3.03,13.04-5.21,18.77-9.29c5.85-4.16,11.91-7.13,18.29-9.81
		c4.71-1.98,9-5.31,13.43-8.12c6.05-3.84,12.46-6.21,19.33-7.3c3.66-0.58,7.18-2.29,10.76-3.49c3.91-1.31,7.83-2.56,11.73-3.92
		c8.07-2.81,15.44-0.45,22.41,4.2c3.64,2.43,5.59,6.57,6.39,11.14c1.03,5.83,1.81,11.76,2.22,17.69c0.3,4.33,2.1,6.09,5.56,6.31
		c12.66,0.81,22.69-5.11,30.43-16.3c2.16-3.12,3.96-6.86,4.98-10.65c1.12-4.2,3.66-4.74,6.51-4.86c3.11-0.13,6.7,2.69,6.98,5.82
		c0.44,4.93,0.68,9.77-1.77,14.59c-2.01,3.96-2.68,8.83-4.16,14.05c-3.03,1.51-7.01,4.07-11.27,5.38c-2.69,0.83-5.82-0.19-9.02-0.39
		c0.53,5.87-4.12,5.59-7.79,6.44c-6.57,1.51-13.18,2.81-19.79,4.05c-0.99,0.19-2.11-0.4-3.16-0.66c-2.25-0.56-4.31-0.54-6.01,2.79
		c2.95,1.31,5.49,2.87,8.2,3.56c6.22,1.6,12.6,2.44,18.78,4.23c6.68,1.93,13.21,4.59,19.8,6.94c0.63,0.22,1.22,0.65,1.86,0.73
		c10.24,1.31,19.05,6.8,27.77,12.55c0.67,0.44,1.3,1,2.02,1.29c8.46,3.43,13.5,12.15,20.5,17.84c1.9,1.55,2.66,4.89,4.16,7.21
		c4.6,7.13,9.59,13.95,13.86,21.33c2.76,4.78,4.53,10.33,6.75,15.53c0.33,0.78,0.91,1.51,1.02,2.33c0.23,1.72,0.82,3.82,0.23,5.18
		c-2.85,6.7-9.5,10.06-15.79,8.4c-0.54-0.14-1.08-0.26-1.62-0.36c-6.61-1.23-7.27-2.29-5.64-9.68c0.65-2.95,0.5-5.31-1.77-7.48
		c-1.04-1-1.45-3.06-1.82-4.74c-1.58-7.32-3.06-14.66-8.82-19.45c-0.4-0.33-0.73-1.03-0.79-1.6c-0.72-6.37-4.44-10.34-8.47-13.98
		c-6.58-5.94-13.12-11.98-19.96-17.51c-2.82-2.29-6.25-3.95-9.61-4.92c-12.9-3.72-25.89-7.02-38.84-10.53
		c-2.06-0.56-2.67,0.55-3.09,2.62c-1.73,8.53-1.99,17.13-0.72,25.73c0.46,3.14-0.15,4.88-2.76,6.26c-1.94,1.03-3.49,3.04-5.22,4.62
		c2.16,0.81,4.28,2.05,6.5,2.33c5.88,0.76,11.8,1.11,17.71,1.6c0.54,0.04,1.11,0,1.63-0.16c7.56-2.38,14.34-0.08,20.77,4.5
		c3.37,2.4,6.85,4.62,10.11,7.2c0.8,0.63,1.47,2.46,1.31,3.56c-1.18,7.96-5.26,13.14-11.84,15.88c-5.68,2.36-11.26,5.04-16.94,7.38
		c-2.89,1.19-5.93,1.87-8.84,2.98c-0.94,0.36-1.7,1.34-2.54,2.04c0.63,0.94,1.09,2.24,1.92,2.74c3.31,1.99,6.77,3.66,10.11,5.58
		c8.94,5.16,17.86,10.37,26.77,15.6c0.95,0.56,1.94,1.22,2.65,2.1c4.18,5.21,8.28,10.51,12.42,15.77c4.26,5.4,7.63,11.12,6.63,19.05
		c-0.4,3.14-1.48,5.68-4.02,6.24c-2.91,0.64-6.16,1.01-8.94,0.13c-3.06-0.97-5.76-3.5-8.78-5.46c1.98-3.96,0.25-6.54-1.55-9.28
		c-1.85-2.8-3.48-5.81-5.08-8.81c-2.53-4.76-6.37-7.61-10.57-9.99c-8.96-5.1-17.94-10.17-26.87-15.34
		c-2.16-1.25-4.29-2.64-6.21-4.32c-7.64-6.66-7.36-11.91-2-19.61c2.68-3.86,7-6.4,10.89-8.91c4.69-3.03,9.79-5.23,14.56-8.12
		c1.88-1.14,3.66-2.91,4.95-4.86c1.67-2.52,0.71-4.84-1.98-5.13c-13.76-1.48-27.53-2.81-41.29-4.25c-2.82-0.29-4.33,1.06-5.45,4.1
		c-3.36,9.1-6.84,18.16-10.62,27.04C328.68,423.44,326.43,425.45,324.25,428.35z M301.37,289.49c3.51,4.46,7.4,6.7,12.01,7.42
		c0.97,0.15,2.01,0.21,2.89,0.64c5.01,2.48,9.91,5.25,14.98,7.55c4.2,1.9,6.34,0.6,7.24-4.61c0.5-2.88,0.22-6.05-0.2-9
		c-0.41-2.85-1.71-5.53-2.14-8.38c-0.64-4.22-2.75-5.75-6.18-5.34c-2.83,0.34-5.86,0.26-8.44,1.43
		C314.82,282.26,308.31,285.9,301.37,289.49z"/>
	<path class="st0" d="M113.67,428.37c3.84,0.59,6.59,1.17,9.36,1.38c2.3,0.18,4.62-0.13,6.93-0.12c7.36,0.03,13.19,9.75,10.68,17.76
		c-1.29,4.11-2.79,4.8-6.39,3.26c-0.79-0.34-1.89-0.05-2.76,0.27c-5.38,2.01-10.69,2.93-15.99-0.44c-0.75-0.48-1.9-0.35-2.83-0.21
		c-6.53,0.98-13.04,2.25-19.6,2.93c-1.77,0.18-3.78-1.07-5.49-2.11c-3.24-1.98-6.01-3.48-10.15-1.71
		c-3.62,1.54-8.04,0.66-12.11,0.68c-8.03,0.06-16.06-0.07-24.09,0.07c-1.4,0.02-2.84,0.83-4.16,1.52c-1.09,0.57-1.99,1.59-3.04,2.26
		c-4.46,2.84-6.61,2.11-9.08-2.97c-0.05-0.11-0.12-0.21-0.18-0.32c-5.61-11.36-3.4-15.62,7.96-17.78c3.35-0.64,7.38,2.35,10.48,1.29
		c3.62-1.24,6.68-1.55,10.13-0.24c2.86,1.09,4.92-0.53,5.55-3.63c0.64-3.16,0.68-6.5,0.82-9.77c0.89-21.18,1.8-42.35,2.53-63.53
		c0.15-4.29-0.14-8.66-0.77-12.89c-0.44-2.9-1.21-6.37-2.92-8.25c-5.12-5.62-7.02-12.55-7.21-20.2c-0.25-9.98-0.63-20.04,0.12-29.95
		c1.02-13.56,11.77-21.55,21.93-23c7.73-1.1,15.46-2.34,23.14-3.87c10.21-2.02,20.63,4.44,24.85,15.49
		c3.51,9.18,2.68,18.61,1.64,28.09c-0.77,7.05-1.32,14.16-2.5,21.12c-0.56,3.31-1.77,7-3.73,9.36c-5.57,6.68-7.59,13.87-7.13,23.37
		c0.69,14.26-0.34,28.63-0.72,42.95c-0.22,8.12-0.73,16.23-0.91,24.35C107.9,429.4,110.13,430.75,113.67,428.37z M93.97,381.7
		c-0.2-0.02-0.41-0.03-0.61-0.05c0-8,0.27-16.02-0.14-24c-0.16-3.06-1.44-6.33-2.94-8.95c-1.73-3.04-4.67-3.54-7.69-2.25
		c-3.96,1.69-5.21,3.62-5.23,7.88c-0.01,1.77-0.18,3.54-0.25,5.31c-0.3,7.98-0.64,15.96-0.86,23.94c-0.07,2.49,0.42,5.01,0.31,7.5
		c-0.18,4.29-0.97,8.56-0.89,12.83c0.09,5.44,0.9,10.86,1.19,16.3c0.45,8.43,0.38,8.44,7.75,9.91c0.11,0.02,0.22,0.03,0.32,0.07
		c1.98,0.66,3.41,0.14,4.06-2.35c0.95-3.63,2.54-7.18,2.84-10.88C92.81,405.24,93.3,393.46,93.97,381.7z M88.46,288.87
		c-0.04-0.22-0.07-0.44-0.11-0.65c-0.66-0.05-1.32-0.15-1.97-0.13c-7.02,0.19-13.96,0.93-19.29,6.98c-1.22,1.38-2.3,4.1-1.98,5.86
		c0.73,4.12,2.5,7.97,3.57,12.03c1.59,6.06,5.42,7.97,10.38,8.14c3.42,0.12,6.74-0.43,8.85-3.85c1.26-2.04,2.67-2.75,4.68-2.7
		c1.64,0.04,3.29-0.14,4.94-0.24c3.57-0.21,6.05-2.21,7.17-6.14c1.83-6.41,1.04-12.78-0.7-19.01c-0.6-2.14-1.95-3.48-4.34-2.82
		C95.96,287.37,92.2,288.05,88.46,288.87z"/>
	<path class="st0" d="M208.39,418.04c0,6.86,0.1,13.72-0.06,20.57c-0.05,2.2-0.89,4.36-1.21,6.56c-0.68,4.6-1.37,9.2-1.84,13.83
		c-0.55,5.39-0.65,10.86-1.36,16.21c-0.44,3.28-1.66,6.43-2.54,9.63c-0.1,0.36-0.14,0.92-0.35,1.04c-3.47,2.05-3.19,6.52-4.78,9.76
		c-1.68,3.42-4.24,4.72-7.49,3.81c-4.59-1.28-5.91-2.43-5.69-7.19c0.27-5.75,0.29-11.98,2.24-17.07
		c6.19-16.16,8.11-33.21,8.87-50.45c0.64-14.55,0.47-29.17,0.03-43.74c-0.15-4.89-1.93-9.82-3.5-14.5
		c-1.26-3.75-3.29-7.17-5.03-10.7c-0.59-1.2-1.14-2.7-2.08-3.38c-8.33-6.06-14.25-15.89-24.02-19.77
		c-5.69-2.26-10.13-6.91-12.55-13.32c-1.31-3.47-2.36-7.58-2.09-11.25c0.94-12.74,2.28-25.47,3.93-38.12
		c0.81-6.21,3.26-11.77,7.68-15.97c6.1-5.81,8.17-13.87,7.96-22.49c-0.33-13.31-1.25-26.6-2.12-39.89
		c-0.08-1.21-1.48-2.64-2.56-3.35c-3.78-2.47-6.75-5.56-8.01-10.59c-0.98-3.9-0.16-7.31,1.79-10.42c1.59-2.55,3.85-3.14,6.46-2.33
		c3.61,1.12,7.28,2.71,10.37-1.47c0.24-0.32,1.01-0.15,1.53-0.15c5.12-0.01,10.27,0.48,15.34-0.11
		c14.69-1.71,25.54,8.05,26.67,25.02c0.71,10.73,1.23,21.55,0.92,32.29c-0.55,19.13-7.44,35.31-19.26,48.59
		c-1.14,1.28-3.61,1.47-5.42,1.35c-5.66-0.38-11.19-0.07-16.57,2.21c-6.92,2.94-11.99,8.42-14.44,16.23
		c-2.21,7.05-0.38,13.77,4.14,19.29c2.79,3.41,5.63,6.78,8.53,10.07c0.64,0.73,1.55,1.4,2.43,1.59
		c18.05,4.06,29.19,18.23,31.27,40.03c0.78,8.2,1.57,16.41,2.01,24.64c0.59,11.15,0.83,22.32,1.22,33.47
		C208.66,418.03,208.52,418.03,208.39,418.04z M197.64,210.55c0-3.88-0.37-7.12,0.08-10.2c0.79-5.39-1.25-8.4-5.15-10.8
		c-5.16-3.17-7.37-2.05-8.12,4.66c-0.07,0.63-0.21,1.25-0.26,1.88c-1,11.81-0.54,23.55,1.54,35.15c0.26,1.45,1.93,3.64,2.96,3.65
		c3.91,0.02,7.93-4.79,8.27-9.49C197.33,220.22,197.44,215.03,197.64,210.55z"/>
	<path class="st0" d="M390.9,119.58c-10.54,0.49-21.08,0.98-31.61,1.48c-3.61,0.17-6.55,1.61-8.53,5.38
		c-0.96,1.83-2.13,3.69-3.58,4.94c-1.27,1.09-3.15,1.97-4.62,1.75c-1.07-0.16-2.38-2.09-2.79-3.53c-0.87-3.01-2.67-5.03-5.06-4.31
		c-10.67,3.2-20.92-0.43-31.37-1.63c-6.12-0.7-12.42,0.67-18.64,1.03c-3.29,0.19-6.64,0.62-9.88,0.17
		c-1.62-0.23-3.99-1.89-4.35-3.43c-0.44-1.86,0.35-4.93,1.58-6.29c1.54-1.7,4.03-2.42,6.21-3.13c1.88-0.61,3.93-0.49,5.88-0.91
		c5.59-1.22,11.32-1.98,16.7-3.97c7.91-2.93,16.02-2.91,24.11-3.69c3.69-0.36,7.5-0.83,10.96-2.21c5.33-2.13,6.38-7.85,2.63-12.77
		c-3.01-3.95-6.68-6.41-11.53-6.21c-9.89,0.4-19.79,0.94-29.67,0.65c-4.86-0.15-9.78-1.66-14.47-3.31
		c-1.85-0.65-3.95-3.09-4.53-5.22c-0.84-3.1,1.28-5.67,3.73-6.8c3.33-1.55,6.82-3.23,10.33-3.57c15.99-1.51,32.01-2.73,48.03-3.76
		c16.14-1.03,32.29-2.33,48.44-2.31c9.25,0.01,18.52,2.22,27.73,3.85c2.37,0.42,4.73,2.09,6.76,3.73c2.38,1.93,3.06,5.11,2.17,8.21
		c-0.85,2.98-3.34,3.23-5.75,3.35c-17.67,0.93-35.34,1.86-53,2.92c-6.09,0.37-11.15,8.39-9.84,15.24c0.77,4,3.41,6.23,6.51,6.68
		c5.74,0.83,11.57,1.28,17.35,1.12c6.92-0.19,13.81-1.66,20.72-1.71c7.23-0.05,14.47,0.77,21.69,1.5c3.76,0.38,5.78,3.15,6.26,7.55
		c0.49,4.42-0.54,7.44-4.48,8.28c-6.19,1.33-12.56,1.63-18.87,2.01c-5.05,0.3-10.11,0.06-15.17,0.06
		C390.91,120.33,390.9,119.95,390.9,119.58z"/>
	<path class="st0" d="M111.78,109.43c0.58-1.45,1.52-2.86,1.68-4.37c0.83-8.03,2.04-16.08,2.04-24.12
		c0.01-15.98-0.94-31.97-0.99-47.95c-0.03-8.28,1.46-16.46,5.47-23.61c0.8-1.43,2.54-3.37,3.54-3.15c1.4,0.3,2.86,2.17,3.64,3.79
		c0.99,2.05,1.71,4.49,1.86,6.83c0.73,11.12,1.05,22.28,1.99,33.38c0.18,2.14,2.48,4.04,3.81,6.05c0.35-0.21,0.7-0.42,1.06-0.63
		c0.55-4.86,0.83-9.79,1.71-14.57c0.81-4.41,1.79-8.97,3.63-12.87c1.02-2.16,4.67-4.89,5.85-4.24c2.24,1.22,4.89,4.58,5.06,7.25
		c1.19,18.69,0.94,37.34-5.31,55.1c-2.08,5.92-4.85,11.26-10.02,14.62c-3.23,2.1-5.58,5.67-5.79,10.13
		c-0.43,9.34-0.68,18.7-0.62,28.05c0.02,4.16,1.84,7.64,4.76,10.44c3.03,2.91,6.03,6.02,8.47,9.58c6.06,8.87,5.53,23-0.72,31.89
		c-1.28,1.82-2.54,1.95-3.9,0.62c-4.59-4.49-9.72-8.5-13.52-13.77c-6.74-9.36-12.62-19.54-18.92-29.31
		c-3.22-4.99-6.65-9.8-9.86-14.79c-0.73-1.13-1.25-2.66-1.35-4.06c-1.31-17.58-2.95-35.14-3.62-52.75
		c-0.45-11.73,0.28-23.55,0.95-35.3c0.34-5.89,5.32-9.92,10.48-9.71c2.09,0.08,3.07,1.26,3.71,3.48c2.26,7.8,1.82,15.76,1.41,23.76
		c-0.63,12.39-2.81,24.76-0.93,37.2c0.68,4.49,2.12,8.82,3.21,13.22C110.95,109.54,111.36,109.48,111.78,109.43z"/>
	<path class="st0" d="M70.14,64.34c0-8.13,0.08-16.25-0.04-24.38c-0.04-2.84,0.94-5.16,3.13-5.45c1.75-0.23,4.13,0.7,5.42,2.1
		c3.44,3.77,4.63,9.07,4.67,14.27c0.19,25.89,0.16,51.78-3.17,77.48c-0.25,1.9-1.29,3.69-2.06,5.47c-2.55,5.89-5.09,11.8-7.75,17.62
		c-2.09,4.59-4.18,9.21-6.61,13.56c-1.74,3.11-4.39,4.84-7.58,6.21c-3.13,1.34-5.97,4.22-8.37,7.07
		c-4.52,5.35-8.53,11.28-12.98,16.72c-1.46,1.79-3.47,3.18-5.45,4.14c-2.87,1.39-6.62,1.65-8.15-1.38
		c-1.15-2.29-0.67-6.64,0.48-9.27c1.68-3.88,4.45-7.21,7.02-10.5c5.93-7.59,10.22-16.23,14.56-25.15c4.42-9.1,3.88-18.15,4.27-27.49
		c0.16-3.8-0.22-7.66,0.15-11.42c0.41-4.11-1.29-6.24-4.26-7.41c-4.97-1.96-10.93-2.76-13.39-8.74c-3.77-9.18-6.69-18.88-4.92-29.4
		c0.46-2.72-0.11-4.68-1.23-7.22c-1.61-3.68-2.42-8.19-2.46-12.35c-0.08-7.6,0.6-15.21,1.07-22.8c0.27-4.36,2.33-8.24,4.39-8.09
		c3.51,0.25,5.24,3.12,5.77,6.74c1.42,9.6,2.56,19.26,3.97,28.87c0.67,4.61,1.52,9.21,2.62,13.7c0.52,2.13,1.66,4.17,2.87,5.92
		c0.69,1,2.29,2.07,3.11,1.77c0.84-0.3,1.72-2.25,1.73-3.48c0.06-9.65-0.02-19.3-0.19-28.95c-0.16-9.42,0-18.8,2.35-27.91
		c0.65-2.53,1.61-5.01,2.74-7.31c1.16-2.35,3.22-2.3,4.39,0.02c0.65,1.29,0.96,2.82,1.31,4.27c2.95,11.95,3.2,24.26,3.45,36.54
		c0.44,20.69,0.8,41.37,1.2,62.06c0.01,0.63-0.15,1.48,0.14,1.86c0.82,1.09,1.71,2.34,2.8,2.8c0.43,0.18,1.99-1.49,2.15-2.5
		c1.29-8.48,2.75-16.97,3.39-25.53c0.56-7.43,0.12-14.97,0.12-22.46C70.57,64.34,70.35,64.34,70.14,64.34z"/>
	<path class="st0" d="M184.83,11.99c3.52,4.06,6.4,9.02,10.43,11.62c5.25,3.39,7.38,8.3,9.02,14.3c2.41,8.81,6.36,17.3,7.45,26.29
		c2.18,17.95,0.65,35.57-9.91,50.43c-1.1,1.55-2.86,2.84-4.53,3.39c-3.26,1.08-6.64,1.97-10.01,2.22
		c-12.43,0.91-21.74-6.22-26.47-21.38c-2.04-6.54-2.33-13.83-3.2-20.82c-1.93-15.47-1.27-30.65,4.38-45.15
		c2.28-5.86,4.98-11.39,10.01-14.72c1.6-1.06,3.08-2.34,5.34-0.47C179.5,19.48,183.38,16.15,184.83,11.99z M184.36,89.79
		c3.36-4.55,6.58-8.69,9.56-13.05c0.94-1.38,1.82-3.35,1.76-5.01c-0.25-7.18-0.85-14.34-1.25-20.45c-6.57-5.1-10.83,0.23-15.61,2.38
		c-1.23,0.55-2.43,1.2-3.56,1.98c-0.71,0.49-1.52,1.16-1.82,1.98C168.04,72.33,174.24,85.24,184.36,89.79z"/>
	<path class="st0" d="M380.69,39.68c-19.25-3.14-37.49-0.84-55.78,3.14c-12.75,2.78-25.82,3.01-38.79,1.28
		c-2.14-0.28-4.32-1.07-6.27-2.14c-3.05-1.68-3.84-5.21-1.32-7.72c3.6-3.59,7.54-7.02,11.81-9.39c8.66-4.81,18.27-5.28,27.64-6.67
		c6.65-0.99,13.3-2.12,19.97-2.87c2.4-0.27,3.47-1.64,4.28-3.9c0.87-2.45,1.53-5.15,2.92-7.16c3.04-4.42,8.77-5.55,12.94-2.46
		c1.24,0.92,2.18,3.53,2.17,5.35c-0.05,8.38,1.38,10.33,8.77,10.83c11.52,0.77,23.05,1.47,34.56,2.35c5.66,0.44,8.9,4.4,9.02,10.37
		c0.07,3.22-1.15,5.47-3.73,6.43c-1.86,0.69-3.85,1.06-5.81,1.2C395.38,38.87,387.7,39.27,380.69,39.68z"/>
	<path class="st0" d="M429.47,183.42c-0.3,8.5-3.55,15.02-9.22,19.94c-10.97,9.53-22.78,17.15-36.16,21.36
		c-11.1,3.5-22.01,7.82-33.16,11.03c-6.75,1.95-13.65,3.03-20.86,2.36c-4.83-0.44-9.93,1.68-14.78,3.22
		c-8.46,2.7-16.81,5.89-25.24,8.74c-1.26,0.42-3.69,0.58-3.87,0.06c-0.55-1.57-0.94-4.18-0.19-5.22c2.84-3.92,5.75-8.09,9.38-10.87
		c10.05-7.67,21.15-13.09,32.68-16.91c7.87-2.6,16.1-3.74,24.19-5.42c18.93-3.94,37.88-7.73,55.38-17.68
		c5.25-2.98,9.1-6.92,9.99-13.93c0.19-1.49,0.76-2.91,1.15-4.36c0.67-2.5,2.24-4.16,4.39-3.62c1.72,0.43,3.87,1.66,4.66,3.29
		C428.92,177.72,428.97,180.72,429.47,183.42z"/>
	<path class="st0" d="M459.1,219.98c0.47-17.5,0.96-35.01,1.4-52.51c0.26-10.12,1.12-20.3,0.55-30.36
		c-1.44-25.24-5.46-50.05-11.13-74.49c-1.85-7.97-6.07-13.27-12.71-16.26c-2.49-1.12-5.66-2.13-5.63-6.04
		c0.04-3.85,2.9-5.4,5.6-6.69c5.18-2.49,10.07-1.48,14.21,2.56c7.86,7.67,13,16.74,14.17,29.32c1.66,17.82,0.61,35.72,2.32,53.48
		c0.81,8.42,2.3,16.77,2.79,25.21c0.76,13.28,0.79,26.62,3.12,39.74c0.15,0.86,0.25,1.83,0.07,2.65
		c-2.66,11.82,0.94,23.69-0.22,35.51c-0.61,6.16-1.01,12.36-2.01,18.44c-0.43,2.6-1.76,5.28-3.31,7.28
		c-2.97,3.84-6.43,2.81-7.63-2.1c-0.71-2.91-1.22-5.96-1.33-8.98c-0.21-5.57-0.06-11.17-0.06-16.75
		C459.23,219.98,459.17,219.98,459.1,219.98z"/>
	<path class="st0" d="M233.87,239.51c-0.71-5.24-1.58-10.47-2.1-15.74c-0.55-5.63-1.06-11.3-1.07-16.96
		c-0.02-9.52,0.13-19.05,0.67-28.54c0.32-5.64,0.86-11.47,2.43-16.77c3.36-11.35,3.79-22.56,2.5-34.45
		c-1.05-9.69-0.17-19.72,0.43-29.56c0.7-11.36,0.72-22.95,4.47-33.73c1.69-4.87,3.99-9.57,6.58-13.9c2.06-3.45,5.45-4.98,9.19-5.13
		c2.5-0.1,3.92,1.28,4.49,4c0.93,4.44-0.6,8.11-3.18,11.05c-5.75,6.55-7.35,14.73-7.69,23.59c-0.55,14.64-0.83,29.31-2.1,43.87
		c-0.41,4.67-3.11,9.42-5.63,13.39c-1.92,3.02-3.18,5.52-2.35,9.25c0.74,3.31,1.41,6.69,1.68,10.08c0.51,6.4,0.8,12.82,1,19.24
		c0.17,5.42,0.07,10.85,0.11,16.28c0.01,0.76,0.21,1.52,0.17,2.27c-0.65,14.16,1.33,28.55-2.8,42.39c-0.6,2.02-1.3,4.11-2.39,5.79
		c-0.65,1-2.31,1.94-3.24,1.66c-0.81-0.24-1.48-2.15-1.75-3.46c-0.3-1.44-0.07-3.03-0.07-4.55
		C233.44,239.57,233.66,239.54,233.87,239.51z"/>
	<path class="st0" d="M102.56,192.87c3.02,4.75,6.95,2.4,10.44,1.79c7.27-1.27,12.04,5.06,9.58,13.13c-0.77,2.51-1.57,5.01-2.5,7.44
		c-1.36,3.56-3.23,5.77-7.18,5.76c-3.18-0.01-6.37,1.68-9.53,2.69c-4.14,1.32-8.26,2.92-12.53,0.57c-0.36-0.2-0.93-0.28-1.27-0.1
		c-7.54,4.08-15.4,1.35-23.11,1.48c-3.36,0.06-6.65-0.58-9.9,1.53c-2.48,1.6-6.34-0.16-7.88-2.77c-3.03-5.15-3.22-9.44-0.56-13.26
		c3.25-4.66,8.03-5.4,12.56-5.36C75.6,205.88,89.74,203.18,102.56,192.87z"/>
	<path class="st0" d="M385.21,138.24c5.39,0.92,10.64,1.6,15.8,2.73c8.38,1.84,14.38,7.86,19.21,15.59c0.86,1.37,1.4,3.2,1.58,4.88
		c0.41,3.89-1.83,6.06-4.86,4.42c-6.83-3.7-14.11-3.46-21.33-3.96c-12.94-0.9-25.89-1.65-38.82-2.7c-6.1-0.5-9.23-4.64-8.45-10.46
		c0.37-2.74,1.54-5.02,3.99-5.42C363.31,141.51,374.31,139.91,385.21,138.24z"/>
</g>
</svg>
