<?xml version="1.0" encoding="utf-8"?>
<!-- Generator: Adobe Illustrator 25.0.1, SVG Export Plug-In . SVG Version: 6.00 Build 0)  -->
<svg version="1.1" id="圖層_1" xmlns="http://www.w3.org/2000/svg" xmlns:xlink="http://www.w3.org/1999/xlink" x="0px" y="0px"
	 viewBox="0 0 500 500" style="enable-background:new 0 0 500 500;" xml:space="preserve">
<style type="text/css">
	.st0{fill:#FFFFFF;}
</style>
<g>
	<path class="st0" d="M175.38,161.1c0.53-10.14,1.49-20.28,1.5-30.43c0.03-24.62-0.48-49.25-0.56-73.87
		c-0.05-16.4,1.21-32.71,4.36-48.79c0.34-1.74,1.81-3.23,2.76-4.83c1.58,1.18,3.69,2,4.66,3.61c4.75,7.89,6.25,16.78,6.2,26.03
		c-0.23,36.14-0.27,72.28-0.89,108.4c-0.09,5.33-0.8,10.44,0.89,15.63c1.44,4.41,2.48,4.94,5.75,1.59
		c6.46-6.64,11.89-14.15,14.52-23.43c4.71-16.58,9.14-33.24,13.75-49.85c2.03-7.32,4.15-14.6,6.33-21.87
		c0.57-1.92,1.48-3.72,2.73-6.8c2.1,3.03,3.99,5.07,5.1,7.51c2.87,6.31,2.85,13.19,2.57,19.98c-1.22,29.63-6.19,58.48-16.61,86.07
		c-3.6,9.52-9.35,17.13-18.37,22.05c-6.71,3.66-12.99,8.47-18.84,13.59c-4.91,4.29-3.01,17.23,2.9,19.56
		c11.87,4.69,18.3,14.77,23.92,25.7c6.64,12.93,10,26.94,11.38,41.6c0.51,5.37,2.59,10.56,3.12,15.93
		c1.01,10.24,1.37,20.55,2.07,30.82c1.59,23.44,3.17,46.89,4.89,70.32c0.3,4.09,1.2,8.14,1.95,12.18
		c2.87,15.56-1.04,29.95-6.81,43.94c-1.57,3.81-4.44,3.76-6.12-0.11c-1.49-3.43-2.89-7.3-2.92-10.99
		c-0.15-20.86,0.16-41.73,0.24-62.6c0.03-7.88-0.11-15.77-0.25-23.65c-0.03-1.67,0.02-3.56-0.65-4.98
		c-4.9-10.34-5.56-21.64-6.85-32.82c-0.79-6.85-1.24-13.83-2.87-20.47c-1.45-5.87-4.33-11.33-6.58-16.97
		c-1.64-4.12-3.2-8.27-4.92-12.35c-1.16-2.75-2.25-5.63-3.94-7.98c-0.92-1.27-3.23-2.41-4.55-2.06c-1.24,0.32-2.58,2.57-2.87,4.18
		c-0.51,2.8-0.21,5.77-0.31,8.66c-0.35,10.16-1.09,20.32-1,30.48c0.17,17.81,1.09,35.62,1.25,53.43c0.17,19.63-0.2,39.26-0.26,58.89
		c-0.03,9.82,0.41,19.64,0.13,29.45c-0.36,12.87-1.65,25.64-6.05,37.81c-0.33,0.9-0.65,1.84-1.17,2.62c-1.04,1.55-1.24,4.03-4,3.69
		c-2.77-0.34-5.34-1.09-6.3-4.1c-0.71-2.24-1.05-4.72-1.04-7.1c0.14-26.31,0.74-52.63,0.5-78.94c-0.2-22.45,0.31-44.83,1.93-67.22
		c0.63-8.75-0.81-17.65-1.15-26.5c-0.24-6.17-0.4-12.37-0.2-18.53c0.11-3.35-1.14-5.43-3.66-7.33c-5.71,7.49-8.54,16.05-10.15,25.17
		c-1.66,9.41-2.34,19.15-5.12,28.17c-4.07,13.22-3.87,26.68-4.58,40.18c-0.24,4.56-1.17,9.08-1.54,13.63
		c-0.44,5.42-1.16,10.91-0.8,16.3c0.53,7.95-3.12,14.8-4.17,22.29c-0.58,4.16-1.53,8.34-2.91,12.28c-1.27,3.62-4.23,4.34-6.82,2
		c-0.87-0.79-1.35-2.4-1.51-3.7c-1.3-10.25-0.79-20.47,0.07-30.77c1.12-13.51,1.4-27.11,1.91-40.68
		c1.22-32.56,4.73-64.63,13.64-96.06c3.36-11.85,9.01-21.47,15.9-30.86c6.11-8.33,8.81-17.94,8.24-28.52
		c-0.28-5.16-2.29-9.59-5.51-13.4c-3.69-4.35-6.72-8.88-7.89-14.97c-0.72-3.72-3.61-6.93-5.31-10.49
		c-7.5-15.77-11.49-32.69-13.39-50.09c-1.72-15.76-2.5-31.63-3.63-47.46c-0.21-2.9-0.39-6.51,2.61-7.59
		c3.19-1.15,4.33,2.57,5.59,4.76c4.33,7.54,5.26,16.15,6.32,24.69c1.27,10.2,1.94,20.6,6.04,30.09c3.03,7.02,6.54,13.82,10.18,20.51
		c1.31,2.41,3.63,4.19,5.49,6.26C174.28,161.71,174.83,161.41,175.38,161.1z"/>
	<path class="st0" d="M80.5,274.62c-0.52,3.33-1.4,6.65-1.51,10c-0.39,11.62-0.27,23.26-0.86,34.86c-0.29,5.62-1.75,11.18-2.6,16.77
		c-0.23,1.52-0.28,3.1-0.27,4.64c0.35,43.07,0.69,86.13,1.12,129.19c0.04,4.33-1.43,7.83-4.22,10.7c-2.73,2.81-5.79,2.2-7.49-1.36
		c-5.1-10.7-6.29-22.24-5.77-33.98c0.69-15.74,2.1-31.45,2.57-47.2c0.39-13.32-0.49-26.69-0.14-40.01
		c0.48-18.05,1.78-36.06,2.32-54.11c0.16-5.45-1.05-10.95-1.6-16.43c-0.31-3.13-0.45-6.28-0.9-9.38c-0.19-1.33-0.96-2.56-1.83-4.76
		c-0.89,2.05-1.42,3.19-1.88,4.36c-11.38,29.08-17.82,59.49-21.62,90.63c-0.6,4.9-1.7,9.75-2.9,14.54
		c-0.63,2.54-1.73,5.31-4.87,5.25c-3.18-0.06-4.79-2.4-5.71-5.38c-1.36-4.38-2.23-8.71-1.74-13.49c2.3-22.29,3.99-44.66,8.94-66.54
		c3.19-14.1,7.4-27.82,15.58-39.64c10.04-14.51,14.2-31.15,16.41-48.62c0.62-4.93-0.35-9.27-3.11-13.35
		c-5.45-8.07-10.59-16.38-16.08-24.42c-10.15-14.83-15.56-31.38-16.68-49.63c-0.16-2.61-0.95-5.19-1.56-7.76
		c-2.37-10.05-1.87-20.21-1.09-30.38c0.28-3.62,0.68-7.24,1.1-10.85c0.15-1.31,0.35-2.66,0.78-3.89c1.37-3.93,5-4.73,6.86-1.07
		c2.17,4.27,4.06,9.08,4.6,13.84c2.26,19.86,8.83,38.54,13.33,57.78c0.64,2.73,2.29,5.26,3.77,7.68c0.77,1.26,2.04,2.32,3.29,3.07
		c3.82,2.27,6.47,1.08,6.83-3.45c1.11-13.64,2.22-27.28,2.8-40.95c0.75-17.68,1.38-35.39,1.31-53.08
		c-0.07-18.11,0.62-36.12,2.9-54.06c0.19-1.48,1.59-2.79,2.43-4.17c1.21,0.91,3.12,1.56,3.51,2.78c3.29,10.17,8.14,19.64,7.96,31.15
		c-0.49,30.68-0.1,61.39,0.08,92.08c0.04,7.39,0.59,14.78,1.01,22.16c0.06,1.08,0.7,3,1.09,3c1.22,0.03,2.74-0.35,3.61-1.19
		c1.22-1.19,2.11-2.85,2.86-4.46c11.01-23.47,18.66-48.09,22.2-74.1c0.57-4.15,0.2-8.44,2.91-12.11c2.1-2.84,2.79-3.09,4.55-0.02
		c5.04,8.81,5.89,18.58,4.83,28.46c-1.56,14.56-4.28,29.01-5.41,43.6c-1.37,17.73-7.82,33.05-17.49,46.99
		c-3.17,4.57-7.26,8.96-11.83,11.75c-9.72,5.94-13.35,14.24-11.56,25.71c0.15,0.95,0.17,1.95,0.09,2.91
		c-0.59,7.31,1,12.76,7.26,17.7c7.22,5.7,10.44,15.24,12.74,24.42c4.39,17.55,7.82,35.39,12.4,52.88
		c5.58,21.29,6.12,43.04,6.82,64.86c0.6,19.02,1.88,38.01,2.35,57.02c0.14,5.7-1.11,11.52-2.32,17.14
		c-0.39,1.81-2.63,4.32-4.12,4.39c-1.6,0.08-4.24-1.99-4.8-3.72c-1.83-5.67-3.11-11.57-4.25-17.46
		c-3.09-15.94-1.32-32.14-2.01-48.21c-1.39-32.31-6.83-63.77-16.86-94.3c-2.06-6.28-4.36-12.47-6.56-18.7
		C81.56,274.69,81.03,274.66,80.5,274.62z"/>
	<path class="st0" d="M360.7,172.63c-2.42-5.32-5.92-8.06-10.04-9.56c-8.48-3.1-16.96-6.51-25.69-8.47
		c-17.64-3.97-32.22-13.57-45.43-26.03c-2.26-2.14-4.01-4.92-5.84-7.54c-1.72-2.45-0.81-4.07,1.81-4.63
		c1.99-0.42,4.11-1.12,6.04-0.8c5.93,1,11.71,1.4,16.87,6.31c9.88,9.41,22.37,14.25,34.6,19.26c6.15,2.52,12.48,4.55,18.64,7.05
		c2.55,1.04,4.35,0.28,5.52-1.89c1.16-2.16,1.92-4.59,2.66-6.98c0.95-3.09,1.77-6.23,2.48-9.39c0.24-1.07,0.2-2.35-0.12-3.4
		c-1.11-3.69-2.63-7.26-3.56-10.99c-1.83-7.38,0.49-13.12,6.41-16.72c4.19-2.55,14.48-0.38,17.34,3.72
		c0.43,0.62,0.73,1.57,0.66,2.32c-0.92,9.72,1.58,19.02,2.9,28.48c0.55,3.95,0.97,7.93,1.14,11.92c0.1,2.16,0.86,3.37,2.77,3.19
		c4.58-0.44,9.18-0.89,13.7-1.77c4.89-0.95,9.69-2.39,14.53-3.62c0.65-0.17,1.35-0.25,1.94-0.57c6.29-3.36,12.58-6.71,18.82-10.15
		c3.54-1.95,7.19-3.82,8.24-8.57c0.12-0.54,0.9-0.95,1.43-1.33c3.26-2.35,6.8-4.34,9.73-7.08c4.3-4.03,8.84-6.74,14.74-6.27
		c4.56,0.36,7.37,4.36,6.25,9.08c-0.22,0.93-0.46,2.03-1.06,2.65c-6.15,6.39-11.56,14.14-18.74,18.73
		c-14.42,9.22-29.92,16.52-46.6,20.12c-6.32,1.36-12.85,1.64-19.21,2.85c-2.15,0.41-4.49,1.73-6,3.4c-2.34,2.59-1.52,6.11,1.69,7.25
		c8.08,2.86,16.35,5.1,24.4,8.04c6.41,2.34,13.16,4.42,18.76,8.27c7.76,5.32,14.6,12.18,21.81,18.41c1.94,1.68,3.62,3.81,5.74,5.15
		c5.47,3.44,7.73,8.56,7.85,15.08c0.03,1.32,0.4,2.63,0.57,3.95c0.74,5.66-0.48,7.4-5.94,7.31c-8.69-0.14-16.11-3.16-20.5-11.85
		c-2.05-4.05-4.55-7.52-8.69-9.36c-0.58-0.26-1.14-0.85-1.48-1.44c-8.93-15.16-23.02-22.14-38.17-27.52c-2.82-1-5.28-0.96-8.18-0.03
		c-3.92,1.26-5.73,3.71-5.68,7.74c0.1,8.32,0.46,16.64,0.62,24.97c0.02,1.32-0.33,2.7-0.72,3.97c-1.09,3.49-2.77,6.85-3.32,10.42
		c-0.59,3.78-0.14,7.74-0.15,11.62c-0.01,7.05-9.42,13.08-15.34,9.79c-1.21-0.67-2.29-1.59-3.46-2.33c-2.63-1.65-3.24-3.94-3.2-7.24
		c0.26-17.33,0.28-34.67,0.15-52.01c-0.05-5.83-4.01-8.4-9.12-5.85c-5.33,2.67-10.62,5.63-15.45,9.2c-5.4,4-10.18,8.93-15.37,13.27
		c-7.59,6.35-15.23,12.63-22.96,18.78c-5.33,4.23-10.82,8.24-16.3,12.26c-4.96,3.64-10.53,3.5-16.08,2.3
		c-1.5-0.32-3.57-1.43-3.98-2.7c-0.4-1.2,0.62-3.63,1.72-4.57c3.72-3.15,7.72-5.94,11.69-8.73c3.7-2.6,7.63-4.84,11.24-7.57
		c3.43-2.6,6.56-5.56,7.83-10.23c0.3-1.12,1.81-2.08,2.96-2.69c9.79-5.14,19.71-10.01,29.43-15.32c4.53-2.48,8.65-5.8,13.04-8.6
		c1.93-1.23,4.04-2.17,6.11-3.13C346.19,179.25,353.28,176.03,360.7,172.63z"/>
	<path class="st0" d="M470.6,330.22c-0.49,3.47-2.13,5.34-4.89,5.72c-2.57,0.36-5.21,0.49-7.8,0.35c-9.07-0.52-18.13-1.51-27.2-1.7
		c-6.29-0.13-12.67,0.29-18.88,1.33c-5.43,0.91-5.89,2.01-5.71,7.82c0.11,3.72,0.51,7.46,1.1,11.13c0.43,2.71,2.17,4.06,4.91,3.92
		c7.27-0.37,14.61-0.09,21.79-1.09c12.96-1.8,24.42,3.11,35.93,8c1.15,0.49,2.36,2.65,2.38,4.06c0.05,5.14-0.19,10.3-0.7,15.42
		c-0.67,6.69-2.02,13.32-2.43,20.02c-0.22,3.6,0.85,7.3,1.5,10.93c0.79,4.38,1.83,8.7,2.6,13.08c0.31,1.75,0.61,3.7,0.23,5.38
		c-2.78,12.09-1.05,24.03,0.71,36.01c0.84,5.69,0.84,11.34-1.69,16.7c-0.96,2.03-2.09,3.29-4.47,2.87
		c-3.57-0.63-7.19-0.94-10.76-1.58c-2.04-0.37-3.12-1.91-2.97-4.17c0.17-2.65,0.29-5.31,0.69-7.93c1.05-6.82,2-13.5-0.03-20.45
		c-0.82-2.78,0.28-6.19,0.48-9.32c0.08-1.2,0.51-2.64,0.06-3.56c-1.92-3.91-1.36-7.83-0.99-11.99c0.49-5.48-2.48-10.04-4.9-15.84
		c-2.88,7.26-7.95,5.28-12.59,5.18c-7.49-0.17-15.04,0.4-22.47-0.34c-12.94-1.28-25.61,0.99-38.41,1.89
		c-8.87,0.63-17.88-0.83-26.82-1.56c-5.09-0.42-9.71-2.29-13.09-6.64c-0.85-1.1-1.84-2.38-2.03-3.7c-0.59-4.15-0.94-8.36-1.16-12.56
		c-0.3-5.75-0.5-11.52-0.53-17.28c-0.01-2,1-4.01,0.93-5.99c-0.13-3.69-0.54-7.4-1.12-11.05c-0.9-5.61,1.56-8.67,6.55-6.96
		c4.57,1.56,8.85,4.16,13.15,6.52c0.66,0.37,1.29,2.11,1.04,2.88c-3.54,10.82-2.43,21.8-1.13,32.76c0.89,7.54,2.53,9.6,9.66,10.2
		c6.31,0.54,12.71,0.11,19.07-0.14c3.02-0.12,4.85-1.69,5.25-5.39c0.48-4.42,2-8.71,2.54-13.13c0.29-2.4,0.13-5.39-1.01-7.33
		c-1.79-3.05-1.47-5.87-1.03-8.98c1.38-9.62,2.48-19.24-0.58-28.77c-0.56-1.75-0.3-4.31-1.37-5.24c-1.41-1.23-3.77-1.67-5.72-1.67
		c-6.17,0.01-12.37,0.09-18.51,0.69c-5.29,0.52-10.5,1.88-15.77,2.64c-1.61,0.23-3.33-0.19-4.99-0.45
		c-4.38-0.69-8.79-1.29-13.11-2.28c-1.71-0.39-3.24-1.71-4.85-2.61c0.1-0.37,0.19-0.73,0.29-1.1c7.73-0.96,15.45-2.19,23.2-2.84
		c19.5-1.63,39.08-2.39,58.51-4.69c15.22-1.8,30.37-1.3,45.56-1.14C456.25,326.34,463.52,327.1,470.6,330.22z M453.11,410.62
		c0-3.47,0.08-5.88-0.01-8.28c-0.28-7.35,0.46-14.86-2.45-21.86c-2.4-5.8-5.43-10.73-12.56-9.8c-1.54,0.2-3.17-0.41-4.75-0.38
		c-9.71,0.15-19.42,0.38-29.21,0.59c0,9.39-0.28,17.98,0.1,26.53c0.25,5.65,1.36,6.92,6.58,7.31c8.48,0.64,17.03,0.34,25.52,0.89
		c3.4,0.22,6.74,1.6,10.07,2.58C448.43,408.79,450.38,409.62,453.11,410.62z"/>
	<path class="st0" d="M393.56,13.24c12.07-1.31,24.01-2.08,35.75-4.12c5.66-0.98,11.05-4.13,16.4-6.7
		c3.11-1.49,9.73,0.04,12.37,3.53c1.72,2.27,0.99,6.63-2.68,9.04c-4.66,3.06-9.83,5.33-14.96,7.46c-4.83,2.01-10.11,2.9-14.8,5.18
		c-4.91,2.39-5.87,6.11-3.35,11.13c2.68,5.33,5.53,10.65,8.95,15.46c1.83,2.57,4.87,4.31,7.62,5.94c5.86,3.48,11.94,6.55,17.82,9.99
		c2.27,1.32,4.47,2.96,6.32,4.87c2.43,2.52,2.17,5.3-0.52,7.46c-2.96,2.37-6.05,3.77-10.11,2.92c-16.23-3.41-31.34-9.28-43.78-21.37
		c-1.36-1.33-2.53-3.16-3.17-5.01c-2.88-8.41-7.55-15.66-13.82-21.33c-2.53-2.28-6.92-3.01-10.47-3.04
		c-5.42-0.03-10.87,0.98-16.26,1.88c-5.36,0.9-10.55,4.22-7.79,12.77c2.45,7.6,4.93,14.95,9.33,21.64c2.1,3.18,2.75,7.56,3.62,11.51
		c0.49,2.23-0.74,4.18-3.11,4.3c-4.39,0.22-8.79,0.22-13.18,0.15c-0.79-0.01-1.83-0.6-2.33-1.28c-5.38-7.35-10.95-14.57-15.9-22.25
		c-2.93-4.54-4.13-9.96-2.62-15.8c-6.48-2.66-12.87-1.93-19.17-0.09c-5.7,1.67-11.28,3.78-16.93,5.65
		c-3.81,1.26-6.39,3.73-8.07,7.71c-1.12,2.66-3.17,4.87-5.33,8.05c1.1,1.79,2.4,4.48,4.2,6.69c3.8,4.67,7.89,9.07,11.81,13.63
		c2.24,2.6,1.96,4.2-0.91,6.02c-5.62,3.55-15.49,2.95-20.59-1.45c-5.84-5.03-11.87-9.87-17.19-15.47
		c-2.87-3.02-4.92-7.24-6.42-11.31c-1.39-3.79-0.38-7.47,3.15-10.19c4.7-3.62,8.99-7.84,13.7-11.45c1.9-1.46,4.34-2.4,6.66-2.89
		c10.79-2.3,21.59-4.57,32.46-6.42c6.37-1.09,12.88-1.19,19.28-2.1c5.38-0.77,10.69-2.07,16.04-3.14c4.67-0.93,9.38-1.72,14.01-2.86
		c2.97-0.73,5.81-2.03,8.72-3.02c7.23-2.46,14.47-4.92,21.72-7.32C392.37,16.86,394.45,16.06,393.56,13.24z"/>
	<path class="st0" d="M287.64,312.97c-0.41,4.82-1.1,9.63-1.16,14.45c-0.06,5.41,0.4,10.82,0.74,16.23
		c0.64,10.14,1.29,20.27,2.05,30.4c0.32,4.34,0.97,8.64,1.39,12.97c1,10.37-0.93,20.25-4.48,29.86c-1.54,4.17-3.16,8.34-4.26,12.65
		c-2.45,9.54-4.58,19.17-6.88,28.75c-1.15,4.81-2.36,9.6-3.57,14.4c-0.96,3.82-7.66,8.12-11.23,7.23c-2.17-0.54-4.7-5.54-4.41-9.15
		c0.16-2.04,0.58-4.08,1.1-6.05c2.05-7.63,3.85-15.18,7.01-22.62c4.25-10.02,7.6-20.72,8.77-32.16c1.43-14.05,4.72-27.86,4.27-42.18
		c-0.39-12.33-2.46-24.43-3.77-36.64c-1.01-9.39-1.67-18.83-2.19-28.27c-0.28-5.12,2-9.38,5.32-12.96
		c7.98-8.61,17.97-11.95,29.01-12.51c8.95-0.46,18.05,0.03,26.81-1.56c18.86-3.42,37.84-2.97,56.8-3.77
		c5.08-0.22,10.1-1.86,15.18-2.13c7.81-0.42,15.66-0.44,23.48-0.23c8.87,0.25,17.75,0.66,26.57,1.6c3.44,0.36,6.89,2.02,10.01,3.76
		c1.15,0.64,2.3,3.71,1.78,4.74c-0.71,1.43-2.9,2.4-4.61,2.77c-1.57,0.34-3.34-0.54-5.03-0.58c-11.13-0.3-22.26-0.71-33.39-0.71
		c-15.69,0-31.39,0.44-47.08,0.47c-6.57,0.01-13.15-0.82-19.72-0.77c-3.94,0.03-7.86,1.17-11.81,1.55
		c-8.82,0.85-17.67,1.42-26.48,2.35c-4.28,0.45-8.55,1.27-12.75,2.26c-7.23,1.7-12.48,6.77-16.04,13.2
		c-1.93,3.48-1.79,8.26-2.59,12.45C286.89,312.83,287.27,312.9,287.64,312.97z"/>
	<path class="st0" d="M440.94,304.31c-15.82,0.61-32.09,1.04-48.33,1.93c-9.3,0.51-18.65,1.15-27.8,2.84
		c-9.46,1.75-18.93,1.56-28.39,1.82c-2.84,0.08-5.9-1.56-8.53-3.06c-2.45-1.4-2.18-3.82,0.47-4.75c2.67-0.93,5.52-1.45,8.32-1.72
		c7.21-0.68,14.45-1.18,21.68-1.64c4.75-0.3,9.5-0.39,14.25-0.64c2.49-0.14,4.97-0.46,7.46-0.66c15.09-1.19,30.18-2.33,45.26-3.56
		c5.33-0.44,10.65-1.04,15.96-1.65c7.15-0.82,13.31,2.32,19.41,5.56c0.47,0.25,0.58,2.83,0.13,3.16c-1.52,1.08-3.35,2.17-5.12,2.28
		C450.94,304.51,446.15,304.31,440.94,304.31z"/>
</g>
</svg>
