<?xml version="1.0" encoding="utf-8"?>
<!-- Generator: Adobe Illustrator 25.0.0, SVG Export Plug-In . SVG Version: 6.00 Build 0)  -->
<svg version="1.1" id="圖層_1" xmlns="http://www.w3.org/2000/svg" xmlns:xlink="http://www.w3.org/1999/xlink" x="0px" y="0px"
	 viewBox="0 0 262.8 337.9" style="enable-background:new 0 0 262.8 337.9;" xml:space="preserve">
<style type="text/css">
	.st0{fill:#A39B97;}
	.st1{fill:#0F0D0C;}
	.st2{fill:#FFFFFF;}
</style>
<g>
	<path class="st0" d="M58.6-0.1c0.5,0.7,0.8,1.5,0.9,2.3c0.5,3.3,2.3,6,4.3,8.5c4.2,5.3,9.9,8.5,15.9,11.2c2.9,1.3,6.2,1.6,9.2,2.5
		c4.1,1.2,8.3,2.3,12.5,3.2c4.7,1,9.1,2.5,13.5,4.4c3,1.3,5.9,2.8,8.4,4.8c3.3,2.7,5,6.2,5,10.6c0,3.2-0.8,6.2-2.2,9.1
		c-1.1,2.2-2.7,4.1-4.3,5.9c-5.3,5.9-11.1,11.3-17,16.5c-0.1,0.1-0.2,0.1-0.2,0.1c-1.1-1.1-2.1-2.2-3-3.4c-0.1-0.3,0.2-0.5,0.4-0.7
		c5.9-6.5,9-14.1,8.7-23c-0.1-2.4,0-4.9-1-7.2c-2.2-5.1-5.2-9.7-10.3-12.2c-3.4-1.6-6.9-2.8-10.5-3.9c-4.7-1.5-9.4-3-14.1-4.6
		c-5.9-2.1-10-6.4-13.1-11.7c-2.3-3.9-3.4-8-3.4-12.5C58.3-0.1,58.4-0.1,58.6-0.1z"/>
	<path class="st1" d="M196.6,153.6c3.1,3.4,6.8,6.1,10.9,8.3c3.1,1.6,6.2,2.8,9.8,2.8c0.8,0,1.6,0.3,2.4,0.4c1,0.2,1.9,0.3,2.9,0
		c0.6-0.2,1.2-0.1,1.4,0.5c0.2,0.5,0.1,0.9-0.4,1.4c-0.9,0.8-1.7,1.8-2.9,1.9c-2.6,0.3-5.3,0.5-8,0.5c-2.6,0-5.2-0.4-7.6-1.4
		c-0.1-0.3-0.3-0.4-0.6-0.2c-0.6-0.2-1.2-0.5-1.8-0.7c-0.1-0.3-0.3-0.4-0.6-0.3c-0.2-0.1-0.4-0.2-0.6-0.2c-0.6-0.5-1.3-0.9-2.1-0.9
		c-0.6-0.3-1.2-0.6-1.8-0.9c-0.4-0.5-0.9-0.8-1.5-0.9c-0.1,0-0.1-0.1-0.2-0.1c-0.3-0.5-0.7-0.8-1.3-0.8c-0.1,0-0.1-0.1-0.1-0.1
		c-0.1-0.3-0.2-0.4-0.6-0.4c-0.1,0-0.1-0.1-0.1-0.1c-0.4-0.7-1-1.1-1.8-1.4c-0.1-0.1-0.3-0.2-0.4-0.3c-0.5-0.8-1.1-1.5-2-1.8l0,0
		c-1.7-2.3-3.5-4.4-5.2-6.7c-0.5-0.7-1.4-1.1-2.4-1c-2.3-0.5-3.7,0.1-5.2,2.4c-0.1,0.1-0.3,0.1-0.3,0.1c-1.8,3.3-4.7,5.7-7.5,8.1
		c-1.3,1.1-2.8,2-4.2,2.9c-0.2,0.1-0.4,0.2-0.6,0.4c-0.6,0-1.1,0.4-1.6,0.7c-3.3,1.8-6.7,2.8-10.4,3.1c-1,0.1-2.2,0.2-2.8-1
		c0.9-1.4,2.4-1.9,3.8-2.2c6.1-1.6,10.6-5.3,14.2-10.3c1.7-2.4,3.8-4.5,5-7.3c2.4-5.8,4.2-11.7,4.2-18.1c0-1.4-0.5-2.3-1.7-3.1
		c-0.9-0.6-1.7-0.2-2.5,0c-3.3,0.8-6.2,2.5-8.5,4.9c-4.1,4.1-8.1,8.4-11.6,13.1c-1.4,1.9-2.5,3.9-3.3,6.1c-1.2,3.4-3,6.5-5.3,9.2
		c-3.7,4.3-8.5,7-13.8,8.7c-2.7,0.9-5.4,1.5-8.1,2c-0.9,0.1-2.1,0.4-2.4-0.5c-0.3-0.8,0.9-1.4,1.6-1.8c2.2-1.3,4.7-1.7,7.2-2.2
		c2.1-0.5,3.9-1.3,5.4-2.9c0.7-0.7,0.6-1.3,0.2-2c-0.5-0.8-1.1-1.6-1.7-2.3c-2.6-3.3-3.9-6.9-4.1-11.1c-0.3-5,0.1-10,0.6-14.9
		c0.3-2.8,0.3-5.7,0-8.5c-0.2-2.8-1.3-4.2-4-5c-2.2-0.7-4.3-1.7-6.1-3.2c-1.2-1-1.1-1.7,0.3-2.3c1.9-0.8,3.9-0.7,5.8,0.2
		c2.5,1.1,2.9,0.7,3.2-2.1c0.3-3.7-0.9-6.8-3.2-9.6c-0.8-1.1-1.8-2-2.7-3c-0.4-0.4-0.5-0.7-0.2-1.2c1.4-2.4,5.6-2.8,7.5-0.7
		c1.5,1.6,3.1,3,4.1,4.9c0.8,1.5,1.2,3.1,1.6,4.7c0.4,2.1,0.9,4.2,1.3,6.3c0.5,2.6,2.9,4.1,5.5,3.8c1.5-0.2,2.9-0.3,4.4-0.8
		c1.3-0.4,2.5-1.1,3.5-2c1.8-1.5,3.8-2.4,6-2.7c0.6-0.1,1.2-0.1,1.5,0.4c0.3,0.6-0.3,1-0.7,1.4c-1.4,1.2-2.9,2.4-4.6,3.2
		c-0.8,0.3-1,0.7-0.7,1.5c0.4,0.8,0.5,1.7,0.6,2.6c0.4,4.9,0.7,9.7,0.3,14.6c0,0.3,0,0.6,0,0.9c0.6,0.1,0.8-0.5,1.1-0.8
		c1.7-1.8,3.4-3.6,5.3-5.2c4.5-3.6,9.7-5.4,15.2-6.8c1.8-0.5,2.6-1.4,2.5-3.2c-0.2-2.6-0.5-5.2-0.7-7.7c-0.1-1.7,0.1-3.3-0.2-5
		c-0.3-1.6-0.6-3.2-1.5-4.7c-0.5-0.9-1.2-1.3-2.2-1.3c-3.4,0.1-6.8-0.5-9.9-1.9c-2-0.9-3.7-2.3-4.9-4.1c-0.7-1.1-0.5-1.6,0.6-2.2
		c1.9-0.9,3.7-1.1,5.5,0.4c1.9,1.6,4.1,2.6,6.5,3.2c3.7,1,7.2,0.2,10.8-0.8c2.2-0.6,3.9-1.9,5.3-3.7c1.8-2.3,4.3-2.7,7-2.6
		c1.1,0,1.3,0.6,0.8,1.5c-1.6,3-4.2,4.8-7.1,6.3c-1.5,0.8-2.4,1.9-3,3.4c-0.2,0.7-0.4,1.3-0.4,2c0.6,4.1,0.7,8.3,1.7,12.4
		c0.2,1,0.5,1.9,0.8,2.9c0.7,2.3,2,3.3,4.4,3.6c3.8,0.3,7.4,1,11,2.4c3.9,1.6,7.4,3.8,9.7,7.5c0.4,0.5,0.6,1.1,0.9,1.7
		c0.7,1.7,0.5,2.3-1.2,3.1c-1.7,0.8-3.5,1.3-5.4,1.3c-0.9,0-1.6-0.4-1.9-1.4c-0.6-2.1-1.9-3.7-3.5-5c-2.8-2.3-5.9-3.9-9.4-4.7
		c-1.4-0.3-3.4,0.3-4.1,1.4c-0.4,1.3-0.5,2.7-0.2,4.1c0.1,0.8,0.5,1.4,0.8,2.1c-0.1,0.2-0.1,0.4,0,0.6c1.2,3,2.4,6,3.6,9
		c0.2,0.5,0.3,1.2,1,1.4c0,0.1,0.1,0.1,0.1,0.2c-0.1,0.3,0,0.5,0.4,0.6c0.2,0.3,0.4,0.6,0.7,0.8c0.6,1.2,1.2,2.4,2,3.6
		c0.3,0.5,0.1,1.2,0.9,1.4c0.1,0.1,0.2,0.3,0.3,0.4c-0.1,0.3,0.1,0.5,0.4,0.5c0.1,0.1,0.2,0.3,0.3,0.4
		C196.1,153.5,196.2,153.6,196.6,153.6z M145.8,127.6c0-1.5,0-3,0-4.6c0.1-2.2-1.2-3.3-3.3-3c-0.8,0.1-1.6,0.3-2.5,0.4
		c-2.4,0.3-3.4,1.3-3.6,3.8c-0.2,2.8-0.3,5.6-0.5,8.4c-0.5,5.4-0.5,10.7,0.4,16c0.3,1.6,0.9,3.1,1.8,4.4c1,1.4,2.2,1.3,2.9-0.3
		c0.7-1.4,1.2-2.8,1.7-4.2C144.9,141.6,145.8,134.7,145.8,127.6z"/>
	<path class="st1" d="M101.5,75.6c0.9,1.2,1.9,2.3,3,3.4c0,0.2,0,0.4,0,0.6c0.2,1.2,1,2.3,1.1,3.6c-0.5,0.9-1.4,1.2-2.2,1.5
		c-1.6,0.6-3.3,0.8-5,0.7c-0.7-0.4-1-1-1.3-1.7c-0.6-1.4-1-3-2.5-3.9c-1.1-1.2-2.4-1.9-3.7-2.8c-1.8-1.6-4-2.3-6.3-2.7
		c-1.4,0-2.8-0.1-3.8,1.3c-0.5,1.9-0.8,3.8,0,5.7c0.5,1.2,0.9,2.4,1.4,3.6c0.8,2.1,1.5,4.3,2.5,6.3c0.6,1.3,1.7,2.4,2.2,3.7
		c1.1,2.8,2.9,5,4.8,7.2c0.2,0.3,0.5,0.7,0.9,0.6c0.4,0.3,0.7,0.7,1.1,1.1c0.2,0.6,0.7,1,1.3,1.1c0.1,0.1,0.3,0.2,0.4,0.3
		c0.1,0.4,0.4,0.6,0.8,0.6c0.1,0.1,0.3,0.2,0.4,0.3c0.1,0.3,0.2,0.4,0.6,0.4c0.1,0,0.1,0.1,0.2,0.1c0.1,0.3,0.2,0.4,0.6,0.4
		c0.1,0,0.1,0.1,0.2,0.1c0.1,0.3,0.3,0.4,0.6,0.4c0.1,0,0.1,0.1,0.2,0.1c0.1,0.3,0.3,0.4,0.6,0.4c3.1,1.9,6.3,2.7,9.9,1.7
		c0.6-0.2,1.1,0.4,1.7,0.3c1-0.2,2-0.2,3-0.4c0.7-0.2,1.5-0.2,1.9,0.5c0.5,0.8-0.1,1.5-0.6,2c-0.7,0.7-1.4,1.3-2.3,1.7
		c-3.1,1.2-6.1,2.7-9.6,2.1c-6-1-11.1-3.8-15.9-7.2c0-0.3-0.2-0.5-0.5-0.4c-0.4-0.3-0.8-0.7-1.2-1c0-0.3-0.2-0.5-0.5-0.5
		c-0.7-0.7-1.4-1.4-2.2-2.2c-0.1-0.5-0.4-0.9-0.9-1c0-0.1-0.1-0.1-0.1-0.2c-0.7-1.8-2.1-3.1-3.3-4.6c0-0.1,0-0.2,0-0.3
		c0-0.2-0.1-0.2-0.2-0.2c-1.6-1-3.3-1-5-0.6c-0.6,0.2-1,0.8-1.4,1.3c-1.9,2.8-4.2,5.1-6.8,7.2c-4.5,3.8-9.7,6.4-15.6,7.3
		c-1.3,0.2-2.6,0.3-3.9,0.1c-0.4-0.1-1-0.2-1.1-0.6c-0.1-0.4,0.3-0.8,0.8-1.1c1.2-0.7,2.5-1.2,3.9-1.4c3.1-0.5,5.7-2.1,8-4.1
		c3.4-2.8,6.2-6.3,8.6-9.9c2.8-4,4.1-8.7,5.2-13.3c0.5-2.2,0.7-4.5,0.7-6.8c0-1.9-1.4-3-3.3-2.7c-3.5,0.5-6.5,2.3-9,4.6
		c-4.1,3.8-8.1,7.9-11.6,12.3c-1.4,1.7-2.5,3.6-3.3,5.7c-1.2,3.2-3,6.1-5.3,8.6c-4,4.4-9.1,6.9-14.8,8.4c-2.3,0.6-4.7,1.1-7,1.4
		c-0.8,0.1-1.8,0.2-2-0.5c-0.2-0.8,0.7-1.2,1.4-1.6c1.9-1.1,4-1.4,6-1.8c1.7-0.3,3.3-0.8,4.9-1.6c0.8-0.4,1.3-1.1,1.9-1.6
		c0.6-0.5,0.2-1.1-0.1-1.6c-0.5-0.8-1-1.5-1.6-2.3c-2.5-3.3-3.5-7.1-3.7-11.3c-0.2-4.8,0.5-9.5,1-14.2c0.3-2.7,0.4-5.5,0.2-8.2
		c-0.1-2.3-1.2-3.9-3.5-4.6c-2.2-0.7-4.3-1.7-6-3.3c-1.1-1-1-1.6,0.3-2.2c1.4-0.6,2.9-0.7,4.4-0.2c0.5,0.2,1,0.4,1.5,0.6
		c1.9,0.9,2.5,0.4,2.8-1.7c0.6-4.1-0.8-7.6-2.7-11.1c-0.4-0.7-0.9-1.4-1.6-1.9c-0.8-0.7-0.7-1.2,0-1.8c0.5-0.4,1-0.7,1.7-0.8
		c4.3-0.6,6.8,1.1,8.6,5.5c1.1,2.5,1.2,5.2,1.5,7.8c0.1,1.1,0.2,2.1,0.4,3.2c0.4,2.6,2.7,4.3,5.3,4.1c3.1-0.2,6-0.9,8.5-3
		c1.4-1.2,3.2-1.8,5.1-1.9c0.6,0,1.3-0.1,1.5,0.5c0.2,0.6-0.4,1-0.8,1.3c-1.5,1.2-3,2.3-4.7,3c-0.3,0.1-0.8,0.1-0.6,0.8
		c1,3,0.7,6.1,0.9,9.2c0.1,2.9-0.1,5.8-0.4,8.8c0.9-0.2,1.3-0.9,1.7-1.4c4.6-5.2,10.5-8.2,17.2-9.8c0.9-0.2,1.8-0.4,2.7-0.7
		c1.5-0.4,2.3-1.3,2.3-2.9c-0.1-2.4-0.3-4.8-0.4-7.3c-0.1-1.7,0.3-3.3,0-5c-0.2-1.6-0.5-3.1-1.3-4.6c-0.4-0.8-1.1-1.3-2.1-1.3
		c-3.3-0.1-6.5-0.6-9.5-2.1c-1.9-1-3.5-2.3-4.7-4.2c-0.6-1-0.4-1.5,0.6-2c2-0.9,3.9-0.9,5.7,0.7c2.9,2.6,6.4,3.8,10.2,3.6
		c3.2-0.1,6.5-0.6,9.3-2.5c0.6-0.4,1.2-1,1.6-1.6c1.8-2.3,4.2-2.8,6.8-2.7c1.3,0,1.5,0.6,0.9,1.7c-1.6,2.8-4.2,4.4-7,5.8
		c-2.3,1.1-3.3,3.1-3.2,5.4c0.2,3.6,0.6,7.2,1.1,10.7c0.2,1.5,0.6,2.9,1,4.3c0.5,1.7,2,2.8,3.8,3C88.9,70,93,71,96.8,72.8
		c1.3,0.6,2.5,1.5,3.7,2.4C100.8,75.5,101,75.7,101.5,75.6z M42.4,72.4c0-1,0-2,0-3c0.1-2.2-1-3.3-3.2-3.1c-0.9,0.1-1.7,0.2-2.6,0.3
		c-2,0.2-3,1.3-3.2,3.3c-0.2,1.5-0.3,3-0.4,4.5c-0.5,5.7-1.4,11.4-0.7,17.2c0.2,2.1,0.6,4,1.6,5.8c0.4,0.7,1,1.4,1.8,1.4
		c0.8,0,1.2-0.7,1.5-1.4c0.5-1.2,1.1-2.5,1.6-3.8C41.2,86.9,42.2,79.7,42.4,72.4z"/>
	<path class="st1" d="M166.6,220.2c-0.1-2.1-1.1-2.9-3.1-2.8c-8.7,0.8-16.9,3.3-24.3,7.9c-1.5,0.9-2.6,2.2-3.6,3.6
		c-1.4,1.9-3.3,2.9-5.7,3c-1.6,0-2.4-1-2-2.6c0.1-0.4,0.3-0.8,0.5-1.1c1.7-2.5,3.7-4.8,6.2-6.4c5.6-3.7,11.7-6.5,18.4-7.9
		c3.9-0.8,7.8-1.2,11.8-1.5c2.1-0.2,3.6-1.6,3.6-3.7c0-2.4-0.1-4.7-0.9-7c-0.7-2.2-2.6-3.7-4.9-3.9c-6.5-0.4-12.7-1.9-18.3-5.3
		c-1-0.6-1.9-1.2-2.6-2.3c-0.5-0.8-0.2-1.3,0.5-1.6c1.1-0.5,2.2-0.6,3.4-0.3c2.5,0.5,4.9,1.4,7.2,2.5c3.5,1.5,7.1,2.4,10.8,2.9
		c1.9,0.2,2.4-0.2,2.8-2.1c0.2-1.2,0.3-2.3,0.4-3.5c0.2-2,0.6-3.9,0.6-5.9c-0.1-1.4,2.4-3.1,4.3-3.4c2.7-0.5,3.6,0.6,4,3.2
		c0.4,2.3,0.2,4.8,0.3,7.2c0.1,3,1.4,3.9,4.3,3c2.1-0.6,3.9-1.8,5.6-3.1c3.2-2.5,6.8-3.8,10.9-3.7c0.2,0,0.3,0,0.5,0
		c0.6,0,1.3,0.1,1.5,0.7c0.2,0.6-0.4,1-0.8,1.3c-3.7,3.2-8.2,4.9-12.7,6.6c-1.8,0.6-3.7,1.1-5.2,2.5c-1.3,1.1-2.1,2.5-2.3,4.1
		c-0.4,2.6-0.5,5.3-0.5,7.9c0,0.6,0.3,0.9,0.7,1.3c1.7,1.8,3.8,2.3,6.1,2.5c3.9,0.4,7.9,0.8,11.7,1.6c0.2,0.1,0.5,0,0.7,0
		c1.7,0.6,3.6,0.8,5.3,1.5c4.8,1.9,8.9,4.8,13,7.7c1.7,1.2,1.5,2.3-0.4,3.1c-3,1.2-5.8,1.4-8.6-0.8c-2.5-2-5.4-3.3-8.4-4.6
		c-0.2-0.1-0.5-0.1-0.8-0.1c-1.6-0.9-3.5-1.2-5.2-1.7c-3.6-0.7-7.3-1.3-11-1.6c-2.7-0.3-5.1,1.2-5.9,3.9c-1,3.1-2.6,5.9-4.4,8.6
		c-2.5,3.7-5.7,6.8-8.5,10.2c-0.9,1.1-1.8,2.2-2.3,3.6c-0.6,0.8-0.9,1.8-0.9,2.8c0,0.1-0.1,0.3-0.1,0.4c-0.4,0.3-0.4,0.6-0.2,0.9
		c0,0.1,0,0.3,0,0.4c-0.8,1.1-0.4,2.4-0.3,3.6c0.1,2.1,1.1,3.8,2.7,5.1c0.3,0.6,0.8,1,1.3,1.4c0,0.4,0.2,0.5,0.6,0.4
		c0.3,0.1,0.6,0.3,0.9,0.4c0.4,0.4,0.8,0.5,1.4,0.4c0.1,0,0.3,0.1,0.4,0.1c0.2,0.3,0.5,0.3,0.8,0.1c0.3,0,0.6,0.1,0.9,0.1
		c0.1,0.2,0.3,0.3,0.5,0.1c5,0.7,9.9,0.5,14.7-0.9c3.3-0.9,6.7-1.2,10.1-1.1c3.1,0.1,6.1,0.9,8.8,2.4c2.8,1.5,3.1,1.4,4.2-1.6
		c1.1-3,0.6-6.1-0.5-8.9c-1.8-4.5-4.5-8.5-8.8-11c-3.2-1.9-3-1.4-4.2,1.5c-0.6,1.5-0.7,3-0.2,4.6c0.9,2.5,2.8,3.7,5.4,3.2
		c0.9-0.2,1.8-0.4,2.7,0c0.5,0.2,0.6,0.4,0.3,0.9s-0.7,0.9-1.1,1.2c-2.5,1.5-5.1,2.6-8,2.9c-2.6,0.3-5-0.4-7-2
		c-2.1-1.5-2.8-3.8-2.4-6.3c0.5-3.2,2.1-6,4.9-8c2.6-1.8,5.5-3.1,8.6-3.6c4.6-0.8,8.5,0.8,11.7,3.9c3.3,3.2,5.9,6.9,7.1,11.4
		c0.6,2.2,0.9,4.5,0.5,6.9c-1.1,5.5-5,8-9.9,9.6c-4.3,1.4-8.3,1-12.2-1.3c-3.5-2-7.4-2-11.1-1c-7,1.8-14,2.4-21.1,1.3
		c-0.2-0.2-0.3-0.2-0.6-0.1c-0.3,0-0.6-0.1-0.9-0.1c-0.1-0.2-0.3-0.3-0.6-0.1c-0.1,0-0.3-0.1-0.4-0.1c-0.9-0.7-2.3-0.5-3.1-1.4
		c-1.4-1.7-3.2-3.1-3.9-5.4c-0.8-2.4-0.8-4.8-0.6-7.2c0.2-1.8,0.9-3.4,1.2-5.1c0.7-1.5,1.7-2.8,2.8-4c0.3,0,0.5-0.2,0.4-0.5
		c0.3-0.4,0.7-0.8,1-1.2c0.3,0,0.5-0.2,0.4-0.5c1.5-2,3.6-3.5,4.9-5.7c0.3-0.1,0.4-0.2,0.4-0.6c0.7-0.9,1.3-1.9,2-2.8
		c0.3-0.1,0.5-0.2,0.4-0.6c0.1-0.2,0.3-0.4,0.4-0.6c0.3-0.1,0.4-0.3,0.4-0.6c0.3-0.6,0.6-1.2,0.9-1.8c0.4-0.3,0.6-0.6,0.5-1.1
		c0.1-0.2,0.2-0.4,0.2-0.6C166,223.1,166.6,221.8,166.6,220.2z"/>
	<path class="st1" d="M106.5,188.9c0.2,0.2,0.4,0.4,0.7,0.5c0,0.3,0.2,0.5,0.5,0.4c0.3,0.2,0.5,0.6,0.9,0.6c1.2,1.2,1.9,2.7,3.3,3.6
		c0.9,1.8,2.3,3.3,2.9,5.3c0.3,0.9,0.2,1.6-0.4,2.2c-2,2-4.4,2.8-7.2,2.5c-1.2-0.1-1.9-1.1-2.1-2.3c-0.1-1.4-0.7-2.6-1.2-3.9
		c-0.4-1.4-1.5-2.4-2.6-3.4c0.2-0.7-0.3-1-0.7-1.4c-3.8-3.7-7.8-7.1-12.5-9.6c-3.7-2-7.5-3.8-11.2-5.6c-1.6-0.8-2.5-0.5-3.3,1.3
		c-0.1,0.1-0.2,0.2-0.2,0.3c-0.4,2.5-0.3,4.9-0.2,7.4c0,0.2,0.1,0.3,0.3,0.3c0,0.8,0,1.5,0,2.3c-0.1,0.1-0.2,0.2-0.2,0.4
		c-0.3,2.9-0.6,5.9-0.5,8.8c0.1,2.6,0.2,5.2-0.2,7.9c-0.1,0.4,0,0.7,0.1,1.1c0.4,1.6,0.1,2.2-1.4,2.8c-2,0.7-4.1,0.8-6.2,0.2
		c0-0.1,0-0.2-0.1-0.3c0.1-0.2,0-0.3-0.2-0.2l0,0c0.1-0.3,0.2-0.7-0.2-0.9c0-0.3,0-0.6,0-1c0.1-0.1,0.2-0.2,0.2-0.3
		c0-2.8,0-5.6,0-8.4c0-0.3,0.1-0.7-0.3-0.8c0-0.2,0-0.4,0-0.6c0.2-0.1,0.2-0.3,0.2-0.5c0.2-3.8,0.5-7.5,0.4-11.3
		c0-2.2-0.1-4.4,0.2-6.7c0.1-0.4,0.2-0.8-0.3-1.1c-0.9-1.1-2.3-1.2-3.7-0.4c-2.9,1.7-5.5,3.6-8.3,5.4c-2.5,1.6-5,3.4-7,5.6
		c-3.5,3.9-7.6,7.4-10,12.3c-0.5,0.9-1.3,0.9-1.9,0.7c-1.1-0.4-2.5-0.2-3-1.7c-0.1-0.2,0-0.5,0.1-0.7c1-4.1,2.9-7.6,5.9-10.5
		c4-3.9,8.5-7,13.1-10c4.4-2.9,8.6-5.9,12.6-9.3c1.8-1.6,2.6-3.4,2.6-5.8c-0.1-3.9-0.3-7.8-0.1-11.7c0.1-2.6-0.1-5.2-0.2-7.8
		c-0.1-2.2-1-3.5-3.8-3.8c-6.1-0.7-12.1-1.9-18-3.5c-0.4-0.1-0.8-0.2-1.3-0.1c-1.2-1-2.8-1-4.1-1.6c-2-0.8-4-1.5-5.9-2.6
		c-0.6-0.4-0.9-0.7-0.7-1.4c0.2-0.7,0.2-1.5,0.1-2.3c-0.1-0.6,0.1-0.7,0.6-0.6c1.7,0.4,3.4,0.9,4.9,1.8c1.6,0.9,3.3,1.9,5.3,1.9
		c1.2,0.8,2.6,1.1,3.9,1.7c2.2,0.9,4.5,1.3,6.9,1.8c3.2,0.7,6.5,1.1,9.9,0.9c1.8-0.1,2.1-0.4,2.2-2.1c0.1-3.2,0.5-6.4-0.1-9.7
		c0-0.2,0-0.5-0.1-0.7c-0.5-1.7-0.3-2,1.3-2.6c1.8-0.7,3.7-1.1,5.6-0.3c1.1,0.5,1.7,1.3,1.7,2.6c0.1,3.2-0.3,6.4-0.1,9.6
		c0.2,2.4,0.6,2.8,3,2.6c5-0.4,9.5-2.5,14.3-3.7c2.2-0.5,4.3-1.4,6.2-2.8c1.6-1.1,3.2-2.1,5-2.8c1.5-0.7,4.7,0.3,5.6,1.7
		c0.3,0.6,0.1,0.9-0.3,1.3c-3.7,3.5-8.2,5.4-12.9,6.7c-2.5,0.7-5,1.5-7.6,2.3c-3,0.9-6,1.4-9,1.8c-2.4,0.3-3.8,1.8-3.8,4.2
		c0,2,0.1,3.9,0.1,5.9c0,4.1-0.1,8.1,0,12.2c0.1,3.6,1.7,6.1,4.2,8.3c2.8,2.4,5.9,4.2,9.2,5.8c4.1,1.9,8.3,3.8,12.1,6.4
		c2.3,1.6,4.5,3.3,6.8,5C106,188.8,106.2,188.9,106.5,188.9z"/>
	<path class="st0" d="M101.3,194.6c1,1,2.1,1.9,2.6,3.4c-3.7,1.3-7.3,2.8-10.8,4.5c-6.6,3.2-13.2,6.3-19.9,9.1
		c-2.2,0.9-4.5,1.6-6.8,2.2c-2.6,0.7-5,1.9-7.5,2.9c-7.4,2.9-14.9,5-22.8,5.9c-3.9,0.4-7.8,0.5-11.7,0.4c-1,0-2,0.2-3,0.2
		c-4-0.2-7.7-1.5-11.2-3.3c-5-2.5-7.6-6.9-8.8-12.2c-1.2-5.3-1.4-10.7-0.8-16.1c0.6-5.8,2.6-11.2,5.6-16.2c3.6-5.9,7-11.9,11.3-17.3
		c3.9-4.8,8-9.3,12.1-13.9c2.3-2.6,4.8-5.1,7.4-7.5c0.3-0.3,0.7-0.5,0.7-1.1c1.3,0.6,2.9,0.6,4.1,1.6c0,0.2-0.1,0.4-0.3,0.5
		c-1.8,1.7-3.5,3.5-5.3,5.1c-3.7,3.2-6.9,6.9-10,10.6c-0.3,0.3-0.5,0.6-0.6,1c-2.5,5.1-4.8,10.3-6.3,15.9c-1.5,5.6-2,11.3-0.8,17
		c0.7,3.4,2.2,6.7,3.2,10c1.3,4.2,4.1,7.3,7.5,10c2.6,2,5.5,3.5,8.4,5c1.5,0.8,3,1.4,4.7,1.7c4.3,0.6,8.6,0,12.8-0.8
		c3.4-0.6,6.7-1.9,10.1-2.6c2.1,0.6,4.2,0.5,6.2-0.2c1.6-0.6,1.8-1.2,1.4-2.8c-0.1-0.3-0.1-0.7-0.1-1.1c0.4-2.6,0.2-5.2,0.2-7.9
		c-0.1-2.9,0.2-5.9,0.5-8.8c0-0.1,0.2-0.2,0.2-0.4c0.5,0.3,0.3,0.8,0.3,1.2c-0.3,2.7-0.5,5.3-0.4,8s0.3,5.3-0.2,8
		c-0.1,0.6,0,0.9,0.7,0.6c1.6-0.7,3.2-1.3,4.7-2c6.4-3.1,12.9-6.2,19.3-9.2C99.1,195.6,100,194.6,101.3,194.6z"/>
	<path class="st0" d="M201.6,215.8c-1.7-0.7-3.5-1-5.3-1.5c0-0.3,0.3-0.5,0.5-0.6c3.5-2.2,6.2-5.4,9.1-8.2c3.1-2.9,6.2-5.8,9.1-8.9
		c6-6.2,11.6-12.8,16.3-20c2.7-4.1,4.3-8.8,5.3-13.6c0.4-2.1,0.7-4.1,0.5-6.2c-0.2-2-1.4-3.6-2.6-5.2c-1.2-1.8-2.8-3.1-4.6-4.3
		c-0.9-0.6-2-0.8-3.1-0.9c-4.8-0.2-9.7-0.2-14.4,0.5c-5.7,0.9-11.3,2.2-16.8,4c-0.6,0.2-0.4,0.7-0.6,1c-0.8-0.2-0.6-0.9-0.9-1.4
		c-0.7-1.1-1.3-2.4-2-3.6c9.4-4.9,19.4-8.5,29.8-10.5c5.8-1.1,11.7-2.1,17.6-2.4c3.2-0.2,6.5-0.4,9.7,0.1c2.7,0.4,5.3,1.4,7.9,2.2
		c2.9,0.9,4.3,3.3,4.6,6.3c0.4,3.4-1,6.4-2.7,9.3c-2.6,4.4-5.7,8.4-8.7,12.5c-2.9,3.9-6.3,7.2-9.5,10.7c-4.5,4.9-9.1,9.6-13.6,14.4
		c-6.1,6.4-12.5,12.4-18.6,18.8c-2.1,2.2-4.6,4-6.4,6.6C202,215.1,201.7,215.3,201.6,215.8z"/>
	<path class="st0" d="M123.1,293c-1.5,1.7-3.2,3-4.8,4.6c-4.2,3.9-8.4,7.7-10.5,13.2c-2,5-3.1,10.1-0.9,15.5c1.8,4.4,5,7.1,9.5,8.4
		c2.1,0.6,4.3,1.1,6.5,1.2c0.4,0,0.7,0.1,0.7,0.5c0.1,0.5-0.3,0.6-0.7,0.7c-0.8,0.1-1.7,0.3-2.5,0.3c-2.6-0.2-5.3,0-7.8-0.7
		c-5.3-1.4-9.3-4.5-12.1-9c-2.6-4.2-2.2-8.6-0.3-13c1.7-3.8,4.5-6.9,7.3-9.9c2.4-2.6,4.9-5.3,7.4-7.8c1.4-1.4,2.9-2.8,4.5-3.9
		c0.8,0.6,1.5,1.1,2.4,0.3C122.1,293,122.6,292.8,123.1,293z"/>
	<path class="st1" d="M100.9,164.8c-4.6-0.1-8.3-2.3-10.9-6.3c-0.5-0.8-0.7-1-1.5-0.2c-2.7,2.9-6.1,4.1-10.1,3.7
		c-0.3,0-0.7-0.1-1-0.3c-0.6-0.4-0.8-0.8-0.2-1.3c0.2-0.1,0.3-0.4,0.5-0.5c2.6-1.2,4.1-3.6,5.8-5.7c1.8-2.1,2.4-4.7,2.8-7.3
		c0.1-0.7,0.3-1.5,0.5-2.2c0.4-1.6,1.2-2.1,3.1-2.1c1.5,0,2.1,0.5,2.6,2.1c1.4,4.5,3.4,8.8,6.1,12.6c1.5,2.1,3.3,3.8,5.8,4.7
		c0.5,0.2,1.3,0.4,1.2,1.1c-0.1,0.6-0.7,0.9-1.3,1.1C103.4,164.6,102.3,164.7,100.9,164.8z"/>
	<path class="st0" d="M111.9,194.1c-1.3-1-2.2-2.5-3.3-3.6c6.1-3.4,12.1-7.2,18.4-10.3c7.3-3.6,14.2-7.8,21.4-11.6
		c0.4-0.2,0.7-0.5,1-0.8c0.6,1.2,1.8,1,2.8,1c3.7-0.3,7.2-1.3,10.4-3.1c0.5-0.3,1-0.6,1.6-0.7c-0.1,0.5-0.6,0.5-0.9,0.7
		c-8.2,4.5-16.4,9-24.6,13.5c-3.8,2.1-7.6,4-11.5,5.9c-3.9,2-7.7,4-11.4,6.3C114.6,192.5,113.2,193.3,111.9,194.1z"/>
	<path class="st1" d="M201.3,292.3c-3.1,0.6-5.2-1.1-6.9-3.3c-0.7-0.8-1-0.7-1.7,0c-1.9,2-4.3,3.5-6.7,4.9c-0.3,0.2-0.6,0.1-0.9-0.2
		c-0.3-0.4-0.1-0.6,0.2-1c0.9-1.2,2.2-2,3.4-3c1.1-0.9,2-2.1,3.1-3.1c0.4-0.4,0.3-0.8,0-1.1c-1.1-1.1-2-2.5-3.4-3.3
		c-0.5-0.3-1.1-0.8-1-1.5c0.1-0.7,0.6-0.8,1.2-1c0.6-0.2,1-0.9,1.8-0.6c1.2,0.4,2.1,1.2,2.7,2.2c1.6,2.3,1.8,2.4,3.3,0
		c0.6-1.1,1.4-1.9,2.5-2.4c0.5-0.2,1-0.4,1.4,0c0.5,0.4,0.5,1,0.2,1.5c-1,1.6-2.3,3.1-3.5,4.5c-0.4,0.5-0.6,0.9-0.1,1.4
		c0.9,1.1,1.7,2.3,3,3c0.6,0.3,1,0.8,1.8,0.1c0.5-0.4,1.1,0.1,1.4,0.5c0.5,0.8,0.9,0.5,1.4,0c1.3-1.1,2.4-2.3,3.6-3.5
		c0.5-0.5,0.5-0.8,0.1-1.3c-1.1-1.1-2-2.5-3.4-3.3c-0.5-0.3-1.1-0.8-1-1.5c0.1-0.6,0.6-0.8,1.1-0.9c0.6-0.2,1.1-1,1.9-0.6
		c1.1,0.5,2.1,1.2,2.7,2.2c1.5,2.2,1.6,2.3,3.1,0.2c0.7-1,1.3-2.1,2.6-2.6c0.6-0.2,1.1-0.4,1.5,0.1c0.5,0.5,0.4,1,0.1,1.5
		c-1,1.6-2.2,3-3.5,4.4c-0.5,0.6-0.5,1,0,1.5c0.8,1,1.5,2.1,2.7,2.7c0.7,0.3,1.2,1,2.1,0.2c0.4-0.4,1.1,0.2,1.4,0.8s0.1,1-0.5,1.3
		c-2.8,1.7-4.4,1-6.8-0.9c-0.6-0.5-1.2-1.2-1.7-1.8c-0.4-0.5-0.7-0.5-1.1,0c-1.9,2.2-4.4,3.7-6.9,5.2c-0.3,0.1-0.5,0.2-0.8,0
		C200.9,293.3,201.5,292.8,201.3,292.3z"/>
	<path class="st0" d="M191.2,219.3c1.8,0.5,3.6,0.8,5.2,1.7c-1.7,2.3-3.9,4.1-5.8,6.2c-0.9,1-1.9,2-3,2.9c-3.1,2.8-6.1,5.7-9.1,8.5
		c-0.8,0.8-2,1.3-3.2,1.7c-1.5,0.5-3.2,1.2-4.1,2.9c-2,4-5.3,7.1-8,10.6c-0.9,1.2-1.9,2.3-2.9,3.5c-1.6-1.3-2.6-3-2.7-5.1
		c0-1.2-0.4-2.5,0.3-3.6c0.1,1.2,0.1,2.5,0.2,3.7c0,0.5-0.1,1.2,0.5,1.4c0.5,0.2,0.7-0.5,1.1-0.8c0,0,0.1-0.1,0.1-0.1
		c4.7-5.3,9.4-10.6,14.3-15.7c4.5-4.6,9.1-9.2,13.6-13.8C188.9,221.9,190,220.6,191.2,219.3z"/>
	<path class="st0" d="M45.9,134.1c-1.3-0.5-2.7-0.9-3.9-1.7c0.8-1.4,2.1-2.2,3.2-3.3c8.2-7.9,16.7-15.4,25-23.1
		c2.7-2.5,5.6-4.9,8.5-7.4c1.2,1.5,2.6,2.8,3.3,4.6c-0.7-0.1-0.8-0.8-1.2-1.2c-0.3-0.5-0.6-0.6-1-0.1c-3.7,3.8-7.8,7.1-11.7,10.6
		c-0.2,0.2-0.5,0.3-0.5,0.7l0-0.1c-0.1,0.1-0.2,0.2-0.3,0.4c-1.5,0.5-2.9,1.1-3.1,3c-0.2,0.1-0.4,0.1-0.5,0.3
		c-4,3.9-8.5,7.3-12.3,11.5c-1.5,1.7-3.3,3.2-5,4.8C46.3,133.4,45.8,133.6,45.9,134.1z"/>
	<path class="st1" d="M54.8,286.7c-1.5,2.2-3.6,3.5-5,5.4c-0.4,0.6-1.2,0.9-2,1.1c-0.6,0.2-0.9-0.5-1-1c-0.5-1.6-1.7-2.8-2.5-4.1
		c-0.3-0.6-0.7-0.5-0.8,0.2c-0.5,2-1.6,3.8-1.8,5.8c-0.1,0.5-2.1,1.8-2.6,1.6c-0.7-0.3-0.8-0.9-0.6-1.5c0.5-1.8,1.1-3.6,1.6-5.4
		c0.4-1.6,0.8-3.1,0.4-4.8c-0.3-1.5,1.4-1.5,2.1-2.1c0.5-0.4,1.2-0.2,1.5,0.5c0.9,1.8,2.5,3.1,3.5,4.8c0.2,0.2,0.3,0.5,0.4,0.7
		c0.8,1.7,0.9,1.7,2.1,0.3c1-1.1,1.9-2.2,2.9-3.3c0.5-0.5,1-1,0.9-1.9c0-0.4,0.2-1.1,1-1.1c0.1,0,0.3,0,0.3,0c0.4-0.5,0.8-1,1.5-0.5
		c0.6,0.4,1,1,1.2,1.9c0.4,2.3,0.6,4.6,0.6,6.9c0,1.2,0,2.5,1,3.4c0.2,0.2,0.3,0.4,0.2,0.6c-0.2,0.7-2.4,1.4-3,0.9
		c-1.2-1-1.5-2.3-1.6-3.7C55.2,289.8,55.1,288.5,54.8,286.7z"/>
	<path class="st1" d="M123.1,293c-0.5-0.2-1.1,0-1.3,0.2c-1,0.9-1.7,0.4-2.4-0.3c0.1-0.6,0.3-1,0.8-1.4c3.5-2.4,6.6-5.3,9.7-8.2
		c0.2-0.2,0.6-0.4,0.5-0.7c-0.2-0.4-0.6-0.2-1-0.2c-1.9,0.1-3.8,0.1-5.7,0.2c-0.8,0-1.4-0.2-1.6-1c-0.2-0.9,0.6-0.8,1-1.1
		c1.7-1.2,3.6-0.5,5.4-0.7c1.8-0.3,3.7,0.3,5.6-0.3c0.3,0.2,0.7,0.1,1,0.1c1.3-0.3,1.6,0,1.8,1.4c-3.5,3-6.6,6.3-10.4,8.9
		c0,0.1,0.1,0.2,0.1,0.3c1.9,0.3,3.9,0.6,5.8,0.8c1.6,0.2,3.3,0.3,4.9,0.5c0.7,0.1,1-0.1,1.2-0.8c0.3-1.4,1.6-1.6,2.6-2
		c0.8-0.3,0.9,0.6,0.8,1.3c-0.4,2.5-2.7,4.4-5.3,4.3c-3.5-0.2-7-0.9-10.5-1.3C125.1,292.9,124.1,292.8,123.1,293z"/>
	<path class="st1" d="M106.6,280.1c2.4-0.1,4.5,0.2,6.6-0.4c0.6-0.2,0.9,0.3,1.1,0.8c0.2,0.4,0.1,0.8-0.4,1c-1.5,0.6-2.5,1.9-3.5,3
		c-1.7,1.7-3.7,3-5.4,4.5c-0.1,0.1-0.2,0.1-0.3,0.2c-0.3,0.3-0.8,0.6-0.7,1c0.1,0.4,0.6,0.2,0.9,0.3c3.3,0.6,6.7,1,10,1.2
		c0.7,0,0.9-0.2,1-0.8c0.1-0.7,1.9-2,2.6-2c0.8,0,0.9,0.6,0.8,1.3c-0.5,2.8-2.6,4.3-5.2,4.3c-1.8,0-3.6-0.3-5.4-0.6
		c-2.6-0.4-5.1-0.8-7.7-0.8c-0.8,0-1.5,0.1-2.2,0.6c-0.6,0.4-1.2,0.4-1.6-0.3c-0.5-0.7-0.1-1.2,0.5-1.6c3.5-2.1,6.4-5,9.5-7.5
		c0,0,0.1-0.1,0.1-0.1c0.3-0.4,1.1-0.8,0.8-1.3c-0.3-0.5-1-0.2-1.6-0.2c-1.9,0.1-3.8,0.1-5.7,0.1c-0.7,0-1.2-0.3-1.3-1
		c-0.2-0.8,0.4-0.8,0.9-1.1C102.6,279.5,104.9,280.6,106.6,280.1z"/>
	<path class="st1" d="M92.5,287.2c0.3-1.5,0-3.1,0.2-4.7c0.1-0.9,2-2.1,2.9-1.9c0.2,0.1,0.6,0.2,0.6,0.3c0.1,0.9,0.4,1.9,0.2,2.8
		c-0.6,2.6-0.6,5.3-1,7.9c0,0.2-0.1,0.4,0,0.6c0.8,1.7-0.6,2.1-1.6,2.7c-0.4,0.3-0.9,0.1-1.1-0.5c-0.1-0.2-0.2-0.5-0.1-0.7
		c0.2-1.7-0.9-2.2-2.2-2.5c-1.3-0.3-2.5-1-3.5-1.8c-0.9-0.6-1.9-1-2.7-1.7c-0.7-0.5-0.7,0.4-0.7,0.7c0,1,0.1,2,0,3
		c-0.1,0.5-0.1,1-0.2,1.5c-0.2,0.6-1.7,1.8-2.3,1.8c-0.7,0-0.8-0.5-0.8-1.1c0-3.6,0.1-7.2,0.1-10.8c0-1.6,1.4-1.4,2.2-1.9
		c0.8-0.5,1.2,0.4,1.5,1.1c1,2,2.8,3.3,4.5,4.6c0.8,0.7,1.8,1.2,2.7,1.7c0.4,0.2,0.9,0.8,1.4,0.4C92.6,288.5,92.7,287.9,92.5,287.2z
		"/>
	<path class="st1" d="M165.4,284.3c2.6-0.1,5.2-0.3,7.8-0.4c0.3,0,0.8-0.4,0.9,0.2c0.1,0.4-0.2,0.8-0.6,1.1
		c-1.7,0.9-3.5,1.2-5.4,1.3c-1.3,0.1-2.5,0.5-3.8,0.3c-0.4,0-0.6,0.2-0.6,0.7c0,1.1,0.4,2.1,1.2,2.7c0.8,0.6,1.8,0.5,2.7,0.1
		c1.6-0.6,2.6-2.3,4.2-2.8c0.4-0.1,0.7-0.5,1.1-0.1c0.4,0.5,0.2,0.9-0.1,1.3c-1.3,1.6-3,2.8-4.9,3.6c-0.9,0.4-1.6,0.9-2.7,0.9
		c-2.3,0.1-3.8-0.7-4.6-2.8c-0.5-1.3-0.5-2.7-0.9-4c-0.2-0.8,0.6-1.9,0.6-2.9c0-0.3,0-0.5-0.3-0.8c-0.9-0.6-0.9-1.4,0-1.8
		c1.4-0.7,2.7-1.4,4.4-1.5c1.8-0.1,3.7-0.3,5.6-0.5c1.1-0.1,2.2,0,3.3,0.2c0.4,0.1,0.7,0.2,0.7,0.7c0,0.4-0.4,0.5-0.7,0.8
		c-1.6,1.2-3.4,0.5-5.1,0.9c-1.2,0.2-2.5,0.3-3.7,0.5c-1.4,0.3-0.4,1.4-0.6,2.1c-0.1,0.5,0.6,0.2,1,0.3
		C165,284.4,165.2,284.3,165.4,284.3C165.4,284.3,165.4,284.3,165.4,284.3z"/>
	<path class="st1" d="M70.1,281.4c1.3-0.2,2.7,0.2,4,0.6c2.9,0.8,4.6,4.5,3.3,7.2c-0.1,0.2-0.2,0.5-0.4,0.7
		c-2.3,1.7-4.6,3.3-7.4,4.2c-2.1,0.6-4,1.1-6.2,0.6c-1.5-0.3-2.8-1.4-2.9-3.1c0-3.8,2.3-9,7-10C68.4,281.3,69.2,281.4,70.1,281.4z
		 M67.5,292.1c2.6,0,4.8-1.3,6.7-3c0.4-0.4,0.5-0.9,0.5-1.4c0.1-1.6-1.8-3.5-4.1-3.9c-1.6-0.3-3.1,0.1-4.4,1.4
		c-1.4,1.4-1.9,3.2-2.4,4.9c-0.3,1.1,0.7,2.1,1.8,2.1C66.3,292.3,66.9,292.2,67.5,292.1z"/>
	<path class="st0" d="M136.9,280.9c-0.2-1.4-0.5-1.6-1.8-1.4c-0.3,0.1-0.7,0.2-1-0.1c0.5-1.1,1.6-1.6,2.4-2.4c1.9-2,4-3.8,5.9-5.7
		c2.1-2.1,4.6-3.9,6.7-6.1c0.4-0.4,0.8-0.7,1.2-1.1c2.1-2.1,2.1-2.1,0.3-4.3c-1.2-1.5-1.7-3.2-1.9-5.1c-0.2-3,0-6,1.1-8.8
		c0.1-0.4,0.1-0.8,0.6-0.9c-0.3,1.7-1.1,3.3-1.2,5.1c-0.2,2.4-0.2,4.9,0.6,7.2c0.7,2.2,2.4,3.7,3.9,5.4c0.8,0.9,2.2,0.6,3.1,1.4
		c-0.1,0-0.1,0.1-0.2,0.1c-1.6-0.9-2.4,0.1-3.4,1.2c-5,5.6-10.1,11.1-16.2,15.6C137.1,280.9,137,280.9,136.9,280.9z"/>
	<path class="st1" d="M150.5,290.8c2.3-0.4,5.1-0.8,7.9-1.2c0.5-0.1,1.1-0.4,1.3,0.3c0.2,0.7-0.4,0.8-0.9,1c-1.6,1-3.4,1.1-5.1,1.5
		c-1.3,0.3-2.5,0.6-3.8,0.8c-1.3,0.2-2.5,0.1-3.7-0.2c-1.3-0.3-2.6-2.1-2.4-3.5c0.2-2.6,0.5-5.2,0.8-7.8c0.1-1,1.8-2.4,2.8-2.3
		c0.9,0.1,1.1,0.8,0.9,1.6c-0.3,1.8-0.7,3.7-0.9,5.5c-0.1,0.6-0.1,1.3-0.1,1.9C147.4,290.1,148.2,290.8,150.5,290.8z"/>
	<path class="st0" d="M94.6,79.7c1.5,0.9,1.9,2.4,2.5,3.9c0.3,0.7,0.6,1.3,1.3,1.7c-0.8-0.1-1.3,0.2-1.8,0.7
		c-2.8,2.8-5.7,5.5-8.5,8.2c-0.5,0.4-0.5,0.8-0.2,1.4c1.1,2.1,2.5,4.1,4.1,5.9c0.3,0.3,0.8,0.5,0.7,1c-0.5,0-0.7-0.4-0.9-0.6
		c-1.9-2.2-3.7-4.4-4.8-7.2c-0.5-1.3-1.6-2.4-2.2-3.7c-0.9-2.1-1.7-4.2-2.5-6.3c-0.4-1.2-0.9-2.4-1.4-3.6c-0.8-1.9-0.5-3.8,0-5.7
		c0.4,1,0.2,1.9,0,2.9c-0.1,0.6-0.2,1.3,0.1,1.9c1.6,3.3,2.6,6.8,4,10.1c0.6,1.4,0.6,1.5,1.8,0.4c0.3-0.3,0.6-0.6,1-0.9
		c2.2-2.1,4.3-4.4,6.4-6.6c1.5-1.5,1.5-1.5,0.5-3.3C94.6,79.9,94.6,79.8,94.6,79.7z"/>
	<path class="st0" d="M182.1,151.2c1-0.1,1.9,0.3,2.4,1c1.7,2.3,3.5,4.5,5.2,6.7c-1.3-0.3-1.9-1.4-2.5-2.4c-1.5-2.1-1-1.9-3.4-0.8
		c-5.9,2.5-11.6,5.4-17.2,8.4c-0.5,0.3-1,0.7-1.6,0.6c1.4-1,2.9-1.8,4.2-2.9c2.8-2.4,5.7-4.8,7.5-8.1c0-0.1,0.2-0.1,0.3-0.1
		c0.8,0.4,1.3-0.2,1.9-0.5C179.9,152.5,181.2,152.3,182.1,151.2z"/>
	<path class="st1" d="M111,206c0.4,0,0.8,0,1.2,0.1c1,0.2,2.1,0.5,2.4,1.7c0.3,1.5-0.3,2.9-1.5,3.6c-2.2,1.2-4.8,0.9-6.4-0.7
		c-1.1-1.1-1-2.4,0.2-3.4C108.1,206.5,109.5,205.9,111,206z"/>
	<path class="st1" d="M64.3,116.4c0.2-1.9,1.6-2.4,3.1-3c0.1-0.1,0.4-0.1,0.3-0.4l0,0.1c0.4,0.2,0.8,0,1.2,0
		c1.8-0.1,2.6,0.5,3.5,2.1c0.8,1.5-0.3,2.4-0.9,3.5c-0.4,0.8-4.1,0.8-5.2,0.2C65.2,118.4,64.6,117.5,64.3,116.4z"/>
	<path class="st1" d="M170.5,177.9c-0.3,0-0.6,0-0.8-0.1c-1.1-0.2-2.1-0.7-2.4-1.9c-0.4-1.2,0.4-2.1,1.4-2.8
		c2.3-1.6,4.7-1.1,6.1,1.4c0.5,0.9,0.1,1.6-0.6,2.2C173.1,177.5,171.9,177.9,170.5,177.9z"/>
	<path class="st0" d="M191.1,145.3c-0.7-0.2-0.7-0.9-1-1.4c-1.2-3-2.4-6-3.6-9c-0.1-0.2-0.1-0.4,0-0.6c0.6,0.2,0.6,0.7,0.8,1.1
		c1.3,3.1,2.6,6.2,3.8,9.2C191.1,144.9,191.2,145.1,191.1,145.3z"/>
	<path class="st0" d="M185.6,132.3c-0.3-1.4-0.2-2.7,0.2-4.1C186.3,129.6,186.1,130.9,185.6,132.3z"/>
	<path class="st0" d="M166.6,220.2c0,1.6-0.6,2.9-1.4,4.2C165.4,222.9,165.9,221.5,166.6,220.2z"/>
	<path class="st0" d="M105.6,83.1c-0.1-1.3-0.9-2.3-1.1-3.6C105.6,80.3,106.3,82.4,105.6,83.1z"/>
	<path class="st0" d="M189.7,158.9c0.9,0.4,1.5,1,2,1.8C190.7,160.4,190.1,159.8,189.7,158.9z"/>
	<path class="st0" d="M192.1,161c0.8,0.2,1.3,0.7,1.8,1.4C193,162.2,192.4,161.8,192.1,161z"/>
	<path class="st0" d="M199.5,165.7c0.8,0.1,1.5,0.4,2.1,0.9C200.7,166.6,200,166.3,199.5,165.7z"/>
	<path class="st0" d="M95,104.7c-0.6-0.1-1-0.5-1.3-1.1C94.4,103.6,94.8,104.1,95,104.7z"/>
	<path class="st0" d="M196.2,163.9c0.6,0.1,1.1,0.3,1.5,0.9C197,164.8,196.5,164.5,196.2,163.9z"/>
	<path class="st0" d="M194.7,163c0.6,0.1,1,0.3,1.3,0.8C195.4,163.8,194.9,163.6,194.7,163z"/>
	<path class="st0" d="M82.2,103.4c0.5,0.2,0.8,0.5,0.9,1C82.5,104.3,82.1,104,82.2,103.4z"/>
	<path class="st0" d="M164.4,260c-0.5,0.1-1,0-1.4-0.4C163.5,259.4,164,259.5,164.4,260z"/>
	<path class="st0" d="M164.9,225c0.1,0.5-0.1,0.8-0.5,1.1C164.3,225.6,164.5,225.2,164.9,225z"/>
	<path class="st0" d="M96.2,105.6c-0.4,0-0.7-0.2-0.8-0.6C95.9,105,96.2,105.2,96.2,105.6z"/>
	<path class="st0" d="M165.6,260.2c-0.3,0.2-0.6,0.1-0.8-0.1C165.1,259.8,165.4,259.9,165.6,260.2z"/>
	<path class="st0" d="M163.6,227.9c0.1,0.3,0,0.5-0.4,0.6C163.1,228.2,163.2,228,163.6,227.9z"/>
	<path class="st0" d="M162.8,229.1c0.1,0.3-0.1,0.5-0.4,0.6C162.4,229.3,162.5,229.1,162.8,229.1z"/>
	<path class="st0" d="M160.4,232.5c0.1,0.3-0.1,0.5-0.4,0.6C160,232.7,160.1,232.5,160.4,232.5z"/>
	<path class="st0" d="M155.2,238.7c0,0.3-0.1,0.5-0.4,0.5C154.7,238.9,154.9,238.8,155.2,238.7z"/>
	<path class="st0" d="M153.8,240.4c0,0.3-0.1,0.5-0.4,0.5C153.3,240.6,153.4,240.4,153.8,240.4z"/>
	<path class="st0" d="M107.7,189.8c-0.3,0-0.5-0.1-0.5-0.4C107.6,189.3,107.7,189.5,107.7,189.8z"/>
	<path class="st0" d="M106.5,188.9c-0.3,0.1-0.5-0.1-0.5-0.4C106.3,188.4,106.5,188.5,106.5,188.9z"/>
	<path class="st0" d="M204.5,167.9c0.3-0.1,0.5,0,0.6,0.2C204.8,168.2,204.6,168.1,204.5,167.9z"/>
	<path class="st0" d="M162.1,259.1c-0.3,0.1-0.5,0-0.6-0.4C161.9,258.6,162.1,258.8,162.1,259.1z"/>
	<path class="st0" d="M194,162.5c0.3-0.1,0.5,0.1,0.6,0.4C194.2,163,194,162.9,194,162.5z"/>
	<path class="st0" d="M196.6,153.6c-0.4,0-0.5-0.2-0.4-0.5C196.6,153.1,196.7,153.3,196.6,153.6z"/>
	<path class="st0" d="M166.9,260.4c-0.2,0.2-0.4,0.2-0.5-0.1C166.6,260.1,166.8,260.1,166.9,260.4z"/>
	<path class="st0" d="M157.3,264c0.2-0.1,0.4-0.1,0.6,0.1C157.6,264.4,157.4,264.3,157.3,264z"/>
	<path class="st0" d="M158.7,264.3c0.2-0.2,0.4-0.1,0.6,0.1C159,264.6,158.9,264.6,158.7,264.3z"/>
	<path class="st0" d="M195.9,152.7c-0.4,0-0.5-0.2-0.4-0.5C195.9,152.1,196,152.3,195.9,152.7z"/>
	<path class="st0" d="M191.5,146c-0.3-0.1-0.5-0.2-0.4-0.6C191.6,145.4,191.7,145.6,191.5,146z"/>
	<path class="st0" d="M86.9,108c0.3,0,0.5,0.1,0.5,0.4C87.1,108.5,86.9,108.4,86.9,108z"/>
	<path class="st0" d="M99.4,107.8c-0.3,0.1-0.5-0.1-0.6-0.4C99.1,107.3,99.3,107.4,99.4,107.8z"/>
	<path class="st0" d="M98.6,107.3c-0.3,0.1-0.5-0.1-0.6-0.4C98.4,106.8,98.6,107,98.6,107.3z"/>
	<path class="st0" d="M85.2,106.6c0.3,0,0.5,0.1,0.5,0.5C85.4,107.1,85.2,106.9,85.2,106.6z"/>
	<path class="st0" d="M97.9,106.8c-0.3,0.1-0.5-0.1-0.6-0.4C97.7,106.4,97.9,106.5,97.9,106.8z"/>
	<path class="st0" d="M97.2,106.3c-0.3,0.1-0.5-0.1-0.6-0.4C97,105.9,97.2,106,97.2,106.3z"/>
	<path class="st0" d="M202.1,166.9c0.3-0.1,0.5,0,0.6,0.3C202.4,167.3,202.2,167.2,202.1,166.9z"/>
	<path class="st0" d="M78.5,98.2c0.2,0,0.3,0,0.2,0.2C78.6,98.4,78.5,98.3,78.5,98.2z"/>
	<path class="st0" d="M90.9,76.9c-2-1.1-4.2-1.9-6.3-2.7C86.9,74.6,89.2,75.2,90.9,76.9z"/>
	<path class="st0" d="M159.1,243.9c0,1-0.3,2-0.9,2.8C158.2,245.7,158.5,244.8,159.1,243.9z"/>
	<path class="st0" d="M158.1,247.1c0.3,0.4,0.3,0.7-0.2,0.9C157.7,247.7,157.7,247.4,158.1,247.1z"/>
	<path class="st0" d="M64.4,198.2c-0.6-0.7-0.3-1.5-0.3-2.2c0.3-2.9,0.4-5.8,0.3-8.7c-0.1-2.7-0.1-5.4,0.3-8.1
		c0-0.1,0.1-0.3,0.2-0.4c0.5,0.2,0.3,0.7,0.3,1.1c-0.3,2.2-0.2,4.4-0.2,6.7c0.1,3.8-0.2,7.5-0.4,11.3
		C64.7,197.9,64.7,198.1,64.4,198.2z"/>
	<path class="st0" d="M64.7,208.3c-0.6-0.2-0.6-0.8-0.5-1.2c0.4-2.4,0.1-4.8,0.1-7.2c0-0.4-0.1-0.7,0.2-1c0.4,0.1,0.3,0.5,0.3,0.8
		c0,2.8,0,5.6,0,8.4C64.8,208.1,64.7,208.2,64.7,208.3z"/>
	<path class="st0" d="M73.7,179.3c0.1,0.1,0.2,0.1,0.2,0.2c-0.1,2.6-0.2,5.2-0.3,7.8c-0.2,0-0.3-0.1-0.3-0.3c-0.1-2.5-0.2-5,0.2-7.4
		C73.5,179.4,73.6,179.4,73.7,179.3z"/>
	<path class="st0" d="M64.9,210.1c-0.6-0.2-0.7-0.4-0.2-0.9C65,209.5,64.9,209.8,64.9,210.1z"/>
	<path class="st0" d="M65.1,210.4c-0.2,0-0.3-0.1-0.2-0.2C65.1,210.1,65.2,210.2,65.1,210.4z"/>
	<path class="st2" d="M67.7,113.1c0.1,0.3-0.2,0.3-0.3,0.4C67.5,113.3,67.6,113.2,67.7,113.1z"/>
	<path class="st1" d="M140.6,138.6c-1.8,0.1-3.4-0.9-3.8-2.2c-0.4-1.1,0.5-2.8,1.8-3.6c0.9-0.6,1.9-0.9,2.9-0.9
		c1.3-0.1,2.6,0.8,3,2.1c0.4,1.1-0.4,3.2-1.4,3.8C142.3,138.3,141.4,138.6,140.6,138.6z"/>
	<path class="st1" d="M36.3,84.9c-1.6,0.1-2.6-0.6-3.1-1.8c-0.4-1,0.2-2.7,1.3-3.5c1.4-1,3.6-1.4,5.3,0.4c1.2,1.3,0.8,3.4-1,4.3
		C38.1,84.7,37.1,84.9,36.3,84.9z"/>
	<path class="st1" d="M56.5,162.6c-3.2,0.1-5.9-1.1-8-3.3c-0.5-0.5-0.8-0.3-1.2,0.1c-2.4,3.1-5.8,3.7-9.4,3.6c-0.2,0-0.3,0-0.5,0
		c-0.7,0-1.4-0.2-1.6-0.9c-0.2-0.6,0.6-0.9,1.1-1.2c3.1-2.3,5.9-4.8,7.3-8.5c0.8-2.2,1.2-4.5,0.8-6.8c-0.3-2,0-2.6,1.2-3
		c1.9-0.7,3.5-0.3,4.3,1.1c1.2,1.9,2.1,3.9,1.8,6.2c-0.3,2.8,1.2,4.9,2.8,7.1c1.3,1.8,3,2.9,5.3,3.1c0.6,0,1.4,0.3,1.4,0.9
		c0,0.7-0.7,1-1.3,1.2C59.2,162.4,57.9,162.9,56.5,162.6z"/>
</g>
</svg>
