<?xml version="1.0" encoding="utf-8"?>
<!-- Generator: Adobe Illustrator 25.0.1, SVG Export Plug-In . SVG Version: 6.00 Build 0)  -->
<svg version="1.1" id="圖層_1" xmlns="http://www.w3.org/2000/svg" xmlns:xlink="http://www.w3.org/1999/xlink" x="0px" y="0px"
	 viewBox="0 0 595.28 841.89" style="enable-background:new 0 0 595.28 841.89;" xml:space="preserve">
<style type="text/css">
	.st0{fill:#FEFEFE;}
	.st1{fill:#3378CD;}
	.st2{fill:#FDFDFE;}
</style>
<g>
	<g>
		<path class="st0" d="M553.91,420.88c0,83.94-0.02,167.89,0.09,251.83c0,3.27-0.44,4.17-4.01,4.17c-167.9-0.12-335.8-0.12-503.71,0
			c-3.75,0-4.28-0.95-4.28-4.41c0.1-167.72,0.1-335.44,0-503.16c0-3.41,0.45-4.43,4.26-4.43c167.9,0.13,335.8,0.13,503.71,0.01
			c3.53,0,4.04,0.85,4.03,4.15C553.89,253,553.91,336.94,553.91,420.88z M297.57,643.53c0.9-1.29,1.34-1.8,1.66-2.38
			c6.93-12.6,14.37-24.9,22.08-37.04c8.84-13.93,17.57-27.95,26.43-41.87c12.49-19.63,24.9-39.31,36.89-59.26
			c7.86-13.07,15.81-26.07,23.23-39.39c5.49-9.85,11.09-19.65,16.26-29.67c4.39-8.51,8.36-17.24,12.31-25.97
			c5.96-13.16,11.17-26.61,14.03-40.82c3.02-14.98,1.5-29.77-1.23-44.75c-2.9-15.9-8.4-30.73-15.9-44.74
			c-7.04-13.16-16.42-24.8-27.16-35.33c-18.78-18.41-40.51-31.45-65.93-38.64c-4.87-1.38-9.82-2.2-14.67-3.5
			c-9.51-2.55-19.38-2.98-29.07-2.81c-11.39,0.2-22.69,1.91-33.97,4.37c-22.87,4.99-42.77,15.73-61.08,29.61
			c-8.62,6.54-16.28,14.43-23.1,22.95c-6.96,8.68-13.5,17.75-18.18,27.83c-3.83,8.26-7.11,16.78-9.81,25.59
			c-3.15,10.3-5.09,20.64-6.32,31.24c-2.17,18.77,2.54,36.49,9.34,53.52c11.02,27.6,24.94,53.84,39.91,79.5
			c13.6,23.31,27.47,46.46,41.83,69.32c6.91,11,14.09,21.83,20.91,32.89c5.27,8.54,10.9,16.88,15.93,25.54
			C280.28,614.05,289.67,627.76,297.57,643.53z"/>
		<path class="st1" d="M297.57,643.53c-7.9-15.77-17.29-29.48-25.61-43.82c-5.03-8.66-10.66-17-15.93-25.54
			c-6.82-11.05-14-21.89-20.91-32.89c-14.36-22.86-28.23-46.01-41.83-69.32c-14.97-25.66-28.89-51.9-39.91-79.5
			c-6.8-17.03-11.51-34.76-9.34-53.52c1.23-10.59,3.16-20.94,6.32-31.24c2.7-8.82,5.98-17.34,9.81-25.59
			c4.68-10.08,11.22-19.14,18.18-27.83c6.83-8.52,14.48-16.41,23.1-22.95c18.3-13.88,38.21-24.62,61.08-29.61
			c11.28-2.46,22.58-4.17,33.97-4.37c9.69-0.17,19.55,0.27,29.07,2.81c4.86,1.3,9.8,2.12,14.67,3.5
			c25.42,7.19,47.15,20.23,65.93,38.64c10.74,10.53,20.12,22.17,27.16,35.33c7.5,14.01,13,28.85,15.9,44.74
			c2.73,14.98,4.25,29.77,1.23,44.75c-2.86,14.21-8.07,27.66-14.03,40.82c-3.95,8.73-7.92,17.46-12.31,25.97
			c-5.17,10.02-10.77,19.82-16.26,29.67c-7.42,13.32-15.38,26.32-23.23,39.39c-11.99,19.95-24.39,39.63-36.89,59.26
			c-8.86,13.92-17.58,27.93-26.43,41.87c-7.71,12.14-15.15,24.44-22.08,37.04C298.91,641.73,298.47,642.24,297.57,643.53z
			 M297.42,415.16c36.02,0.86,69.14-28.89,69.75-67.92c0.58-37.01-28.04-68.21-65.66-70.26c-39.63-2.15-72.11,28.82-72.8,68.21
			C228.09,380.93,256.73,415.05,297.42,415.16z"/>
		<path class="st2" d="M297.42,415.16c-40.7-0.11-69.33-34.23-68.7-69.97c0.7-39.39,33.17-70.36,72.8-68.21
			c37.62,2.05,66.24,33.25,65.66,70.26C366.57,386.27,333.44,416.02,297.42,415.16z"/>
	</g>
</g>
</svg>
