<?xml version="1.0" encoding="utf-8"?>
<!-- Generator: Adobe Illustrator 25.0.1, SVG Export Plug-In . SVG Version: 6.00 Build 0)  -->
<svg version="1.1" id="圖層_1" xmlns="http://www.w3.org/2000/svg" xmlns:xlink="http://www.w3.org/1999/xlink" x="0px" y="0px"
	 viewBox="0 0 595.28 841.89" style="enable-background:new 0 0 595.28 841.89;" xml:space="preserve">
<style type="text/css">
	.st0{fill:#FEFEFE;}
	.st1{fill:#41CD33;}
	.st2{fill:#FDFDFD;}
</style>
<g>
	<g>
		<path class="st0" d="M553.91,420.88c0,83.94-0.02,167.89,0.09,251.83c0,3.27-0.44,4.17-4.01,4.17c-167.9-0.12-335.8-0.12-503.71,0
			c-3.75,0-4.28-0.95-4.28-4.41c0.1-167.72,0.1-335.44,0-503.16c0-3.41,0.46-4.43,4.26-4.43c167.9,0.13,335.8,0.13,503.71,0.01
			c3.53,0,4.04,0.85,4.03,4.15C553.89,253,553.91,336.94,553.91,420.88z M297.39,643.39c5.83-9.53,11.03-18.17,16.36-26.72
			c13.32-21.37,26.76-42.67,40.04-64.07c10.65-17.16,21.53-34.17,31.9-51.51c13.3-22.24,26.53-44.48,38.41-67.51
			c7.31-14.17,14.23-28.51,19.58-43.54c4.29-12.07,8.06-24.3,8.51-37.28c0.57-16.37-2.61-32.21-7.28-47.74
			c-3.01-9.99-7.35-19.49-12.52-28.6c-6.28-11.07-13.76-21.21-22.51-30.47c-7.84-8.31-16.49-15.61-25.97-21.94
			c-13.81-9.23-28.56-16.3-44.74-20.55c-10.64-2.79-21.32-5.29-32.27-5.55c-15.01-0.36-29.94,0.26-44.75,3.85
			c-23.07,5.58-43.6,15.89-61.93,30.76c-7.64,6.2-14.27,13.36-20.72,20.86c-9.99,11.62-17.86,24.38-23.64,38.36
			c-5.22,12.61-9.07,25.71-10.85,39.38c-1.59,12.23-2.52,24.63,0.52,36.49c7.36,28.76,20.8,55.1,34.8,81.08
			c8.25,15.31,17.16,30.26,26.01,45.24c13.89,23.5,28.49,46.54,42.89,69.73c8.7,14.02,18.07,27.65,26.34,41.92
			C282.77,617.99,291.21,629.68,297.39,643.39z"/>
		<path class="st1" d="M297.39,643.39c-6.18-13.71-14.62-25.4-21.82-37.82c-8.27-14.27-17.64-27.9-26.34-41.92
			c-14.39-23.18-28.99-46.23-42.89-69.73c-8.86-14.98-17.77-29.94-26.01-45.24c-13.99-25.97-27.44-52.32-34.8-81.08
			c-3.04-11.86-2.11-24.26-0.52-36.49c1.78-13.67,5.63-26.77,10.85-39.38c5.78-13.98,13.65-26.75,23.64-38.36
			c6.45-7.5,13.08-14.66,20.72-20.86c18.33-14.87,38.86-25.18,61.93-30.76c14.81-3.58,29.75-4.2,44.75-3.85
			c10.94,0.26,21.62,2.76,32.27,5.55c16.19,4.25,30.93,11.32,44.74,20.55c9.47,6.33,18.12,13.63,25.97,21.94
			c8.75,9.26,16.23,19.4,22.51,30.47c5.17,9.11,9.51,18.61,12.52,28.6c4.68,15.54,7.85,31.37,7.28,47.74
			c-0.45,12.97-4.22,25.21-8.51,37.28c-5.35,15.03-12.27,29.37-19.58,43.54c-11.88,23.04-25.11,45.28-38.41,67.51
			c-10.37,17.34-21.25,34.35-31.9,51.51c-13.28,21.4-26.72,42.7-40.04,64.07C308.42,625.22,303.22,633.86,297.39,643.39z
			 M295.64,414.9c41.79,1.21,71.91-30.86,71.77-69c-0.14-38.24-28.7-66.16-64.68-68.92c-40.47-3.11-73.22,29.82-73.96,67.24
			C228.02,381.76,257.89,414.71,295.64,414.9z"/>
		<path class="st2" d="M295.64,414.9c-37.75-0.19-67.62-33.14-66.88-70.68c0.74-37.42,33.49-70.34,73.96-67.24
			c35.98,2.76,64.54,30.68,64.68,68.92C367.55,384.03,337.43,416.11,295.64,414.9z"/>
	</g>
</g>
</svg>
