<?xml version="1.0" encoding="utf-8"?>
<!-- Generator: Adobe Illustrator 25.0.1, SVG Export Plug-In . SVG Version: 6.00 Build 0)  -->
<svg version="1.1" id="圖層_1" xmlns="http://www.w3.org/2000/svg" xmlns:xlink="http://www.w3.org/1999/xlink" x="0px" y="0px"
	 viewBox="0 0 595.28 841.89" style="enable-background:new 0 0 595.28 841.89;" xml:space="preserve">
<style type="text/css">
	.st0{fill:#FEFEFE;}
	.st1{fill:#A742EE;}
	.st2{fill:#FEFEFD;}
</style>
<g>
	<g>
		<path class="st0" d="M553.91,420.88c0,83.94-0.02,167.89,0.08,251.83c0,3.26-0.44,4.18-4.01,4.17c-167.9-0.12-335.8-0.12-503.71,0
			c-3.75,0-4.28-0.95-4.28-4.41c0.1-167.72,0.1-335.44,0-503.16c0-3.41,0.45-4.43,4.26-4.43c167.9,0.13,335.8,0.13,503.71,0.01
			c3.53,0,4.04,0.84,4.03,4.15C553.89,252.99,553.91,336.94,553.91,420.88z M297.46,642.66c0.85-0.69,1.55-1.01,1.85-1.55
			c10.01-18.14,21.2-35.58,32.2-53.13c11.63-18.55,23.72-36.82,35.31-55.4c11.25-18.02,22.4-36.12,33.07-54.49
			c8.39-14.45,16.34-29.15,23.89-44.09c10.26-20.31,19.8-40.71,25.59-62.9c4.26-16.31,2.61-32.13,0.11-48.2
			c-1.37-8.8-4.33-17.08-7.4-25.4c-5.51-14.94-12.91-28.95-22.97-41.09c-11.19-13.51-23.79-25.81-39.1-34.97
			c-11.83-7.08-24.01-13.23-37.27-17.17c-8.11-2.41-16.36-4.25-24.68-5.49c-7.09-1.05-14.37-1.85-21.48-1.41
			c-11.74,0.73-23.5,1.49-35.07,4.39c-12.55,3.14-24.59,7.6-35.9,13.56c-9.77,5.15-18.97,11.46-27.41,18.8
			c-7.75,6.74-15.14,13.92-21.43,21.91c-9.46,12.02-17.38,25.19-22.66,39.66c-5.12,14.04-7.97,28.52-9.71,43.49
			c-1.97,17.05,1.41,32.85,7.13,48.26c6.82,18.37,15.5,35.94,24.9,53.23c7.48,13.76,14.94,27.56,22.7,41.16
			c9.31,16.31,19.18,32.3,29.03,48.29c13.31,21.61,26.78,43.12,40.29,64.6C278.36,610.47,288.15,626.26,297.46,642.66z"/>
		<path class="st1" d="M297.46,642.66c-9.31-16.4-19.1-32.19-29-47.92c-13.51-21.48-26.98-42.99-40.29-64.6
			c-9.85-15.99-19.72-31.98-29.03-48.29c-7.77-13.6-15.22-27.4-22.7-41.16c-9.4-17.3-18.08-34.86-24.9-53.23
			c-5.72-15.41-9.1-31.21-7.13-48.26c1.73-14.97,4.59-29.45,9.71-43.49c5.27-14.47,13.19-27.64,22.66-39.66
			c6.29-7.99,13.67-15.16,21.43-21.91c8.44-7.34,17.64-13.65,27.41-18.8c11.32-5.96,23.36-10.42,35.9-13.56
			c11.56-2.89,23.33-3.66,35.07-4.39c7.11-0.44,14.39,0.36,21.48,1.41c8.32,1.24,16.57,3.08,24.68,5.49
			c13.26,3.94,25.44,10.09,37.27,17.17c15.31,9.16,27.91,21.46,39.1,34.97c10.05,12.14,17.46,26.15,22.97,41.09
			c3.07,8.32,6.03,16.6,7.4,25.4c2.51,16.07,4.15,31.89-0.11,48.2c-5.8,22.19-15.34,42.59-25.59,62.9
			c-7.55,14.94-15.5,29.64-23.89,44.09c-10.67,18.37-21.82,36.47-33.07,54.49c-11.59,18.58-23.68,36.84-35.31,55.4
			c-11,17.55-22.19,34.98-32.2,53.13C299.01,641.65,298.3,641.97,297.46,642.66z M229.02,345.62c-0.33,40.22,30.31,69.71,68.5,69.56
			c39.5-0.16,69.4-28.51,69.81-69.15c0.38-37.07-29.29-68.32-68.67-69.25C261.12,275.89,227.53,308.91,229.02,345.62z"/>
		<path class="st2" d="M229.02,345.62c-1.49-36.7,32.1-69.72,69.63-68.84c39.38,0.92,69.05,32.18,68.67,69.25
			c-0.41,40.64-30.31,68.99-69.81,69.15C259.33,415.32,228.69,385.84,229.02,345.62z"/>
	</g>
</g>
</svg>
