<?xml version="1.0" encoding="utf-8"?>
<!-- Generator: Adobe Illustrator 25.0.1, SVG Export Plug-In . SVG Version: 6.00 Build 0)  -->
<svg version="1.1" id="圖層_1" xmlns="http://www.w3.org/2000/svg" xmlns:xlink="http://www.w3.org/1999/xlink" x="0px" y="0px"
	 viewBox="0 0 595.28 841.89" style="enable-background:new 0 0 595.28 841.89;" xml:space="preserve">
<style type="text/css">
	.st0{fill:#FEFEFE;}
	.st1{fill:#E65D5D;}
	.st2{fill:#FDFDFD;}
</style>
<g>
	<g>
		<path class="st0" d="M553.91,420.88c0,83.94-0.02,167.89,0.08,251.83c0,3.27-0.44,4.18-4.01,4.17c-167.9-0.12-335.8-0.12-503.71,0
			c-3.75,0-4.28-0.95-4.28-4.41c0.1-167.72,0.1-335.44,0-503.16c0-3.41,0.45-4.43,4.26-4.43c167.9,0.13,335.8,0.13,503.71,0.01
			c3.53,0,4.04,0.84,4.03,4.15C553.89,252.99,553.91,336.94,553.91,420.88z M298.45,642.9c3.61-6.5,6.92-12.87,10.62-19.01
			c5.22-8.66,10.76-17.12,16.11-25.7c5.34-8.55,10.37-17.35,15.98-25.67c9.99-14.83,19.25-30.11,28.86-45.16
			c6.36-9.97,12.53-20.11,18.51-30.34c6.63-11.34,13.86-22.36,20.06-33.93c6.5-12.12,13.12-24.18,19.1-36.62
			c8.73-18.16,16.77-36.43,21.81-56.04c4.68-18.2,2.54-36.03-1.35-53.85c-2.61-11.96-7.2-23.19-12.64-34.24
			c-4.64-9.42-10.31-18.1-16.69-26.16c-6.98-8.82-15.13-16.73-23.91-23.99c-11-9.1-23.18-16.22-35.95-22.13
			c-9.64-4.45-19.98-7.52-30.55-9.47c-15.3-2.81-30.52-3.7-46.17-2.17c-13.47,1.31-26.3,4.56-38.82,8.91
			c-14.24,4.95-27.1,12.73-39.04,22.17c-8.24,6.51-16.62,12.96-23.1,21.1c-6.42,8.07-12.7,16.34-17.85,25.46
			c-5.6,9.94-9.81,20.42-13.1,31.15c-3.07,10.01-4.45,20.5-5.82,31.01c-1.97,15.12,0.18,29.38,4.98,43.27
			c5.68,16.45,12.82,32.38,20.67,47.94c10.67,21.16,22.64,41.6,34.53,62.09c6.92,11.93,14.5,23.48,21.58,35.32
			c7.19,12.03,15.17,23.58,22.34,35.59c5.33,8.91,10.92,17.68,16.34,26.52c8.15,13.29,16.15,26.7,24.54,39.84
			C292.45,633.41,293.93,639.05,298.45,642.9z"/>
		<path class="st1" d="M298.45,642.9c-4.52-3.85-6-9.49-8.95-14.11c-8.39-13.14-16.38-26.54-24.54-39.84
			c-5.42-8.84-11.02-17.6-16.34-26.52c-7.18-12.01-15.15-23.56-22.34-35.59c-7.08-11.84-14.66-23.39-21.58-35.32
			c-11.89-20.48-23.86-40.93-34.53-62.09c-7.85-15.56-14.98-31.49-20.67-47.94c-4.8-13.9-6.95-28.15-4.98-43.27
			c1.37-10.51,2.74-21,5.82-31.01c3.29-10.73,7.5-21.21,13.1-31.15c5.14-9.12,11.43-17.39,17.85-25.46
			c6.48-8.15,14.85-14.59,23.1-21.1c11.94-9.43,24.8-17.21,39.04-22.17c12.52-4.35,25.34-7.6,38.82-8.91
			c15.65-1.52,30.87-0.64,46.17,2.17c10.57,1.94,20.92,5.01,30.55,9.47c12.77,5.9,24.95,13.03,35.95,22.13
			c8.78,7.26,16.93,15.17,23.91,23.99c6.38,8.06,12.05,16.75,16.69,26.16c5.44,11.04,10.04,22.28,12.64,34.24
			c3.89,17.82,6.03,35.65,1.35,53.85c-5.04,19.6-13.08,37.87-21.81,56.04c-5.98,12.43-12.6,24.49-19.1,36.62
			c-6.2,11.57-13.43,22.58-20.06,33.93c-5.98,10.23-12.15,20.37-18.51,30.34c-9.6,15.05-18.87,30.33-28.86,45.16
			c-5.61,8.32-10.64,17.12-15.98,25.67c-5.35,8.58-10.89,17.04-16.11,25.7C305.37,630.03,302.06,636.41,298.45,642.9z
			 M296.95,415.29c33.5,0.23,69.76-23.93,70.25-70.17c0.35-32.62-24.91-65.05-63.64-68.05c-39.34-3.05-74.35,25.81-74.85,68.33
			C228.31,379.7,252.25,412.96,296.95,415.29z"/>
		<path class="st2" d="M296.95,415.29c-44.7-2.34-68.64-35.6-68.24-69.88c0.5-42.52,35.51-71.38,74.85-68.33
			c38.73,3,63.99,35.43,63.64,68.05C366.7,391.36,330.45,415.52,296.95,415.29z"/>
	</g>
</g>
</svg>
