<?xml version="1.0" encoding="utf-8"?>
<!-- Generator: Adobe Illustrator 25.0.1, SVG Export Plug-In . SVG Version: 6.00 Build 0)  -->
<svg version="1.1" id="圖層_1" xmlns="http://www.w3.org/2000/svg" xmlns:xlink="http://www.w3.org/1999/xlink" x="0px" y="0px"
	 viewBox="0 0 595.28 841.89" style="enable-background:new 0 0 595.28 841.89;" xml:space="preserve">
<style type="text/css">
	.st0{fill:#FEFEFE;}
	.st1{fill:#FEF143;}
	.st2{fill:#FEFDFD;}
</style>
<g>
	<g>
		<path class="st0" d="M42.1,420.39c0-83.8,0.03-167.6-0.1-251.41c-0.01-3.42,0.67-4.1,4.09-4.09c167.94,0.11,335.87,0.11,503.81,0
			c3.42,0,4.1,0.67,4.09,4.09c-0.11,167.94-0.11,335.88,0,503.81c0,3.42-0.67,4.1-4.09,4.09c-167.94-0.11-335.87-0.11-503.81,0
			c-3.42,0-4.1-0.67-4.09-4.09C42.12,588.66,42.1,504.53,42.1,420.39z M297.65,642.46c0.66-0.61,1.56-1.16,2.08-1.96
			c4.76-7.28,8.45-15.17,13.16-22.51c12.06-18.77,23.73-37.79,35.53-56.72c7.26-11.64,14.43-23.34,21.73-34.96
			c6.09-9.68,12.74-19.04,18.39-28.96c12.37-21.74,25.38-43.12,36.55-65.54c6.85-13.75,13.08-27.73,18.6-42.08
			c7.17-18.63,10.48-37.63,7.33-57.42c-1.75-11-3.99-21.92-7.9-32.47c-5.9-15.91-13.8-30.73-24.48-43.82
			c-11.34-13.9-24.45-25.93-39.96-35.4c-10.25-6.26-20.93-11.67-32.14-15.33c-21-6.87-42.7-8.84-64.9-6.66
			c-16.26,1.59-31.58,5.87-46.4,12.31c-7.36,3.2-14.24,7.24-21.09,11.58c-12.15,7.7-23.11,16.84-32.23,27.54
			c-11.67,13.7-21.51,28.81-27.84,46.13c-5.69,15.57-8.92,31.41-10.2,47.81c-1.36,17.43,3.75,33.5,10.03,49.37
			c6.97,17.63,15.39,34.6,24.18,51.36c6.54,12.48,13.86,24.55,20.97,36.73c5.46,9.37,11.12,18.63,16.71,27.92
			c5.98,9.93,11.89,19.9,18.02,29.74c7.82,12.54,15.91,24.91,23.76,37.43c5.54,8.83,10.88,17.79,16.29,26.7
			C281.77,616.27,289.69,629.33,297.65,642.46z"/>
		<path class="st1" d="M297.65,642.46c-7.97-13.14-15.88-26.19-23.81-39.23c-5.41-8.91-10.75-17.87-16.29-26.7
			c-7.85-12.52-15.93-24.9-23.76-37.43c-6.13-9.83-12.04-19.81-18.02-29.74c-5.6-9.29-11.25-18.55-16.71-27.92
			c-7.1-12.18-14.42-24.25-20.97-36.73c-8.79-16.76-17.21-33.73-24.18-51.36c-6.27-15.87-11.39-31.93-10.03-49.37
			c1.28-16.4,4.51-32.24,10.2-47.81c6.33-17.32,16.17-32.42,27.84-46.13c9.12-10.71,20.08-19.84,32.23-27.54
			c6.84-4.34,13.73-8.38,21.09-11.58c14.82-6.44,30.14-10.72,46.4-12.31c22.2-2.18,43.91-0.21,64.9,6.66
			c11.2,3.67,21.89,9.07,32.14,15.33c15.51,9.47,28.62,21.5,39.96,35.4c10.68,13.09,18.58,27.91,24.48,43.82
			c3.91,10.55,6.15,21.47,7.9,32.47c3.15,19.79-0.17,38.79-7.33,57.42c-5.52,14.35-11.75,28.33-18.6,42.08
			c-11.17,22.42-24.18,43.8-36.55,65.54c-5.65,9.93-12.3,19.28-18.39,28.96c-7.3,11.61-14.47,23.31-21.73,34.96
			c-11.8,18.93-23.47,37.95-35.53,56.72c-4.71,7.34-8.41,15.23-13.16,22.51C299.21,641.3,298.31,641.86,297.65,642.46z
			 M296.87,276.94c-35.81-0.68-72.4,31.61-67.71,76.88c3.17,30.67,28.4,61.28,68.19,61.4c40.28,0.12,70.2-30.63,69.97-69.42
			C367.07,306.91,337.58,276.87,296.87,276.94z"/>
		<path class="st2" d="M296.87,276.94c40.72-0.08,70.21,29.96,70.44,68.87c0.24,38.79-29.68,69.53-69.97,69.42
			c-39.8-0.12-65.02-30.73-68.19-61.4C224.47,308.55,261.05,276.26,296.87,276.94z"/>
	</g>
</g>
</svg>
