<?xml version="1.0" encoding="utf-8"?>
<!-- Generator: Adobe Illustrator 26.0.0, SVG Export Plug-In . SVG Version: 6.00 Build 0)  -->
<svg version="1.1" id="圖層_1" xmlns="http://www.w3.org/2000/svg" xmlns:xlink="http://www.w3.org/1999/xlink" x="0px" y="0px"
	 viewBox="0 0 400 400" style="enable-background:new 0 0 400 400;" xml:space="preserve">
<style type="text/css">
	.st0{fill:#C6A3CC;}
	.st1{fill:#545454;}
	.st2{fill:#202223;}
	.st3{fill:#68FEF9;}
	.st4{fill:#202323;}
	.st5{fill:#7F3C25;}
	.st6{fill:#222222;}
	.st7{fill:#383838;}
	.st8{fill:#222121;}
	.st9{fill:#1F2021;}
	.st10{fill:#21201F;}
	.st11{fill:#69FCF9;}
	.st12{fill:#373737;}
	.st13{fill:#DDDDDD;}
	.st14{fill:#E9EFEF;}
	.st15{fill:#DCDCDB;}
	.st16{fill:#9B4B2E;}
	.st17{fill:#FEE8CE;}
	.st18{fill:#E7D4BB;}
	.st19{fill:#6AFCF9;}
	.st20{fill:#F9F9F8;}
	.st21{fill:#9B4A2F;}
	.st22{fill:#7F3C26;}
	.st23{fill:#7C3C25;}
	.st24{fill:#833F27;}
	.st25{fill:#803C24;}
	.st26{fill:#9A4A30;}
	.st27{fill:#8F442B;}
	.st28{fill:#F1F2EF;}
	.st29{fill:#7B3B26;}
	.st30{fill:#7E3B23;}
	.st31{fill:#7E3D25;}
	.st32{fill:#9C4B2E;}
	.st33{fill:#E5DEDD;}
	.st34{fill:#B39B90;}
	.st35{fill:#FBFBFB;}
	.st36{fill:#D2C1B7;}
	.st37{fill:#E7BBAA;}
	.st38{fill:#1E2224;}
	.st39{fill:#1D2223;}
	.st40{fill:#1E2223;}
	.st41{fill:#1E2222;}
	.st42{fill:#E9BBAA;}
	.st43{fill:#242423;}
	.st44{fill:#232323;}
	.st45{fill:#1F1F1F;}
	.st46{fill:#3B3B32;}
	.st47{fill:#E7D3B9;}
	.st48{fill:#E5D5BD;}
</style>
<g>
	<path class="st0" d="M157.54,384.43c-14.52-2.75-28.21-8-41.54-14.19c-11.1-5.15-21.64-11.44-31.43-18.73
		c-11.91-8.87-22.78-18.95-32.46-30.31c-17.91-21.03-30.72-44.81-38.63-71.17C9.18,235.71,6.87,221,5.8,206
		c-1.81-25.36,2.09-49.83,10.01-73.73c8.05-24.28,20.7-46.03,37.49-65.39c16.52-19.06,36.21-34.07,58.49-45.63
		c20.02-10.39,41.44-16.58,63.81-19.56c16.39-2.19,32.73-2.38,49.08,0.17c0.66,0.1,1.28,0.54,1.91,0.83
		c-3.94,2.31-8.16,1.07-12.28,0.99c-7.51-1.52-15.13-0.93-22.65-0.52c-10.32,0.55-20.64,1.75-30.53,5.07
		c-32.3,10.82-62.39,25.56-85.96,50.95C61.27,74.13,52.06,91.95,45.93,111.4c-4.06,12.88-5.74,26.07-6.59,39.54
		c-1.03,16.53,0.39,32.55,6.12,48.13c1.42,3.85,3.38,7.41,5.33,11c1.55,2.85,3.58,3.42,6.54,2.54c3.18-0.95,6.34-2.32,9.81-1.6
		c1.95,0.75,2.9,2.34,3.58,4.18c0.98,17.34,3.4,34.49,7.25,51.41c3.76,16.53,8.75,32.64,17.56,47.34
		c6.9,11.52,15.89,21.17,25.77,30.1c0.54,0.49,1.15,0.89,1.83,1.18c0.28,0.12,0.56,0.15,0.91,0.06c0.76-1.12-0.24-1.9-0.74-2.62
		c-4.93-7.15-7.83-15.29-11.29-23.15c-0.59-1.34-1.22-2.69-0.44-4.18c2.9-0.86,3.31,1.86,4.21,3.29
		c6.45,10.2,15.22,18.27,23.87,26.46c0.51,0.49,1.1,0.91,2.64,1c-4.78-7.11-8.17-14.26-11.31-21.6
		c-6.49-15.18-11.07-30.93-14.9-46.93c-0.38-1.57-1.4-3.39,0.58-4.75c6.12,2.28,12.01,5.11,18.17,7.29
		c12.21,4.32,24.73,6.2,37.66,5.37c3.09,0.31,6.25,0.01,9.24,1.13c3.15,6.54,5.14,13.51,6.97,20.49c0.67,2.54-0.65,5.15-1.53,7.6
		c-5.37,15.06-12,29.61-17.86,44.47c-2.93,7.43-7.09,14.33-9.29,22.06C159.67,382.55,159.36,384.15,157.54,384.43z"/>
	<path class="st1" d="M292.33,388.68c-6.16,4.28-13.51,3.87-20.39,4.67c-9.09,1.06-17.97,3.17-27.01,4.33
		c-7.88,1.01-15.82,1.57-23.74,2.3c-1.43,0.13-2.66-1.17-4.18-0.7c-11.35,0.49-22.43-0.87-33.06-5.07
		c-1.75-0.69-3.52-1.41-4.26-3.39c-0.39-4.34,1.7-8.27,2.11-12.47c0.75-5.57,3.52-10.4,5.62-15.49
		c6.55-15.89,13.27-31.71,19.28-47.83c2.11-5.68,1.63-10.79-0.73-16.03c-1.14-2.53-2.3-5.05-2.31-7.91
		c-0.09-3.45-0.16-6.89-1.06-10.25c4.52-3.69,9.61-5.2,15.41-4.13c0.41,0.63,0.52,1.32,0.41,2.06c-0.72,4.92-0.72,4.92,4.19,5.56
		c3.43,3.61,3.01,8.65,4.74,12.91c0.93,2.3,1.64,4.64,3.25,6.57c0.39,0.88,0.48,1.8,0.39,2.75c-1.37,6.94,1.34,13.75,0.66,20.67
		c0.74-6.96,1.06-13.9-0.13-20.84c-0.68-9.23-2.15-18.31-4.73-27.21c-0.52-1.78-1.34-3.55-0.74-5.49c1.04-1.9,3.03-2.23,4.81-2.63
		c14.17-3.16,28.3-6.66,42.82-7.84c3.66-0.3,7.55-1.11,11.03,1.12c0.94,1.41,0.94,3.02,0.91,4.61c-0.13,6.94-0.13,13.88,0.75,20.78
		c-3.18,10.42-3.54,21.11-3.59,31.94c-0.07,16.49,6.2,29.65,18.91,39.92c1.59,1.28,3.2,2.53,4.6,4.01c2.76,3.4,6.46,5.7,9.84,8.38
		c1.21,0.96,2.77,1.63,3.29,3.3c-7.54,4.1-15.08,8.19-23.75,9.46c-2.08-2.16-3.05-4.97-4.08-7.65
		c-6.81-17.68-13.38-35.44-18.41-53.73c-1.09-3.97-2.72-7.74-4.58-11.42C275.1,339.33,284.03,363.91,292.33,388.68z"/>
	<path class="st2" d="M306.21,366.74c-7.14-5.72-14.23-11.44-18.71-19.74c-3.08-5.7-5.33-11.79-5.6-18.1
		c-0.55-12.85-1.5-25.86,3.39-38.29c0.04-4.89,3-8.61,5.05-12.69c7.02-13.94,15.52-26.81,27.2-37.33c2.45-2.21,3.83-4.64,3.2-7.98
		c-0.29-10-1.01-19.96-2.46-29.85c-0.9-9.81-3.66-19.14-7.25-28.27c-0.92-2.33-2.57-4.94,0.76-6.89c3.73,0.09,4.71,3.11,5.71,5.75
		c4.27,11.22,6.95,22.84,8.28,34.76c1.25,11.29,2.13,22.61,1.85,33.99c-0.33,7.61,0.34,15.27-0.76,22.72
		c0.74-2.52-0.1-5.47,1.3-8.05c3.08-10.4,4.37-21.1,4.67-31.85c0.38-13.67,0.6-27.39-0.05-41.04c-0.64-13.29-0.18-26.86-5.59-39.53
		c-0.58-1.36-0.88-2.84,0.4-4.06c1.28-1.21,2.71-0.9,4.04-0.16c1.71,0.95,3.38,0.84,4.98-0.1c5.43-3.2,11.36-3.28,17.37-2.91
		c1.76,0.1,3.39,0.7,5.76,1.81c-4.59-7.6-8.46-14.69-13.14-21.31c-2.07-2.81-4.07-5.67-6.45-8.24c-0.9-0.97-1.64-2.05-2.02-3.33
		c-0.4-1.35-0.3-2.62,0.89-3.56c1.29-1.01,2.48-0.47,3.56,0.39c2.53,2.01,4.52,4.51,6.3,7.19c5.69,8.44,10.94,17.15,15.88,25.64
		c-2.42-20.01-12.42-46.1-22.32-62.5c-2.42-4-5.1-7.77-8.28-11.22c-1.61-1.75-2.61-3.68,0.26-5.31c4.07,0.96,5.81,4.68,8.54,7.23
		c5.92,6.26,9.37,14.04,12.91,21.68c7.15,15.41,12.93,31.37,14.78,48.32c0.84,7.73,2.9,14.54,6.79,21.24
		c5.49,9.47,7.1,19.96,5.58,30.86c-0.23,1.64-0.24,3.27,0.6,4.68c4.34,7.27,5.24,15.42,5.78,23.56c0.7,10.49,0.55,20.96-2.72,31.16
		c-1.81,5.65-4.86,10.59-8.2,15.38c-6.27,8.99-13.38,17.23-21.32,24.84c-11.04,10.6-22.05,21.27-30.53,34.18
		c-3.73,5.67-3.71,5.67-0.03,11.17c1.86,2.78,4,5.41,4.83,8.75c3.6,6.18,7.98,11.81,12.58,17.25c1.76,2.09,2.05,3.66,0.07,5.54
		c-2.38,0.52-3.3-1.39-4.49-2.76c-7.41-8.57-13.18-18.32-19.9-27.63c-0.08-0.36-0.75,0.44-0.24,0.15c0.22-0.13,0.37-0.05,0.37,0.22
		c-0.09,6.04-0.77,12.09,0.96,18.08c0.56,1.94-0.75,3.29-2.95,3.37c-2.53-0.84-3.38-2.95-3.93-5.26
		c-1.31-5.41-1.51-10.82,0.06-16.21c3.42-13.7,12.38-23.9,21.66-33.8c10.94-11.68,23.06-22.22,33.06-34.83
		c7.76-9.79,13.74-20.21,14.69-32.96c1.28-11.32-0.2-22.34-3.35-34.27c-2.98,4.81-5.57,8.56-8.59,11.96
		c1.42,5.4,2.29,10.77,0.32,16.27c-1.27,3.55-3.04,6.89-6.23,8.72c-4.52,2.59-7.52,6.28-9.97,10.66
		c-4.3,7.72-10.72,13.78-16.22,20.56c-8.62,10.63-15.99,21.89-19.19,35.46c-0.46,1.96-1.31,4.3-3.98,3.68
		c-2.29-0.53-2.31-2.78-2.14-4.71c0.19-2.18,0.62-4.34,1.35-6.41c5.1-14.5,5.84-29.62,6.29-44.77c0.02-0.57-0.02-1.17-1.12-2.05
		c-10.02,9.93-17.86,21.46-24.36,33.99c-11.6,21.26-14.18,42.99-3.52,65.43c5.82,11.02,15.81,16.84,26.78,21.43
		c1.21,0.42,2.33,1.19,3.89,1.06c-1.17-4.36-6.81-7.25-4.15-12.74c4.05-1.42,5.55,1.68,6.77,4.3c1.49,3.22,3.43,5.96,5.99,8.33
		c0.91,1.22,1.96,2.4,1.36,4.12c-1.18,4.66-4.5,1.5-6.85,1.88c-4.99,1.08-9.31-0.97-13.56-3.06
		C310.57,369.58,308.45,368.04,306.21,366.74z"/>
	<path class="st0" d="M331.45,339.71c-2.86-4.02-5.63-8.11-8.64-12.01c-1.32-1.71-0.55-2.9,0.25-4.32
		c5.49-9.74,12.8-18.04,20.64-25.88c11.94-11.94,24.3-23.44,34.07-37.41c6.85-9.79,10.49-20.46,10.69-32.23
		c0.23-12.97,0.42-26.03-6.46-37.83c-0.63-1.08-0.5-2.18-0.33-3.38c2.01-14.39-1.25-27.45-10.09-39.05c-0.64-0.84-1-1.59-1.04-2.72
		c-0.71-20-7.02-38.55-14.74-56.75c-3.59-8.46-8.3-16.3-12.85-24.23c6.19,4.13,10.2,10.32,14.39,16.15
		c19.19,26.69,31.26,56.31,35.58,89c3.37,25.54,1.74,50.65-4.92,75.59c-7.64,28.63-20.95,54.09-40.14,76.61
		c-4.27,5.01-8.94,9.59-13.53,14.26C333.15,336.73,331.55,337.71,331.45,339.71z"/>
	<path class="st3" d="M180.23,390.47c3.2,3.37,7.58,4.15,11.78,5.14c8.22,1.94,16.58,3.03,25,3.68c-5.88,1.25-11.83,0.46-17.74,0.48
		c-12.31,0.04-24.44-2.16-36.65-3.39c-5.9-0.59-7.36-2.74-6.02-8.61c0.26-1.12,0.62-2.23,0.93-3.34
		c9.01-23.23,19.68-45.77,28.29-69.16c1.85-5.02,2.09-9.61-0.03-14.63c-1.79-4.22-3.58-8.57-3.87-13.29
		c5.23-2.71,10.68-1.49,16.04-0.73c1.63,0.23,2.28,2.14,2.89,3.63c1.23,2.96,2.17,6.03,3.06,9.11c0.28,0.98,0.47,2,0.96,2.9
		c2.22,4.03,2.19,5.32,0.74,9.9c-6.95,22-17.06,42.72-25.77,64c-1.09,2.66-2.81,5.21-1.59,8.31
		C178.66,386.55,179.39,388.53,180.23,390.47z"/>
	<path class="st4" d="M213.71,2.73c4.29-0.02,8.58-0.03,12.88-0.05c32.69,4.34,63.6,13.49,90.24,33.9
		c4.37,3.35,8.3,7.28,12.48,10.89c1.36,1.17,1.98,2.46,1.34,4.21c-1.02,1.03-2.21,0.93-3.45,0.55c-4.78-3.56-8.79-8.01-13.5-11.7
		c-13.11-10.3-27.92-17.23-43.52-22.71c-12.13-4.26-24.57-7.64-37.29-8.92c-22.52-2.27-44.8-1.11-65.82,8.81
		c-2.05,0.97-3.54,3.19-6.18,2.92c-1.99-0.68-2.78-2.06-2.42-4.12c0.58-1.85,2.09-2.77,3.68-3.52
		c12.79-6.01,26.09-10.16,40.34-10.25C206.23,2.72,209.98,1.35,213.71,2.73z"/>
	<path class="st5" d="M327.25,51.61c1.13,0.03,2.26,0.05,3.4,0.08c0.98,1.87,3.76,2.38,3.78,4.98c-1.03,1.56-1.57,2.86,0.23,4.53
		c6.97,6.46,10.88,14.96,15.09,23.25c6.09,11.97,10.19,24.68,13.73,37.56c1.54,5.62,2.13,11.5,2.42,17.48
		c-5.94-9.71-11.87-19.43-17.81-29.14c1.88-0.94,2.67,1.33,4.57,1.48c-2.1-11.01-5.65-21.38-10.9-31.12
		c-4.33-8.04-8.25-16.32-13.35-23.95C327.46,55.33,325.95,53.69,327.25,51.61z"/>
	<path class="st6" d="M292.33,388.68c-3.21-1.96-3.15-5.71-4.11-8.61c-6.65-20.1-14.13-39.94-19.74-60.38
		c-0.42-1.54-1.02-3.03-1.63-4.51c-0.53-1.28-1.16-2.64,0.63-3.27c2.01-0.71,3.24,0.8,3.49,2.36c0.61,3.79,2.37,7.16,3.4,10.78
		c5.71,20.15,12.46,39.93,20.81,59.15c0.34,0.77,0.34,1.69,0.51,2.53C294.5,387.28,293.88,388.79,292.33,388.68z"/>
	<path class="st1" d="M333.3,371.9c-0.59-1.13-1.18-2.26-1.77-3.39c-4.76-6.85-9.93-13.47-11.89-21.85
		c-0.06-0.27-0.35-0.51-0.37-0.78c-0.23-2.5-1.67-5.96,0.64-7.17c2.23-1.17,3.63,2.23,4.86,4.03c5.26,7.66,10.88,15.04,16.64,22.32
		C338.71,367.35,336,369.63,333.3,371.9z"/>
	<path class="st7" d="M341.41,365.07c-5.63-3.8-8.93-9.64-12.74-14.96c-2.69-3.75-5.34-7.5-8.48-11.49
		c-1.36,3.07-0.74,5.52,0.04,8.18c2.34,8.01,7.77,14.36,11.3,21.72c-2.75-2-4.81-4.44-6.06-7.73c-1.01-2.66-2.3-5.52-6.01-5.41
		c-0.83-0.4-1.01-1.13-0.99-1.95c1.62-0.99,1.66-2.19,1.14-4.02c-1.7-5.91-1.73-11.9,0.1-18.2c2.39,1.62,3.59,3.96,4.97,6.03
		c5.11,7.69,10.39,15.24,16.2,22.42c0.89,1.1,2.14,1.9,3.23,2.84C343.21,363.36,342.31,364.22,341.41,365.07z"/>
	<path class="st7" d="M306.21,366.74c2.02-0.2,3.76,0.73,5.24,1.81c4.49,3.3,9.85,3.92,14.99,5.23c-2.08,1.68-4.47,2.74-7.02,3.5
		C314.67,374.21,309.75,371.34,306.21,366.74z"/>
	<path class="st3" d="M213.71,2.73c-16.79,0.59-33.19,2.96-48.61,10.19c-2.11,0.99-4.23,1.86-6.01,3.39
		c-3.94,3.75-8.91,5.95-13.36,8.94c-7.01,0.57-13.11,3.42-19.04,7.05c-32.35,19.81-54.52,47.37-64.45,84.25
		c-3.26,12.11-5.37,24.41-5.24,37.08c0.14,13.85-0.41,27.68,4.29,41.06c1.5,4.28,3.16,8.45,5.16,12.5c0.68,1.38,1.96,2.67,0.81,4.4
		c-3.79,0.33-7.39,1.44-11,2.59c-2.65,0.85-4.33,0.3-5.97-2.5C39.38,193.13,37.04,173,38.08,151.97
		c0.76-15.36,2.98-30.33,8.03-44.89C55.3,80.56,70.53,58.52,93,41.37c17.32-13.22,36.65-22.19,56.68-30.33
		c19.95-8.11,40.55-9.69,61.62-9.11C212.11,1.95,212.91,2.46,213.71,2.73z"/>
	<path class="st3" d="M111.78,314.54c2.96,9.62,6.96,18.77,12.37,27.28c1.03,1.63,3.39,3.71,1.82,5.19
		c-2.04,1.92-3.92-0.87-5.43-2.16c-21.14-18.1-34.36-40.97-41.17-67.86c-5.15-20.34-8.77-40.87-9.56-61.86
		c0.58-0.5,1.28-0.63,2.02-0.63c3.49,0.56,6.78-0.51,10.12-1.21c1.92-0.4,3.87-1.23,5.75,0.16c1.82,5.47,0.96,11.21,1.72,16.81
		c3.06,22.7,6.89,45.19,15.06,66.72c1.66,4.37,4.06,8.38,6.03,12.6C111.23,311.15,112.28,312.65,111.78,314.54z"/>
	<path class="st8" d="M177.63,385.07c-2.28-1.62-1.3-3.53-0.5-5.44c5.76-13.67,11.59-27.32,17.26-41.03
		c3.55-8.59,7.61-17.01,9.93-26.07c0.61-2.37,1.32-4.67,3.88-6.29c-2.99-0.07-4.16-1.34-4.66-3.86c-1-5-1.8-10.96-5.17-14.11
		c-3.3-3.09-9.41-0.53-14.26-1.04c-0.71-0.07-1.45,0.06-2.18,0.1c-3.19-0.26-6.37-0.52-9.56-0.79c-4.1,0.18-8.17-0.2-12.11-1.27
		c-9.86-2.69-19.55-5.89-28.25-11.46c-5.61-3.59-10.18-8.22-13.44-14.09c-5.77-10.42-10.05-21.34-11.57-33.24
		c-1.35-5.46-1.89-10.99-1.52-16.61c0.14-2.05,0.43-4.11,2.58-5.02c1.69-0.72,2.62,0.49,3.32,1.85c0.14,0.46,0.17,0.93,0.12,1.41
		c-0.13,4.13-0.57,8.28,0.36,12.38c1.99,10.77,4.65,21.26,9.35,31.31c4.68,10,11.98,16.71,21.8,21.02
		c15.3,6.71,31.25,10.23,48.03,9.59c1.92-0.07,3.86,0.04,4.8-2.17c1.15-2.73,3.63-3.65,6.16-4.44
		c23.38-7.35,46.83-14.41,71.46-16.22c2.26-0.17,4.17-1.16,6.09-2.24c11.97-6.71,23.13-14.69,34.62-22.16
		c1.84-1.2,3.72-3.26,6.21-1.03c1.33,2.32,0.08,4.01-1.65,5.19c-10.16,6.94-20.22,14.05-30.44,20.03c2.69,0.01,3.75,2.09,4.05,4.85
		c0.41,3.81-0.3,7.51-1.22,11.18c-0.43,1.09-0.51,2.28-1,3.33c-0.58,1.25-0.9,3.05-2.91,2.5c-1.66-0.45-1.94-1.92-2.02-3.46
		c-0.14-3.05,0.69-6.04,0.48-9.09c-0.11-1.58,0.15-3.23-1.38-4.34c-19.85-0.29-38.88,4.32-57.82,9.56
		c-1.96,1.81-0.76,3.81-0.15,5.62c2.15,6.43,3.9,12.96,4.93,19.67c0.23,1.54,1.15,3.53-1.2,4.5c-2.94-0.09-2.73-2.67-3.33-4.44
		c-1.69-4.92-2.35-10.17-4.63-14.91c-2.08-1.74-1.2-5.39-4.21-6.52c-0.53-1.43-1.49-0.75-2.45-0.59c-4.31,0.73-8.49,1.92-12.56,3.5
		c-0.44,3.67,1.02,7.03,1.76,10.5c0.42,5.39,4.25,9.7,4.72,15.15c0.15,1.8,0.16,3.38-0.36,5.05c-4.96,15.67-12.13,30.48-17.93,45.82
		c-2.64,7-7.13,13.26-8.26,20.85c-0.68,1.68-1.26,3.41-1.86,5.12C180.42,384.76,179.68,386.17,177.63,385.07z"/>
	<path class="st9" d="M111.78,314.54c-13.57-23.5-18.59-49.54-22.48-75.91c-1.23-8.35-2.11-16.71-2.1-25.16
		c-1.17-1.73-1.29-3.58,0.16-5.07c1.3-1.34,2.82-1.06,4.06,0.37c1.34,5.53,0.77,11.25,1.56,16.85c0.22,1.57-0.08,3.2,0.42,4.75
		c2.03,13.19,3.68,26.44,6.81,39.48c5.23,21.8,13.55,41.98,28.35,59.12c0.36,0.44,0.76,0.87,0.98,1.42c0.19-0.37-0.18-0.53-0.3-0.77
		c-1.1-2.06-1.88-4.26-2.73-6.43c-0.68-2.26-1.62-4.41-2.79-6.46c-4.63-10.87-7.43-22.3-10.42-33.68
		c-4-15.16-7.08-30.54-10.75-45.78c-0.52-2.15-0.81-4.29,0.24-6.38c3.58-2.1,3.88-1.96,5.52,2.69c2.61,11.47,5.28,22.93,7.81,34.42
		c0.37,1.66,1.1,3.36,0.17,5.09c5.65,24.88,12.63,49.27,26.21,71.24c0.63,1.02,2.22,2.14,0.89,3.39c-1.53,1.44-2.59-0.32-3.61-1.18
		C128.74,337.35,119.26,326.82,111.78,314.54z"/>
	<path class="st10" d="M71.84,214.81c-0.68,0.11-1.35,0.21-2.03,0.32c-0.85-1.18-1.7-2.36-2.54-3.54
		c-18.13-36.25-14.22-72.96-1.42-109.44c11.52-32.84,34.85-55.9,64.27-73.32c4.81-2.85,10.02-4.68,15.76-4.36
		c1.94-0.38,2.39,0.77,2.42,2.36c-0.41,1.25-1.41,1.88-2.6,2.04c-12.01,1.59-20.86,9.22-30.12,15.94
		c-8.84,6.42-17.05,13.6-23.94,22.17c-1.96,1.73-3.25,3.96-4.59,6.15c-13.57,19.52-22.27,41.06-24.99,64.63
		c-2.24,19.42-3.27,38.99,3.84,57.89c0.61,1.63,1.04,3.34,2.01,4.83c1.4,3.13,2.73,6.27,4.48,9.25
		C73.35,211.38,74.47,213.38,71.84,214.81z"/>
	<path class="st11" d="M116.26,273.1c-3.42-13.1-6.33-26.31-8.96-39.58c0.44-2.26-2.12-4.86,0.78-6.85
		c2.33,13.92,6.53,27.23,15.56,38.25c9.6,11.72,23.76,15.56,37.62,19.49c3.61,1.03,7.4,1.44,11.11,2.14
		c-12.9,1.2-25.38-0.95-37.5-5.18C128.46,279.15,121.94,277.05,116.26,273.1z"/>
	<path class="st6" d="M213.5,321.27c-1.21,8.44-2.47,17.48-3.8,26.51c-1.54,10.49-3.11,20.97-3.25,31.59
		c-0.03,2.2-0.29,4.34-0.8,6.48c-0.28,1.18-0.46,2.51-1.98,2.37c-1.49-0.13-1.65-1.49-1.58-2.67c0.39-6.52,0.75-13.05,1.27-19.57
		c1.25-15.78,4.71-31.26,6.58-46.95c0.17-1.42-0.75-3.77,1.71-3.75c2.77,0.02,1.57,2.53,1.83,4.06
		C213.56,319.77,213.5,320.22,213.5,321.27z"/>
	<path class="st8" d="M232.67,306.37c1.58,7,0.76,14.12,0.96,21.19c0.03,1.21-0.12,2.49-1.44,2.86c-1.21,0.33-1.95-0.64-2-1.73
		c-0.32-6.91-0.56-13.82-0.77-20.74c-0.02-0.51,0.47-1.04,0.72-1.56C230.98,305.63,231.82,305.64,232.67,306.37z"/>
	<path class="st7" d="M232.67,306.37c-0.84,0-1.69,0.01-2.53,0.01c-0.02-0.89-0.04-1.79-0.06-2.69c1-1.73,1.01-3.46,0.42-5.38
		c-2.08-6.85-3.98-13.77-6.05-20.62c-0.64-2.11-0.92-3.76,2.05-3.78C229.89,284.48,232.03,295.28,232.67,306.37z"/>
	<path class="st12" d="M284.32,264.35c2.21-0.23,2.63,1,2.68,2.92c0.09,3.08-0.42,6.06-0.84,9.08c-0.21,1.46-0.67,3.84,1.33,4.06
		c1.93,0.21,1.89-2.06,2.12-3.62c0.1-0.67,0.49-1.31,0.75-1.96c1.44,0.85,0.41,2.4,0.97,3.49c-1.93,4.14-4.89,7.77-6.04,12.29
		C283.78,281.9,284.51,273.11,284.32,264.35z"/>
	<path class="st13" d="M217.9,277.82c0.81-0.55,1.78-2.29,2.43-0.07c0.64,2.18,2.15,4.15,1.78,6.6c-1.91,1.69-4,1.24-5.43-0.31
		C214.52,281.71,217.51,279.92,217.9,277.82z"/>
	<path class="st14" d="M177.63,385.07c1.91-0.17,2.4-1.64,3.02-3.12c0.56-1.35,0.4-3.15,2.17-3.83c-0.21,4.26-1.66,8.25-2.59,12.36
		C178.03,389.31,177.31,387.44,177.63,385.07z"/>
	<path class="st15" d="M204.65,291.24c-2.23-2.52-2.04-5.97-3.38-8.85c-0.39-0.84,0.84-1.3,1.61-1.65
		C205.62,283.88,204.57,287.65,204.65,291.24z"/>
	<path class="st16" d="M71.84,214.81c1.25-1.5,0.77-2.86-0.23-4.28c-1.97-2.8-3.56-5.8-4.35-9.17
		c-12.44-45.59-2.94-87.87,19.39-128.2c1.24-2.41,2.91-4.56,4.27-6.91c11.71-14.09,26.15-24.83,41.71-34.27
		c4.72-2.86,10.08-3.2,15.08-4.87c2.09-3.79,9.28-7.58,13.23-6.98c12.87-8.41,27.39-11.68,42.36-12.95
		c25.88-2.19,50.62,2.86,74.69,12.3c16.59,6.5,31.8,15.05,44.81,27.31c1.58,1.49,2.96,3.2,4.44,4.8c3.64,6.7,7.18,13.46,10.96,20.07
		c7.16,12.54,12.95,25.6,15.55,39.9c0.17,0.92,1.18,2-0.17,2.64c-0.94,0.45-1.5-0.63-2.14-1.16c-1.11-0.92-1.86-2.28-3.36-2.72
		c-1.93-2.13-3.84-4.28-5.81-6.38c-0.76-0.81-1.61-1.9-2.89-0.79c-1.26,1.09-0.89,2.29-0.01,3.44c2.71,3.53,5.98,6.65,7.95,10.72
		c2.85,5.18,5.47,10.48,7.54,16.02c0.58,1.54,1.61,3.18,0.36,4.91c-7.09-0.55-13.98-0.07-20.15,4.01c-1.65,1.09-2.84,0.96-3.76-1.03
		c-0.52-1.13-1.62-1.72-2.91-0.87c-1.33,0.88-0.82,1.95-0.3,3.05c3.99,8.32,4.54,17.31,5.24,26.31c1.35,17.3,1,34.61,0.96,51.93
		c-0.02,10.79-1.73,21.42-3.81,31.97c-0.27,1.36-0.49,2.89-1.65,3.95c-1.89-1.04-1.6-2.87-1.62-4.56
		c-0.04-3.56,0.14-7.14-0.83-10.63c-0.07-15.14-0.77-30.24-3.58-45.14c-1.5-7.99-3.31-15.95-6.47-23.49
		c-0.96-2.29-1.41-5.24-4.67-5.77c-1.63-0.96-1.79-2.65-2.14-4.25c-0.99-9.94-4.29-19.33-7.24-28.75
		c-2.42-7.73-4.73-15.59-9.01-23.43c-0.76,2.12,0.01,3.34,0.51,4.55c5.49,13.22,9.63,26.88,13.13,40.74
		c0.52,2.05,1.45,4.2,0.19,6.36c-3.93,2.52-8.55,2.86-12.91,3.76c-36.4,7.55-72.65,15.8-108.72,24.74
		c-21.65,5.37-43.35,10.49-65.13,15.26c-3.01,0.66-6.07,2.41-9.27,0.53c-0.57-0.97-1.04-2.42-2.35-2.14
		c-1.89,0.4-1.9,2.24-2.08,3.81c-3.77,2.9-8.44,2.55-12.75,3.43c-2.46,0.5-2.48-1.77-2.82-3.42c-3.46-1.36-3.46-1.36-3.9,4.27
		c-3.69,0.78-7.38,1.51-11.05,2.36C74.49,216.22,73,216.33,71.84,214.81z"/>
	<path class="st17" d="M320.16,234.7c-1.87-1.58-3.2-0.08-4.6,0.84c-9.72,6.4-19.43,12.83-29.15,19.23
		c-5.38,3.54-10.96,5.82-17.66,6.48c-23.45,2.29-45.95,8.96-68.22,16.38c-2.11,0.7-4.38,1.32-3.76,4.35
		c0.25,1.24-0.32,1.44-1.37,1.49c-21.73,1.01-42.41-2.72-61.17-14.22c-11.24-6.88-15.31-18.7-19.34-30.27
		c-2.1-6.03-3.24-12.39-4.12-18.75c-0.3-3.8-0.09-7.61-0.11-11.41c0.13-0.29,0.47-0.63,0.5-0.58c3.06,3.68,6.78,1.94,10.34,1.23
		c23.01-4.6,45.58-10.96,68.35-16.52c34.66-8.46,69.24-17.27,104.2-24.46c1-0.21,1.99-0.44,2.98-0.69c8.93-2.3,9.56-2.05,12.47,6.86
		c2.9,8.85,6.14,17.61,8.13,26.74c0.33,1.51,1.01,0.79,1.67,0.82c1.82,10.39,2.66,20.87,2.62,31.42
		C321.49,234.24,321.21,235.1,320.16,234.7z"/>
	<path class="st16" d="M319.34,367.62c-10.33-2.95-18.16-9.58-25.27-17.23c-0.92-0.99-1.24-2.52-1.84-3.81
		c-3.27-6.38-3.96-13.17-4.05-20.29c-0.17-13.19,0.73-26.17,4.43-38.9c0.82-2.81,1.95-5.47,3.07-8.15
		c6.16-13.79,15.26-25.4,26.35-36.44c0.39,1.34,0.66,1.86,0.67,2.38c0.32,14.45-1.04,28.75-4.34,42.81
		c-0.92,3.91-2.83,7.6-3.34,11.66c-0.17,1.41-0.52,3.26,1.38,3.64c1.93,0.39,2.37-1.52,2.64-2.84c3.4-16.61,13.31-29.5,24.08-41.82
		c5.38-6.16,10.4-12.51,14.26-19.73c0.84-1.58,1.91-2.78,3.53-3.7c10.44-5.93,13.38-14.53,8.98-25.76c-0.12-0.3,0.15-0.75,0.24-1.13
		c1.76-0.53,2.77-2.01,4.06-3.16c2.68-2.39,4.34-2.25,6.2,0.86c2.24,3.76,3.47,8.03,4,12.24c0.53,4.22,0.58,8.62-0.17,12.91
		c-0.44,13.07-6.99,23.36-14.66,33.33c-9.48,12.31-21.29,22.34-31.87,33.57c-9.4,9.97-18.38,20.24-22.73,33.63
		c-2.82,11.28-1.98,22.1,4.1,32.26C320.18,365.9,320.08,365.95,319.34,367.62z"/>
	<path class="st17" d="M343,216.61c0.74-4.22,2.9-6.97,6.58-8.36c1.52-0.58,2.98-1.15,2.06-2.98c-0.89-1.77-2.68-1.65-4.18-0.76
		c-3.44,2.02-6.55,4.4-7.69,8.53c-0.13,0.49-0.35,0.95-0.81,1.35c-0.23-14.17-0.37-28.25-1.32-42.32
		c-0.47-6.99-0.94-14.01-2.7-20.78c-0.83-3.18,0.38-4.52,2.73-5.92c10.25-6.1,24.74-4.08,31.51,5.77
		c9.39,13.65,13.17,28.64,5.15,44.46c-5.67,11.19-15.52,17.43-27.21,21.05C345.87,217.03,344.55,217.19,343,216.61z"/>
	<path class="st18" d="M319.3,202.21c-1,0.6-0.71,1.8-1.23,3.26c-2.91-9.05-5.62-17.52-8.36-25.99c-0.89-2.76-2.11-5.44-2.7-8.26
		c-0.82-3.94-3.32-4.05-6.37-3.36c-12.41,2.82-24.85,5.56-37.23,8.53c-16.76,4.02-33.4,8.55-50.22,12.25
		c-26.19,5.75-51.9,13.39-78.02,19.37c-6.06,1.39-12.23,2.31-18.27,3.81c-3.41,0.85-5.23,0.06-5.71-3.45
		c-0.32-0.18-0.44-0.38-0.35-0.58c0.09-0.22,0.19-0.32,0.29-0.32c0,0-0.03,0.07-0.03,0.07c12.91-2.26,25.66-5.28,38.39-8.31
		c30.75-7.32,61.44-14.88,92.22-22.03c21.7-5.04,43.52-9.59,65.28-14.35c1.32-0.21,2.59-0.25,3.5,0.99c0.4,1.4,0.79,2.81,1.19,4.21
		c-1.87,1.2-1.07,2.46-0.42,4.08C315.22,181.79,318.7,191.62,319.3,202.21z"/>
	<path class="st19" d="M320.16,234.7c0.59-0.36,1.17-0.71,1.76-1.07c0.87,2.51-0.02,4.19-2,5.99
		c-12.07,10.99-21.41,24.06-28.58,38.7c-1.99-0.7-0.33-2.42-0.97-3.49c0.7-3.28,0.68-6.62,0.85-9.95c0.19-3.7-0.7-5.85-5.2-5.04
		c4.71-3.07,9.44-6.12,14.12-9.23c6.03-4.01,12.02-8.09,18.04-12.13C319.55,237.57,320.94,236.72,320.16,234.7z"/>
	<path class="st20" d="M295.67,279.26c-0.13,5.3-2.54,10.06-3.55,15.17c-3.45,17.42-4.5,34.78,0.11,52.16
		c-4.18-5.47-5.83-11.88-6.51-18.53c-1.63-15.94-0.25-31.44,7.67-45.8C293.99,281.17,294.16,279.67,295.67,279.26z"/>
	<path class="st21" d="M332.29,265.3c-0.06-11,6.05-19.32,11.96-27.72c1.63-2.31,6.3-2.84,8.54-1c1.52,1.25,0.16,2.41-0.42,3.4
		c-3.01,5.14-6.72,9.79-10.6,14.31C338.59,258,335.38,261.71,332.29,265.3z"/>
	<path class="st22" d="M319.34,367.62c-2.02-4.63-4.04-9.26-6.06-13.89c-0.29-0.67-0.85-1.38-0.77-2.01c0.81-6.67-0.53-13.6,2.43-20
		c-0.74,5.55-1.54,11.08,0.01,16.64c0.6,2.13,1.24,4.15,3.52,5.07c0.33,0.65,0.66,1.3,0.99,1.95c-0.86,5.87,4.29,9,6.33,13.81
		C323.29,369.69,321.28,368.8,319.34,367.62z"/>
	<path class="st23" d="M384.2,231.19c0.11-7.53-0.21-14.88-3.44-22.03c-2.36-5.21-3.13-5.84-7.36-1.93
		c-0.95,0.88-1.73,2.09-3.28,1.09c3.51-4.23,7.24-8.3,9.15-14.21c1.83,2.13,2.52,4.13,2.99,6.13c2.25,9.52,2.93,19.19,2.64,28.95
		C384.88,229.86,384.44,230.52,384.2,231.19z"/>
	<path class="st24" d="M359.66,219.81c-0.52,3.84-1.53,7.6-3.13,11.16c-1.27,2.84-3.51,1.83-5.55,1.03
		c-2.58-1.01-1.45-2.63-0.6-4.18c1.73-3.17,3.39-6.39,5.21-9.5c0.67-1.14,1.93-2.08,3.26-1.63
		C360.25,217.16,359.4,218.7,359.66,219.81z"/>
	<path class="st25" d="M355.23,138.28c-1.58-7.38-6.13-13.63-7.9-20.93c5.54,6.7,9.24,14.53,13.99,22.2
		C358.66,140.26,357.12,138.42,355.23,138.28z"/>
	<path class="st26" d="M361.35,230.11c0.88-5.51,3.09-10.35,2.11-15.66c-0.24-1.31,1.23-2.37,2.61-2.4
		c1.68-0.04,1.46,1.52,1.51,2.59C367.86,220.53,367.7,226.26,361.35,230.11z"/>
	<path class="st27" d="M338.86,223.33c4.7,9.36,4.5,11.08-2.08,17.06C337.48,234.64,338.17,228.98,338.86,223.33z"/>
	<path class="st28" d="M326.41,242.43c2.71,4.76,1.08,10.21,2.45,15.19c-1.34,3.55-0.31,7.75-3.14,11.27
		C326.71,259.85,326.15,251.13,326.41,242.43z"/>
	<path class="st29" d="M349.79,219.62c-0.55,3.48-2.7,5.29-3.87,7.92c-2.03-1.45-3.02-3.81-2.47-5.28
		C344.33,219.85,347.4,220.98,349.79,219.62z"/>
	<path class="st30" d="M160.95,20.15c-5.02,1.16-9.08,4.16-13.23,6.98c0.01-1.33-0.61-2.21-1.85-2.66
		c3.88-3.58,8.38-6.14,13.23-8.15C158.98,17.94,159.7,19.17,160.95,20.15z"/>
	<path class="st31" d="M91.1,209.2c0.86,2.14,1.99,2.96,4.59,2.15c3.54-1.11,7.31-1.48,10.98-2.16c-0.21,5.89,0.34,11.71,1.41,17.49
		c-1.13,2.18-0.38,4.58-0.78,6.84c-0.92-1.51-0.63-5.13-4.03-2.32c-1.53-2.18-1.02-4.72-1.19-7.12c-0.17-2.44-0.77-3.02-3.18-1.69
		c-3.6,1.99-5,5.29-6.3,8.79C91.17,223.92,90.77,216.59,91.1,209.2z"/>
	<path class="st16" d="M111.13,207.45c0.02,0.3,0.04,0.61,0.06,0.91c-0.86,3.93-0.07,7.93-0.43,11.87
		C110.12,215.95,109.42,211.67,111.13,207.45z"/>
	<path class="st32" d="M92.6,231.18c-1.5-6.42,4.08-8.14,7.59-11.09c1.2-1,2.89-0.47,2.95,1.65c0.09,3.15,0.09,6.3,0.13,9.46
		c-0.89,4.19,1.1,7.98,1.95,11.85c4.82,21.93,9.57,43.88,16.54,65.26c0.94,2.89,2.08,5.72,3.13,8.57c0.41,2.55,1.61,4.85,2.36,7.3
		c0.49,1.89,2.45,3.49,1.18,5.74c-10.42-10.75-17.45-23.59-22.62-37.48c-7.09-19.07-10.7-38.95-13.13-59.08
		C92.58,232.65,92.62,231.91,92.6,231.18z"/>
	<path class="st33" d="M128.41,329.93c-0.6-2-1.19-4-1.79-6c-0.27-0.8,0.07-1.01,0.81-0.82c1.49,3.39,2.62,6.94,4.56,10.18
		C130.36,332.55,129.18,331.45,128.41,329.93z"/>
	<path class="st34" d="M127.43,323.11c-0.27,0.27-0.54,0.55-0.81,0.82c-0.93-2.26-2.52-4.36-1.74-7.04
		C125.73,318.96,126.58,321.04,127.43,323.11z"/>
	<path class="st35" d="M87.48,72.69C80.87,86,74.84,99.53,70.47,113.78c-8.06,26.29-9.71,52.86-4.21,79.85
		c0.52,2.54,1.52,5.05,1,7.74c-4.71-9.01-6.91-18.73-7.45-28.76c-1.23-22.58,0.6-44.82,8.53-66.24
		c4.57-12.33,10.58-23.91,18.43-34.49C87.45,71.76,87.87,71.87,87.48,72.69z"/>
	<path class="st36" d="M87.48,72.69c-0.24-0.27-0.48-0.54-0.71-0.81c0.87-2.26,2.42-4,4.16-5.62C90.51,68.8,88.94,70.72,87.48,72.69
		z"/>
	<path class="st37" d="M96.54,182.97c-2.75-0.01-5.5,0.27-8.16-0.9c-9.34-4.1-11.88-14.16-5.44-22.83c1.52-2.05,1.74-3.51,0.8-5.8
		c-2.56-6.21-4.49-12.62-4.29-19.45c0.11-3.77,0.75-7.49,5.03-8.73c4.38-1.28,6.64,1.94,8.85,4.87c0.6,0.8,0.95,1.8,1.33,2.74
		c1.43,3.5,2.1,6.58,7.83,4.94c5.91-1.69,11.83,6.49,11.25,14.07c-0.12,1.54-0.45,2.84,0.61,4.47c7.57,11.68,0.37,25.38-13.87,26.61
		C99.17,183.07,97.85,182.97,96.54,182.97z"/>
	<path class="st37" d="M315.23,98.82c5.52-5.67,10.12-4.57,12.19,2.92c0.48,1.75,1.3,3.06,2.5,4.4c4.72,5.25,3.48,12.43-2.66,15.82
		c-3.6,1.99-7.36,3.56-11.6,3.25c-6.11-0.44-10.31-6.52-8.12-12.22c0.85-2.22,0.47-3.63-0.51-5.58c-1.88-3.75-3.49-7.68-4.8-11.67
		c-0.72-2.18-0.8-4.88,1.8-6.15c2.56-1.25,4.9-0.3,6.51,1.94C312.22,93.87,313.67,96.37,315.23,98.82z"/>
	<path class="st38" d="M133.51,162.54c-3.06-14.95-4.75-29.95-4.19-45.16c0.04-1.17,0.01-2.34,0.12-3.5
		c0.16-1.64,0.94-2.96,2.77-2.56c1.61,0.36,1.5,1.72,1.29,3.17c-1.36,9.31-0.08,18.58,0.78,27.84c0.51,5.49,1.46,10.95,2.26,16.41
		c0.34,2.29,1.02,4.14,3.92,2.41c1.07-0.64,2.31-0.9,3.05,0.43c0.95,1.72-0.54,2.52-1.67,2.9c-3.54,1.19-3.51,3.5-2.61,6.49
		c1.55,5.16,3.16,10.29,5.4,15.2c0.75,1.65,2.36,3.79-0.33,4.76c-2.32,0.84-2.56-1.85-3.19-3.28c-2.3-5.19-4.61-10.4-5.6-16.03
		c-0.43-2.45-1.2-2.67-3-1.06c-7.17,6.38-14.41,12.69-18.16,21.9c-0.51,1.26-1.4,2.09-2.67,1.5c-1.92-0.89-1.62-2.57-0.84-4.11
		c2.46-4.85,5.75-9.13,9.5-13c3.65-3.75,7.6-7.21,11.46-10.75C132.89,165.11,134.13,164.25,133.51,162.54z"/>
	<path class="st39" d="M221.26,113.05c0-1.63-0.03-2.21,0.01-2.79c0.07-1.2,0.16-2.44,1.79-2.46c1.61-0.02,1.66,1.17,1.85,2.4
		c2.67,17.52,8.34,34.11,15.79,50.13c0.92,1.97,2.37,3.7,3.22,5.69c0.66,1.54,3.17,3.39,0.87,4.88c-2.27,1.47-3.1-1.38-4.07-2.76
		c-3.88-5.52-6.5-11.74-8.74-18.02c-3.9-10.95-7.8-21.92-10.07-33.37C221.59,115.18,221.35,113.6,221.26,113.05z"/>
	<path class="st40" d="M310.5,163.82c-1.26,0.02-2.56,0.15-3.5-0.99c-3.61-16.33-8.37-32.29-14.88-47.71
		c-0.28-0.67-0.64-1.33-0.74-2.04c-0.19-1.25-0.67-2.85,0.99-3.36c1.69-0.52,2.06,1.02,2.62,2.23c4.24,9.1,7.24,18.66,10.18,28.22
		c1.84,5.96,3.25,12.05,4.92,18.06C310.61,160.08,310.79,161.92,310.5,163.82z"/>
	<path class="st41" d="M246.63,132.28c13.45,1.17,27.06,1.81,38.74,9.92c0.48,0.33,1.09,0.53,1.45,0.95
		c1.13,1.32,3.89,2.24,2.35,4.45c-1.9,2.71-3.18-0.26-4.46-1.19c-8.53-6.23-18.48-8.26-28.59-9.75c-5.16-0.76-10.38-1.48-15.62-0.54
		c-1.31,0.24-2.39-0.01-2.54-1.55c-0.15-1.47,0.82-2.19,2.1-2.25C242.26,132.19,244.45,132.28,246.63,132.28z"/>
	<path class="st42" d="M120.26,129.72c2.7,0.3,4.57,1.96,4.6,4.44c0.04,2.76-2.04,4.55-4.86,4.51c-2.68-0.03-4.45-1.73-4.32-4.48
		C115.81,131.53,117.64,130.11,120.26,129.72z"/>
	<path class="st43" d="M145.97,216.81c0.34-4.54,4.33-8.21,8.71-7.99c4.56,0.23,9.19,5.68,8.75,10.31c-0.47,5-4.2,8.12-9.26,7.75
		C149.39,226.54,145.6,221.88,145.97,216.81z"/>
	<path class="st44" d="M262.34,182.71c4.63-0.05,9.09,4.47,9.21,9.33c0.12,5.23-3.43,8.78-8.73,8.73c-4.78-0.05-8.79-4.45-8.78-9.63
		C254.04,186.73,257.95,182.76,262.34,182.71z"/>
	<path class="st45" d="M222.8,222.61c0.09,4.7-2.23,8.22-6.21,10.61c-3.75,2.25-12.44-2.78-12.8-7.25
		c-0.08-0.97,0.19-1.69,1.09-2.14c0.89-0.44,1.74-0.31,2.35,0.41c0.65,0.76,1.03,1.77,1.73,2.48c1.46,1.49,2.57,3.98,5.15,3.29
		c2.6-0.7,3.69-3.09,4.39-5.53c0.2-0.68,0.22-1.44,0.19-2.15c-0.06-1.61,0.32-3.2,2.14-3.11
		C222.54,219.3,223.01,220.87,222.8,222.61z"/>
	<path class="st46" d="M149.45,230.34c-0.47,0.98-1.09,1.83-2.3,1.44c-0.99-0.32-1.83-0.99-1.46-2.25c0.32-1.08,1.09-1.8,2.25-1.5
		C149.01,228.32,149.55,229.17,149.45,230.34z"/>
	<path class="st45" d="M360.4,179.57c0.68,4.9-0.33,9.22-4.23,12.6c-4.46,3.85-9.97,2.17-10.61-3.69c-0.97-8.9,0.35-17.66,3.76-26
		c0.77-1.88,2.1-3.34,4.34-1.48c1.3,1.89,0.14,3.65-0.38,5.4c-0.95,3.18-1.93,6.35-2.32,9.85
		C354.84,175.98,358.81,174.67,360.4,179.57z"/>
	<path class="st47" d="M360.4,179.57c-3-3.83-6.69-3.07-10.68-1.35c-0.16-6.26,2.82-11.53,3.94-17.22c1.98-3.2,4.37-3.21,6.04,0.49
		C362.32,167.32,362.3,173.46,360.4,179.57z"/>
	<path class="st48" d="M349.02,184.94c0.05-2.97,3.09-3.31,5.61-3.94c1.6-0.4,2.45,0.77,2.05,2.36c-0.75,2.95-1.64,6.27-5.19,6.6
		C348.98,190.2,349.2,187.56,349.02,184.94z"/>
</g>
</svg>
