<?xml version="1.0" encoding="utf-8"?>
<!-- Generator: Adobe Illustrator 26.0.0, SVG Export Plug-In . SVG Version: 6.00 Build 0)  -->
<svg version="1.1" xmlns="http://www.w3.org/2000/svg" xmlns:xlink="http://www.w3.org/1999/xlink" x="0px" y="0px"
	 viewBox="0 0 400 400" style="enable-background:new 0 0 400 400;" xml:space="preserve">
<style type="text/css">
	.st0{fill:#FFFFFF;}
	.st1{fill:#535353;}
	.st2{fill:#8C3942;}
	.st3{fill:#5F735C;}
	.st4{fill:#232323;}
	.st5{fill:#393939;}
	.st6{fill:#222222;}
	.st7{fill:#222322;}
	.st8{fill:#4C5E49;}
	.st9{fill:#4E5E4B;}
	.st10{fill:#DEDEDE;}
	.st11{fill:#202120;}
	.st12{fill:#E1E1E1;}
	.st13{fill:#A9B2A8;}
	.st14{fill:#222323;}
	.st15{fill:#232324;}
	.st16{fill:#C1C1C1;}
	.st17{fill:#FBFBFB;}
	.st18{fill:#F0F0F0;}
	.st19{fill:#F7F7F7;}
	.st20{fill:#C5C5C5;}
	.st21{fill:#212221;}
	.st22{fill:#4C5D4A;}
	.st23{fill:#212121;}
	.st24{fill:#FEE8CE;}
	.st25{fill:#5E725C;}
	.st26{fill:#E6D4BC;}
	.st27{fill:#5F725C;}
	.st28{fill:#E5D4BB;}
	.st29{fill:#FBE9CF;}
	.st30{fill:#4C5E4B;}
	.st31{fill:#E1DCCA;}
	.st32{fill:#020202;}
	.st33{fill:#202020;}
	.st34{fill:#DCCFBD;}
	.st35{fill:#E5D5BB;}
	.st36{fill:#161515;}
	.st37{fill:#E7D6BD;}
	.st38{fill:#3C3C3C;}
	.st39{fill:#242424;}
	.st40{fill:#1C1D1D;}
	.st41{fill:#1F1F20;}
	.st42{fill:#151615;}
	.st43{fill:#212122;}
	.st44{fill:#161615;}
	.st45{fill:#181818;}
	.st46{fill:#242425;}
	.st47{fill:#1E1D1B;}
	.st48{fill:#BDBAB7;}
	.st49{fill:#BCBBBA;}
	.st50{fill:#BEBBB8;}
	.st51{fill:#C0BFBC;}
	.st52{fill:#BEBDBA;}
	.st53{fill:#323030;}
	.st54{fill:#201E1B;}
	.st55{fill:#1A1B1C;}
	.st56{fill:#282725;}
	.st57{fill:#1D1E1B;}
	.st58{fill:#F9AFAF;}
</style>
<g id="圖層_1">
	<path class="st0" d="M57,319c5.25,3.97,12.24,8.4,21,12c4.26,1.75,8.31,3.04,12,4c21.07-27.35,53.54-65.53,99-105
		c60.95-52.91,100.43-69,104-108c3.14-34.34-22.68-66.48-47-82c-58.54-37.35-131.36,6.92-143,14C40.88,91.77,25.76,156.87,22,173
		c-4.42,18.95-15.41,66.03,9,112C39.38,300.77,49.54,311.94,57,319z"/>
</g>
<g id="圖層_2">
	<g>
		<path class="st1" d="M169.66,68.55c3.66-0.53,7.42-0.84,9.91-4.17c2.04,1.18,4.15,0.99,6.34,0.44c26.01-6.5,50.95-2.3,75.25,7.73
			c3.38,1.39,6.66,3.17,9.68,5.3c9.19,7.74,18.26,15.63,26.51,24.41c15.44,16.42,28.45,34.45,38.2,54.91
			c6.25,13.12,11.67,26.45,15.71,40.39c0.7,9.51-1.54,18.76-2.49,28.12c-1.51,14.85-2.19,29.71-0.3,44.58
			c0.69,5.45,2.2,10.71,4.26,15.79c4.6,5.67,6.76,12.65,10.12,19c-3.9,3.09-7.94,5.97-12.59,7.87c-4.54-1.4-8.72-3.28-10.88-7.93
			c-4.72-2.09-9.58-3.82-14.28-5.92c-8.05-3.61-15.31-8.18-20-15.99c-3.4-6.96-6.96-13.89-8.05-21.68
			c-1.33-9.57-1.95-19.17-0.61-28.81c0.21-1.5,0.25-2.98-0.16-4.44c-0.09-4.95,2.66-9.08,3.9-13.66c0.8-2.3,0.69-5.06,3.24-6.48
			c5.2-9.52,5.4-19.36,1.21-29.16c-5.17-12.1-15.02-19.88-25.79-26.65c-11.31-7.11-23.95-10.5-36.9-12.85
			c-14.91-2.71-30.03-4.22-44.64-8.61c-6.19-1.86-11.73-4.41-15.89-9.5c-0.76-0.93-1.54-2.22-2.97-1.66
			c-1.18,0.46-1.12,1.8-1.1,2.87c0.14,11.29-4.38,21.02-10.31,30.2c-5.5,8.5-11.71,16.49-18.11,24.33
			c-1.63,1.99-3.79,3.07-6.08,4.03c-1.26,0.53-2.76,1.03-2.58,2.75c0.39,3.84-2.41,5.9-4.49,8.34c-9.95,11.64-20.32,23.1-27.1,36.92
			c-8.22,16.76-7.28,39.35,7.94,52.91c4.35,3.88,9.25,6.78,15.28,7.18c1.9-0.03,2.97,1.31,4.13,2.5c3.53,1.47,7.25,2.36,10.9,3.46
			c8.41,2.54,16.51,5.61,22.86,12.12c9.91,10.16,11.94,23.94,5.45,36.55c-6.07,11.78-15.54,19.46-27.9,23.8
			c-1.91,0.67-4.13,0.96-4.18,3.7c-0.87,2.47-3.36,2.56-5.25,3.46c-8.89,4.23-17.32,9.17-24.72,15.73
			c-9.11,5.22-18.75,6.5-28.92,3.98c-2.59-1.3-5.2-2.57-7.19-4.78c-4.33-6.22-7.38-13.01-9.48-20.3c-1.2-4.16-0.29-8.45-1.23-12.58
			c0.58-6.4,3.57-11.95,6.45-17.48c2.18-4.18,4.18-8.65,8.58-11.2c8.85-4.2,16.62-9.95,23.85-16.48c1.16-1.05,1.97-2.84,4.06-1.92
			c4.81,6.16,7.22,13.48,9.34,20.8c1.51,5.21,2.4,10.62,3.13,16.07c1.05,7.87,0.08,15.24-2.84,22.49c-0.36,0.88-0.78,1.76-0.79,2.74
			c0,0.31,0.15,0.53,1.04,0.89c2.34-4.22,3.92-8.68,4.23-13.62c1.53-24.02-6.66-44.81-21.12-63.49c-2.26-2.92-4.4-5.94-6.87-8.69
			c-1.31-1.47-2.7-2.37-4.57-0.88c-0.69-2.24-2.16-3.83-4.14-4.99c-7.26-7.61-14.14-15.53-18.27-25.35
			c-2.19-5.21-5.15-10.23-5.4-16.12c-1.53-7.83-1.13-15.75-1.3-23.65c-0.46-21.04,5.08-40.81,12.56-60.17
			c3.79-9.81,7.96-19.46,12.9-28.76c1.33-2.02,2.78-3.97,3.48-6.34c4.15-6.78,9.22-12.83,15.21-18.02
			c9.59-8.32,19.75-15.92,31.03-21.82c9.22-4.83,19.1-7.94,29.3-9.98C167.78,70.46,169.23,70.4,169.66,68.55z"/>
		<path class="st2" d="M251.64,65.81c-9.53-5.84-20.17-8.9-30.86-11.49c-12.51-3.03-25.26-4.3-38.21-2.99
			c-16.45,1.67-31.91,7.21-47.64,11.69c-21.35,6.09-38.98,18.54-54.14,34.16c-17.07,17.59-28.91,38.56-35.9,62.19
			c-4.05,13.7-7.04,27.54-7.12,41.86c-0.13,21.92,4.39,42.56,16.94,61c4.71,6.92,11.16,11.91,17.63,16.95
			c6.79,5.29,7.83,10.11,3.4,17.28c-4.83,7.8-11.12,14.52-16.58,21.86c-1.61,2.16-2.31,0.15-3.09-0.58
			c-8.56-8.11-16.25-17.01-22.96-26.7C10.62,258.59-0.54,222.53,0.02,183.09c0.44-30.91,8.51-59.92,23.8-86.85
			C36.84,73.3,54.01,54.1,75.33,38.58c24.8-18.05,52.44-29.16,82.76-33.24c43.19-5.81,83.55,2.92,120.58,25.75
			c34.76,21.43,59.6,51.49,74.26,89.61c12.77,33.21,15.71,67.41,8.33,102.36c-0.25,1.2-0.33,2.43-0.5,3.65
			c-0.29,0.02-0.66,0.04-0.76-0.14c-4.26-7.36-7.93-14.75-7.15-23.79c1.76-20.54-0.51-40.36-12.15-58.16
			c-1.66-2.53-3.89-4.57-5.68-6.98c-1.23-2.18-3.06-4.03-3.65-6.56c-0.23-1.81-0.93-3.42-2.03-4.87
			c-13.32-17.53-28.07-33.59-47.28-44.89c-7.65-4.5-15.52-8.62-24.02-11.43C255.64,69.09,253.08,68.25,251.64,65.81z"/>
		<path class="st3" d="M252.49,333.63c0.07,0.53,0.14,1.06,0.2,1.59c-1.08,1.76-1.03,3.52-0.39,5.48c1.15,3.5,2.81,6.85,3.48,10.49
			c0.42,2.29,2.49,2.23,3.86,3.19c1.38,2.49,2.27,5.18,3.05,7.9c0.39,1.36,1.06,2.88-0.4,4.12c-1.82,2.92-4.53,4.69-7.69,5.77
			c-6.46,2.21-13.08,4.9-19.78,4.82c-8.56-0.1-16.57,2.24-24.86,3.22c-5.77,0.68-11.42-0.78-17.14-0.97
			c-1.96-0.07-3.7-0.29-5.29,1.24c-0.94,0.9-2.23,0.92-3.42,0.17c-1.31-0.82-1.08-2.02-0.93-3.27c1.44-11.66,4.23-23.08,6.4-34.61
			c-0.88-4.6,1.92-8.76,1.6-13.3c1.96-8.67,5.3-16.9,8.24-25.25c1.68-4.77,3.2-9.59,5-14.31c1.23-3.23,2.83-3.61,4.98-0.91
			c3.02,3.79,7.03,6.46,10.41,9.83c2.9,2.9,4.21,2.61,6.37-0.78c1.03-1.61,1.98-3.27,2.89-4.95c0.72-1.32,1.47-2.93,3.12-2.98
			c2.01-0.06,2.32,2.01,3.11,3.36c0.68,1.18,1.09,2.5,1.52,3.8c3.68,11.02,8.23,21.7,12.21,32.61
			C249.69,331.69,250.73,332.94,252.49,333.63z"/>
		<path class="st3" d="M338.88,331.2c-1.45,2.16-3.63,0.35-5.48,0.76c-5.46,1.22-8.05,5.72-12.03,8.54
			c-1.21,0.86-2.53,1.55-3.8,2.32c-3.87-1.98-6.51-5.39-9.26-8.52c-10.26-11.66-20.97-22.97-29.63-35.97
			c-0.89-1.34-1.8-2.76-3.42-3.43c-3.44-2.51-4.2-7.28-7.79-9.75c-1.23,1.2-0.28,1.96,0.16,2.66c7.55,12.05,14.65,24.42,23.35,35.7
			c2.49,3.23,4.17,7.53,8.72,8.82c4.19,3.27,6.98,7.84,10.64,11.61c0.72,0.74,1.26,1.8,0.63,2.96c-4.88,3.6-10.39,5.68-16.27,6.95
			c-1.15,0.25-2.58-0.04-3.39,1.1c-4.51,6.29-9.86,3.8-15.13,1.4c-0.75-0.34-1.42-0.68-2.24-0.71c-0.14-2.04-0.42-4-1.3-5.92
			c-6.45-13.99-11.72-28.47-17.26-42.84c-2.4-6.23-5.47-12.19-7.45-18.59c-1.3-4.2-0.6-4.92,3.72-4.04
			c0.93,0.19,1.85,0.46,2.78,0.67c5.06,1.19,5.38,1.03,7.34-3.69c1.42-2.2,2.08-4.71,2.93-7.15c1.71-4.93,2.78-5.39,6.79-2.22
			c6.18,4.89,12.13,10.08,18.31,14.98c7.02,5.56,13.05,12.32,20.71,17.09c4.2,3.43,7.77,7.53,11.86,11.08
			C327.01,321.32,333.31,325.89,338.88,331.2z"/>
		<path class="st4" d="M262.48,281.1c-1.11,6.26-1.64,6.58-7.75,5c-2.09-0.54-4.2-0.97-6.68-1.54c0.65,3.91,2.2,7.15,3.6,10.46
			c7.8,18.46,14.11,37.52,22.62,55.69c0.76,1.63,2,3.45-0.32,4.94c-2.97,0.19-2.93-2.49-3.67-4.13
			c-8.56-18.99-15.51-38.64-23.42-57.89c-0.52-1.26-1.2-2.47-1.56-3.77c-0.76-2.72-1.99-1.87-3.36-0.58
			c-3.09,1.28-3.24,3.09-1.85,6.08c2.39,5.13,3.98,10.61,5.96,15.93c0.42,1.14,0.93,2.26,0.6,3.53c1.75,4.83,3.54,9.65,5.21,14.51
			c0.46,1.36,1.35,2.73,0.64,4.29c-2.04,1.57-3.08,0.72-3.87-1.41c-4.24-11.52-8.54-23.02-12.79-34.54
			c-0.9-2.43-1.75-4.87-3.39-7.36c-2.83,2.64-3.97,6.22-5.91,9.23c-2.23,3.48-3.45,3.98-6.28,1.12c-3.84-3.88-8.55-6.84-11.8-11.33
			c-1.08-1.49-2.06-2.16-2.92,0.4c-4.49,13.29-9.11,26.55-13.68,39.81c-0.64,3.97-1.34,7.92-3.16,11.57
			c-2.18,7.22-4.41,14.43-6.49,21.68c-0.38,1.34-0.77,2.27-2.3,2.26c-3.61-0.48-2.88-3.05-2.24-5.18
			c2.97-9.94,6.13-19.82,9.06-29.77c4.21-14.28,9.25-28.27,14.4-42.23c0.72-1.95,0.82-3.76-0.57-5.39
			c-2.43-2.84-1.87-5.32,0.51-7.93c1.72-1.89,3.24-4,4.67-6.22c-2.87,0.04-5.7,2.72-8.4-0.19c-0.6-3.55,2.16-4.42,4.52-5.23
			c4.38-1.5,8.9-2.57,13.39-3.74c18.02-4.68,34.7-12.33,49.69-23.31c8.5-6.23,16.24-13.42,19.08-24.26
			c4.19-12.08,2.96-24.06-0.56-36.03c-1.15-3.89-2.98-7.57-3.62-11.62c0.1-0.96,0.53-1.74,1.25-2.38c2.71-1.51,3.66,0.62,4.72,2.35
			c3.2,5.26,3.95,11.34,5.41,17.13c2.99,11.85,1.82,23.62-2.03,35.12c-1.76,5.26-4.68,9.92-8.81,13.64
			c-2.78,2.51-3.87,5.4-3.67,9.09c0.53,9.65,2.24,19.04,6.33,27.82c2.88,6.16,8.28,10.03,14.58,14.17
			c-3.68-7.72-6.31-14.92-7.11-22.64c-1.57-15.08,0.24-29.73,5.57-43.94c0.14-0.38,0.3-0.77,0.51-1.12c0.91-1.53,1.9-3.6,3.91-2.87
			c1.9,0.69,0.91,2.75,0.65,4.29c-1.4,4.32-2.8,8.65-4.2,12.97c-0.02,5.8-1.23,11.55-0.87,17.37c0.04,0.69-0.31,1.3-0.88,1.73
			c-2.28-1.46-0.39-3.77-1.05-5.27c-0.74,3.19,1.18,6.63-0.02,10.1c-0.15,0.42-0.19,0.48-0.09,0.38c0.35-0.35,0-0.89,0.39-1.22
			c1.42-0.21,1.65,0.83,1.65,1.76c0.08,11.36,4.29,21.41,9.81,31.04c5.51,6.44,11.99,11.58,19.91,14.77
			c4.89,1.97,9.8,3.91,14.69,5.86c0.24,3.62-0.68,4.66-3.97,3.59c-9.49-3.07-18.64-6.88-26.47-13.3c-2.46-2.01-4.75-4.27-8.58-6.06
			c8.96,8.95,16.67,17.75,25.69,25.21c1.43,1.19,3.2,2.36,2.13,4.74c-1.79,1.92-3.5,1.58-5.06-0.26c-0.78-0.92-1.55-1.82-2.65-2.37
			c-3.79-3.6-7.57-7.2-11.36-10.8c-14.2-13.08-26.89-27.74-41.92-39.96c-1.91-1.56-2.45-0.9-2.84,1.07
			C264.45,271,264.23,276.2,262.48,281.1z"/>
		<path class="st5" d="M362.86,305.04c-3.88-3.46-5.16-8.43-7.23-12.88c-0.9-1.94-1.82-3.48-3.64-4.5c1.46-1.54,1.7-3.22,1.04-5.27
			c-6.46-19.92-5.02-40.12-2.06-60.37c0.16-1.07,0.21-2.38,1.49-2.66c1.74-0.38,2.36,1.14,2.93,2.32
			c3.81,7.88,7.86,15.58,13.6,22.32c6.82,8.01,15.32,13.45,24.9,17.46c1.69,0.71,2.87,0.23,4.06-0.84c3.32,3.52,2.12,7.25-0.18,10.4
			C388.07,284.3,376.61,295.87,362.86,305.04z"/>
		<path class="st5" d="M197.24,267.82c3.65,1.96,6.76-0.81,10.58-1.22c-1.42,3.74-4.01,6.55-6.41,9.2
			c-2.08,2.29-2.18,4.01-0.19,5.77c2.67,2.36,1.69,4.65,0.72,7.32c-6.1,16.86-12.36,33.67-16.82,51.09
			c-1.71,6.7-4.08,13.24-6.4,19.76c-0.81,2.26-0.88,3.91,1.19,5.32c-0.11,0.25-0.3,0.49-0.32,0.75c-0.52,6.59-4.68,9.45-10.58,8.5
			c-13.26-2.15-24.64,4.35-36.83,7.08c-5.29,1.18-10.08,3.22-14.34,6.58c-1.37,1.08-2.79,2.22-4.64,2.45
			c-0.93-2.03,1-2.47,1.99-3.18c8.56-6.25,17.58-11.73,27.4-15.81c1.04-1.26,2.57-1.41,4-1.87c17.12-5.49,28.52-16.73,33.52-34.06
			c1.75-6.08,1.11-12.24-1.7-17.99c-1.33-2.73-1.37-4.97,0.46-7.6c2.46-3.53,3.51-7.77,3.58-12.02c0.13-7.78,0.46-15.59-0.21-23.36
			c-0.24-2.78,0.71-3.95,3.41-4.44c3.01-0.54,6.41-0.01,8.79-2.68C195.51,266.5,196.42,266.86,197.24,267.82z"/>
		<path class="st6" d="M63.73,240.14c4.11,13.65,9.96,26.3,20.42,36.42c1.18,1.14,3.65,1.86,2.58,4.43
			c-1.65,1.53-2.86,0.54-4.17-0.61c-8.98-7.84-14.73-17.8-18.95-28.75c-9-23.39-9.01-47.27-3.65-71.38
			c6.36-28.63,19.02-54.2,39.51-75.2c17.63-18.07,38.57-31.24,63.74-36.58c2.13-0.45,4.32-0.83,6.46,0.09
			c1.76,1.47,1.98,2.73-0.68,3.09c-13.7,1.82-26.4,6.45-38.1,13.73c-14.79,9.2-28.28,19.94-38.78,34.06
			c-0.29,0.4-0.29,1.01-0.43,1.52c-1.54,1.88-2.73,3.99-4.06,6.02c-13.94,22.07-23.18,45.96-25.72,71.96
			c-1.2,12.29-0.95,24.83,1.38,37.15C63.53,237.41,63.89,238.76,63.73,240.14z"/>
		<path class="st4" d="M397.95,260.61c0.26,2.89-0.57,3.52-3.49,2.4c-19.22-7.4-31.64-21.4-39.52-39.96
			c-0.47-1.1-1.15-2.12-2.27-4.15c-0.87,5.52-1.79,10.03-2.24,14.59c-0.52,5.27-0.82,10.58-0.87,15.87
			c-0.11,11.61,1.09,23.07,4.99,34.1c0.94,2.66,0.8,4.31-2.55,4.21c-3.78-9.15-5.51-18.71-5.8-28.58
			c-0.46-15.67,0.76-31.21,3.14-46.71c0.79-5.19,1.55-10.51,0.93-15.85c-1.75-6.11-0.72-12.46-1.65-18.67
			c-1.9-12.79-5.78-24.68-14.09-34.83c-0.87-1.06-1.81-2.19-1.91-3.57c-0.15-1.88,0.05-3.77,2.86-2.86
			c13.06,13.62,17.8,30.52,18.87,48.73c0.38,6.49,0.55,13.03-0.49,19.56c-0.86,5.33,1.71,10.1,3.69,14.87
			c0.98,2.36,2.15,4.64,3.23,6.96c8.08,15.25,19.2,27.18,35.98,32.95C397.2,259.82,397.55,260.29,397.95,260.61z"/>
		<path class="st6" d="M81.79,328.7c-6.28,5.46-9.36,12.89-12.27,20.35c-0.97,2.47-2.57,4.82-2.45,7.67
			c0.52,4.71-0.49,9.37-0.02,14.15c0.59,5.98,3.16,10.6,7.17,14.72c1.23,1.26,2.65,2.36,3.46,3.99c2.19,1.61,5.21,2.1,6.58,4.83
			c-1.02,1.86-1.94,2.79-4.3,1.2c-5.56-3.75-11.31-7.12-14.7-13.3c-3.91-7.13-3.79-14.71-2.7-22.37
			c2.09-14.69,9.47-26.86,18.57-38.19c4.27-5.32,8.77-10.47,12.39-16.3c4.75-7.65,4.5-11.08-1.44-17.85
			c-0.45-0.51-0.82-1.08-1.22-1.63c0.16-1.03-0.25-2.37,1.09-2.84c1.52-0.54,2.22,0.87,2.97,1.7
			c13.29,14.98,24.05,31.33,28.02,51.41c2.17,10.97,3.07,21.87-0.78,32.67c-0.5,1.41-1.15,2.77-1.82,4.11
			c-0.59,1.19-1.5,2.11-2.93,1.34c-1.39-0.75-1.16-1.91-0.57-3.17c1.61-3.46,2.82-7.06,3.63-10.82c1.69-7.83,0.16-15.48-1.24-23.09
			c-1.79-9.73-5.66-18.75-10.33-27.44c-2.94-1.17-3.65-4.23-5.37-6.42c-1.51-1.91-2.24-2.82-3.69,0.29
			c-3.65,7.79-9.37,14.23-14.7,20.9C84.06,325.99,83.06,327.46,81.79,328.7z"/>
		<path class="st7" d="M251.64,65.81c10.21,4.68,20.82,8.46,30.52,14.27c17.71,10.62,32,24.89,44.49,41.13
			c2.27,2.95,5.57,5.35,5.61,9.62c-1.21,3.24-2.87,2.17-4.38,0.35c-2.79-3.36-5.16-7.03-7.85-10.48
			c-12.04-15.49-26.31-28.41-43.33-38.22c-1.99-1.15-3.76-2.7-5.99-3.43c-11.56-7.25-24.34-11.19-37.57-13.95
			c-6.54-1.36-13.17-2.2-19.8-2.31c-9.8-0.16-19.5,1.14-29.05,3.55c-1.78,0.45-4.57,2.02-4.72-1.97c4.26-2.71,9.17-3.27,13.97-3.93
			c18.95-2.6,37.58-1.25,55.72,5.15C249.98,65.85,250.84,65.75,251.64,65.81z"/>
		<path class="st5" d="M328.95,317.99c-0.89-3.74-4.23-5.45-6.75-7.67c-5.32-4.7-10.49-9.51-14.91-15.06
			c-2.25-2.83-6.08-4.12-7.84-7.97c5.09-0.08,7.8,3.48,10.87,6.05c8.01,6.7,17.49,10.35,27.13,13.7c2.58,0.89,3.02-0.91,3.02-2.94
			c0.91,3.42,3.26,5.37,6.48,6.56c1.24,0.46,2.6,0.93,3.31,2.25c-3.37,1.63,0.96,4.16-0.7,6c1.27,0.92,2.76,2.21,1.24,3.58
			c-1.3,1.18-3.28,1.65-5.34,1c-1.48-0.47-3.02-2.28-4.73-0.36C335.64,324.11,332.18,321.32,328.95,317.99z"/>
		<path class="st8" d="M275.57,294.26c2.6,0.02,3.22,2.47,4.24,3.97c7.83,11.44,17.12,21.64,26.26,32c3.76,4.27,8.15,7.97,11.5,12.6
			c-2.12,1.5-3.94,3.47-6.6,4.09c-3.04-5.35-7.87-9.23-11.53-14.08c-1.63-4.26-4.67-7.64-7.36-11.18
			c-5.68-7.49-10.65-15.43-15.7-23.33C275.62,297.14,274.48,295.89,275.57,294.26z"/>
		<path class="st9" d="M328.95,317.99c3.97,1.61,7.28,4.75,11.8,5.13c-0.78,0.68-0.81,1.27-0.47,2.37c0.62,2.01,1.15,4.33-1.4,5.71
			c-2.91,0.47-3.92-2.11-5.41-3.62c-3.93-4.01-8.88-7.02-11.89-11.94c1.52-0.04,2.32,1.11,3.22,2.02
			C326.13,318.99,327.46,319.24,328.95,317.99z"/>
		<path class="st10" d="M262.3,366.4c0.14-4.41-2.77-8.01-3.24-12.26c-1.73-3.05-3.31-6.14-2.24-9.83c0.62-0.24,1.12-2.03,1.89-0.07
			c3.36,8.59,7.14,17.02,9.76,25.89c0.25,0.85,1.1,1.91-0.11,2.48c-1.05,0.5-1.55-0.81-2.32-1.29
			C264.16,370.14,265.05,366.89,262.3,366.4z"/>
		<path class="st11" d="M256.82,344.31c0.31,3.38,2.55,6.31,2.24,9.83c-1.87,1.47-3.15,1.17-3.89-1.2
			c-1.45-4.64-2.87-9.29-4.45-13.89c-0.74-2.15-0.33-3.41,1.98-3.84C256.02,337.37,254.96,341.5,256.82,344.31z"/>
		<path class="st12" d="M246.65,314.83c-3.85-7.81-6.03-16.27-9.56-24.53c1.72-0.36,3.29-0.68,4.85-1.01
			c0.17,0.21,0.52,0.47,0.47,0.63c-2.05,7.49,3.14,13.38,4.39,20.13C247.1,311.63,248.76,313.31,246.65,314.83z"/>
		<path class="st13" d="M188.7,341.13c0.88-3.9,1.67-7.83,3.16-11.57c0.77,4.67-1.35,8.83-2.28,13.21
			C189.35,342.19,189.54,341.38,188.7,341.13z"/>
		<path class="st14" d="M131.91,290.13c-10.92-1.1-18.37-7.51-23.37-16.57c-9.42-17.08-7.66-34.12,2.16-50.4
			c7.19-11.94,16.18-22.59,25.38-33.04c1.63-1.85,4.67-3.54,2.53-7.06c-0.51-0.83,0.55-1.87,1.51-2.1
			c8.04-1.92,11.37-8.98,15.78-14.68c7.08-9.15,14.21-18.32,17.93-29.58c1.61-4.86,2.6-9.72,2.48-14.82
			c-0.04-1.58-0.41-3.49,1.82-4.02c1.96-0.47,2.9,0.81,3.86,2.3c3.05,4.74,7.81,7.18,12.94,8.79c13.68,4.29,27.81,6.44,41.97,8.41
			c12.9,1.8,25.59,4.86,37.13,10.69c11.57,5.84,22.18,13.73,29.06,25.09c6.92,11.43,7.58,23.6,1.29,35.76
			c-3.19,0.07-3.95-0.78-3.04-4.03c1-3.55,1.73-7.09,2-10.8c0.79-10.62-3.58-19.03-10.8-26.3c-2.69-2.71-5.78-4.96-8.68-7.43
			c-1.06-0.9-2.18-1.67-3.69-1.29c-1.7-0.19-2.33-1.64-3.27-2.74c-1.59-1.87-3.3-3.56-6-3.6c-1.53-0.26-3.17-0.12-4.44-1.26
			c-0.19-2.53-2.51-2.19-3.98-2.7c-11.55-4.01-23.5-6.17-35.58-7.84c-8.8-1.22-17.54-2.87-26.18-5.02
			c-5.89-1.47-11.57-3.43-16.68-6.69c-2.7-1.72-3.06-0.57-3.55,1.78c-0.83,4.01-2.02,7.95-3.42,11.81
			c-5.11,10.39-11.84,19.73-18.88,28.86c-0.55,0.78-1.14,1.53-2.03,2.17c1.92,0.02,3.54,0.55,3.97,2.53
			c0.39,1.83-1.07,2.64-2.38,3.4c-3.07,1.78-6.57,2.66-9.61,4.51c-3.95,4.05-8.42,7.67-10.8,13.03c-1.55,3.48-4.65,5.59-7.18,8.2
			c-0.96,2.37-1.15,4.9-1.67,7.36c-0.52,1.46-0.54,3.16-1.91,4.24c-2.33,0.58-2.51-1.23-3.02-2.7c-0.03-0.08-0.25-0.15-0.35-0.13
			c-0.11,0.02-0.19,0.17-0.29,0.3c-5.76,7.34-11.41,14.7-13.72,23.97c-3.83,15.36-1.82,29.25,10.33,40.56
			c3.05,2.84,6.7,4.6,10.54,6.14C132.08,286.03,134.84,287.19,131.91,290.13z"/>
		<path class="st5" d="M279.82,158.73c1.01,0.02,0.16-3.13,2.33-1.27c7.18,6.17,14.97,11.63,19.25,20.64
			c4.11,8.68,3.73,17.29,1.17,26.13c-0.6,2.05-2.06,4.38,1.82,4.65c-3.19,0.72-1.87,4-3.25,5.74c-0.31-1.24,0.68-3.24-0.87-3.62
			c-1.7-0.41-2.41,1.55-2.9,2.9c-5.29,14.55-7.6,29.45-5.54,44.96c1.11,8.35,3.55,16.12,8.44,23.49c-4.57,0-7.13-3.12-10.02-5.27
			c-7.17-5.3-10.26-13.06-12.22-21.46c-1.53-6.53-2.49-13.08-2.43-19.8c0.02-1.73,0.29-3.2,1.66-4.4
			c9.88-8.66,13.28-19.91,14.14-32.68c0.83-12.32-2.27-23.56-6.75-34.69c-0.56-1.38-1.03-3.02-3.15-2
			C279.92,161.45,279.17,160.44,279.82,158.73z"/>
		<path class="st15" d="M195.13,267.15c0.14,2.21-0.83,3.18-3.1,3.31c-2.83,0.17-6.33-0.19-8.26,1.31c-1.93,1.5,0.12,4.98-0.04,7.65
			c-0.29,4.9-0.09,9.83-0.08,14.75c0.02,6.47-0.56,12.77-5.08,17.96c-1.19,1.36-0.28,2.58,0.31,3.77
			c5.83,11.75,3.17,22.49-3.42,33.07c-5.83,9.37-14.08,15.62-23.81,20.26c-2.86,1.36-5.98,1.7-9.06,2.19
			c-1.44-2.47-0.67-3.46,2.08-4.23c13.13-3.66,23.01-11.5,29.48-23.58c8.19-15.27,2.52-33.5-12.92-41.73
			c-7.79-4.15-16.19-6.42-24.66-8.55c-0.5-0.12-0.94-0.48-1.4-0.73c-0.51-4.16-0.06-4.51,4.62-3.69
			c-5.49-9.51-8.98-19.75-9.81-30.82c-0.58-7.76-1.26-15.4-5.45-22.35c-2.4-3.98-3.4-8.62-4.06-13.24
			c-0.32-2.21-0.41-4.41,1.98-5.72c2.32,0.05,3.57,1.46,3.77,3.55c0.71,7.4,4.46,13.67,7.29,20.29
			c8.91,14.78,21.78,23.15,39.12,24.69c5.72,0.51,11.35,0.99,17.08,0.1C191.53,265.13,194.13,264.14,195.13,267.15z"/>
		<path class="st5" d="M122.85,217.05c-3.57,4.51-0.57,8.94,0.62,13.09c1.29,4.51,3.89,8.64,5.84,12.97
			c1.96,4.35,1.13,9.12,1.59,13.65c1.12,11,3.99,21.28,9.5,30.84c0.27,0.47,0.53,0.96,0.71,1.46c0.08,0.21-0.04,0.5-0.07,0.82
			c-1.83,1.15-6.32-3.25-5.88,2.73c-0.98-0.97-1.11-3.05-3.26-2.48c1.39-2.51-0.12-3.49-2.21-4.07
			c-13.5-3.76-22.68-18.67-23.3-31.94c-0.39-8.34,1.15-16.37,4.45-23.82c2.28-5.13,6.08-9.63,9.5-14.19c0.78-1.04,1.58-2.1,2.3-3.2
			C124.08,214.22,123.94,215.62,122.85,217.05z"/>
		<path class="st16" d="M100.69,165.98c2.49-0.53,2.58,0.99,2.88,2.09c2.26,8.28,4.42,16.6,6.71,24.87c0.5,1.79-0.02,2.43-1.75,2.77
			c-9,1.74-17.63,4.75-26.26,7.75c-2.11,0.73-3.13,0.6-3.7-1.89c-1.78-7.7-3.71-15.37-5.81-22.99c-0.71-2.57-0.52-3.85,2.36-4.69
			c7.99-2.32,15.87-4.97,23.81-7.48C99.7,166.16,100.51,166.02,100.69,165.98z"/>
		<path class="st5" d="M270.71,79.06c6.24,1.2,11,5.25,16.07,8.58c14.8,9.76,26.54,22.74,37.46,36.5c1.6,2.01,2.86,4.29,4.27,6.45
			c1.14,1.75,2.37,2.13,3.75,0.24c0.43,2.28,2.27,3.76,3.21,5.75c-2.88,0.59-2.84,2.09-1.26,4.06c4.1,5.11,7.62,10.55,10.12,16.65
			c3.75,9.16,5.87,18.67,5.94,28.54c0.02,3.55,0.83,7.13,0,10.68c-2.86-4.85-3.26-10.55-5.44-15.68
			c-3.07-7.25-5.98-14.55-9.41-21.65c-5.32-11.01-11.14-21.7-18.35-31.59c-3.76-5.15-7.64-10.23-11.78-15.08
			C294.83,100.28,283.12,89.31,270.71,79.06z"/>
		<path class="st16" d="M291.32,111.33c1.03,0.05,1.28,0.89,1.61,1.62c2.51,5.46,4.96,10.95,7.55,16.38
			c0.72,1.52,0.29,2.22-1.1,2.81c-5.53,2.35-11.08,4.66-16.55,7.15c-2.01,0.92-2.53,0.07-3.21-1.61c-2.14-5.32-4.4-10.6-6.72-15.84
			c-0.58-1.31-0.93-2.19,0.73-2.89c5.66-2.41,11.28-4.89,16.92-7.35C290.8,111.49,291.06,111.42,291.32,111.33z"/>
		<path class="st17" d="M63.73,240.14c-4.6-19.69-4.72-39.33-0.01-59.07c4.73-19.83,12.03-38.46,23.98-55.12
			c0.71-0.15,1.14-0.04,0.75,0.82c-9.09,18.2-16.98,36.87-21.77,56.71c-4.34,17.95-5.13,36.1-2.56,54.4
			C64.22,238.68,64.51,239.5,63.73,240.14z"/>
		<path class="st5" d="M81.79,328.7c0.17-3.87,3.73-5.49,5.56-8.26c4.17-6.3,9.87-11.59,12.28-19.04c0.86-2.65,2.24-1.89,3.39-0.27
			c2.03,2.86,3.93,5.82,5.88,8.73c-4.14,3.45-8,7.33-12.49,10.25C91.69,323.17,87.53,327.33,81.79,328.7z"/>
		<path class="st16" d="M130.78,191.18c-3.38,2.75-7.16,3.39-10.04,3.28c-3.96-0.15-3.46-5.09-3.23-7.35
			c0.43-4.37,5.4-3.33,8.09-3.5C130.47,183.31,127.39,188.96,130.78,191.18z"/>
		<path class="st18" d="M294.63,246.82c0.71-6.42,0.63-12.93,2.3-19.24c1.37,1.73,0.54,3.64,0.45,5.49
			c-0.68,13.68-0.95,27.28,4.28,40.38c1.35,3.37,4.26,6.09,4.22,10.02c-7.65-9.66-10.68-20.9-11.23-32.98
			C293.78,249.27,293.79,248.05,294.63,246.82z"/>
		<path class="st19" d="M77.69,389.57c-12.46-8.07-13.52-19.82-10.62-32.85c0.65,0.44,0.7,1.13,0.68,1.8
			c-0.38,11.17,3.6,20.88,9.93,29.81C77.95,388.7,78.5,389.15,77.69,389.57z"/>
		<path class="st20" d="M88.44,126.78c-0.25-0.27-0.5-0.55-0.75-0.82c0.89-2.02,2.13-3.75,3.98-5.01
			C91.01,123.12,89.84,125.01,88.44,126.78z"/>
		<path class="st21" d="M224.75,368.91c0.01,1.26,0.04,2.71-1.56,2.88c-1.64,0.17-1.9-1.36-2.08-2.54
			c-1.02-6.73-2.12-13.45-2.9-20.2c-1.49-12.85-2.31-25.77-4.46-38.54c-0.26-1.52-0.49-2.95,1.17-3.32
			c1.73-0.39,2.27,1.19,2.47,2.57c1.08,7.27,2.22,14.53,3.1,21.82c1.44,11.89,2.05,23.88,4.13,35.7
			C224.72,367.81,224.71,368.36,224.75,368.91z"/>
		<path class="st22" d="M262.48,281.1c-0.09-5.76,1.57-11.26,2.33-16.9c0.38-2.83,0.94-2.97,3.02-1.16
			c8.32,7.25,16.5,14.64,24.2,22.56c5.14,5.28,10.4,10.44,15.58,15.68c1.04,1.05,2.36,1.92,2.61,3.56
			c-9.51-5.68-16.67-14.24-25.45-20.82c-5-3.75-9.69-7.9-14.46-11.93c-2.31-1.95-3.5-1.61-4.46,1.37
			C265,276.09,265.05,279.21,262.48,281.1z"/>
		<path class="st23" d="M275.57,294.26c2.05,5.68,5.93,10.28,9.2,15.2c4.42,6.63,9.26,12.98,13.94,19.44
			c0.89,1.22,1.95,2.36,0.73,3.94c-1.76,0.86-2.71-0.14-3.74-1.43c-9.74-12.2-18.05-25.37-26.19-38.66c-0.93-1.51-1.9-3-2.85-4.5
			c-0.83-1.32-2.59-2.78-0.67-4.19c2.14-1.56,3.17,0.7,4.13,2.03C272.05,288.74,273.77,291.53,275.57,294.26z"/>
		<path class="st24" d="M195.13,267.15c-2-2.18-4.38-0.67-6.52-0.51c-13.33,1-26.23-0.06-38.07-7.06
			c-7.7-4.56-13.84-10.59-17.84-18.67c0.28-2.43-0.9-4.58-1.28-6.88c-0.3-1.78-1.1-3.7,1.01-5.02c1.9-0.2,2.86,1.27,4.06,2.31
			c3,2.61,6.25,4.7,10.38,4.92c2,1.03,4.1,1.74,6.36,1.9c0.78,0.01,1.55,0.07,2.64-0.21c-0.86-0.42-1.59-0.19-2.21-0.4
			c-2.36-0.56-4.88-0.39-7.1-1.57c-10.52-3.33-18.81-13.56-18.67-23.04c0.25-2.8,0.11-5.67,1.36-8.31c2.33-0.03,1.7,1.73,1.57,2.9
			c-0.31,2.83-0.29,5.64-0.13,8.06c1.47-8.25,2.3-17.23,12.93-20.08c12.64-6.35,25.99-10.36,40.02-12.08c2.48-0.3,4.08,1.13,5.4,3
			c0.89,1.57,1.8,3.13,2.73,4.68c0.58,1.5,2.5,1.9,2.93,3.54c0.57,4.31,1.05,8.65,0.68,12.98c-0.76,8.71-3.63,16.39-11.34,21.46
			c-6.96,4.08-14.49,6.7-22.31,8.64c6.44-0.61,12.53-2.39,18.41-4.95c1.6-0.7,2.19-2.4,3.49-3.39c6.25-2.42,8.94-7.8,10.84-13.58
			c1.54-4.67,2.25-9.57,2.06-14.54c-0.15-4.21,3.37-4.2,5.98-5.24c0.99-0.39,2.06-0.68,2.67-1.66c0.27-0.44,0.58-1.03-0.01-1.39
			c-0.49-0.3-1,0.16-1.48,0.36c-2.28,0.93-4.34,2.41-6.88,2.67c-1.02-0.33-1.62-1.08-2.03-2.02c-0.87-1.51-0.69-3.35-1.5-4.88
			c-1.03-1.83-2.51-3.29-4.01-4.73c-2.17-2.62-4.85-2.83-8.09-2.34c-12.05,1.81-23.52,5.46-34.75,10.05c-2.47-0.31-2-1.79-1.1-3.15
			c1.13-1.7,2.19-3.37,2.19-5.5c2.71-1.22,5.48-2.31,8.1-3.69c1.53-0.81,4.35-0.93,3.83-3.42c-0.6-2.89-3.16-1.47-5.83-0.72
			c1.74-2.02,2.8-3.25,3.85-4.47c1.09,0.56,1.99,1.11,3.01-0.4c5.39-7.97,11.58-15.43,15.4-24.38c0.59-1.39,1.63-2.49,2.19-3.88
			c-0.67-0.01-0.7,3.24-1.98,0.43c1.7-5.72,3.72-11.35,4.17-17.68c11.04,8.78,24.17,10.48,36.98,13
			c14.71,2.88,29.83,3.78,44.07,8.98c2.53,0.93,5.07,1.84,8.06,2.92c-1.3,0.52-2.14,0.85-2.98,1.18c-3.02,2.25-6.78,1.71-10.14,2.66
			c-2.06,0.58-4.36,0.5-6.05,2.4c0.81,1.06,1.74,0.42,2.52,0.23c4.11-1.03,8.29-1.72,12.44-2.54c3.4-0.67,5.83,0.32,7.73,3.14
			c1.76,2.6,3.64,5.11,5.09,7.91c1.48,5.77,1.65,11.6,0.56,17.44c-1.1,5.85-3.53,11.08-7.96,15.25c3.58-2.2,5.2-5.81,6.98-9.31
			c0.69-1.35,0.7-3.31,2.86-3.49c0.85,0.61,1.11,1.54,1.26,2.47c1.28,7.88,3.08,15.72,1.97,23.79c-0.15,1.13,2.06-0.43,1.16,1.18
			c-2.61,10.15-9.78,17-17.59,23.03c-14.99,11.59-31.93,19.38-50.2,24.35c-5.14,1.4-10.28,2.83-15.44,4.16
			c-2.17,0.56-3.7,1.69-4.34,3.88C196.42,267.99,195.74,267.7,195.13,267.15z"/>
		<path class="st25" d="M222.32,296.22c-1.13-0.72-2.46-1.38-3.57-2.3c-4.83-4.02-9.06-8.64-13.2-13.35
			c-0.09-0.1-0.25-0.18-0.27-0.3c-1.02-5.43,4.07-7.49,6.32-11.08c1.56-2.5,2.65,0.59,3.56,1.4c4.79,4.25,9.34,8.76,14.11,13.02
			c1.46,1.31,1.36,2.09,0.23,3.54c-1.83,2.36-3.32,4.98-5.01,7.46C223.99,295.33,223.78,296.5,222.32,296.22z"/>
		<path class="st26" d="M229.26,277.9c-4.74-4.25-9.48-8.49-14.47-12.96c10.06-3.21,19.63-6.32,29.31-10.97
			c-0.7,7.47-1.36,14.53-2.02,21.59c-1.8-2.23,0.07-4.54-0.64-7.08c1.35,5.9-2.85,6.69-6.68,7.49
			C232.79,276.38,231.63,278.89,229.26,277.9z"/>
		<path class="st27" d="M261.63,258.12c-1.12,7.51-2.23,15.02-3.35,22.52c-0.27,1.79-1.14,2.1-2.88,1.61
			c-2.58-0.74-5.18-1.87-7.97-1.02c-1.21,0.37-1.41-0.29-1.4-1.22c0.06-6.25,0.49-12.47,1.72-18.61
			C251.57,256.91,256.6,257.51,261.63,258.12z"/>
		<path class="st5" d="M252.21,250.4c6.13-3.98,11.98-7.44,17.45-11.48c1.72-1.27,2.71-0.89,2.57,0.99
			c-0.63,8.42,2.52,16.23,4.11,25.09C268.04,259.65,262.74,250.77,252.21,250.4z"/>
		<path class="st28" d="M284.81,212.4c-1.75-0.14-1.82-1.18-1.86-2.71c-0.19-8.31-1.08-16.55-3.07-24.65
			c-1.33-1.3-0.67-2.85-0.36-4.23c1.19-5.33,0.88-10.53-0.95-15.67c-0.09-0.45-0.06-0.88,0.08-1.31c0.53-0.58,1.11-0.62,1.74-0.17
			c5.38,13.14,9.14,26.54,6.59,40.95C286.52,207.27,286.31,210.02,284.81,212.4z"/>
		<path class="st29" d="M229.26,277.9c2.17-2.24,4.96-3.01,7.92-3.58c3.35-0.64,4.52-3.03,4.89-6.25c0,2.5,0,4.99,0,7.49
			c0.01,2.32-0.35,4.71,0.13,6.92c0.46,2.16-0.93,2.32-2.08,2.75c-1.6,0.59-3.8,1.69-4.73-0.31
			C233.96,281.9,231.14,280.36,229.26,277.9z"/>
		<path class="st30" d="M261.63,258.12c-4.59,1.24-9.68,0.38-13.88,3.29c0.12-7.92-1.56-7.91,8.09-5.84
			C257.88,256.01,260.12,256.33,261.63,258.12z"/>
		<path class="st31" d="M280.39,163.66c-0.52,0.01-1.03,0.02-1.55,0.03c-1.93-4.14-4.82-7.68-7.12-11.58
			c3.48,0.26,4.72,1.27,8.09,6.62c0.56,1.11,1.11,2.21,1.67,3.32C281.12,162.58,280.76,163.12,280.39,163.66z"/>
		<path class="st32" d="M294.63,246.82c0,1.22,0.01,2.45,0.01,3.67c-0.16,1.45-0.32,2.89-0.48,4.34c-0.11-0.01-0.22-0.02-0.33-0.03
			c0-5.16,0-10.31,0-15.47c0.12-0.01,0.24-0.01,0.36-0.02C294.34,241.82,294.49,244.32,294.63,246.82z"/>
		<path class="st33" d="M271.73,152.11c3.71,3.04,6.88,6.41,7.12,11.58c0,0.27,0.08,0.5,0.25,0.7c-0.3,0.75-0.81,1.14-1.65,0.9
			c-2.13-2.9-4.28-5.78-6.37-8.71c-1.26-1.76-2.75-2.14-4.94-1.73c-6.13,1.14-12.26,2.27-18.34,4.22c1.43-4.76,1.42-4.82,5.7-5.61
			c4.29-0.8,8.59-1.47,12.89-2.19C268.2,151.34,270.03,151.32,271.73,152.11z"/>
		<path class="st34" d="M144.24,196.54c-11.48,2.3-10.55,12.76-13.4,21.41c-2.07-3.87-1.46-7.22-1.02-10.5
			c0.15-1.09,0.7-2.09-0.56-2.84c7.22-4.04,8.65-12.89,14.8-17.85c1.24-1,1.98-2.57,3.48-3.34c2.38,2-0.04,3.39-0.64,5.01
			c-0.39,1.04-2.64,1.4-1.12,3.13C147.02,193.76,143.54,194.51,144.24,196.54z"/>
		<path class="st35" d="M176.1,142.87c1.8,1.21,1.1-1.78,2.57-1.36c-1.55,5.81-4.45,11.01-7.64,16.01
			c-3.04,4.77-6.48,9.28-9.76,13.9c-0.71,1-1.44,2.2-2.85,1.97c-1.25-0.2,0.27-1.87-0.93-2.3
			C164.23,162.05,170.81,152.89,176.1,142.87z"/>
		<path class="st36" d="M127.89,212.92c2.59,10.54,8.22,18.49,18.87,22.17c0.34,0.6,0.5,1.17-0.3,1.56
			c-0.84,1.17-1.73,0.65-2.8,0.27c-4.36-1.52-7.72-4.44-10.99-7.53c-3.72-3.17-6.83-6.69-6.7-12.01
			C127.11,216.11,126.45,214.06,127.89,212.92z"/>
		<path class="st37" d="M125.97,217.38c1.38,4.48,4.18,8.17,6.7,12.01c-1.91,3.06,0.44,5.69,0.88,8.51c0.19,1.2,1.2,2.49-0.85,3
			c-3.42-6.32-6.96-12.62-7.27-20.02c-0.08-2.02-1.4-2.78-2.59-3.82c-0.07-1.38-0.14-2.76-0.2-4.14c0.52-0.47,1.17-2.65,1.62-0.19
			C124.58,214.44,124.8,216.04,125.97,217.38z"/>
		<path class="st5" d="M134.68,252.17c4.86,4.74,10.05,8.62,15.81,11.77c5.04,2.76,10.33,4.87,16.04,5.64
			c5.74,0.78,7.72,2.52,7.13,8.33c-0.6,5.9-1,11.9-2.95,17.6c-1.84,5.39-2.74,5.69-7.38,3c-2.22-1.29-4.63-2.43-7.1-3.1
			c-5.92-1.6-9.83-5.28-12.83-10.52C137.61,274.76,135.41,263.74,134.68,252.17z"/>
		<path class="st38" d="M178.27,271.16c1.55,7.81,2.85,15.66,1.71,23.7c-0.59,4.14-0.89,8.29-2.61,12.29
			c-1.41,3.28-1.9,2.03-3.64,0.34c-2.74-2.65-2.21-4.78-0.72-7.96c3.1-6.63,5.06-13.67,4.13-21.21c-0.29-2.36-0.05-4.78-0.05-7.17
			C177.49,271.16,177.88,271.16,178.27,271.16z"/>
		<path class="st39" d="M258.39,181.32c0.12,4.77-3.62,8.63-8.43,8.7c-4.77,0.07-8.87-4.21-8.95-9.34
			c-0.07-4.66,3.63-8.65,8.02-8.67C253.36,171.99,258.28,176.89,258.39,181.32z"/>
		<path class="st39" d="M162.55,222.19c-4.9-0.08-8.77-4.28-8.69-9.43c0.07-4.43,4.11-8.64,8.22-8.57c4.19,0.07,9.14,5.18,9.2,9.48
			C171.35,219,167.98,222.28,162.55,222.19z"/>
		<path class="st40" d="M225.63,229.48c-0.03,2.61,0,4.24-0.71,5.79c-1.65,3.63-5.08,4.52-7.91,1.74
			c-4.48-4.42-8.05-9.6-11.57-14.79c-0.96-1.41-0.45-2.23,0.78-2.98c4.36-2.65,9.26-3.95,14.04-5.52c1.55-0.51,2.64,0.01,2.92,1.82
			C223.95,220.51,225.43,225.37,225.63,229.48z"/>
		<path class="st41" d="M144.24,196.54c-0.45-0.16-1.63,0.39-1.15-0.68c0.68-1.53,1.77-2.88,2.68-4.31
			c12.24-6.09,25.37-9.13,38.79-11.07c2.72-0.4,4.58,1.37,5.85,3.69c0.48,1.72,0.31,3.09-1.85,3.36c-1.82-3.52-4.71-3.17-8.02-2.6
			C167.89,187.12,155.63,190.44,144.24,196.54z"/>
		<path class="st42" d="M212.41,176.8c-3.06,8.44,1.38,14.92,6.27,20.66c8.4,9.86,19.43,11.45,31.49,8.08
			c1.32,0.53,1.32,0.85-0.02,2.48c-6.72,2.99-13.58,1.87-20.26,0.22c-6.86-1.7-12.19-6-15.85-12.02c-1.45-2.39-2.81-3.41-5.64-1.62
			c0.1-1.53-0.24-3.03,0.32-3.54c1.77-1.61,1.22-2.99,0.22-4.6c-1-1.62-0.94-3.3,0.07-4.93c0.94-1.9,0.26-4.66,2.98-5.61
			c0.09-0.03,0.25,0.09,0.35,0.18C212.5,176.25,212.52,176.5,212.41,176.8z"/>
		<path class="st43" d="M214.75,170.97c0.52-1.66,1.72-2.71,3.18-3.49c9.23-4.97,18.8-9.12,28.96-12.14
			c-1.58,4.31-1.55,4.41-5.36,5.75c-9.66,3.4-18.74,8-27.53,13.21C212.28,173.13,212.38,172.71,214.75,170.97z"/>
		<path class="st44" d="M197.45,201.67c0.06,9.49-1.61,18.46-8.42,25.64c-1.35,1.42-2.66,4.36-5.57,1.96l0.09,0.1
			c0-0.85,0.31-1.37,1.05-1.98c9.37-7.68,10.88-17.95,9.34-29.13c-0.21-1.5-0.77-2.9,0.4-4.21c0.28-0.31,0.58-0.35,0.9-0.06
			c1,0.13,1.03,1.1,1.48,1.7C198.4,197.52,196.4,199.78,197.45,201.67z"/>
		<path class="st45" d="M277.45,165.3c0.55-0.3,1.1-0.6,1.65-0.9c3.04,5.16,2.31,10.71,1.66,16.23c-0.18,1.48-0.57,2.94-0.87,4.41
			c-1.89,5.45-4.24,10.62-8.86,14.39c-0.81,0.66-1.6,1.82-2.69,0.53c-0.77-0.9-0.29-1.8,0.5-2.49c9.57-8.35,10.53-19.05,8.39-30.61
			C277.12,166.37,277.36,165.82,277.45,165.3z"/>
		<path class="st46" d="M242.72,145.85c1.75-0.16,2.82,0.11,3.31,1.26c0.61,1.42-0.26,2.51-1.35,3.06
			c-4.89,2.47-10.06,4.23-15.32,5.74c-1.24,0.36-2.22-0.16-2.77-1.19c-0.7-1.29,0.3-2.04,1.22-2.65
			C232.54,148.91,238.02,147.61,242.72,145.85z"/>
		<path class="st47" d="M183.46,229.28c0.46,1.66,0.02,2.91-1.6,3.71c-7.12,3.49-14.58,5.66-22.61,6.28c0.19-1.87,1-2.86,2.51-3.12
			c6.88-1.21,13.5-3.14,19.48-6.89c0.86-0.54,1.55,0.17,2.32,0.12C183.55,229.38,183.46,229.28,183.46,229.28z"/>
		<path class="st48" d="M214.75,170.97c0.35,1.24-2.32,1.8-0.75,3.32c-0.53,0.84-1.06,1.67-1.59,2.51
			c-2.45,0.63-1.63,3.62-3.41,4.73c-1.24-3.19-0.58-6.19,1.06-9.01C211.11,170.73,212.53,169.49,214.75,170.97z"/>
		<path class="st49" d="M197.45,201.67c-0.85-1.92-0.63-3.97-0.71-5.98c2.23-1.08,4.46-2.17,6.69-3.25
			c1.18,1.37,0.94,2.73-0.06,4.07C201.53,198.4,196.95,197.12,197.45,201.67z"/>
		<path class="st50" d="M250.15,208.02c-0.36-0.83,1.17-1.64,0.02-2.48c2.2-0.54,4.39-1.08,6.59-1.62c1.13,1.11-0.06,2.2-0.02,3.3
			C254.56,207.65,252.44,208.59,250.15,208.02z"/>
		<path class="st51" d="M188.56,187.53c1.46-0.65,1.27-2.22,1.85-3.36c1.61,1.15,2.6,2.83,3.7,4.4c-0.98,1.07-1.04,2.96-2.91,3.23
			C190.32,190.37,189.44,188.95,188.56,187.53z"/>
		<path class="st52" d="M146.46,236.64c0.1-0.52,0.2-1.04,0.3-1.56c2.23,1.53,5.12,0.21,7.36,1.69c0.54,0.99-0.12,1.64-0.67,2.31
			C150.87,239,148.34,238.75,146.46,236.64z"/>
		<path class="st53" d="M191.2,191.8c1.32-0.76,0.46-3.49,2.91-3.23c0.83,1.72,1.4,3.48,1.14,5.43c-0.3,0.02-0.6,0.04-0.9,0.06
			C192.75,194.07,191.69,193.33,191.2,191.8z"/>
		<path class="st54" d="M261.46,205.19c1.16-2.12,1.78-3.34,2.49-4.49c0.52-0.84,1.3-1.53,2.34-1.33c0.61,0.12,1.18,0.61,1.31,1.41
			c0.2,1.18-0.5,1.81-1.37,2.25C264.94,203.67,263.61,204.22,261.46,205.19z"/>
		<path class="st55" d="M203.36,196.51c0.02-1.36,0.04-2.71,0.06-4.07c1.17-0.1,2.59-2.59,3.41-0.07
			C207.71,195.05,205.82,196.2,203.36,196.51z"/>
		<path class="st56" d="M256.73,207.22c-2-1.11,0.52-2.2,0.02-3.3c1.4-0.68,2.8-1.35,4.75-2.29
			C260.65,204.83,259.29,206.56,256.73,207.22z"/>
		<path class="st57" d="M153.46,239.09c0.22-0.77,0.45-1.54,0.67-2.31c1.31-0.27,2.62-0.39,3.94,0.12
			C157.62,240.02,155.37,239.18,153.46,239.09z"/>
		<path class="st58" d="M222.29,230.25c-0.35,1.88,0.35,4.05-1.51,4.63c-1.57,0.49-2.47-1.41-3.36-2.52
			c-2.38-2.97-4.55-6.09-6.94-9.04c-1.23-1.52-0.82-2.12,0.77-2.96c8.19-4.35,8.66-4.16,10.26,5
			C221.81,227.09,222.07,228.83,222.29,230.25z"/>
	</g>
</g>
</svg>
