<?xml version="1.0" encoding="utf-8"?>
<!-- Generator: Adobe Illustrator 26.0.0, SVG Export Plug-In . SVG Version: 6.00 Build 0)  -->
<svg version="1.1" id="圖層_1" xmlns="http://www.w3.org/2000/svg" xmlns:xlink="http://www.w3.org/1999/xlink" x="0px" y="0px"
	 viewBox="0 0 400 400" style="enable-background:new 0 0 400 400;" xml:space="preserve">
<style type="text/css">
	.st0{fill:#C6C5C5;}
	.st1{fill:#FB861C;}
	.st2{fill:#8F7253;}
	.st3{fill:#252423;}
	.st4{fill:#FCE8CE;}
	.st5{fill:#5E5AB7;}
	.st6{fill:#D8C36E;}
	.st7{fill:#E3CF9E;}
	.st8{fill:#C2B187;}
	.st9{fill:#786043;}
	.st10{fill:#CBAF92;}
	.st11{fill:#EFEEED;}
	.st12{fill:#C1AE64;}
	.st13{fill:#4A4237;}
	.st14{fill:#FB4B54;}
</style>
<g>
	<path class="st0" d="M116.15,21.26c2.81-4.16,7.57-5.11,11.73-6.83c16.8-6.94,34.27-11.56,52.34-13.42
		c13.92-1.43,27.84-1.37,41.84,0.39c22.11,2.79,43.14,8.82,62.96,18.91c25.45,12.95,46.9,30.7,64.51,53.35
		c14.46,18.61,24.85,39.19,31.59,61.59c3.77,12.55,6.14,25.45,7.27,38.64c2.26,26.53-1.26,52.22-9.74,77.27
		c-7.67,22.63-19.44,42.99-34.95,61.19c-7.26,8.53-15.1,16.4-24.04,23.16c-0.04-0.7-0.16-1.42-0.1-2.11
		c1.99-23.16,2.58-46.4,3.93-69.59c1.25-21.51,2.46-43.02,4.02-64.5c1.62-22.25,2.55-44.41-2.18-66.45
		c-4.54-21.15-9.94-41.95-22.74-59.89c-3.87-5.42-7.64-11.09-13.86-14.3c0,0,0.02,0.05,0.02,0.05c0.38-1.79-1-2.1-2.17-2.6
		c-10.31-12.6-22.34-23.18-36.67-30.98c-20.25-11.02-41.98-15.73-64.94-14.99c-1.72,0.05-3.67,0.16-4.47,1.87
		c-0.86,1.83-2.25,1.62-3.77,1.95c-4.19,0.91-7.51-2.08-11.54-2.16c-8.2-0.17-16.2,1.19-24.24,2.34
		C132.36,15.37,124.37,18.72,116.15,21.26z"/>
	<path class="st1" d="M288.73,58.66c6.22,3.2,9.99,8.88,13.86,14.3c12.8,17.94,18.2,38.74,22.74,59.89
		c4.73,22.05,3.8,44.21,2.18,66.45c-1.57,21.48-2.77,42.99-4.02,64.5c-1.35,23.19-1.94,46.43-3.93,69.59
		c-0.06,0.7,0.06,1.41,0.1,2.11c-1.22,11.11-2.33,22.24-4.48,33.23c-0.41,2.08-1.29,4.09-1.53,6.18
		c-1.05,9.45-7.63,13.27-15.62,15.77c-11.23,3.52-22.62,4.72-34.33,2.88c-4.35-0.68-8.74-0.11-13.08,0.78
		c-5.32,1.09-10.63,0.7-16.02,0.11c-6.02-0.66-12.14-0.6-18.21-0.69c-14.43-0.2-28.85-1.85-43.29-0.52
		c-2.39,0.22-4.86,0.42-7.11,1.18c-11.07,3.73-22.58,3.5-34.01,4.1c-3.8,0.2-7.58,0.01-11.35,1.16c-2.37,0.72-4.89,0.13-7.43-0.68
		c-10.22-3.25-18.68-10.75-29.62-12.18c-9.39-1.23-18.8-2.34-28.17-3.78c-3.72-0.57-7.6-0.93-10.86-3.26
		c-5.14-3.68-5.47-4.48-4-10.59c0.23-0.96,0.48-1.92,0.72-2.89c12.06,1.66,23.48,5.87,35.19,8.94c6.49,1.71,13.27,2.66,18.92,6.91
		c1.45,1.09,3.62,1.75,5.54,0.29c0.68-0.06,1.37-0.11,2.05-0.17c3.9,2.76,11.8,1.95,15.82-1.62c0.25-0.3,0.51-0.61,0.76-0.91
		c3.19-0.3,6.51,0.13,9.45-1.66c0.55-0.49,0.65-1.05,0.31-1.7c0.16-0.57,0.32-1.14,0.48-1.72c0,0-0.02,0.02-0.02,0.02
		c0.56-0.08,1.12-0.17,1.68-0.25c2.57,0.72,3.75-1.37,5.32-2.66c1.03,0.49,2.07,0.98,3.1,1.47c1.35,0.36,2.68,0.87,4.05,1.07
		c19.94,2.92,39.71,0.79,59.33-2.69c1.98-0.35,6.99,1.44,6.86-3.88c2.36,2.46,5.37,1.56,8.2,1.6c-0.29,1.89-0.59,3.77-0.86,5.66
		c-0.3,2.03,0.37,3.08,2.59,2.51c0.77,1.12,1.87,1.46,3.16,1.34c4.38,1.46,8.81,2.65,13.47,2.7c0.74,0.86,1.73,0.75,2.71,0.69
		c15.57,3.77,30.61,1.4,45.39-3.93c4.81-1.76,5.55-6.47,7.49-10.32c2.46-0.09,3.27-1.82,3.88-3.84c2.95-9.64,5.06-19.48,5.99-29.51
		c3.02-32.45,4.31-65.01,6.09-97.54c1.19-21.78,2.28-43.57,4.02-65.32c0.87-10.87,1.51-21.78,0.29-32.68
		c-0.22-2.01-0.21-4.15-3.15-3.93c-0.08-1.08-0.16-2.17-0.24-3.25c1.67-0.82,2.56-1.89,2.23-4.01c-2.48-15.98-6.41-31.58-11.88-46.8
		C296.68,73.23,292.23,66.18,288.73,58.66z"/>
	<path class="st2" d="M100.91,382.45c-1.93,1.46-4.09,0.8-5.54-0.29c-5.65-4.25-12.43-5.2-18.92-6.91
		c-11.7-3.08-23.12-7.29-35.19-8.94c-3.19-1.12-6.37-2.25-9.57-3.34c-1.71-0.58-2.49-1.52-2.1-3.48c0.8-4.01,1.41-8.06,2.1-12.1
		c0.43-2.52,0.86-5.05,1.29-7.57c1.26-3.34,1.63-6.81,1.52-10.35l-0.04,0.07c0.97-0.75,0.98-1.58,0.18-2.46
		c1.37-9.13,2.73-18.25,4.1-27.38c0.49,0.23,1.26,0.34,1.42,0.71c5.18,12.08,10.92,23.9,17.57,35.22c1.88,3.21,2.4,7.6,6.62,9.18
		c2.54,5.63,5.05,11.27,7.65,16.87c0.69,1.49,1.46,3.54,3.68,2.31c2.08-1.15,0.49-2.75-0.07-4.05
		c-16.26-37.66-29.58-76.2-35.08-117.09c-0.26-1.94-0.5-3.66-2.62-4.38c-0.04-0.72-0.09-1.44-0.13-2.16c1.91-1.38,1.7-3.24,1.46-5.3
		c-1.29-11.14-2.25-22.31-1.93-33.55c0.5,0.02,0.99,0.04,1.49,0.06c0.13,0.04,0.27,0.12,0.4,0.1c0.1-0.01,0.28-0.13,0.28-0.21
		c-0.03-3.94,0.84-7.92-0.51-11.8l-0.31-0.07c0.27-5.8,0.25-11.63,1.56-17.33c0.67,1.72,0.98,3.49,1.18,5.34
		c0.83,8.03,1.82,16.05,2.76,24.11c1.2-0.24,1.24-0.98,1.34-1.67c2.41-17.12,8.02-33.35,13.54-49.61c0.56-1.63,0.81-1,1.16,0.04
		c-0.06,0.56-0.08,1.14-0.19,1.69c-4.21,20.79-4.15,41.59,0.09,62.34c1.44,7.04,3.41,13.98,5.14,20.97
		c0.25,6.99,0.52,13.97,0.75,20.96c0.04,1.08,0.27,1.94,1.46,2.21c0.09,1.69,0.17,3.38,0.26,5.08c-0.91,0.62-0.88,1.18,0.1,1.68
		c2.27,19.82,6.26,39.32,10.99,58.67C84.05,341.58,88.94,363.28,100.91,382.45z"/>
	<path class="st0" d="M37.77,236.31c0.04,0.72,0.09,1.44,0.13,2.16c-1.76,1.3-1.45,3.03-1.33,4.94c0.79,12.81,1.13,25.62-0.31,38.41
		c-2-0.18-2.21-2.01-2.91-3.3c-10.18-18.85-16.71-38.93-20.06-60.08c-6.13-38.77-0.12-75.68,16.46-111.1
		c7.5-16.04,17.49-30.4,28.8-43.82c6.82-8.09,14.68-15.27,23.1-21.77c0.96-0.74,1.98-1.06,3.17-0.84c-0.91,1.84-2.62,2.93-4.04,4.27
		c-6.18,5.85-11.94,12.1-16.82,19.06c-9.81,13.97-16.33,29.44-20.71,45.92c-4.74,17.81-8.28,35.94-9.27,54.24
		c-1.23,22.59-1.33,45.31,1.44,67.89C35.62,234.09,35.74,235.69,37.77,236.31z"/>
	<path class="st3" d="M37.77,236.31c-2.02-0.61-2.14-2.22-2.36-4.01c-2.77-22.58-2.67-45.3-1.44-67.89c1-18.3,4.53-36.42,9.27-54.24
		c4.39-16.48,10.9-31.96,20.71-45.92c4.89-6.96,10.64-13.21,16.82-19.06c1.42-1.35,3.14-2.43,4.04-4.27c0.32-0.2,0.64-0.4,0.96-0.6
		c1.4-0.58,2.52-1.49,3.33-2.78c6.69-5.11,13.77-9.62,21.23-13.52c0.67-0.01,1.26-0.19,1.6-0.84c1.41-0.64,2.82-1.27,4.22-1.91
		c8.22-2.53,16.22-5.88,24.8-7.11c8.04-1.15,16.04-2.51,24.24-2.34c4.04,0.08,7.35,3.07,11.54,2.16c1.52-0.33,2.91-0.13,3.77-1.95
		c0.81-1.71,2.76-1.82,4.47-1.87c22.96-0.74,44.69,3.98,64.94,14.99c14.34,7.8,26.36,18.38,36.67,30.98c0.5,1.05,0.82,2.26,2.17,2.6
		c0,0-0.02-0.05-0.02-0.05c3.5,7.52,7.95,14.57,10.77,22.44c5.46,15.23,9.4,30.82,11.88,46.8c0.33,2.12-0.56,3.19-2.23,4.01
		c-1.05,1.17-1.69,2.31,0.24,3.25c2.95-0.21,2.93,1.93,3.15,3.93c1.22,10.91,0.59,21.82-0.29,32.68
		c-1.75,21.75-2.83,43.53-4.02,65.32c-1.78,32.53-3.07,65.09-6.09,97.54c-0.93,10.03-3.05,19.86-5.99,29.51
		c-0.62,2.01-1.42,3.74-3.89,3.84c-1.01-1.4-0.87-2.76-0.27-4.37c1.09-2.9,2.05-5.89,2.72-8.91c4.49-20.35,5.4-41.11,6.69-61.81
		c0.57-9.17,0.69-18.37,1.13-27.54c0.72-14.95,1.55-29.9,2.33-44.85c0.89-3.27-1.14-4.84-3.57-6.22
		c-11.92-6.76-20.29-16.69-26.32-28.89c-2.74-5.53-4.96-11.27-7.51-16.87l0.02,0.04c-0.05-0.8-0.09-1.6-0.14-2.4
		c-2.9-8.75-4.49-17.71-4.12-26.95c0.08-2-1.1-5.46,2.34-5.17c3.14,0.27,1.44,3.65,1.8,5.68c0.07,0.39-0.08,0.86-0.24,1.23
		c-1.07,2.42-0.3,4.36,1.5,6.05c-2.19,4.45,0.52,8.43,1.2,12.61c-0.17,2.33,0.75,4.47,1.47,6.56c2.73,7.95,5.2,16.06,10.62,22.76
		c-0.08,0.76,0.24,1.32,0.88,1.72c4.83,8.67,11.44,15.48,20.45,19.82c1.36,0.73,2.46,0.91,2.52-1.18c0.04-1.55,0.05-3.11,0.17-4.66
		c1.52-20.66,3.85-41.28,3.21-62.06c-0.06-1.98-0.32-3.86-1.43-6.13c-0.47,1.85-0.84,3.32-1.21,4.78
		c-1.13-7.18-1.59-14.54-3.52-21.49c-4.12-14.91-6.16-30.38-12.33-44.77c-6.87-16.04-16.72-29.55-31.19-39.52
		c-14.87-10.24-31.15-16.62-48.98-19.7c-11.29-1.96-22.42-0.91-33.64-0.48c-0.53,0.02-1.41,0.17-1.53,0.49
		c-1.69,4.5-4.11,2.46-6.54,0.83c-1.14-0.76-2.47-0.46-3.72-0.51c-16.2-0.6-31.66,2.86-46.47,9.1
		c-11.18,4.71-22.25,9.84-29.28,20.59c-0.5,0.77-1.33,1-2.24,0.94c0.01-0.5,0.36-1.49-0.27-1.32c-0.79,0.22-2.03,0.81-1.33,2.22
		l0.06-0.08c-1.33-0.86-1.56,0.51-2.2,1.08c-4.06,3.42-7.6,7.23-11.01,11.37C62.93,71.42,56.46,84.37,51.36,98
		c-5.93,15.87-8.61,32.59-11.63,49.22c-1.96,10.8-2.3,21.61-2.38,32.5c-0.57,5.92-0.19,11.83-0.06,17.75
		c-0.33,11.24,0.64,22.4,1.93,33.55C39.47,233.07,39.67,234.93,37.77,236.31z"/>
	<path class="st3" d="M36.25,281.82c1.44-12.79,1.1-25.61,0.31-38.41c-0.12-1.91-0.42-3.64,1.33-4.94c2.12,0.72,2.36,2.44,2.62,4.38
		c5.5,40.89,18.82,79.43,35.08,117.09c0.56,1.3,2.14,2.9,0.07,4.05c-2.21,1.22-2.99-0.83-3.68-2.31c-2.6-5.6-5.11-11.24-7.65-16.87
		c-3.13-9.07-6.3-18.12-9.37-27.21c-4.83-14.32-9.82-28.61-12.81-43.48c-0.16-0.78-0.06-1.78-1.65-1.78
		c0.15,9.17-0.37,18.3-1.78,27.36c-1.37,9.13-2.73,18.25-4.1,27.38c-0.06,0.82-0.12,1.64-0.18,2.46c0,0,0.04-0.07,0.04-0.07
		c-1.99,2.55-1.58,5.75-2.3,8.64c-0.59,3.09-1.17,6.18-1.76,9.27c-0.65,2.76-1.27,5.53-1.97,8.27c-0.38,1.48-0.64,3.41-2.81,2.94
		c-2.35-0.51-1.43-2.49-1.07-3.83c3.89-14.68,6.44-29.63,8.72-44.62C34.75,300.75,36.56,291.39,36.25,281.82z"/>
	<path class="st4" d="M30.45,347.37c0.59-3.09,1.17-6.18,1.76-9.27c0.26,0.57,0.52,1.14,0.78,1.71c-0.43,2.52-0.86,5.05-1.29,7.57
		C31.28,347.37,30.87,347.37,30.45,347.37z"/>
	<path class="st0" d="M89.1,37.53c-0.81,1.29-1.92,2.2-3.33,2.78C85.49,37.71,87.1,37.39,89.1,37.53z"/>
	<path class="st0" d="M111.93,23.17c-0.34,0.65-0.92,0.83-1.6,0.84C110.42,22.88,110.38,21.53,111.93,23.17z"/>
	<path class="st1" d="M288.75,58.71c-1.35-0.34-1.67-1.54-2.17-2.6C287.75,56.61,289.13,56.92,288.75,58.71z"/>
	<path class="st3" d="M65.23,231.43c-1.73-6.99-3.7-13.92-5.14-20.97c-4.24-20.75-4.3-41.55-0.09-62.34
		c0.11-0.55,0.13-1.13,0.19-1.69c0.23-0.65,0.65-1.29,0.67-1.94c0.2-7.06,2.81-13.49,5.22-19.97c0.53-1.42,1.26-3.16,3.32-2.17
		c1.51,0.73,1.67,1.99,0.88,3.57c-4.97,9.89-5.8,20.83-7.72,31.48c-1.04,1.93-0.67,4.04-0.76,6.09c-0.6,1.38-1.03,2.79-0.64,4.32
		c-0.43,10.38-1.05,20.77,1.38,31.02c0.13,0.95,0.04,1.97,0.88,2.7c-0.97,6.72,0.83,12.95,3.42,19.03l-0.05-0.09
		c-0.03,1,0.01,1.97,0.91,2.65l-0.07-0.09c-0.01,0.27,0.05,0.53,0.17,0.78c0.77,3.9,2.7,7.25,4.62,10.63
		c0.4-1.28,0.46-2.41,0.39-3.53c-1.52-24.53,4.34-47.56,13.89-69.91c2.7-6.31,6.31-12.21,8.23-18.86l-0.04,0.04
		c0.72-0.08,0.9-0.59,0.93-1.21c4.63-6.66,8.66-13.69,14.11-19.83c7.04-7.93,14.97-14.38,25.56-16.07
		c7.49-1.2,15.43-1.74,20.33,8.37c-0.21-4.93,2.68-6.05,4.83-7.71c9.14-7.05,23.57-7.55,32.42-0.69c4.57,3.54,7.96,8.08,10.8,13.45
		c4.52,8.56,7.83,17.47,10.89,26.55c0.58,1.74,1.33,3.09,3.1,3.71c3.99,1.41,6.92,4.21,9.61,7.34c1.1,1.29,2.81,2.63,0.81,4.21
		c-1.94,1.54-3.23-0.43-4.08-1.7c-1.32-1.96-3.03-3.34-5-4.43c-2.18-1.21-1.93,0.35-1.74,1.72c1.95,5.75,3.45,11.71,5.95,17.21
		c5.57,12.25,9.93,25.27,20.33,34.74c2.03,1.84,4.72,2.34,6.79,3.95c8.68,6.74,17.97,5.07,27.71,2.7c-0.93-1.79-2.26-2.06-3.34-2.64
		c-13.1-6.98-21.94-17.36-26.38-31.71c-3.91-12.64-5.77-25.61-7.52-38.63c-1.11-5.09-2.11-10.2-3.35-15.26
		c-4.26-17.44-8.8-34.73-20.43-49.16c-13.54-16.8-35.45-13.58-47.99-1.94c-1.11,1.03-1.56,3-3.5,1.2c-1.75-1.63-1.02-3.07,0.46-4.28
		c2.7-2.23,5.43-4.4,8.6-6.01c16.51-8.4,33.46-5.78,46.58,7.35c9.62,9.62,14.7,21.86,17.8,34.61c3.05,12.54,3.99,25.57,6.38,38.29
		c0.97,5.15,0.29,10.74,3.41,15.43c-0.24,0.64-0.84,1.39-0.68,1.91c1.87,6.18,2.41,12.77,5.47,18.6
		c3.04,10.96,10.51,18.36,19.74,24.19c3.36,2.12,6.54,5.02,11.02,4.57c1.93,1.61,4.39,1.85,6.67,2.56c1.61,0.5,4.42-0.01,3.91,2.65
		c-0.47,2.45-2.92,1.67-4.64,1.15c-4.54-1.4-8.84-1.28-12.84,1.55c-3.97,0.6-7.94,2.01-11.95,1.32c-4.16-0.72-4.76,1.16-4.19,4.49
		c-0.22,1.4-0.47,2.79-0.67,4.19c-3.14,22.02-7.06,43.89-13.71,65.15c-3.5,11.18-8.08,22.03-11.55,33.22
		c-1.47,4.75-4.31,9.03-4.71,14.11c-1.89,2.55-2.39,5.62-3.15,8.59c-0.58,1.22-1.39,2.38-1.7,3.66c-1.92,7.96-2.82,16.18-5.91,23.85
		c-2.22,0.57-2.89-0.47-2.59-2.51c0.28-1.89,0.57-3.77,0.86-5.66c1.5-5.55,2.96-11.11,4.5-16.64c1.58-5.66,3.24-11.3,4.87-16.95
		c2.39-3.52,2.81-7.85,4.72-11.57c2.65-5.15,0.09-8.99-3.11-12.69c-0.1-0.97,0.03-2.04-0.33-2.9c-5.5-13.04-11.17-26-21.58-38.01
		c-0.38,12.18-0.72,23.2-1.06,34.21c-0.02,0.29-0.03,0.57-0.05,0.86c-0.09,4.09-0.27,8.13,0.54,12.24
		c2.1,10.66,2.42,21.55,3.63,32.33c0.14,1.26-0.45,2.17-0.96,3.16c-3.49-0.14-2.87-3.11-3.13-5.07c-0.73-5.32-1.16-10.69-1.57-16.05
		c-0.67-8.61-3.1-17.07-2.51-25.76c0.62-9.07,0.59-18.14,0.85-27.21c0.09-3.25,0.53-6.5,0.62-9.75c0.07-2.43-4.38-6.96-6.72-6.51
		c-3.48,0.66-1.69,3.71-1.7,5.6c-0.08,12.91-0.12,25.81-1.16,38.69c-0.28,3.43-1.48,5.29-5.24,4.9c-2.8-0.29-5.63-0.25-8.45-0.36
		c-8.65-0.59-17.3-0.47-25.95-0.18c-0.3-0.84-1.01-0.71-1.7-0.82c-3.62-0.55-5.2-2.17-3.81-6.14c0.81-2.29,0.91-4.99,0.93-7.37
		c0.03-3.37,2.1-6.65,0.54-10.52c-1.22,1.1-1.66,2.6-2.99,3.08c-1.55-0.91-2.83-1.87-3.91,0.83c-1.23,3.07-3.06,5.9-4.63,8.84
		c0,0,0.05-0.03,0.05-0.03c-1.52,2.71-3.04,5.42-4.56,8.13c0,0-0.08,0.23-0.08,0.23c-1.15,0.93-1.74,2.2-2.25,3.53l0.04-0.01
		c-1.16,0.82-1.66,2-1.88,3.35l0.04-0.01c-1.2,0.91-1.84,2.2-2.38,3.55l0.03-0.03c-0.89,0.66-1.44,1.55-1.71,2.61l0.04-0.04
		c-0.33,0.57-0.67,1.14-1,1.71c0,0,0.06-0.08,0.06-0.08c-1.29,1.18-1.95,2.73-2.56,4.31l0.05-0.02c-1.33,1.41-2.27,3.04-2.83,4.9
		l-0.06,0.06c-1.72,1.38-2.49,3.31-3.13,5.33l0.06-0.07c-0.33,0.58-0.65,1.15-0.98,1.73l0.05-0.07c-0.92,0.65-1.37,1.6-1.64,2.66
		l0.05-0.03c-0.87,1.42-1.73,2.85-2.6,4.27l0.07-0.03c-0.29,0.32-0.58,0.63-0.87,0.95c-0.28,0.22-0.57,0.45-0.85,0.67
		c-0.82-0.19-1.64-0.39-2.46-0.58c-0.18-1.49,0.44-2.72,1.17-3.96c2.43-4.11,4.8-8.25,7.19-12.38c0.63-4.79,1.26-9.57,1.89-14.36
		c2.01-8.99,2.41-18.13,2.61-27.29c0.09-4.1,0.46-8.18,0.69-12.28c0.07-1.17,0.19-2.51,1.62-2.56c1.74-0.07,1.85,1.42,1.88,2.73
		c0.04,1.27,0,2.55-0.02,3.83c-0.15,12.8-0.79,25.58-2.25,38.42c3.22-4.67,6.19-9.43,8.97-14.29c7.15-12.51,14.3-25.02,20.87-37.84
		c1.58-3.08,0.45-3.89-2.29-4.25c-4.05-0.53-8.11-1.03-12.15-1.63c-9.36-1.39-18.37-4.36-27.62-6.25c-0.23-0.06-0.65-0.19-0.66-0.16
		c-0.15,0.36-0.35,0.75-0.33,1.13c0.86,19.62-1.77,39.25-0.02,58.87c-0.01,0.46-0.03,0.92-0.04,1.38c-0.8,1.07-0.52,2.32-0.55,3.51
		c-1.97,2.44-3.46,2.3-4.41-0.81c0.07-12.2,0.15-24.4,0.22-36.6c0.91-6.76,1.14-13.51-0.08-20.26c-0.23-4.94,2.05-10.86-5.12-13.08
		c-3.47-2.73-7.06-5.34-10.23-8.66c1.56,10.9,1.4,21.79,2.27,32.61c1.28,15.93,3.66,31.68,7.08,47.25
		c2.08,9.49,4.44,18.96,8.81,27.76c0.23,2.83,1.92,5.13,2.82,7.71c0.61,1.75,1.14,3.46-0.68,4.85c-1.6-0.27-2.25-1.37-2.83-2.78
		c-3.71-9.01-7.19-18.08-9.75-27.51c-4.28-15.72-6.65-31.77-8.67-47.89c-0.03-1.27,0.01-2.54-0.11-3.81
		c-2.01-22.07-2.39-44.33-7.77-66.01c-0.05-3.99-0.1-7.98-0.14-11.97c0.14-0.84,0.98-1.99-0.4-2.32c-0.79-0.19-0.77,0.87-0.76,1.54
		c-2.43,10.08-2.2,20.32-1.78,30.57c-0.31,5.43,1.16,10.52,2.91,15.57c0.58,1.67,1.63,3.35,0.28,5.15
		c-1.89,0.76-2.76-0.55-3.86-1.73c-3.2-3.45-5.53-7.46-7.8-11.53C67.71,235.22,67.27,232.85,65.23,231.43z M86.47,205.39
		c0,0,0.13-0.09,0.13-0.09c1.62-0.87,3.24-1.75,4.86-2.62c10.99-2.56,20.71-2.77,28.62,8.05c6.98,9.55,8.19,24.85-1.62,33.89
		c-1.04,0.96-1.93,2.22-3.15,2.8c-1.37,0.66-2.31,1.48-3.3,2.9c34.54,11.05,68.91,13.9,104.78,3.53
		c-7.24-3.2-11.96-7.39-13.88-14.18c-3.84-13.58,5.15-30.28,18.63-34.47c2.29-0.71,4.66-1.46,6.83,0.42
		c0.09,1.66-0.58,2.53-2.31,2.93c-12.56,2.92-20.16,13.01-20.26,25.55c-0.08,9.43,12.23,21.54,23.86,14.94
		c6.87-3.9,13.92-7.51,21.11-10.77c2.74-1.24,3.52-2.96,3.53-5.45c0.02-4.16-0.67-8.2-3.01-11.76
		c-4.61-7.01-11.04-11.59-18.99-14.07c-0.98-0.31-1.95-0.3-2.13-1.56c-0.2-2.17,4.66-1.37,2.68-4.55
		c-8.96-14.39-15.27-29.92-19.63-46.27c-0.6-2.24-1.46-3.75-3.76-5.01c-2.86-1.56,1.66-3.14,0.66-5.98
		c-2.33-6.62-4.99-13.09-7.89-19.43c-1.84-4.02-3.46-9.13-7.72-10.81c-11.46-4.52-23.32-5.49-34.98-0.39
		c-2.44,1.06-5.16,1.88-7.19,0.96c-6.68-3.05-13.54-2.11-20.41-1.92c-4.53,0.12-8.32,1.92-11.79,4.75
		c-10.21,8.34-16.84,19.35-22.81,30.81c-0.9,1.72-2.36,3.35-2.32,6c3.81-2.53,7.2-4.87,11.37-5.45c1.04-0.14,2.39-0.59,2.98,0.76
		c0.81,1.83-1.06,2.32-1.96,2.62c-3.4,1.12-6.44,2.83-9.31,4.9c-0.3,0.25-0.6,0.5-0.9,0.76l-0.1,0.09c-3.42,1.24-5.89,3.36-7.4,6.84
		c-3.52,8.07-5.67,16.56-8.33,24.9c-1.2,3.77-1.26,6.35,3.08,7.5c-0.17,0.47-0.33,0.94-0.5,1.42c-0.21,0.02-0.41,0.04-0.62,0.06
		c0.21,0.02,0.42,0.04,0.63,0.05c0.05,2.38,0.11,4.76,0.16,7.15c-0.15,0.6-0.66,1.46,0.17,1.68
		C85.3,207.09,85.87,206.08,86.47,205.39z M191.25,265.74c0.07-0.11,0.21-0.23,0.2-0.32c-0.03-0.24-0.14-0.48-0.21-0.72
		c-0.06-1.28-0.39-2.08-1.61-0.74c-1.8,1.97-3.56,3.99-5.34,5.98c-2.32,1.85-4.57,3.81-6.99,5.52c-5.48,3.88-10.75,2.99-14.78-2.41
		c-1.11-1.48-2.04-3.09-3.31-5.03c-2.26,12.91-4.36,25.18-6.59,37.42c-0.42,2.31,1,1.71,2.11,1.75c10.89,0.36,21.79,0.67,32.68,1.11
		c2.01,0.08,2.81-0.45,2.77-2.53c-0.08-4.66-0.64-9.44,0.16-13.97c1.36-7.63,0.74-15.19,0.69-22.8
		C191.11,267.92,191.18,266.83,191.25,265.74z M213.91,258.83c-3.51,0.88-7.03,1.76-11.04,2.76c2.57,2.45,6.05,2.91,6.18,6.69
		c0.05,1.34,1.84,0.72,2.88,0.86c0.92,1.21,1.85,2.42,2.77,3.62c3.12,5.45,7.08,10.37,10,16.04c0.33-8.29,0.33-16.47,0.33-24.65
		c0-9.95-0.01-9.95-9.28-5.52C215.14,258.7,214.52,258.77,213.91,258.83z M101.9,205.06c-6.59,0-10.07,1.14-14.52,4.81
		c-1.55,1.28-3.05,2.67-2.81,4.93c1.24,12.04,5.36,22.61,15.92,29.55c6.62,4.36,7,4.19,13.34-0.66c7.57-5.78,10.35-14.36,7.06-23.42
		C117.61,211.22,111.46,204.26,101.9,205.06z M240.19,299.7c7.34-18.88,11.38-38.42,14.83-58.99c-4.66,2.36-8.38,4.38-12.21,6.13
		c-2.13,0.98-2.75,2.35-2.71,4.63c0.15,8.64,0.08,17.29,0.09,25.94C240.19,284.85,240.19,292.27,240.19,299.7z M235.71,313.34
		c2.24-3.35,0.35-6.43,0.37-9.39c0.14-16.17,0.04-32.35-0.03-48.52c-0.01-1.36,0.65-3.14-0.67-3.97c-1.52-0.96-2.85,0.69-4.26,1.18
		c-2.34,0.82-1.96,2.84-1.96,4.65c-0.01,10.92-0.09,21.85,0.07,32.77c0.03,2.32-1.71,4.66-1.03,6.41
		C230.43,302.06,232.41,307.82,235.71,313.34z M163.19,264.07c0.33,0.97,0.46,1.9,0.58,2.87c0.38,3.16,6.12,8.8,7.77,7.68
		c4.33-2.93,9-5.56,12.16-10.55C176.7,264.07,170.14,264.07,163.19,264.07z M152.26,285.26c0.7-3.92,1.39-7.83,2.09-11.75
		C153.11,277.39,149.38,280.76,152.26,285.26z M73.47,236.79c-0.09-0.21-0.18-0.42-0.27-0.62c-0.08,0.08-0.25,0.19-0.24,0.25
		c0.05,0.21,0.16,0.42,0.24,0.62C73.29,236.96,73.38,236.88,73.47,236.79z"/>
	<path class="st2" d="M253.72,182.27c-3.06-5.83-3.6-12.41-5.47-18.6c-0.16-0.52,0.44-1.27,0.68-1.91c1.25-1.23,0.32-3.43,2.08-4.57
		c3.77,9.46,8.8,18.02,17.25,24.99c0.29-5.05-1.39-9.29-0.78-13.65c2.54,5.61,4.77,11.34,7.51,16.87
		c6.04,12.2,14.41,22.13,26.32,28.89c2.42,1.37,4.46,2.94,3.57,6.22c-1.33-0.52-0.21-2.58-1.73-2.97
		c-4.01,48.53-6.34,97.17-14.08,145.43c-1.82-1.16-1.15-2.88-1.15-4.3c-0.06-11.84-0.18-23.69-0.01-35.53
		c0.12-8.62-0.49-17.23,0.64-25.87c0.47-3.59,1.23-7.57-0.71-11.18c0.89-6.16,1.8-12.31,2.66-18.47c0.16-1.15,0.14-2.45-1.33-2.7
		c-1.42-0.23-1.96,0.88-2.22,2.07c-0.54,2.49-1.11,4.98-1.55,7.48c-3.41,19.4-5.83,38.94-7.39,58.55
		c-0.95,11.97-1.24,24.1,1.54,35.99c0.46,1.96,0.28,4.48,3.23,4.82c0.2,1.71-0.73,3.93,2.02,4.49c-14.78,5.33-29.82,7.7-45.39,3.93
		c0.02-6.04-0.31-12.1,1.58-17.99c0.33-1.03,0.45-2.25-0.57-3.15c0.51-2.27,1.02-4.54,1.52-6.82c1.74-1.1,1.97-3.05,2.51-4.76
		c2.14-6.89,4.27-13.78,6.28-20.71c7.81-26.88,15.64-53.76,23.34-80.68c2.3-8.03,4.32-16.15,3.64-24.65
		c-1.29-1.49-0.37-3.03-0.09-4.56c4-2.83,8.3-2.95,12.84-1.55c1.71,0.53,4.17,1.31,4.64-1.15c0.51-2.66-2.31-2.15-3.91-2.65
		c-2.28-0.71-4.74-0.95-6.67-2.56c-0.66-1.46-1.73-2.44-3.17-3.22c-7.97-4.38-14.33-10.55-20.21-17.47
		C258.77,187.61,257.71,183.51,253.72,182.27z"/>
	<path class="st5" d="M147.49,289.94c1.33-0.48,1.77-1.98,2.99-3.08c1.56,3.87-0.51,7.15-0.54,10.52c-0.02,2.38-0.12,5.08-0.93,7.37
		c-1.39,3.97,0.19,5.59,3.81,6.14c0.69,0.11,1.4-0.02,1.7,0.82c2.45,1.13,5.24,0.82,7.71,1.67c6.35,2.19,12.25,0.08,18.24-1.49
		c2.82,0.11,5.65,0.07,8.45,0.36c3.76,0.39,4.96-1.47,5.24-4.9c1.05-12.88,1.09-25.78,1.16-38.69c0.01-1.88-1.77-4.93,1.7-5.6
		c2.34-0.45,6.78,4.08,6.72,6.51c-0.09,3.25-0.53,6.5-0.62,9.75c-0.26,9.07-0.23,18.14-0.85,27.21c-0.6,8.69,1.84,17.15,2.51,25.76
		c0.42,5.36,0.85,10.73,1.57,16.05c0.27,1.96-0.36,4.92,3.13,5.07c0.21,4.78,0.42,9.57,0.63,14.35c0.13,5.32-4.88,3.53-6.86,3.88
		c-19.62,3.48-39.39,5.61-59.33,2.69c-1.37-0.2-2.7-0.71-4.05-1.07c0.11-4.61,0.23-9.21,0.34-13.81c1.1-4.79,0.7-9.64,0.53-14.48
		c0.13-4.93,0.8-9.79,1.55-14.67c1.8-11.79,3.53-23.58,6.1-35.23c0.3-1.35,0.11-2.53-0.95-3.48
		C147.45,291.03,147.47,290.48,147.49,289.94z M200.43,310.33c-0.03-1.65-0.91-2.75-2.43-2.91c-1.79-0.19-2.91,0.94-2.96,2.71
		c-0.04,1.6,1.01,2.67,2.57,2.68C199.12,312.83,200.19,311.93,200.43,310.33z"/>
	<path class="st6" d="M241.92,354.29c-0.51,2.27-1.02,4.54-1.52,6.81c-2.16,6.65-2.86,13.56-3.71,20.45
		c-4.66-0.05-9.09-1.24-13.47-2.7c0.51-9.63,3.25-18.83,5.36-28.15c1.18-2.99,1.94-6.08,2.24-9.28c0.41-5.08,3.24-9.36,4.71-14.11
		c3.46-11.19,8.05-22.04,11.55-33.22c6.64-21.26,10.56-43.13,13.71-65.15c0.2-1.4,0.44-2.79,0.67-4.19c1.12,0,2.26,0.11,3.37-0.01
		c2.19-0.23,4.36-0.59,6.55-0.9c0.2,2.27,0.4,4.54,0.62,7.02c1.58-1.93-0.92-4.88,2.05-6.07c-0.07,0.88-0.14,1.75-0.21,2.63
		c-0.7,1.13-0.42,2.33-0.28,3.53c-0.16,1.4-0.2,2.83-0.5,4.2c-3.18,14.52-7.37,28.77-11.52,43.02
		c-7.04,24.16-14.24,48.27-21.48,72.37C239.37,352.72,239.9,353.73,241.92,354.29z"/>
	<path class="st6" d="M68.64,237.29c2.27,4.07,4.6,8.08,7.8,11.53c1.09,1.18,1.97,2.48,3.86,1.73c-1.18,2.23-0.21,4.45,0.19,6.59
		c1.78,9.44,3.39,18.92,6.24,28.86c0.77-1.82,0.05-3.36,1.34-4.18c2.02,16.12,4.39,32.17,8.67,47.89c2.57,9.43,6.04,18.5,9.75,27.51
		c0.58,1.41,1.24,2.52,2.83,2.78c0.03,0.33,0.05,0.66,0.08,0.99c-0.37,0.15-1.06,0.42-1.06,0.42c2.63,6.88,5.31,13.73,10.45,19.23
		c-4.02,3.57-11.93,4.38-15.82,1.62c2.08-2.17,0.38-4-0.67-5.71c-5.33-8.79-8.87-18.33-11.68-28.13
		c-8.62-30.11-15.94-60.49-19.05-91.75c-0.14-1.36-0.01-2.98-2.06-3.11C68.31,248.19,68.14,242.76,68.64,237.29z"/>
	<path class="st7" d="M210.12,367.75c-0.21-4.78-0.42-9.57-0.63-14.35c0.5-1,1.1-1.9,0.96-3.16c-1.21-10.78-1.53-21.67-3.63-32.33
		c-0.81-4.11-0.63-8.15-0.54-12.24c0.1-0.08,0.31-0.18,0.29-0.23c-0.05-0.22-0.16-0.42-0.24-0.63c0.34-11.02,0.69-22.03,1.06-34.21
		c10.41,12.01,16.08,24.96,21.58,38.01c0.36,0.86,0.23,1.93,0.33,2.9c-1.85,2.71-0.28,5.75-0.46,8.56
		c-0.33,5.23-3.04,10.34-1.15,15.7c-1.63,5.65-3.29,11.29-4.87,16.95c-1.54,5.54-3.01,11.1-4.5,16.64
		C215.49,369.31,212.48,370.21,210.12,367.75z"/>
	<path class="st8" d="M110.11,347.19c0.28-0.22,0.57-0.45,0.85-0.67c0.29-0.32,0.58-0.63,0.87-0.95c0,0-0.07,0.03-0.07,0.03
		c3.75,0.34,2.43-2.42,2.6-4.27c0,0-0.05,0.03-0.05,0.03c1.95-0.02,1.88-1.29,1.64-2.66c0,0-0.05,0.07-0.05,0.07
		c0.96-0.22,1.04-0.94,0.97-1.73c0,0-0.06,0.07-0.06,0.07c3-0.62,4.49-2.13,3.13-5.33c0,0,0.06-0.06,0.06-0.05
		c3.07-0.41,3.02-2.62,2.82-4.9c0,0-0.05,0.02-0.05,0.02c2.69-0.35,2.68-2.3,2.56-4.31c0,0-0.06,0.08-0.05,0.08
		c0.91-0.23,1.01-0.94,1-1.71c0,0-0.04,0.04-0.03,0.04c1.87-0.02,1.81-1.3,1.71-2.61c0,0-0.03,0.03-0.03,0.03
		c2.44-0.08,2.92-1.47,2.38-3.55c0,0-0.04,0.01-0.04,0.01c2.11-0.29,2.08-1.77,1.87-3.36c0,0-0.04,0.01-0.04,0.01
		c2.55-0.03,3.13-1.32,2.25-3.53c0,0,0.08-0.23,0.09-0.23c1.25,0.51,2.57,0.85,2.86-0.98c0.38-2.44,2.03-4.56,1.7-7.16
		c0,0-0.05,0.03-0.05,0.03c0.99,1.07,4.07-4.93,3.6,1.07c0.01,0.81,0.01,1.61,0.02,2.42c-0.79,0.37-0.9,1.07-0.87,1.83
		c0,0.27-0.05,0.53-0.15,0.77c-3.1,8.74-3.32,18.02-4.98,27.02c-0.17,0.94-0.15,1.99,0.74,2.72c-0.04,0.3-0.08,0.59-0.12,0.89
		c-0.73,0.17-1.34,0.48-1.43,1.32c-0.59,5.17-1.4,10.32-1.69,15.51c-0.2,3.61-0.21,7.18,1.14,10.84c1.12,3.04,1.9,7.16-3.16,8.55
		c-0.34,0.09-0.4,1.23-0.6,1.88c-0.56,0.08-1.12,0.17-1.69,0.25c-0.14-0.61-0.09-1.37-1.04-1.32c-0.1,0-0.26,0.17-0.27,0.27
		c-0.04,0.95,0.72,0.9,1.32,1.04c-0.16,0.57-0.32,1.14-0.48,1.72c-1.27,0.35-1.47,0.9-0.31,1.7c-2.93,1.79-6.25,1.36-9.45,1.66
		c-2.09-3.96-4.26-7.87-6.22-11.89c-1.06-2.17-3.33-4.01-2.28-6.91c0.54-1.64,2.59-3.21,1.11-4.98
		C109.93,353.29,110.22,350.24,110.11,347.19z"/>
	<path class="st9" d="M284.78,378.31c-2.75-0.56-1.82-2.78-2.02-4.49c1.64-1.74,0.78-3.72,0.54-5.64
		c-0.48-3.78-1.22-7.55-1.39-11.34c-0.72-16.87,0.47-33.66,2.65-50.38c0.89-6.82,2.16-13.59,3.26-20.38
		c1.95,3.6,1.18,7.58,0.71,11.18c-1.13,8.64-0.52,17.25-0.64,25.87c-0.17,11.84-0.05,23.69,0.01,35.53c0.01,1.42-0.67,3.14,1.15,4.3
		c7.74-48.25,10.07-96.9,14.08-145.43c1.52,0.39,0.4,2.44,1.73,2.97c-0.78,14.95-1.6,29.89-2.33,44.85
		c-0.44,9.18-0.56,18.37-1.13,27.54c-1.29,20.7-2.2,41.46-6.69,61.81c-0.67,3.03-1.63,6.01-2.72,8.91c-0.6,1.61-0.74,2.97,0.27,4.37
		C290.34,371.83,289.59,376.55,284.78,378.31z"/>
	<path class="st3" d="M69.51,253.57c2.04,0.13,1.92,1.76,2.06,3.11c3.11,31.26,10.44,61.64,19.05,91.75
		c2.81,9.81,6.35,19.35,11.68,28.13c1.04,1.71,2.74,3.54,0.67,5.71c-0.69,0.06-1.37,0.11-2.05,0.17
		c-11.98-19.17-16.86-40.86-22.12-62.41c-4.72-19.35-8.71-38.86-10.99-58.67c-0.03-0.56-0.07-1.12-0.1-1.68
		c-0.09-1.69-0.17-3.38-0.26-5.08C68,254,68.6,253.48,69.51,253.57z"/>
	<path class="st10" d="M131.45,374.43c0.19-0.65,0.25-1.79,0.6-1.88c5.06-1.39,4.28-5.51,3.16-8.55c-1.35-3.67-1.35-7.24-1.14-10.84
		c0.29-5.19,1.1-10.34,1.69-15.51c0.1-0.84,0.7-1.16,1.43-1.32c-0.58,7.29-1.82,14.53-1.89,21.88c-0.02,1.65-0.26,3.01,1.32,3.96
		c0.05,3.2,0.1,6.4,0.16,9.6C135.2,373.06,134.03,375.16,131.45,374.43z"/>
	<path class="st11" d="M228.57,350.7c-2.11,9.32-4.85,18.53-5.36,28.15c-1.29,0.12-2.39-0.22-3.16-1.34
		c3.09-7.67,3.99-15.89,5.91-23.85c0.31-1.28,1.12-2.44,1.7-3.66C227.96,350.23,228.27,350.47,228.57,350.7z"/>
	<path class="st11" d="M136.78,371.78c-0.05-3.2-0.1-6.4-0.16-9.6c2.57-2.07,2.12-5.15,2.61-7.91c1.49,1.5,0.28,3.52,0.98,5.18
		c-0.11,4.6-0.23,9.21-0.34,13.81C138.84,372.76,137.81,372.27,136.78,371.78z"/>
	<path class="st12" d="M111.05,360.96c-1.05,2.89,1.22,4.73,2.28,6.91c1.96,4.02,4.13,7.93,6.22,11.89c-0.25,0.3-0.51,0.6-0.76,0.91
		c-5.14-5.5-7.83-12.36-10.45-19.23c0-0.01,0.69-0.28,1.06-0.42C109.95,360.99,110.5,360.97,111.05,360.96z"/>
	<path class="st9" d="M236.68,381.55c0.85-6.89,1.55-13.8,3.71-20.45c1.02,0.89,0.9,2.12,0.57,3.15
		c-1.89,5.89-1.56,11.95-1.58,17.99C238.41,382.3,237.42,382.41,236.68,381.55z"/>
	<path class="st9" d="M309.4,135.16c-1.93-0.94-1.29-2.08-0.24-3.25C309.24,133,309.32,134.08,309.4,135.16z"/>
	<path class="st10" d="M129,378.09c-1.16-0.8-0.95-1.35,0.31-1.7C129.65,377.04,129.54,377.61,129,378.09z"/>
	<path class="st13" d="M267.48,168.52c-0.61,4.35,1.07,8.6,0.78,13.65c-8.45-6.96-13.48-15.53-17.25-24.99
		c-1.77,1.15-0.83,3.34-2.08,4.57c-3.12-4.69-2.44-10.28-3.4-15.43c-2.39-12.72-3.33-25.76-6.38-38.29
		c-3.1-12.75-8.18-24.99-17.8-34.61c-13.12-13.12-30.07-15.75-46.58-7.35c-3.17,1.61-5.9,3.78-8.6,6.01
		c-1.47,1.21-2.21,2.66-0.46,4.28c1.94,1.8,2.39-0.17,3.5-1.2c12.55-11.65,34.45-14.86,47.99,1.94
		c11.63,14.43,16.17,31.72,20.43,49.16c1.24,5.06,2.24,10.17,3.35,15.26c-0.22,0.35-0.62,0.7-0.63,1.05
		c-0.23,11.54-1.51,23.13,1.43,34.55c0.19,0.73,0.54,1.68-0.83,2.35c-8.28-5.68-14.2-13.84-20.74-21.36c-0.8-0.93-1.11-2.4-2.78-2.2
		c-0.2-1.37-0.44-2.93,1.74-1.72c1.97,1.09,3.68,2.46,5,4.43c0.86,1.28,2.15,3.24,4.08,1.7c2-1.59,0.29-2.93-0.81-4.21
		c-2.69-3.13-5.62-5.93-9.61-7.34c-1.76-0.62-2.51-1.97-3.1-3.71c-3.05-9.08-6.37-18-10.89-26.55c-2.83-5.37-6.23-9.91-10.8-13.45
		c-8.85-6.86-23.28-6.36-32.42,0.69c-2.15,1.66-5.04,2.78-4.83,7.71c-4.9-10.11-12.84-9.57-20.33-8.37
		c-10.59,1.7-18.52,8.14-25.56,16.07c-5.45,6.14-9.49,13.17-14.11,19.83c-0.31,0.4-0.62,0.8-0.93,1.2c0,0,0.04-0.04,0.04-0.04
		c-6.31,5.41-10.66,12.47-16.21,20.16c0-5.83,0.06-10.33-0.04-14.82c-0.02-1.11,0.77-2.97-1.05-3.15c-1.35-0.14-1.85,1.47-2.33,2.68
		c-1.67,4.21-3.39,8.4-5.06,12.6c-1.46,3.67-2.88,7.36-4.49,11.47c-2.38-4.74-1.3-9.55-3.2-13.69c1.93-10.65,2.76-21.58,7.72-31.48
		c0.79-1.58,0.63-2.85-0.88-3.57c-2.06-0.99-2.79,0.75-3.32,2.17c-2.41,6.47-5.02,12.9-5.22,19.97c-0.02,0.65-0.44,1.3-0.67,1.94
		c-0.35-1.04-0.6-1.68-1.16-0.04c-5.52,16.26-11.14,32.5-13.54,49.61c-0.1,0.68-0.13,1.43-1.34,1.67
		c-0.94-8.06-1.93-16.08-2.76-24.11c-0.19-1.85-0.5-3.62-1.18-5.34c0.01-6.5,1.2-12.88,2.11-19.29c2.25-0.64,1.82-1.92,0.78-3.34
		c0.02-0.59,0.04-1.18,0.07-1.77c2.51-1.95,3.36-4.19,1.24-6.97c0.14-0.52,0.27-1.03,0.41-1.55c2.62-0.66,1.23-2.8,1.58-4.29
		c-1.22-1.71,0.42-3.05,0.7-4.52c2.42-12.61,6.48-24.7,11.86-36.34c0.94-0.29,0.99-1.04,0.95-1.83l-0.11,0.12
		c0.98-0.25,0.99-1.02,0.98-1.81l-0.1,0.11c0.98-0.26,0.94-1.06,0.94-1.82l-0.13,0.11c0.99-0.25,1.02-1.02,0.97-1.83l-0.12,0.14
		c1.05-0.3,1-1.17,1.01-1.99c0.25-0.47,0.5-0.93,0.74-1.4c0.96-0.29,0.94-1.06,0.92-1.84l-0.13,0.11c1.01-0.22,1-1.01,1-1.8
		l-0.1,0.11c0.95-0.23,0.96-1.01,1.02-1.76c0.17-0.27,0.33-0.55,0.5-0.82c1.01-0.17,1.16-0.92,1.17-1.76l-0.07,0.06
		c1.23,0.11,1.74-0.57,1.81-1.7c-0.28-1.22,0.22-2.22,0.88-3.17c3.94-5.65,7.98-11.22,12.51-16.42c1.87,0.08,1.96-1.19,1.92-2.55
		c0.01-0.29,0.01-0.57,0.02-0.86c0,0-0.06,0.08-0.06,0.08c0.53-0.3,1.06-0.6,1.59-0.91c0.9,0.06,1.73-0.17,2.24-0.94
		c7.03-10.75,18.11-15.88,29.28-20.59c14.81-6.24,30.27-9.7,46.47-9.1c1.26,0.05,2.59-0.26,3.72,0.51c2.43,1.63,4.85,3.67,6.54-0.83
		c0.12-0.32,1-0.47,1.53-0.49c11.22-0.43,22.34-1.47,33.64,0.48c17.83,3.09,34.11,9.46,48.98,19.7
		c14.48,9.97,24.32,23.47,31.19,39.52c6.16,14.38,8.2,29.85,12.33,44.77c1.92,6.96,2.39,14.32,3.52,21.49
		c-0.25,1.44-0.5,2.88-0.75,4.33c-3.22,13.24-4.31,26.94-8.36,40.11c-3.44-15.23-8.91-29.63-15.45-43.79
		c-0.21,3.3,0.17,6.59-0.68,9.78c-1.22,1.27-0.86,2.88-0.94,4.39c-0.3,5.84-2.02,11.3-4.33,17.68c-1.98-6.38-3.63-11.7-5.28-17.03
		c-0.69-3.24-1.38-6.47-2.07-9.71c-1.8-1.69-2.57-3.64-1.5-6.06c0.17-0.38,0.31-0.85,0.24-1.23c-0.35-2.03,1.34-5.41-1.8-5.68
		c-3.44-0.3-2.26,3.17-2.34,5.17c-0.36,9.24,1.23,18.2,4.12,26.95c-1.08,0.86-0.97,1.66,0.14,2.4L267.48,168.52z M53.61,114.44
		c11.24,2.08,21.78,3.9,32.26,6.04c3.74,0.77,4.21-0.43,3.25-3.6c-0.57-1.89-0.73-3.89-1.17-5.82c-1.89-8.35-3.82-16.7-5.92-25.85
		C72,94.95,62.47,103.88,53.61,114.44z M284,107.72c-4.65-5.52-9.12-10.82-14.14-16.78c-0.7,8.62-3.14,16.08-4.78,24.51
		C271.69,112.76,277.62,110.33,284,107.72z M106.51,112.54c3.7-4.38,6.2-8.63,8.78-12.82c0.78-1.27,1.24-2.3-0.91-2.59
		c-3.07-0.4-6.14-0.85-9.19-1.41c-1.68-0.31-1.97,0.35-1.74,1.81C104.22,102.35,104.76,107.22,106.51,112.54z"/>
	<path class="st11" d="M67.29,73.95c-0.17,0.27-0.33,0.55-0.5,0.82c-0.34,0.59-0.68,1.17-1.02,1.76c0,0,0.1-0.11,0.1-0.11
		c-0.33,0.6-0.67,1.2-1,1.8c0,0,0.13-0.11,0.13-0.11c-0.72,0.41-0.8,1.14-0.92,1.84c-0.25,0.47-0.5,0.93-0.74,1.4
		c-0.34,0.67-0.68,1.33-1.01,1.99c0,0,0.12-0.14,0.12-0.14c-0.32,0.61-0.64,1.22-0.97,1.83c0,0,0.13-0.11,0.13-0.11
		c-0.31,0.61-0.63,1.22-0.94,1.82c0,0,0.1-0.11,0.1-0.11c-0.33,0.6-0.65,1.21-0.98,1.81c0,0,0.11-0.12,0.11-0.12
		c-0.32,0.61-0.63,1.22-0.95,1.83c-5.38,11.65-9.44,23.74-11.86,36.34c-0.28,1.48-1.92,2.81-0.7,4.52c-1.56,1.05-1.8,2.59-1.58,4.29
		c-0.14,0.52-0.27,1.03-0.41,1.55c-0.41,2.32-0.83,4.64-1.24,6.97c-0.02,0.59-0.04,1.18-0.07,1.77c-0.18,1.13-1.26,2.05-0.78,3.34
		c-0.92,6.41-2.1,12.78-2.11,19.29c-1.31,5.71-1.29,11.53-1.56,17.33c-1.9-1.62,0.01-4.09-1.29-5.85c0.08-10.88,0.42-21.7,2.38-32.5
		c3.02-16.63,5.7-33.35,11.63-49.22c5.09-13.62,11.56-26.58,20.96-37.99c3.41-4.14,6.95-7.95,11.01-11.37
		c0.2,0.26,0.4,0.52,0.6,0.78c-0.11,0.52-0.22,1.03-0.33,1.55c-4.53,5.2-8.57,10.77-12.51,16.42c-0.66,0.95-1.16,1.95-0.88,3.17
		c-1.01,0.13-1.67,0.64-1.81,1.7c0,0,0.07-0.06,0.07-0.06C68.07,72.78,67.68,73.37,67.29,73.95z"/>
	<path class="st9" d="M38.74,299.69c1.41-9.06,1.93-18.19,1.78-27.36c1.59,0,1.5,1,1.65,1.78c2.98,14.87,7.97,29.15,12.81,43.48
		c3.07,9.09,6.24,18.14,9.37,27.21c-4.22-1.58-4.73-5.97-6.62-9.18c-6.65-11.33-12.39-23.14-17.57-35.22
		C40,300.03,39.23,299.92,38.74,299.69z"/>
	<path class="st9" d="M69.51,253.57c-0.9-0.09-1.5,0.43-2.06,1.03c-1.2-0.27-1.43-1.13-1.46-2.21c-0.23-6.99-0.5-13.97-0.75-20.96
		c2.05,1.42,2.48,3.79,3.41,5.86C68.14,242.76,68.31,248.19,69.51,253.57z"/>
	<path class="st10" d="M37.36,179.71c1.3,1.76-0.61,4.22,1.29,5.85c0,0,0.31,0.07,0.31,0.07c-0.06,3.97-0.11,7.93-0.17,11.9
		c-0.5-0.02-0.99-0.04-1.49-0.06C37.17,191.55,36.79,185.63,37.36,179.71z"/>
	<path class="st10" d="M32.99,339.81c-0.26-0.57-0.52-1.14-0.78-1.71c0.72-2.89,0.31-6.09,2.3-8.64
		C34.62,333,34.25,336.47,32.99,339.81z"/>
	<path class="st9" d="M38.79,197.53c0.06-3.97,0.11-7.93,0.17-11.9c1.35,3.88,0.48,7.86,0.51,11.8c0,0.07-0.18,0.19-0.28,0.21
		C39.06,197.64,38.92,197.56,38.79,197.53z"/>
	<path class="st10" d="M34.47,329.52c0.06-0.82,0.12-1.64,0.18-2.46C35.45,327.95,35.44,328.77,34.47,329.52z"/>
	<path class="st9" d="M67.7,259.68c0.03,0.56,0.06,1.12,0.1,1.68C66.82,260.85,66.79,260.29,67.7,259.68z"/>
	<path class="st2" d="M281.25,151.68c0.84-3.19,0.47-6.48,0.68-9.78c6.54,14.16,12.01,28.55,15.45,43.79
		c4.05-13.17,5.14-26.87,8.36-40.11c1.08,5.18,0.51,10.54,0.33,15.64c-0.57,16.43-1,32.9-2.82,49.27
		c-9.01-4.34-15.63-11.15-20.45-19.82c0.11-0.26,0.3-0.51,0.33-0.78c1.41-12.38-0.15-24.72-0.49-37.08
		c-0.01-0.43-0.62-0.85-0.95-1.28C281.56,151.64,281.42,151.68,281.25,151.68z"/>
	<path class="st9" d="M303.25,210.49c1.82-16.37,2.25-32.84,2.82-49.27c0.18-5.1,0.75-10.46-0.33-15.64
		c0.25-1.44,0.5-2.88,0.75-4.33c0.37-1.46,0.74-2.93,1.21-4.78c1.11,2.26,1.37,4.15,1.43,6.13c0.64,20.78-1.69,41.39-3.21,62.06
		c-0.11,1.55-0.13,3.1-0.17,4.66C305.71,211.4,304.61,211.22,303.25,210.49z"/>
	<path class="st6" d="M281.25,151.68c0.16,0,0.31-0.04,0.43-0.14c0.08,12.47,0.15,24.94,0.23,37.41
		c-5.42-6.7-7.89-14.81-10.62-22.76c-0.72-2.09-1.64-4.23-1.47-6.56c0.28-0.97-0.07-2.13,0.87-2.9c1.65,5.33,3.3,10.65,5.28,17.03
		c2.32-6.38,4.04-11.84,4.33-17.68C280.39,154.56,280.03,152.95,281.25,151.68z"/>
	<path class="st9" d="M281.92,188.95c-0.08-12.47-0.15-24.94-0.23-37.41c0.33,0.43,0.94,0.84,0.95,1.28
		c0.34,12.36,1.9,24.7,0.49,37.08c-0.03,0.27-0.22,0.52-0.33,0.78C282.16,190.27,281.84,189.71,281.92,188.95z"/>
	<path class="st12" d="M270.7,156.73c-0.94,0.77-0.59,1.93-0.87,2.9c-0.69-4.18-3.4-8.16-1.2-12.61
		C269.32,150.26,270.01,153.49,270.7,156.73z"/>
	<path class="st11" d="M87.06,46.74c-0.53,0.3-1.06,0.6-1.59,0.91c-0.7-1.41,0.54-2.01,1.33-2.22
		C87.42,45.25,87.07,46.24,87.06,46.74z"/>
	<path class="st2" d="M267.5,168.56c-1.1-0.74-1.21-1.54-0.14-2.4C267.41,166.96,267.45,167.76,267.5,168.56z"/>
	<path class="st11" d="M85.53,47.56c-0.01,0.29-0.01,0.57-0.02,0.86c-0.53,0.33-1.06,0.67-1.59,1c-0.2-0.26-0.4-0.52-0.6-0.78
		C83.96,48.08,84.2,46.71,85.53,47.56z"/>
	<path class="st4" d="M98.09,156.39c2.88-2.07,5.91-3.78,9.31-4.9c0.9-0.3,2.77-0.79,1.96-2.62c-0.6-1.35-1.94-0.9-2.98-0.76
		c-4.17,0.58-7.56,2.92-11.37,5.45c-0.05-2.65,1.42-4.28,2.32-6c5.97-11.47,12.6-22.47,22.81-30.81c3.46-2.83,7.26-4.62,11.79-4.75
		c6.88-0.19,13.73-1.12,20.41,1.92c2.03,0.93,4.76,0.11,7.19-0.96c11.67-5.09,23.52-4.13,34.98,0.39c4.26,1.68,5.88,6.8,7.72,10.81
		c2.9,6.34,5.56,12.81,7.89,19.43c1,2.84-3.52,4.42-0.66,5.98c2.3,1.25,3.16,2.76,3.76,5.01c4.36,16.35,10.67,31.88,19.63,46.27
		c1.98,3.18-2.88,2.39-2.68,4.55c-0.6,0.07-1.21,0.14-1.81,0.21c-2.17-1.88-4.54-1.14-6.83-0.42c-13.47,4.2-22.47,20.89-18.63,34.47
		c1.92,6.79,6.64,10.97,13.88,14.18c-35.87,10.37-70.24,7.52-104.78-3.53c0.99-1.42,1.93-2.24,3.3-2.9c1.22-0.59,2.11-1.85,3.15-2.8
		c9.82-9.04,8.61-24.33,1.62-33.89c-7.91-10.82-17.63-10.61-28.62-8.05c-2.41-0.59-4.69-0.96-4.86,2.62c0,0-0.13,0.09-0.12,0.09
		c-0.79-0.08-1.57-0.16-2.36-0.24c-0.05-2.38-0.11-4.76-0.16-7.15c0,0-0.01-0.11-0.01-0.11c0.17-0.47,0.33-0.94,0.5-1.42
		c2.62,0.21,0.08,2.81,1.68,3.54c0.19-0.52,0.5-1.03,0.55-1.56c0.91-9.78,3.21-19.22,6.59-28.44c1.53-4.17,2.57-8.51,3.84-12.77
		c0,0,0.1-0.09,0.1-0.09C97.49,156.9,97.79,156.65,98.09,156.39z M199.9,179.61c0.05,5.93,3.02,9.34,8.48,11.67
		c4.08,1.74,6.61,1.26,9.52-1.9c2.63-2.86,1.19-5.16-0.12-7.59c-2.31-4.28-5.29-7.24-10.78-7.52
		C202.4,174.03,199.9,175.26,199.9,179.61z M123.83,181.96c0.23-4.84-1.62-7.19-5.79-7.33c-6.53-0.23-12.44,4.79-12.87,10.94
		c-0.26,3.75,2.69,6.24,7.73,6.51C118.64,192.38,123.54,187.84,123.83,181.96z M163.49,201.1c-7.78-0.29-9.47,1.85-7.52,8.61
		c0.74,2.57,1.35,5.2,2.91,7.48c3.19,4.65,7.27,4.84,10.51,0.18c2.88-4.14,4.26-8.91,4.8-13.91c0.25-2.29-0.79-3.45-3.13-3.43
		C168.22,200.05,165.4,200.21,163.49,201.1z"/>
	<path class="st9" d="M110.22,254.5c9.25,1.89,18.26,4.87,27.62,6.25c4.04,0.6,8.1,1.09,12.15,1.63c2.74,0.36,3.87,1.17,2.29,4.25
		c-6.58,12.83-13.72,25.34-20.87,37.84c-2.78,4.87-5.76,9.62-8.97,14.29c1.46-12.84,2.1-25.62,2.25-38.42
		c0.02-1.28,0.05-2.55,0.02-3.83c-0.04-1.31-0.14-2.8-1.88-2.73c-1.43,0.05-1.55,1.39-1.62,2.56c-0.23,4.09-0.6,8.18-0.69,12.28
		c-0.21,9.17-0.6,18.3-2.61,27.29c-2.24-3.2,0.24-7.27-2.1-10.53c-0.51,4.86-0.65,9.71-0.46,14.54c0.14,3.45-0.89,6.99,0.67,10.35
		c-2.39,4.13-4.77,8.27-7.19,12.38c-0.73,1.24-1.35,2.47-1.17,3.96c-0.16,0.28-0.32,0.56-0.47,0.85c-4.36-8.8-6.72-18.28-8.81-27.76
		c-3.42-15.58-5.8-31.32-7.08-47.25c-0.87-10.82-0.7-21.71-2.27-32.61c3.17,3.33,6.75,5.93,10.23,8.67c-1.88,2.54-0.8,5.44-0.9,8.16
		c-0.19,5.07-0.06,10.15-0.06,16.37c2.13-2.21,1.64-3.66,1.66-4.94c0.07-4.51-0.02-9.03,0.08-13.54c0.02-1.06-0.8-2.95,1.24-2.92
		c1.67,0.02,2.04,1.47,2.16,3.06c0.18,2.31-0.92,4.82,0.93,6.9c1.21,6.75,0.99,13.5,0.07,20.26c-0.12,0.08-0.33,0.15-0.33,0.25
		c-1.1,12.12-1.34,24.24,0.11,36.36c0.95,3.11,2.45,3.25,4.41,0.81c2.46-0.81,1.74-2.13,0.55-3.51c0.01-0.46,0.03-0.92,0.04-1.39
		c1.52-1.36,0.93-3.17,0.93-4.79C110.21,291.19,110.21,272.85,110.22,254.5z"/>
	<path class="st14" d="M228.36,205.62c0.6-0.07,1.21-0.14,1.81-0.21c0.18,1.27,1.15,1.26,2.13,1.57
		c7.94,2.48,14.38,7.06,18.99,14.07c2.34,3.56,3.03,7.6,3.01,11.76c-0.01,2.5-0.79,4.21-3.53,5.45
		c-7.19,3.26-14.24,6.88-21.11,10.77c-11.63,6.6-23.94-5.51-23.86-14.94c0.1-12.55,7.7-22.64,20.26-25.55
		C227.79,208.15,228.45,207.28,228.36,205.62z"/>
	<path class="st7" d="M191.04,269.01c0.04,7.6,0.67,15.17-0.69,22.8c-0.81,4.52-0.25,9.3-0.16,13.97c0.04,2.08-0.76,2.61-2.77,2.53
		c-10.89-0.44-21.79-0.75-32.68-1.11c-1.11-0.04-2.53,0.56-2.11-1.75c2.24-12.24,4.33-24.5,6.59-37.42
		c1.27,1.94,2.21,3.55,3.31,5.03c4.03,5.4,9.29,6.28,14.78,2.41c2.42-1.71,4.66-3.67,6.99-5.52
		C186.75,271.17,188.92,270.29,191.04,269.01z"/>
	<path class="st14" d="M101.9,205.06c9.56-0.8,15.71,6.17,18.98,15.21c3.28,9.06,0.5,17.64-7.06,23.42
		c-6.35,4.85-6.72,5.02-13.34,0.66c-10.55-6.95-14.68-17.51-15.92-29.55c-0.23-2.26,1.26-3.65,2.81-4.93
		C91.83,206.2,95.31,205.06,101.9,205.06z"/>
	<path class="st2" d="M217.43,155.92c1.67-0.2,1.98,1.27,2.78,2.2c6.54,7.53,12.45,15.68,20.74,21.36c1.37-0.67,1.02-1.61,0.83-2.35
		c-2.94-11.42-1.65-23.01-1.43-34.55c0.01-0.36,0.41-0.7,0.63-1.05c1.75,13.03,3.61,25.99,7.52,38.63
		c4.44,14.35,13.28,24.73,26.38,31.71c1.08,0.57,2.41,0.84,3.34,2.64c-9.74,2.38-19.04,4.04-27.71-2.7c-2.06-1.6-4.76-2.1-6.79-3.95
		c-10.41-9.46-14.76-22.48-20.33-34.74C220.88,167.62,219.38,161.67,217.43,155.92z"/>
	<path class="st2" d="M62.54,157.41c1.9,4.14,0.82,8.94,3.2,13.69c1.61-4.11,3.03-7.8,4.49-11.47c1.67-4.21,3.4-8.39,5.06-12.6
		c0.48-1.21,0.98-2.82,2.33-2.68c1.81,0.19,1.02,2.04,1.05,3.15c0.1,4.49,0.04,8.99,0.04,14.82c5.54-7.69,9.9-14.75,16.21-20.16
		c-1.91,6.64-5.53,12.55-8.23,18.86c-9.55,22.35-15.41,45.38-13.89,69.91c0.07,1.12,0.01,2.25-0.39,3.53
		c-1.92-3.38-3.85-6.74-4.62-10.63c0.07-0.09,0.22-0.22,0.19-0.27c-0.09-0.18-0.24-0.34-0.37-0.51c0,0,0.07,0.09,0.07,0.09
		c-0.21-0.91,0.11-2.01-0.91-2.65c0,0,0.05,0.09,0.05,0.09c-1.14-6.34-2.28-12.69-3.42-19.03c-0.84-0.72-0.75-1.74-0.88-2.7
		c0.06-3.02,0.13-6.04,0.19-9.06c1.16-7.61,1.19-15.23-0.02-22.84c-0.31-1.15,0.22-2.51-0.9-3.44
		C61.87,161.45,61.5,159.34,62.54,157.41z"/>
	<path class="st9" d="M240.19,299.7c0-7.43,0.01-14.86,0-22.29c-0.01-8.65,0.05-17.29-0.09-25.94c-0.04-2.29,0.58-3.66,2.71-4.63
		c3.84-1.76,7.56-3.78,12.21-6.13C251.57,261.28,247.53,280.82,240.19,299.7z"/>
	<path class="st9" d="M235.71,313.34c-3.3-5.52-5.28-11.28-7.49-16.87c-0.69-1.75,1.06-4.09,1.03-6.41
		c-0.16-10.92-0.08-21.85-0.07-32.77c0-1.81-0.38-3.82,1.96-4.65c1.41-0.5,2.74-2.14,4.26-1.18c1.31,0.83,0.66,2.61,0.67,3.97
		c0.06,16.17,0.17,32.35,0.03,48.52C236.06,306.92,237.96,309.99,235.71,313.34z"/>
	<path class="st12" d="M88.06,281.83c-1.29,0.82-0.56,2.36-1.34,4.18c-2.85-9.94-4.46-19.42-6.24-28.86
		c-0.4-2.14-1.37-4.37-0.19-6.59c1.35-1.79,0.3-3.47-0.28-5.15c-1.75-5.05-3.22-10.14-2.91-15.57c1.57-2.16,0.66-4.62,0.73-6.93
		c0.12-3.8,0.2-7.55,2.35-10.89c5.37,21.67,5.76,43.93,7.77,66.01C88.07,279.28,88.03,280.56,88.06,281.83z"/>
	<path class="st9" d="M215.75,258.64c9.27-4.43,9.27-4.43,9.27,5.52c0,8.18,0,16.36-0.33,24.65c-2.92-5.67-6.87-10.59-10-16.04
		C215.69,268.1,215.6,263.36,215.75,258.64z"/>
	<path class="st7" d="M97.09,157.24c-1.27,4.26-2.31,8.6-3.84,12.77c-3.38,9.22-5.68,18.66-6.59,28.44
		c-0.05,0.53-0.36,1.04-0.55,1.56c-1.6-0.73,0.94-3.33-1.68-3.54c-4.34-1.15-4.28-3.73-3.08-7.5c2.66-8.34,4.81-16.83,8.33-24.9
		C91.21,160.61,93.67,158.49,97.09,157.24z M94.3,161.43c-0.02-0.1-0.01-0.25-0.07-0.29c-0.09-0.06-0.23-0.05-0.35-0.07
		c0.03,0.17,0.06,0.33,0.1,0.5C94.08,161.52,94.19,161.48,94.3,161.43z"/>
	<path class="st4" d="M163.19,264.07c6.95,0,13.51,0,20.52,0c-3.16,4.98-7.84,7.62-12.16,10.55c-1.65,1.12-7.39-4.52-7.77-7.68
		C163.65,265.97,163.51,265.04,163.19,264.07z"/>
	<path class="st9" d="M253.72,182.27c3.99,1.25,5.05,5.34,7.38,8.07c5.88,6.91,12.24,13.09,20.21,17.47
		c1.43,0.79,2.5,1.76,3.17,3.22c-4.48,0.45-7.66-2.45-11.02-4.57C264.23,200.63,256.76,193.23,253.72,182.27z"/>
	<path class="st8" d="M227.69,335.76c-1.89-5.36,0.83-10.47,1.15-15.7c0.18-2.81-1.4-5.85,0.46-8.56c3.2,3.7,5.76,7.53,3.11,12.69
		C230.5,327.9,230.07,332.23,227.69,335.76z"/>
	<path class="st12" d="M274.02,224.78c-2.97,1.2-0.47,4.14-2.05,6.07c-0.22-2.48-0.42-4.75-0.62-7.02c-2.18,0.31-4.36,0.66-6.55,0.9
		c-1.11,0.12-2.25,0.01-3.37,0.01c-0.56-3.33,0.04-5.21,4.19-4.49c4.01,0.69,7.98-0.72,11.95-1.32c-0.28,1.53-1.2,3.07,0.09,4.56
		C276.43,223.83,275.02,223.71,274.02,224.78z"/>
	<path class="st2" d="M110.22,254.5c-0.02,18.35-0.02,36.7-0.07,55.05c0,1.62,0.59,3.43-0.93,4.79
		c-1.75-19.62,0.88-39.25,0.02-58.87c-0.02-0.38,0.18-0.77,0.33-1.13C109.58,254.3,110,254.44,110.22,254.5z"/>
	<path class="st9" d="M211.93,269.14c-1.03-0.14-2.83,0.47-2.88-0.86c-0.14-3.78-3.61-4.24-6.18-6.69c4.01-1,7.52-1.88,11.04-2.76
		C213.7,262.36,215.15,266.2,211.93,269.14z"/>
	<path class="st2" d="M104.37,261.56c-1.85-2.08-0.75-4.59-0.93-6.9c-0.12-1.59-0.5-3.04-2.16-3.06c-2.04-0.02-1.22,1.87-1.24,2.92
		c-0.11,4.51-0.02,9.02-0.08,13.54c-0.02,1.28,0.47,2.74-1.66,4.94c0-6.22-0.14-11.3,0.06-16.37c0.1-2.72-0.98-5.62,0.9-8.16
		C106.42,250.7,104.14,256.62,104.37,261.56z"/>
	<path class="st11" d="M180.46,311.89c-5.99,1.57-11.89,3.68-18.24,1.49c-2.47-0.85-5.26-0.54-7.71-1.67
		C163.17,311.42,171.82,311.3,180.46,311.89z"/>
	<path class="st6" d="M80.19,212.02c-2.16,3.34-2.24,7.08-2.35,10.89c-0.07,2.31,0.84,4.77-0.73,6.93
		c-0.43-10.25-0.66-20.49,1.78-30.57c0.39,0.26,0.78,0.52,1.16,0.78C80.09,204.03,80.14,208.02,80.19,212.02z"/>
	<path class="st11" d="M62.71,189.78c-0.06,3.02-0.13,6.04-0.19,9.06c-2.43-10.25-1.81-20.64-1.38-31.02
		c0.39,0.86,0.77,1.72,1.16,2.58C62.44,176.86,62.58,183.32,62.71,189.78z"/>
	<path class="st2" d="M116.01,330.27c-1.56-3.36-0.53-6.9-0.67-10.35c-0.19-4.83-0.05-9.68,0.46-14.54
		c2.34,3.26-0.14,7.33,2.1,10.53C117.27,320.7,116.64,325.48,116.01,330.27z"/>
	<path class="st10" d="M142.54,300.68c0.47-6-2.61,0-3.6-1.07c1.57-2.94,3.4-5.77,4.63-8.84c1.08-2.7,2.37-1.74,3.91-0.83
		c-0.02,0.55-0.03,1.09-0.05,1.64c-2.24,0.22-2.77,1.86-3.26,3.71C143.7,297.1,144.16,299.21,142.54,300.68z"/>
	<path class="st2" d="M104.22,318.42c-1.45-12.11-1.21-24.23-0.11-36.36c0.01-0.09,0.22-0.16,0.33-0.25
		C104.37,294.02,104.29,306.22,104.22,318.42z"/>
	<path class="st10" d="M107.18,347.45c0.16-0.28,0.32-0.57,0.47-0.85c0.82,0.19,1.64,0.39,2.46,0.58c0.11,3.06-0.18,6.11,2.05,8.79
		c1.48,1.77-0.56,3.34-1.11,4.98c-0.55,0.01-1.1,0.03-1.66,0.04c-0.03-0.33-0.05-0.66-0.08-0.99c1.83-1.39,1.3-3.09,0.69-4.85
		C109.09,352.58,107.4,350.28,107.18,347.45z"/>
	<path class="st8" d="M191.04,269.01c-2.12,1.29-4.29,2.16-6.75,0.93c1.78-2,3.54-4.01,5.34-5.98c1.22-1.34,1.55-0.54,1.61,0.74
		c0,0.35,0.01,0.69,0.01,1.04C191.18,266.83,191.11,267.92,191.04,269.01z"/>
	<path class="st5" d="M152.26,285.26c-2.88-4.5,0.85-7.87,2.09-11.75C153.65,277.43,152.95,281.34,152.26,285.26z"/>
	<path class="st8" d="M63.4,201.53c1.14,6.34,2.28,12.69,3.42,19.03C64.23,214.48,62.43,208.26,63.4,201.53z"/>
	<path class="st2" d="M211.93,269.14c3.22-2.94,1.77-6.79,1.98-10.31c0.61-0.06,1.23-0.13,1.84-0.19
		c-0.15,4.72-0.06,9.46-1.05,14.13C213.77,271.56,212.85,270.35,211.93,269.14z"/>
	<path class="st10" d="M139,299.58c0.33,2.59-1.31,4.72-1.7,7.16c-0.29,1.83-1.61,1.49-2.86,0.98
		C135.95,305,137.48,302.29,139,299.58z"/>
	<path class="st0" d="M228.57,350.7c-0.3-0.23-0.6-0.46-0.91-0.7c0.76-2.97,1.26-6.04,3.15-8.59
		C230.51,344.62,229.74,347.71,228.57,350.7z"/>
	<path class="st10" d="M119.95,331.78c1.37,3.19-0.12,4.7-3.13,5.33C117.46,335.09,118.23,333.16,119.95,331.78z"/>
	<path class="st7" d="M86.59,205.3c0.17-3.57,2.45-3.21,4.86-2.62C89.83,203.55,88.21,204.42,86.59,205.3z"/>
	<path class="st10" d="M62.3,170.4c-0.39-0.86-0.77-1.72-1.16-2.58c-0.38-1.53,0.05-2.94,0.64-4.32c1.12,0.93,0.6,2.3,0.9,3.44
		C62.56,168.1,62.43,169.25,62.3,170.4z"/>
	<path class="st10" d="M122.83,326.82c0.19,2.29,0.24,4.5-2.82,4.9C120.56,329.87,121.51,328.24,122.83,326.82z"/>
	<path class="st10" d="M114.36,341.32c-0.17,1.85,1.15,4.61-2.6,4.27C112.63,344.17,113.49,342.75,114.36,341.32z"/>
	<path class="st10" d="M125.34,322.53c0.12,2.02,0.13,3.97-2.56,4.31C123.39,325.26,124.05,323.71,125.34,322.53z"/>
	<path class="st10" d="M134.35,307.94c0.88,2.22,0.3,3.51-2.25,3.53C132.61,310.14,133.2,308.87,134.35,307.94z"/>
	<path class="st2" d="M109.18,315.72c1.2,1.39,1.91,2.7-0.55,3.51C108.66,318.04,108.37,316.79,109.18,315.72z"/>
	<path class="st10" d="M130.31,314.81c0.54,2.08,0.06,3.47-2.38,3.55C128.47,317.01,129.11,315.72,130.31,314.81z"/>
	<path class="st10" d="M132.14,311.47c0.21,1.58,0.24,3.07-1.87,3.36C130.48,313.47,130.99,312.29,132.14,311.47z"/>
	<path class="st10" d="M115.96,338.7c0.24,1.37,0.31,2.64-1.64,2.66C114.59,340.3,115.04,339.35,115.96,338.7z"/>
	<path class="st12" d="M80.04,200.04c-0.39-0.26-0.78-0.52-1.16-0.78c-0.01-0.67-0.03-1.73,0.76-1.54
		C81.02,198.06,80.18,199.2,80.04,200.04z"/>
	<path class="st10" d="M127.96,318.33c0.1,1.31,0.16,2.6-1.71,2.61C126.52,319.88,127.07,318.99,127.96,318.33z"/>
	<path class="st7" d="M84.11,205.15c0.79,0.08,1.57,0.16,2.36,0.24c-0.6,0.7-1.17,1.71-2.18,1.44
		C83.45,206.6,83.96,205.75,84.11,205.15z"/>
	<path class="st8" d="M66.77,220.48c1.02,0.64,0.7,1.73,0.91,2.65C66.78,222.45,66.74,221.48,66.77,220.48z"/>
	<path class="st10" d="M126.29,320.91c0.01,0.77-0.09,1.48-1,1.71C125.62,322.05,125.95,321.48,126.29,320.91z"/>
	<path class="st2" d="M73.47,236.79c-0.09,0.09-0.18,0.17-0.27,0.25c-0.09-0.21-0.2-0.41-0.24-0.62c-0.01-0.06,0.15-0.16,0.24-0.25
		C73.29,236.38,73.38,236.58,73.47,236.79z"/>
	<path class="st10" d="M116.88,337.04c0.06,0.8-0.02,1.51-0.97,1.73C116.23,338.2,116.56,337.62,116.88,337.04z"/>
	<path class="st8" d="M67.61,223.04c0.13,0.17,0.27,0.33,0.37,0.51c0.02,0.04-0.12,0.18-0.19,0.27
		C67.66,223.58,67.6,223.32,67.61,223.04z"/>
	<path class="st8" d="M206.32,304.81c0.09,0.21,0.2,0.41,0.24,0.63c0.01,0.05-0.19,0.15-0.29,0.23
		C206.29,305.38,206.3,305.09,206.32,304.81z"/>
	<path class="st7" d="M83.94,197.89c0,0,0.01,0.11,0.01,0.11c-0.21-0.02-0.42-0.04-0.63-0.05
		C83.53,197.93,83.74,197.91,83.94,197.89z"/>
	<path class="st9" d="M191.25,265.74c0-0.35-0.01-0.69-0.01-1.04c0.08,0.24,0.18,0.47,0.21,0.72
		C191.46,265.51,191.32,265.63,191.25,265.74z"/>
	<path class="st10" d="M111.83,345.57c-0.29,0.32-0.58,0.63-0.87,0.95C111.25,346.2,111.54,345.88,111.83,345.57z"/>
	<path class="st2" d="M94.88,142.19c0.31-0.4,0.62-0.8,0.93-1.2C95.77,141.6,95.6,142.11,94.88,142.19z"/>
	<path class="st7" d="M98.09,156.39c-0.3,0.25-0.6,0.51-0.9,0.76C97.49,156.9,97.79,156.65,98.09,156.39z"/>
	<path class="st3" d="M274.02,224.78c1-1.07,2.4-0.95,3.66-1.28c0.69,8.49-1.34,16.62-3.64,24.64c-7.7,26.92-15.52,53.8-23.34,80.68
		c-2.01,6.93-4.14,13.82-6.28,20.71c-0.53,1.72-0.76,3.66-2.51,4.76c-2.02-0.56-2.55-1.57-1.89-3.77
		c7.24-24.1,14.45-48.21,21.48-72.37c4.15-14.25,8.34-28.51,11.52-43.02c0.3-1.37,0.34-2.8,0.5-4.2c0.65-1.13,0.64-2.31,0.28-3.53
		C273.88,226.53,273.95,225.66,274.02,224.78z"/>
	<path class="st3" d="M287.83,286.08c-1.1,6.79-2.37,13.56-3.26,20.38c-2.19,16.72-3.37,33.51-2.65,50.38
		c0.16,3.79,0.91,7.56,1.39,11.34c0.24,1.92,1.1,3.9-0.54,5.64c-2.95-0.35-2.77-2.87-3.23-4.82c-2.77-11.89-2.49-24.02-1.54-35.99
		c1.56-19.61,3.98-39.15,7.39-58.55c0.44-2.51,1.01-4.99,1.55-7.48c0.26-1.18,0.8-2.3,2.22-2.07c1.47,0.24,1.49,1.54,1.33,2.7
		C289.63,273.77,288.72,279.92,287.83,286.08z"/>
	<path class="st3" d="M142.54,300.68c1.61-1.46,1.16-3.58,1.64-5.39c0.48-1.85,1.01-3.49,3.26-3.71c1.06,0.96,1.25,2.14,0.95,3.48
		c-2.57,11.65-4.29,23.45-6.1,35.23c-0.75,4.88-1.42,9.74-1.55,14.67c-1.57,0.4-1.76,1.56-1.69,2.95c0.11,2.11,0.13,4.23,0.18,6.35
		c-0.49,2.76-0.04,5.84-2.61,7.91c-1.58-0.96-1.33-2.32-1.32-3.96c0.07-7.35,1.31-14.58,1.89-21.88c0.04-0.3,0.08-0.59,0.12-0.89
		c0.92-5.73,1.95-11.44,2.74-17.18c0.57-4.17,2.21-8.23,1.5-12.55c0.1-0.25,0.15-0.51,0.15-0.77c0.83-0.35,1.01-1.01,0.87-1.83
		C142.56,302.29,142.55,301.48,142.54,300.68z"/>
	<path class="st11" d="M200.43,310.33c-0.24,1.6-1.32,2.5-2.82,2.48c-1.56-0.02-2.61-1.08-2.57-2.68c0.05-1.77,1.17-2.9,2.96-2.71
		C199.53,307.58,200.4,308.68,200.43,310.33z"/>
	<path class="st0" d="M139.23,354.26c-0.06-2.12-0.08-4.24-0.18-6.35c-0.07-1.39,0.12-2.54,1.69-2.95
		c0.17,4.84,0.57,9.69-0.53,14.48C139.51,357.78,140.72,355.76,139.23,354.26z"/>
	<path class="st12" d="M273.81,227.41c0.36,1.21,0.37,2.4-0.28,3.53C273.39,229.74,273.11,228.53,273.81,227.41z"/>
	<path class="st10" d="M141.54,305.7c0.71,4.33-0.93,8.38-1.5,12.55c-0.79,5.75-1.82,11.46-2.74,17.18
		c-0.89-0.73-0.92-1.78-0.74-2.72C138.23,323.72,138.44,314.44,141.54,305.7z"/>
	<path class="st10" d="M129.79,374.67c-0.61-0.14-1.36-0.09-1.32-1.04c0-0.1,0.17-0.26,0.27-0.27c0.95-0.04,0.9,0.71,1.04,1.32
		C129.77,374.69,129.79,374.67,129.79,374.67z"/>
	<path class="st10" d="M142.56,303.1c0.14,0.82-0.04,1.48-0.87,1.83C141.67,304.17,141.77,303.47,142.56,303.1z"/>
	<path class="st10" d="M53.61,114.44C62.47,103.88,72,94.95,82.03,85.22c2.1,9.15,4.02,17.49,5.92,25.85
		c0.44,1.93,0.6,3.93,1.17,5.82c0.95,3.17,0.49,4.37-3.25,3.6C75.39,118.34,64.85,116.52,53.61,114.44z"/>
	<path class="st10" d="M284,107.72c-6.38,2.61-12.32,5.03-18.92,7.73c1.64-8.43,4.08-15.89,4.78-24.51
		C274.88,96.9,279.35,102.21,284,107.72z"/>
	<path class="st10" d="M106.51,112.54c-1.75-5.32-2.28-10.19-3.05-15.01c-0.23-1.46,0.06-2.11,1.74-1.81
		c3.05,0.56,6.11,1.01,9.19,1.41c2.15,0.28,1.69,1.32,0.91,2.59C112.7,103.91,110.2,108.16,106.51,112.54z"/>
	<path class="st3" d="M43.17,143.83c0.42-2.32,0.83-4.64,1.24-6.97C46.53,139.64,45.69,141.89,43.17,143.83z"/>
	<path class="st3" d="M44.83,135.32c-0.22-1.7,0.02-3.24,1.58-4.29C46.06,132.52,47.44,134.66,44.83,135.32z"/>
	<path class="st3" d="M42.32,148.94c-0.48-1.29,0.6-2.21,0.78-3.34C44.14,147.02,44.58,148.3,42.32,148.94z"/>
	<path class="st3" d="M83.93,49.43c0.53-0.33,1.06-0.67,1.59-1c0.04,1.36-0.04,2.63-1.92,2.55C83.71,50.46,83.82,49.94,83.93,49.43z
		"/>
	<path class="st3" d="M68.39,72.26c0.14-1.06,0.8-1.57,1.81-1.7C70.13,71.69,69.63,72.37,68.39,72.26z"/>
	<path class="st3" d="M67.29,73.95c0.39-0.59,0.78-1.17,1.17-1.76C68.45,73.03,68.3,73.78,67.29,73.95z"/>
	<path class="st3" d="M65.78,76.53c0.34-0.59,0.68-1.17,1.02-1.76C66.74,75.52,66.73,76.3,65.78,76.53z"/>
	<path class="st3" d="M64.09,79.95c0.12-0.71,0.2-1.43,0.92-1.84C65.04,78.88,65.06,79.66,64.09,79.95z"/>
	<path class="st3" d="M62.34,83.35c0.34-0.66,0.68-1.33,1.01-1.99C63.33,82.18,63.39,83.04,62.34,83.35z"/>
	<path class="st3" d="M60.68,86.75c0.31-0.61,0.63-1.22,0.94-1.82C61.61,85.7,61.66,86.49,60.68,86.75z"/>
	<path class="st3" d="M61.49,85.04c0.32-0.61,0.64-1.22,0.97-1.83C62.5,84.02,62.48,84.78,61.49,85.04z"/>
	<path class="st3" d="M59.8,88.45c0.33-0.6,0.65-1.21,0.98-1.81C60.79,87.43,60.78,88.2,59.8,88.45z"/>
	<path class="st3" d="M64.89,78.22c0.33-0.6,0.67-1.2,1-1.8C65.89,77.21,65.9,78,64.89,78.22z"/>
	<path class="st3" d="M58.97,90.16c0.32-0.61,0.63-1.22,0.95-1.83C59.96,89.12,59.91,89.87,58.97,90.16z"/>
	<path class="st3" d="M199.9,179.61c0-4.35,2.5-5.58,7.1-5.34c5.49,0.28,8.47,3.24,10.78,7.52c1.31,2.44,2.76,4.74,0.12,7.59
		c-2.91,3.16-5.44,3.64-9.52,1.9C202.92,188.95,199.95,185.54,199.9,179.61z"/>
	<path class="st3" d="M123.83,181.96c-0.29,5.88-5.18,10.42-10.93,10.11c-5.04-0.26-7.99-2.75-7.73-6.51
		c0.43-6.15,6.34-11.17,12.87-10.94C122.21,174.77,124.06,177.12,123.83,181.96z"/>
	<path class="st3" d="M163.49,201.1c1.91-0.89,4.73-1.05,7.57-1.07c2.33-0.02,3.37,1.14,3.13,3.43c-0.54,5-1.92,9.77-4.8,13.91
		c-3.24,4.66-7.32,4.48-10.51-0.18c-1.56-2.28-2.17-4.91-2.91-7.48C154.02,202.95,155.71,200.81,163.49,201.1z M168.38,203.86
		c-2.23,0.27-3.76,0.56-5.3,0.62c-4.08,0.15-4.66,2.27-3.12,5.5c1.15,2.42,1.22,6.52,4.35,6.46c2.92-0.06,3.44-4.01,4.61-6.49
		c0.53-1.12,0.71-2.41,0.99-3.64C170.32,204.45,169.6,203.62,168.38,203.86z"/>
	<path class="st9" d="M62.3,170.4c0.13-1.15,0.26-2.31,0.39-3.46c1.22,7.61,1.18,15.23,0.02,22.84
		C62.58,183.32,62.44,176.86,62.3,170.4z"/>
	<path class="st4" d="M94.3,161.43c-0.11,0.04-0.22,0.09-0.32,0.13c-0.03-0.17-0.06-0.33-0.1-0.5c0.12,0.02,0.26,0.01,0.35,0.07
		C94.29,161.18,94.28,161.33,94.3,161.43z"/>
	<path class="st10" d="M168.38,203.86c1.22-0.24,1.94,0.59,1.53,2.44c-0.27,1.23-0.46,2.52-0.99,3.64
		c-1.17,2.49-1.69,6.44-4.61,6.49c-3.12,0.06-3.19-4.04-4.35-6.46c-1.54-3.23-0.95-5.35,3.12-5.5
		C164.62,204.42,166.15,204.13,168.38,203.86z"/>
</g>
</svg>
