<?xml version="1.0" encoding="utf-8"?>
<!-- Generator: Adobe Illustrator 26.0.0, SVG Export Plug-In . SVG Version: 6.00 Build 0)  -->
<svg version="1.1" xmlns="http://www.w3.org/2000/svg" xmlns:xlink="http://www.w3.org/1999/xlink" x="0px" y="0px"
	 viewBox="0 0 400 400" style="enable-background:new 0 0 400 400;" xml:space="preserve">
<style type="text/css">
	.st0{fill:#FFFFFF;}
	.st1{fill:#F4ECAE;}
	.st2{fill:#87DBC0;}
	.st3{fill:#31271B;}
	.st4{fill:#D7D3AC;}
	.st5{fill:#2F271B;}
	.st6{fill:#D8D4AD;}
	.st7{fill:#2E271D;}
	.st8{fill:#131012;}
	.st9{fill:#BFBC9B;}
	.st10{fill:#161617;}
	.st11{fill:#E1E1E1;}
	.st12{fill:#1F1E1E;}
	.st13{fill:#171617;}
	.st14{fill:#1A191A;}
	.st15{fill:#191918;}
	.st16{fill:#F4ECAF;}
	.st17{fill:#191718;}
	.st18{fill:#141315;}
	.st19{fill:#E1E1E0;}
	.st20{fill:#473825;}
	.st21{fill:#242322;}
	.st22{fill:#87DBC1;}
	.st23{fill:#2D261D;}
	.st24{fill:#070503;}
	.st25{fill:#FBFCFB;}
	.st26{fill:#151414;}
	.st27{fill:#FEE8CE;}
	.st28{fill:#232222;}
	.st29{fill:#F0DCC3;}
	.st30{fill:#22201E;}
	.st31{fill:#161716;}
	.st32{fill:#141415;}
	.st33{fill:#F2F1EB;}
	.st34{fill:#C0BE9E;}
	.st35{fill:#F9F9F8;}
	.st36{fill:#DBD6D0;}
	.st37{fill:#FCE9CE;}
	.st38{fill:#DDB173;}
	.st39{fill:#DEB273;}
	.st40{fill:#242323;}
	.st41{fill:#262423;}
	.st42{fill:#242423;}
	.st43{fill:#322B23;}
	.st44{fill:#DDB372;}
	.st45{fill:#ECE9E5;}
	.st46{fill:#2B1F04;}
	.st47{fill:#463825;}
	.st48{fill:#463724;}
	.st49{fill:#F7F7F6;}
	.st50{fill:#59766E;}
	.st51{fill:#242424;}
	.st52{fill:#FDBED2;}
	.st53{fill:#171716;}
	.st54{fill:#FDBFD2;}
	.st55{fill:#1A1718;}
	.st56{fill:#E0D9C3;}
</style>
<g id="圖層_2">
	<path class="st0" d="M229,381c-0.55,0.01-3,0.05-6,0c-5.24-0.08-12.76-0.4-17-1c-0.84-0.12-13.85-2.08-21-9
		c-14.96-14.48-1.83-48.29,0-53c3.19-8.21,9.31-23.96,25-35c28.27-19.89,75.22-15.8,90,8c6.06,9.76,7.66,24.37,2,35
		c-4.28,8.04-9.24,7.27-23,17C255.85,359.37,242.91,380.64,229,381z"/>
</g>
<g id="圖層_1">
	<g>
		<path class="st1" d="M186.67,371.61c-1.74,1.93-3.9,0.78-5.86,0.71c-13.41-0.47-26.44-3.18-39.32-6.79
			c-17.59-4.92-33.83-12.79-49.26-22.4c-16.05-10-29.64-22.77-42-37.02c-12.21-14.08-21.4-29.99-28.83-46.88
			c-6.13-13.95-10.17-28.65-12.35-43.79c-1.6-11.15-2.98-22.32-2.45-33.61c0.83-17.81,3.68-35.33,9.18-52.29
			c5.4-16.64,12.89-32.42,22.84-46.8C49.71,66.72,62.74,52.3,78.31,40.37c17.67-13.54,36.95-24.15,58.28-30.7
			c13.01-3.99,26.26-7.07,39.93-8.1c5.52-0.42,10.95-1.64,16.57-1.57c12.15,0.16,24.08,2.06,35.94,4.32
			c18.82,3.58,36.79,9.7,53.53,19.11c5.2,2.93,10.25,6.13,15.38,9.18c1.04,0.62,1.47,1.63,1.93,2.65c-1.82,1.35-3.45,0.19-5.09-0.41
			c-15.11-5.46-30.52-9.26-46.75-8.57c-5.13,0.22-10.2,0.93-15.27,1.71c-6.74,0.04-13.44,0.89-20.16,1.13
			c-19.59,2.62-37.15,10.19-53.12,21.65c-11.82,7.07-19.86,17.75-27.29,28.93c-5.62,8.46-11.32,16.92-14.27,26.82
			c-0.63,2.1-1.84,2.68-4.13,1.91c-7.07-2.4-13.43-1.17-18.76,4.32c-10.86,11.2-18.54,24.25-23.2,39.13
			c-3.7,11.84-5.96,24.04-9.57,35.9c-4.34,14.27-12.42,26.02-22.78,36.44c-5.3,5.33-5.05,6.97,1.96,10.24
			c4.23,1.97,8.81,2.53,13.41,2.94c1.63,0.14,3.39-0.25,4.75,1.09c0.7,2.04-0.79,3.08-2.02,4.14c-2,1.72-1.57,3.32,0.09,4.91
			c1.93,1.85,4.14,3.23,6.74,3.98c11.57,3.34,22.96,3.23,34.13-1.65c1.06-0.46,2.21-1.47,3.3,0.03c1.67,4.89-0.69,9.72-0.2,14.59
			c-0.79,9.4-1.58,18.8-0.08,28.2c1.76,15.54,5.18,30.37,17.74,41.28c1.12,0.93,2.01,2.34,4.17,1.85c-0.86-3.77-2-7.45-2.61-11.23
			c-0.2-1.23-0.56-2.45-0.16-3.69c0.49-1.49,1.36-1.73,2.32-0.43c1.24,1.69,1.82,3.71,2.49,5.67c2.9,11.22,8.17,20.77,19.19,27.35
			c-0.59-4.51-2.05-7.96-2.7-11.58c-0.24-1.33-0.99-3.14,0.55-3.76c1.57-0.63,2.34,1.18,2.96,2.36c3.08,5.94,7.79,8.9,14.59,8.2
			c0.96-0.1,2.14,0.12,2.67-0.82c0.69-1.23-0.43-2.06-1.13-2.87c-2.09-2.46-3.88-5.11-4.99-8.15c-0.56-1.53-1.42-3.12-0.07-4.71
			c0.38-0.19,0.76-0.19,1.15-0.05c5.63,6.47,11.95,12.01,20.17,15.01c1.04,0.38,2.05,0.89,3.14,1.14c1.48,0.34,3.25,1.02,4.29-0.41
			c1.08-1.49-0.68-2.43-1.44-3.49c-0.78-1.09-1.47-2.31-0.24-3.33c2.17-1.79,1.79-3.81,1.02-6.03c-0.32-0.91-0.5-2.07,0.53-2.62
			c1.09-0.59,1.84,0.39,2.41,1.12c1.77,2.27,4.04,4.3,4.16,7.5c-1.89,7.66-5.05,15-5.83,22.95
			C185.67,366.56,185.43,369.14,186.67,371.61z"/>
		<path class="st2" d="M334.94,307.91c0.03,3.34,0.1,6.69,0.07,10.03c-0.1,11.41-4.63,20.2-15.39,25.01
			c-2.58,1.15-1.36,2.64-0.89,4.04c2.84,8.43,5.86,16.8,8.61,25.25c1.59,4.88,2.81,9.88,4.17,14.83c0.73,2.66,0.07,4.32-2.86,5.31
			c-8.61,2.91-17.65,3.84-26.47,5.66c-14.53,2.99-29.19,1.96-43.94,0.55c-13.29-1.27-26.6-2.42-39.91-3.58
			c-8.19-0.71-12.69-4.3-13.22-11.13c-0.24-3,0.46-4.32,3.81-4.09c6.8,0.46,13.58,1.58,20.43,0.83c4.54,1.07,9.09,2.07,13.78,2.26
			c11.64,1.94,23.28,1.37,34.9-0.17c6.17-0.82,11.89-2.83,16.96-6.53c2.58,0.04,5.03,1.18,7.64,0.87c2.61,0.35,4.41-1.12,6.12-2.77
			c1.68-1.85,0.38-3.75-0.06-5.52c-2.95-11.88-7.04-23.4-11.15-34.91c-1.01-2.84-2.62-5.56-2.23-8.77c0.38-0.67,1-1.09,1.71-0.94
			c5.22,1.1,8.01-2.3,10.59-5.81c6.05-8.24,5.85-17.71,4.99-27.24c-0.42-4.7-1.16-9.38-1.3-14.1c-0.08-2.8,0.16-5.59,2.29-7.78
			c4.61-1.97,9.59-2.7,14.3-4.33c6.36-2.21,12.14-5.43,17.44-9.56c1.14-0.89,2.09-2.36,3.92-1.87c2.12,2.86,1.44,6.18,1.09,9.21
			c-0.81,7.14-2.2,14.2-4.02,21.16c-0.25,0.94-0.55,1.87-1.44,2.43c-0.55,0.12-1.09-0.04-1.64-0.1c-6.24-0.68-8.62,1.5-8.16,7.66
			C335.44,298.55,335.54,303.23,334.94,307.91z"/>
		<path class="st2" d="M340.77,62.78c1.38-0.3,2.42,0.41,3.46,1.14c23.79,16.6,38.59,39.18,45.37,67.26
			c2.29,9.51,3.69,19.15,3.89,28.83c0.31,14.88-2.84,29.29-8.57,43.02c-1.1,2.65-0.62,4.87-0.16,7.2
			c2.51,12.63,2.9,25.22-1.91,37.35c-2.28,5.75-0.5,11.18-0.45,16.77c0.16,17.54-1.61,34.51-15.19,47.69
			c-1.76,1.7-3.75,3.16-6.03,4.51c4.42-15.07,8.34-30.08,9.27-46.54c-5.01,2.82-7.91,6.95-12.73,7.88
			c-1.44-1.68-0.49-3.42-0.09-5.11c2.47-10.42,4.06-20.88,1.81-31.56c-0.68-2.96-0.2-5.79,0.86-8.59
			c4.74-12.48,4.88-25.25,2.33-38.17c-0.54-2.74-1.03-5.32,0.12-8.15c10.51-25.84,10.42-52.04,2.45-78.48
			c-4.61-15.28-11.98-29.03-22.4-41.14C341.81,65.55,340.5,64.57,340.77,62.78z"/>
		<path class="st3" d="M216.88,294.44c-2-0.26-2.02,1.51-2.63,2.62c-4.99,8.93-9.06,18.32-13.24,27.64
			c-2.05,1.72-1.72,5.43-5.08,6.07c-1.46-0.41-3-0.94-4.47-0.68c-4.11,0.7-6.86-1.21-9.12-4.33c-1.11,4.21-3.11,4.26-7.68,0.26
			c-4.53-4.47-8.86-9.08-11.26-15.13c-0.41-1.03-1.03-2-1.06-3.13c-0.06-2.04-0.83-4.53,1.17-5.82c2.27-1.45,3.74,0.83,5.33,2.08
			c2.46,1.94,4.69,4.43,8.34,3.67c1.27-0.36,2.32,0.24,3.38,0.78c0.9,0.45,1.51,0.46,1.49-0.79c-1.17-2.59-3.4-4.41-4.81-6.79
			c-10.33-17.46-11.25-35.36-2.36-53.67c0.68-1.39,1.53-2.66,3.11-3.2c3.54,0.03,6.32,2.06,9.08,3.81
			c8.19,5.19,17.04,8.83,26.26,11.65c3.2,0.98,6.32,2.19,9.43,3.4c3.49,1.37,7.03,2.54,10.76,3.06c0.45,0.5,0.41,1.04,0.15,1.6
			c-0.53,0.69-0.27,1.82-1.23,2.3c-0.56,0.15-1.11,0.08-1.65-0.13c-4.08-0.54-7.6,0.34-10.01,3.98c-2.37,3.57-6.37,4.6-9.88,6.4
			c-1.44,1.29-3.9,2.19-1.76,4.79c1.45,2.11,4.04,2.94,5.59,4.93C215.32,291.41,217.15,292.44,216.88,294.44z"/>
		<path class="st4" d="M295.48,376.48c-4.17,5.48-10.65,6.14-16.61,7.37c-5.67,1.17-11.56,1.56-17.36,1.73
			c-6.24,0.18-12.46-0.67-18.64-1.69c-1.5-1.6-1.21-3.62-1.22-5.53c-0.05-7.35-0.17-14.71,0.03-22.06
			c0.16-5.85-0.71-11.62-0.9-17.44c-0.03-0.95,0.24-2.01-1.45-1.08c-0.98,0.54-1.32-0.74-1.5-1.46c-0.4-1.64-0.43-3.3,0.45-4.85
			c0.31-0.39,0.7-0.66,1.17-0.82c7.54,0.75,14.99-0.29,22.4-1.48c3.38-0.54,4.61,0.93,5.04,3.88c1.29,8.97,2.27,17.97,3.26,26.98
			c0.68,6.2,0.59,12.45,1.46,18.63c0.28-13.64-2.01-27.04-3.51-40.53c-0.43-3.89-1.75-7.89,0.11-11.8c0.77,1.14,1.64,1.92,3.02,0.82
			c3.42,1.17,6.22-0.71,9.04-2.01c5.56-2.57,6.38-2.17,7.27,4.07c1.99,13.87,4,27.75,6.7,41.51c0.27,1.36,0.21,2.8,1.74,3.5
			C296.34,375.07,296.36,375.88,295.48,376.48z"/>
		<path class="st5" d="M314.19,269.48c-2.4,3.98-1.64,8.31-1.29,12.55c0.57,6.92,1.6,13.81,1.27,20.77
			c-0.4,8.43-3.95,15.28-10.12,21.14c-2.87,2.73-5.82,0.44-8.53,1.51c-4.59,0.06-3.31-4-4.48-6.34c-0.04-0.08-0.17-0.17-0.24-0.16
			c-0.13,0.01-0.25,0.1-0.37,0.15c-2.34-4.31-2.83-9.28-4.88-13.7c-2.28-3.08-2.38-6.81-3.23-10.29c-0.67,0.56-1.7,0.73-2.69,1
			c-1.37,0.66-2.74,1.32-4.11,1.99c-2.23,0.29-2.3-0.73-1-1.98c1.28-1.23,3.07-1.82,4.5-2.91c-2.18,1.36-4.37,2.7-6.66,3.88
			c-0.83,0.43-2,0.84-2.57-0.26c-0.57-1.1,0.46-1.81,1.25-2.27c3.69-2.17,7.4-4.31,10.89-6.8c1.12-0.8,2.38-1.43,2.91-2.82
			c0.98-2.56,0.42-4.88-1.03-7.08c-0.99-1.5-2.02-2.99-2.39-4.79c-2.69-1.75-5.66-0.51-8.48-0.81c-1.79-0.19-3.65,0.2-5.41-0.26
			c-0.93-0.24-2.95-0.14-1.64-2.23c0.74-0.44,1.56-0.69,2.39-0.68c13.67,0.26,27.26-0.67,40.83-2.25
			C310.97,267.41,313.18,267.29,314.19,269.48z"/>
		<path class="st6" d="M285.67,285.42c-3.09,4.57-8.33,6.16-12.63,9.04c-1.1,0.73-2.65,0.79-3.47,2.49
			c4.07-0.57,6.99-3.27,11.06-4.99c-1.93,2.31-3.86,3.39-5.63,4.67c-1.19,0.85-0.45,1.27,0.52,1.49
			c-5.81,1.39-11.39,4.66-17.67,2.18c-8.26-3.46-15.53-8.68-22.66-12.4c2.71,1.83,6.16,4.11,9.73,6.21
			c0.69,0.41,1.54,0.92,1.22,1.93c-0.24,0.73-1.01,0.97-1.71,0.93c-10-0.56-20.14-0.39-29.22-5.68c-0.36-0.21-0.59-0.58-0.74-0.98
			c-1.94-1.74-4.72-2.42-6.07-4.88c-1.26-2.56,0.88-4.1,1.8-6c4.11-2.32,9.21-3.13,11.12-8.6c0.76-2.17,8.46-2.88,9.8-1.39
			c8.02,7.73,15.78,15.73,24.54,22.67c7.18,5.69,7.7,5.74,13.85-0.92c2.37-2.57,4.38-5.4,5.92-8.56c0.71-1.46,1.28-3.18,3.31-3.42
			C282.3,279.87,284.34,282.25,285.67,285.42z"/>
		<path class="st7" d="M360.34,240.76c2.47,10.91,1.08,21.64-1.53,32.32c-0.39,1.6-0.74,3.2-1.1,4.81
			c-2.81,9.59-9.24,16.49-16.8,22.55c-0.66,0.02-1.1-0.36-1-0.96c0.73-4.72,1.57-9.42,4.53-13.4c2.61-9.5,4.71-19.1,4.98-28.99
			c0.03-1.2,0.94-2.83-0.95-3.6c0.22-1.54,0.57-3.07,0.47-4.64c2.62-3.54,4.39-7.7,7.71-10.74c4.21-0.32,2.71,3.1,3.48,5.86
			C359.79,242.34,359.47,241.47,360.34,240.76z"/>
		<path class="st8" d="M360.34,240.76c-0.13,0.92-0.25,1.84-0.51,3.72c-0.68-2.88,0.01-5.58-3.03-6.08
			c-0.8-1.05-0.43-2.15-0.02-3.17c5.8-14.4,6.85-29.13,3.24-44.22c-0.13-0.54-0.09-1.11-0.1-1.66c0.85-5.65,2.92-10.99,4.36-16.49
			c2.79-10.68,4.52-21.53,3.86-32.55c-1.45-24.07-8.11-46.46-22.59-66.13c-1.72-2.69-3.84-5.07-5.86-7.54
			c-0.52-0.61-0.93-1.29-1.26-2.02c-0.32-0.76-0.74-1.5-0.89-2.3c-0.2-1.12-0.09-2.07,1.45-1.21c0.59,0.55,1.18,1.11,1.77,1.66
			c21.45,23.26,30.71,51.28,31.47,82.32c0.36,14.75-3.18,28.99-8.83,42.63c-0.64,1.55-0.67,2.74-0.26,4.31
			c3.57,13.7,3.29,27.28-1.67,40.63C360.5,235.31,359.73,237.92,360.34,240.76z"/>
		<path class="st9" d="M238.71,331.52c0,1.88,0,3.76,0,6.04c1.45-1.4,0.07-3.2,1.71-4.18c1.6,1.04,1.49,2.69,1.63,4.32
			c1.33,15.38,0.67,30.79,0.82,46.19c-4.59-0.71-9.65,0.53-13.51-3.23c0.08-0.32,0.17-0.65,0.26-0.97
			c5.09-8.75,5.52-18.54,6.1-28.23c0.33-5.54,1.23-11.04,1.03-16.62C236.7,333.56,236.42,331.64,238.71,331.52z"/>
		<path class="st10" d="M268.19,326.32c1.18,16.49,4.53,32.78,4.69,49.37c0.02,2.46,0.12,4.93-1.52,7.84
			c-1.18-2.97-1.38-5.53-1.47-8.06c-0.5-14.48-2.57-28.8-4.18-43.17c-0.26-2.28-0.84-2.57-3.07-2.17
			c-7.65,1.37-15.33,2.93-23.15,1.06c-0.57-0.31-1.55-0.23-1.59-1.04c-0.05-0.89,0.81-0.89,1.48-0.89c3.02-0.01,6.04,0.03,9.05-0.02
			c1.49-0.03,3.02,0.29,4.48-0.29c3.03-0.27,6.07-0.78,9.1-0.75c2.49,0.03,3.31-0.33,2.88-3.16c-1.18-7.58-2.03-15.22-3.07-22.88
			C266.98,309.4,266.43,318.18,268.19,326.32z"/>
		<path class="st11" d="M309.2,374.81c-1.44,2.12-3.11,3.82-6,3.32c-1.23-1.25-1.59-2.92-1.99-4.51c-2.49-9.95-6.22-19.53-8.9-29.42
			c-0.95-3.49-1.57-7.01-1.18-10.57c-0.36,0.58,0.27,1.71-0.87,2.06c-2.32-2.86-2.76-5.99-1.31-9.37c1.31-1.47,0.96-3.5,1.75-5.14
			c2.21,1.59,3.05,4.14,3.83,6.45c4.8,14.3,10.16,28.41,14.57,42.85C309.54,371.9,310.32,373.33,309.2,374.81z"/>
		<path class="st12" d="M339,61.12c-2.3,1.27,1.19,2.2,0.2,3.39c-1.97,0.93-2.7-0.82-3.74-1.78c-7.16-6.62-14.6-12.98-23.08-17.77
			c-8.47-4.79-17.76-7.85-27-10.99c-11.89-4.03-24.1-5.51-36.5-6c-4.17-0.17-8.28,0.97-12.47,1.01c-1.65,0.01-3.49,0.44-3.57-2.13
			c21.5-4.3,42.11-0.58,62.32,6.88c1.56,0.57,3.15,1.04,4.73,1.55C314.55,41.41,327.65,49.95,339,61.12z"/>
		<path class="st13" d="M288.96,326.32c0.15,3.2,0.7,6.32,1.57,9.4c2.61,9.65,4.72,19.41,5.47,29.39c0.22,2.89,2.05,6.01-0.48,8.8
			c-1.3,2.33-1.6,0.86-1.85-0.51c-1.6-8.91-3.28-17.81-4.76-26.74c-1.24-7.51-2.22-15.06-3.38-22.99c-3.7,2.06-6.9,4.11-10.68,4.69
			c-1.35,0.21-3.1,1.17-3.65-1.21c2.67-1.13,5.35-2.26,8.01-3.39c3.76-1.61,7.18-3.39,4.66-8.48c-0.35-0.71-0.55-1.86,0.33-2.21
			c1.31-0.52,1.49,0.83,1.88,1.65C287.84,318.38,288.09,322.42,288.96,326.32z"/>
		<path class="st14" d="M252.91,328.95c-4.15,1.55-8.46,0.44-12.69,0.67c-1.67,0.09-2.1,0.27-0.74,1.56
			c-0.26,0.11-0.52,0.22-0.78,0.33c-1.44,6.07-1.05,12.31-1.59,18.46c-0.72,8.15-0.95,16.37-3.54,24.24
			c-0.73,2.2-1.26,4.65-3.96,5.47c0.17-5.75,2.62-11.05,3.3-16.71c1.65-13.84,2.23-27.75,3.2-41.64c0.08-1.18-0.88-3.39,1.14-3.34
			c1.51,0.04,1.17,2.22,1.25,3.55c0.49,7.91,0.48,7.91,8.57,7.61C249.02,329.09,250.97,329.02,252.91,328.95z"/>
		<path class="st15" d="M214.46,290.29c9.69,5.01,20.35,4.84,31.91,5.98c-5.84-3.68-11.09-6.45-15.39-10.6
			c1.29-1.62,2.24-0.36,2.99,0.09c7.61,4.56,15.09,9.34,23.14,13.15c0.38,0.18,0.5,0.91,0.74,1.38c-7.78-1.64-15.62-2.06-23.57-1.96
			c-5.98,0.08-11.85-1.42-17.39-3.89C216.14,293.02,214.17,292.31,214.46,290.29z"/>
		<path class="st16" d="M344.43,286.07c-0.71,4.9-3.61,9.26-3.53,14.36c-1.43,2.94-3.49,5.37-5.96,7.48
			c-1.09-6.5-1.09-13.04-0.79-19.6c0.1-2.22,1.69-2.38,3.14-2.44C339.66,285.78,342.18,282.2,344.43,286.07z"/>
		<path class="st17" d="M309.2,374.81c-5.51-18.1-11.63-36-18.5-53.63c-0.09-0.69-0.18-1.37-0.27-2.06c1.95-0.7,1.56,1.11,1.89,1.9
			c0.73,1.75,1,3.76,3.2,4.44c5.81,14.74,10.72,29.79,14.86,45.08C311.16,373.43,310.93,373.9,309.2,374.81z"/>
		<path class="st18" d="M196.01,330.49c1.4-1.46,2.98-2.77,3.38-4.96c0.12-0.66,0.46-1.77,1.62-0.84
			c-1.71,4.22-3.23,8.52-5.15,12.63c-5.11,10.9-7.77,22.42-9.18,34.29c-3.1-1-2.1-3.75-2.04-5.69c0.17-5.54,1.64-10.89,3.36-16.14
			c1.03-3.14,2.18-6.24,3.27-9.36C191.62,336.54,192.64,332.96,196.01,330.49z"/>
		<path class="st19" d="M279.63,296.13c0.99-0.71,1.97-1.42,3.31-2.37c0.93,4.15,1.77,7.91,2.62,11.67
			c-1.82,2.15,0.95,4.01,0.47,7.1C282.77,306.81,281.99,301.15,279.63,296.13z"/>
		<path class="st20" d="M232.83,26.84c3.08,2.66,6.7,0.96,9.73,0.48c6.9-1.08,13.61-0.24,20.34,0.5
			c14.59,1.58,28.25,6.46,41.7,12.13c9.45,3.98,17.62,9.8,25.3,16.42c3.12,2.69,6.2,5.43,9.3,8.14c0.3,0.49,0.61,0.99,0.91,1.48
			c1.52,3.01,4.14,5.23,5.85,8.11c11.17,16.59,16.42,35.33,20,54.69c0.46,2.48,0.52,4.96-0.02,7.45c-0.64,9.35-0.6,18.69,0,28.03
			c-1.09,9.5-3.18,18.71-8.31,26.99c-2.05,0.9-4.12,0.92-6.19,0.08c-2.13-7.78-2.35-8.2-7.25-13.52c1.68,2.3,3.45,4.56,4.37,7.31
			c1.2,3.6,0.39,4.96-3.47,5.05c-7.65,0.17-15.3,0.07-22.95,0.04c-2.24-0.01-4.44,0.14-6.61,0.78c-12.23,0.3-24.43,0.55-36.66-0.25
			c-8.3-0.54-16.64-0.75-24.96-1.15c-2.05-0.1-4.22,0.29-5.94-1.29c0.71-3.05,2.88-0.07,3.54-1.11c-2.37-0.53-2.54-0.6-1.26-3.52
			c4.68-10.66,7.1-21.86,8.59-33.35c1.16-8.97-0.5-17.64-1.57-26.4c1.49,10.8,1.49,21.57,0.1,32.43c-1.14,8.91-3.8,17.34-6.71,25.76
			c-0.84,2.42-1.97,4.58-4.17,6.05c-7.48,1.1-15.02,0.99-22.46,0.13c-4.52-0.52-9.24,0.69-13.56-1.41c0.23-3.12,2.75-0.63,3.62-1.5
			c0.3-0.08,0.07,0.07-0.25-0.07c-2.23-0.95-6.01,2.47-6.85-2.18c-0.77-4.24,2.58-9.58,6.24-10.53c0.91-0.24,1.85-0.36,3.09-0.48
			c-6.36-0.81-6.51-0.99-5.77-7.01c0.36-2.91,0.14-5.84,0.08-8.78c0.06,4.59-0.62,9.07-1.79,13.49c-1.39,5.24-7.06,6-10.07,9.73
			c2.37-1.16,4.64-4.33,6.92-2.79c2.82,1.89,0,5.08-0.23,7.7c-0.11,1.29-0.13,2.91-2,3.24c-3.52-1.29-7.36-1.09-10.87-2.42
			c-0.64-0.62-0.83-1.38-0.77-2.38c1.36,18-4.46,34.24-11.56,50.15c-4.58,10.27-9.75,20.31-11.26,31.67
			c-0.67,4.71-0.58,9.43-0.06,14.14c1.12,11.74,5.98,21.69,14.43,29.92c-0.17,1.5-0.98,1.93-2.29,1.25
			c-1.22-0.64-2.39-1.38-3.58-2.07c-5.49-0.37-8.52-4.33-11.64-8.07c-0.77-0.92-1.25-2.12-1.78-3.24c-1.7-4.07-3.76-7.99-5.2-12.16
			c-2.04-5.92-3.06-12-2.63-18.29c0.11-1.64,0.12-3.31-0.42-4.92c-0.95-5.67,2.58-10.06,4.45-14.87c3.37-8.67,8.6-16.43,12.67-24.77
			c4.18-8.56,5.34-17.68,5.06-27.07c-0.03-1.02-0.49-1.86-1.12-2.62c-0.66-0.83-1.35-1.65-1.39-2.79c0.19-3.78-2.55-5-5.41-5.88
			c-9.52-2.91-21.14,2.58-25.1,11.73c-1.84,4.26-2.84,8.74-3.22,13.32c-0.27,3.24-1.44,4.72-4.79,3.39c-0.4-0.15-0.78-0.35-1.13-0.6
			c-8.02-7.2-15.21-15.02-19.01-25.39c-1.5-4.08-2.59-8.2-2.47-12.58c-0.01-2.63-0.2-5.26-0.03-7.89c0.1-1.6-0.08-3.43,1.98-4.14
			c1.68,0.13,1.75,1.54,2.01,2.69c0.94,4.09,2.81,7.72,5.26,11.08c0.6,0.42,1.55,2.08,1.68-0.03c0.13-2.17-0.72-4.35-0.97-6.55
			c-0.18-1.6-1.07-3.54,0.86-4.48c1.65-0.81,2.83,0.74,3.86,1.79c2.59,2.64,5.79,4.26,9.11,5.68c1.1,0.47,2.57,1.31,3.43,0.1
			c0.81-1.14-0.71-1.89-1.38-2.67c-1.35-1.57-2.63-3.22-4.22-4.59c-7.91-10.36-14.17-21.62-18.66-33.85
			c-0.58-1.57-1.13-3.15-1.04-4.87c6.79-29.26,21.43-53.58,45.54-71.92c6.87-5.22,13.43-10.8,21.17-14.86
			c10.68-5.6,21.9-8.83,33.93-9.35c0.97-0.04,1.96,0.05,2.65-0.32c-2.47,0.09-5.27,1.19-7.83-0.65
			C218.75,28.02,225.72,26.45,232.83,26.84z"/>
		<path class="st3" d="M124.62,326.11c-0.91-2-1.81-3.99-2.72-5.99c-0.31,6.03,1.81,11.56,3.39,17.28c-3,0.69-4.97-0.58-6.62-2.64
			c-1.34-3.14-4.46-4.79-6.16-7.78c-7.84-13.71-10.07-28.63-10.78-44.07c-0.63-13.55,1.08-27,2.13-40.4
			c0.99-12.69,2.85-25.41,4.9-38.05c0.82-5.06,1.36-10.17,2.29-15.22c0.28-1.54,0.44-3.22,2.23-3.66c1.99-0.5,2.63,1.26,3.27,2.58
			c3.71,7.6,8.53,14.33,14.94,19.92c1.5,1.31,2.89,2.6,4.98,2.76l-0.01,0c5.01,1.47,7.35,5.05,8.14,10
			c0.74,4.63,4.45,7.31,7.41,10.37c2.41,2.5,3.33,4.71,2.72,8.47c-0.95,5.86-2.86,11.37-4.82,16.81
			c-4.44,12.29-6.26,24.99-5.39,37.8c0.84,12.49,6.75,23.06,16.09,31.64c1.86,1.71,4.66,2.81,4.94,5.91
			c-2.43,3.01-4.05,3.07-8.13,0.29l0.05,0.03c-4.88-0.21-8.65-3.03-12.29-5.71c-3.72-2.75-7.2-5.95-8.86-9.3
			c1.51,3.65,3.69,8.07,7.07,11.89c2.37,2.68,1.34,4.82-2.2,4.92c-3.62,0.11-7.27-0.41-10.77-1.21
			C127.13,332,125.69,329.07,124.62,326.11z"/>
		<path class="st21" d="M136.45,210.85c-1.42,1.84-2.25,1.72-4.11-0.07c-7.16-6.89-13.64-14.19-17.42-23.54
			c-0.26-0.65-0.75-1.39-1.51-1.03c-0.53,0.25-1.07,0.98-1.15,1.57c-0.93,6.56-1.47,13.18-2.7,19.68
			c-2.08,10.98-2.02,22.25-4.69,33.14c-0.1,0.4-0.24,0.82-0.23,1.22c0.36,15.55-3.08,30.99-1.63,46.54
			c1.21,12.91,3.3,25.63,10.06,37.21c1.63,2.78,3.31,5.28,5.47,7.57c0.46,0.49,1.08,1.01,0.13,1.64
			c-10.13-7.51-13.65-18.69-16.51-30.14c-0.89-3.57-2.22-7.15-1.69-10.97c1.1-3.28-0.05-6.57-0.14-9.83
			c-0.19-6.47,0.92-12.92,0.19-19.38c-0.84-5.01,1.29-9.91,0.59-14.92c-1.19-2.29-0.36-4.68-0.09-6.95
			c1.03-8.55,1.99-17.12,3.01-25.67c1.08-8.99,3.56-17.68,5.97-26.37c0.95-3.71,1.07-7.54,1.86-12.14c-0.6,2.24-0.46,3.71-0.7,5.13
			c-0.29,1.77-0.56,3.53-0.76,5.31c-2.46,8.21-3.62,16.9-8.67,24.15c-4.49,6.46-8.39,13.47-15.39,17.79
			c-3.03,0.28-3.49-1.12-2.17-3.48c1.03-1.84,2.68-3.2,4.05-4.77c7.72-8.85,13.45-18.77,16.51-30.15c2.27-7.91,3.88-15.89,3.75-24.2
			c-0.16-9.99-0.13-19.98,0.03-30.37c-2.16,7.07-4.35,13.76-5.28,20.77c-0.03,0.42-0.08,0.83-0.2,1.24
			c-0.37,1.3-0.97,2.44-2.59,2.05c-1.5-0.36-1.24-1.72-1.17-2.77c0.38-6.01,1.77-11.86,3.26-17.65c1.64-6.37,4.28-12.38,7.84-17.94
			c1.78-2.78,2.41-5.91,3.07-9.05c0.61-2.9-0.83-4.32-3.52-4.4c-4.76-0.15-9.42,0.9-12.65,4.46c-11.1,12.25-19.29,26.05-23.55,42.28
			c-3.21,12.25-5.56,24.72-9.7,36.75c-3.1,9.01-8.48,16.55-13.96,24.1c-3.71,2.9-6.54,6.78-10.65,9.29c-2.29,1.4-0.9,2.69,0.8,3.65
			c1.33,0.75,2.77-0.54,4.07,0.3c1.33,1.84,3.29,2.45,5.4,2.67c8.61,0.91,17.12,0.58,25.45-2c2.47-0.76,4.9-2.06,7.6-0.82
			c0.42,0.71,0.16,1.34-0.28,1.9c-3.53,4.52-17.34,8.11-23.06,6.01c-8.14-0.27-16.24-0.7-22.95-6.19c-2.07-1.69-3.88-3.51-0.97-6.07
			c14.61-12.81,23.97-28.72,28.27-47.63c2.62-11.54,5.28-23.1,9.45-34.18c4.4-11.69,11.14-22.13,19.57-31.35
			c6.87-7.51,15.87-9.27,23.39-4.9c5.12-16.27,14.74-29.92,25.19-43.02c4.83-6.06,10.36-11.51,17.31-15.27
			c1.49-0.35,1.74,0.55,1.49,1.64c-0.28,1.25-0.93,2.52-2.01,3.08c-4.68,2.46-7.5,7-11.62,10.06c-2.47,1.83-3.45,4.66-5.23,6.94
			c-11.98,15.43-21.73,31.96-24.37,51.8c-0.09,0.68-0.36,1.35,0.21,1.95c1.79,8.02,5.31,15.32,9.41,22.35
			c3.18,5.44,6.58,10.76,9.89,16.13c-2.98,1.17-4.34-1.18-5.74-2.89c-5.16-6.33-10.3-12.71-13.01-20.67
			c0.12,6.19,1,12.21,2.44,18.11c1.01,4.16,1.94,8.36,3.48,12.41c0.55,1.44,2.12,3.54-0.62,4.78c-3.31-4.18-5.93-8.65-5.87-14.22
			c-4.04-3.76-2.33-8.97-3.81-12.8c-0.07,8.07-0.41,16.8,2.13,25.34c0.39,11.41,6,20.42,13.25,28.65
			C131.2,205.5,133.87,208.14,136.45,210.85z"/>
		<path class="st2" d="M86.37,230.25c12.22-11.15,19.93-24.86,23.42-40.98c0.3-0.14,0.62-0.26,0.85,0.1c0.09,0.15,0,0.37-0.14,0.58
			c-4.51,18.11-6.69,36.58-8.56,55.1c-0.15,1.5-0.55,2.98-0.84,4.46c-7.73,4.83-16.29,5.7-25.12,5.19
			c-4.02-0.23-7.97-0.85-11.84-2.03c-2.29-0.7-4.33-1.74-6.17-3.3c-4.53-3.85-4.57-4.38-0.12-8.37c0.73-0.65,1.45-1.31,1.56-2.37
			c8.57-0.53,16.93-1.67,23.75-7.62C84.03,229.96,85.4,230.91,86.37,230.25z"/>
		<path class="st22" d="M124.62,326.11c3.87,7.56,11.14,6.19,17.69,6.7c0.67,0.05,1.51,0.13,1.69-0.74c0.19-0.92-0.56-1.5-1.14-2.09
			c-4.33-4.35-6.76-9.66-7.84-15.79c5.33,8.73,13.35,14,22.41,17.96c-1.8,2.65,0.32,4.68,1.27,6.77c1.08,2.39,2.8,4.46,4.65,6.37
			c0.83,0.86,2.07,1.78,1.34,3.2c-0.68,1.33-2.13,0.99-3.35,1.16c-8.25,1.09-13.99-2.17-17.27-9.79c-0.16-0.37-0.43-0.7-0.67-1.04
			c-0.07-0.1-0.23-0.12-0.35-0.18c-0.34,2.99,0.37,6.3,2.85,12.71c0.38,0.99,0.71,1.84-0.11,2.66c-0.81,0.81-1.73,0.73-2.65,0.1
			C133.13,347.31,126.96,337.97,124.62,326.11z"/>
		<path class="st2" d="M157.38,332.13c1.73,0.38,3.46,0.84,5.2,1.13c1.27,0.21,2.58,0.2,2.45-1.71c0.2-1.03,0.8-1.94,0.91-2.99
			c-0.43-1.77-1.72-3.3-1.43-5.25c-0.37-1.92-1.25-3.71-1.44-5.67c-0.09-0.92-0.47-2.04,0.83-2.48c0.97-0.33,1.59,0.4,2.09,1.04
			c2.65,3.4,5.29,6.8,8.8,9.4c0.35,0.22,0.68,0.48,1.05,0.67c5.48,2.69,5.48,2.68,5.55-2.9c0.67-0.24,0.98,0.17,1.25,0.68
			c1.78,3.35,4.05,5.55,8.4,5.04c1.46-0.17,3.88-0.92,4.98,1.41c-1.58,3.31-3.17,6.63-4.75,9.94c-1.79-2.61-3.58-5.21-5.66-8.25
			c-0.84,2.15,0.52,3.27,0.8,4.59c0.31,1.47,1.18,3.4-0.68,4.07c-3.11,1.12-2.09,2.2-0.34,3.48c1.36,0.99,2.27,2.1,1.65,3.84
			c-0.78,2.18-2.76,1.85-4.26,1.5c-7.02-1.65-13.36-4.79-18.71-9.63C161.52,337.73,158.63,335.58,157.38,332.13z"/>
		<path class="st23" d="M117.16,125.52c-2.39-4.92-0.11-9.6,1.36-14c1.97-5.86,3.37-11.95,6.7-17.38
			c4.88-7.98,9.71-15.96,15.37-23.43c4.8-6.33,9.9-12.27,16.75-16.56c0.75-0.47,3.35-1.99,1.32-4.11
			c15.95-11.43,33.32-19.43,53.03-21.71c2.85,0,5.69,0,8.97,0c-1.23,1.78-2.5,1.73-3.74,1.8c-15.64,0.92-29.86,5.98-42.58,15.01
			c-13.06,9.28-25.3,19.59-35.23,32.24c-8.03,10.23-13.71,21.83-17.68,34.23C119.95,116.24,118.58,120.89,117.16,125.52z"/>
		<path class="st24" d="M100.51,264.44c1.64,5.02,0.63,10.17,0.64,15.25c0.01,4.65,0.99,9.39-0.69,13.97
			C99.61,283.92,99.73,274.18,100.51,264.44z"/>
		<path class="st25" d="M295.53,373.9c-0.23-11.39-2.76-22.47-4.49-33.66c-0.23-1.5-0.34-3.01-0.51-4.52
			c0.13-1.17,0.26-2.35,0.39-3.52c1.56,12.77,6.95,24.44,10.1,36.7c0.78,3.06,2.36,5.95,2.18,9.24c-2.69,0.01-5.51,0.59-7.72-1.65
			C295.49,375.62,295.51,374.76,295.53,373.9z"/>
		<path class="st26" d="M349.29,249.33c1.51,1.74,0.21,2.92-0.82,4.15c-6.08,6.88-14.17,10.41-22.58,13.25
			c-3.77,1.28-7.78,1.86-11.69,2.75c-1.22-1.09-3.14-0.38-4.28-1.68c0.67-1.25,1.88-1.59,3.14-1.82c13.18-2.34,25.26-7,35.06-16.5
			C348.41,249.2,348.87,249.23,349.29,249.33z"/>
		<path class="st27" d="M349.29,249.33c-9.45,10.51-21.99,14.86-35.31,17.67c-1.35,0.29-2.71,0.54-4.07,0.8
			c-14.71,2.33-29.54,2.72-44.39,2.54c-2.88,2.13-5.93,0.57-8.88,0.3c-6.64-0.6-13.26-1.4-19.83-2.55c-1.1-0.19-2.23-0.29-2.93-1.35
			c-2.29,0.46-4.39-0.2-6.49-1.05c-11.07-4.48-22.81-7.2-33.46-12.74c-5.27-2.74-10.41-5.71-15.61-8.57
			c-3.51-0.91-1.4-2.98-0.73-4.42c3.93-8.46,7.86-16.95,10.24-25.98c2.18-8.3,4.22-16.68,3.95-25.39c-0.04-1.19-0.34-2.56,1.02-3.38
			c3.04,0.14,6.07,0.32,9.11,0.4c1.26,0.03,1.72,0.62,1.64,1.78c1.18,1.4-0.25,2.51-0.2,3.51c0.53-1.2,1.13-2.73,2.04-4.09
			c1.18-1.75,2.7-2.08,4.49-0.91c7.81,0.97,15.66,1.21,23.52,1.31c4.55,0.06,9.11,0.14,13.66,0.21c0.26-0.38,0.48-0.35,0.65,0.08
			c4.77,1.27,9.69,0.9,14.54,1.14c18.11,0.92,36.23,1.83,54.38,1.24c5.82-1.01,11.64,0.03,17.45,0.03c4.6,0,9.2,0.07,13.79-0.05
			c1.14-0.03,2.23-0.13,3.13,0.74c2.17,0.11,4.34,0.59,6.52,0.09c1.09-0.48,2.07-1.21,3.24-1.54c1.21,5.68,2.42,11.33,2.57,17.18
			c0.27,11.19-2.29,21.77-6.53,32.03C354.32,242.06,352.46,246.15,349.29,249.33z"/>
		<path class="st28" d="M167.37,328.84c-0.54,1.11-1.08,2.22-2.34,2.71c-3.06-3.32-6.67-6.05-9.66-9.49
			c-7.24-8.33-11.73-17.92-12.09-28.84c-0.43-13.05,1.12-25.92,6.1-38.29c2.29-5.7,3.33-11.91,4.89-17.91
			c0.46-1.76-0.79-2.8-1.88-3.89c-4.28-4.28-9.03-8.09-9.64-14.97c-0.21-2.37-1.74-5.37-5.19-5.76c-0.84-0.09-1-0.85-1.11-1.56
			c2.93,0.86,4.01,0.39,4.35-3.26c0.96-10.24,3.86-19.72,14.63-24.2c5.45-2.26,11.05-2.71,16.67-0.68c2.45,0.89,4.35,2.46,4.84,5.27
			c0.18,1.05-0.51,1.09-1.21,1.19c-3.59-0.74-6.32-3.5-10.5-3.3c-9.19,0.45-15.8,4.74-18.54,13.46c-2.78,8.82-2.2,17.26,3.01,25.25
			c2.67,4.1,6.56,6.33,10.77,8.29c1.74,0.81,2.97,0.14,3.88-1.35c6.46-10.7,12.32-21.59,12.1-34.63c-0.03-2.03-0.53-4.21,0.91-6.05
			c3.52,3.85,1.8,8.46,1.56,12.69c-0.75,12.87-7.61,23.39-13.42,34.42c-3.79,7.21-8.13,14.47-8.94,22.95
			c0.01,6.74-0.93,13.48,1.23,20.16c1.8,5.58,4.71,10.6,7.03,15.91c3.31,4.71,7.36,8.58,12.69,10.99c-0.42,2.37-1.79,1.46-3.1,0.92
			c-3.02-1.23-5.6-3.03-7.75-5.48c-0.63-0.72-1.39-1.51-2.5-1.06c-1.18,0.48-0.86,1.63-0.87,2.55c-0.03,4.71,2.04,8.4,4.93,12.09
			c2.22,2.83,4.8,5.45,6.58,8.64c-5.17-1.65-7.48-6.33-10.93-10.97c-0.08,3.81,2.02,6.26,1.76,9.15c-2.07,0.08-2.3-1.65-2.96-2.98
			c-2.74-5.53-3.55-11.4-3.04-17.48c0.35-4.15-0.83-7.61-2.73-11.43c-5.63-11.27-7.96-23.13-3.2-35.52
			c2.09-5.43,2.69-11.4,5.83-16.48c0.42-0.67,0.76-1.73-0.27-2.16c-0.88-0.37-1.55,0.33-1.97,1.13c-0.26,0.5-0.36,1.05-0.46,1.6
			c-1.61,8.94-5.05,17.41-6.71,26.33c-2.44,13.19-4.64,26.36,0.61,39.48C154.33,315.28,159.92,322.72,167.37,328.84z"/>
		<path class="st29" d="M232.81,269.42c0.12-0.63-1.28-1.3,0.05-1.89c4.59-0.16,8.97,1.21,13.43,1.96
			c5.3,0.89,10.64,1.58,15.94,2.44c4.61,1.09,9.31,0.19,13.94,0.59c1.48,0.13,3.96-0.53,3.19,2.56c-4.34,5.1-6.52,11.67-11.23,16.54
			c-0.77,0.8-1.36,1.76-2.2,2.51c-3.35,3.02-4.49,2.86-7.56-0.38c-6.6-6.99-14.27-12.84-21.27-19.4
			C235.5,272.84,233.44,271.76,232.81,269.42z"/>
		<path class="st30" d="M192.8,185.23c0.11,20.02-5.68,38.49-14.78,56.08c-0.64,1.25-1.36,2.21,0.31,3.09
			c-2.85,2.13-3.64,5.55-4.83,8.53c-5.45,13.67-4.43,27.4,0.92,40.81c1.65,4.15,4.32,7.97,7.42,11.33c1,1.08,1.7,2.17,1.52,3.69
			c-7.52-3.88-10.22-11.34-13.13-18.41c-1.37-3.32-2.39-7.07-1.97-10.89c-0.63-5.02-0.65-10.04,0.01-15.06
			c0.63-7.52,2.79-14.64,6.15-21.33c6.66-13.25,12.23-26.92,15.31-41.41c1.51-7.09,1.96-14.49,0.63-22.04
			C193.36,180.75,192.25,183.34,192.8,185.23z"/>
		<path class="st31" d="M232.81,269.42c9.39,8.26,19.26,16,27.56,25.41c1.41,1.6,1.98,1.03,3.1,0.05
			c4.98-4.39,8.66-9.75,11.69-15.58c0.77-1.49,1.47-2.99,2.92-3.96c2.62,0.88,1.88,2.42,0.8,4.03c-3.3,3.08-4.15,7.71-7.21,11.02
			c-8.21,8.89-7.95,9.39-17.76,1.54c-7.27-5.81-14.09-12.15-20.57-18.83c-0.99-1.02-2.61-1.78-2.22-3.68
			C231.67,269.41,232.24,269.41,232.81,269.42z"/>
		<path class="st32" d="M262.14,272.88c-9.93-0.86-19.63-2.97-29.28-5.35c0.34-0.25,0.68-0.51,1.02-0.76
			c10.54,1.2,21.09,2.39,31.63,3.59c5.2,1.66,10.55,0.32,15.81,0.77c0.67,0.06,1.8-0.51,1.82,0.8c0,0.34-0.76,0.69-1.17,1.03
			C275.36,273.39,268.75,273.34,262.14,272.88z"/>
		<path class="st33" d="M210.19,279.41c0.29,0.26,1.53,0.22,0.74,0.78c-1.88,1.34-1.91,3.39-2.54,5.22
			C205.02,282.22,207.87,280.9,210.19,279.41z"/>
		<path class="st34" d="M262.14,272.88c6.61,0.03,13.23,0.05,19.84,0.08c1.41,2.47,3,4.86,4.15,7.44c0.7,1.57,0.78,3.45-0.46,5.02
			c-2.27-2.02-4.53-4.04-6.8-6.06c-0.61-1.28,0.63-2.92-0.8-4.03c-0.05-0.55,2.23-1.54-0.23-1.62c-3.76-0.12-7.53-0.01-11.29-0.11
			C265.07,273.55,263.47,273.99,262.14,272.88z"/>
		<path class="st35" d="M360.77,189.19c-0.6,1.52-1.52,2.37-3.24,1.54c3.63-8.31,6.76-16.77,7.66-25.89
			c0.09-9.75,0.01-19.51,0.01-29.26c-0.48-12.47-3.86-24.31-7.95-35.98c-3.16-9.03-6.86-17.84-12.19-25.86
			c-0.42-0.9,0.06-1,0.78-0.89c13.2,17.53,20.08,37.39,22.8,59.06C371.14,151.81,366.51,170.52,360.77,189.19z"/>
		<path class="st36" d="M345.84,72.85c-0.26,0.3-0.52,0.59-0.78,0.89c-2.01-2.35-3.89-4.8-5.33-7.56c0.13-0.06,0.25-0.12,0.38-0.19
			C342.35,67.99,344.2,70.33,345.84,72.85z"/>
		<path class="st37" d="M177.34,190.83c1.6,16.1-4.8,29.75-13.05,42.87c-0.84,1.34-1.36,1.3-2.87,0.8
			c-20.06-6.7-20.75-31.4-12.12-42.65c5.58-7.27,20.08-10.72,26.4-2.67C176.26,189.73,176.8,190.28,177.34,190.83z"/>
		<path class="st38" d="M326.05,128.91c4.97-6.68,9.99-13.32,14.87-20.07c1.37-1.9,2.08-2.05,3.46,0.04
			c4.3,6.5,7.58,13.58,11.68,20.18c1.27,2.04-0.03,3.11-1.06,4.31c-5.15,6-10.35,11.95-15.81,18.23
			c-3.77-5.29-5.92-11.34-9.83-16.29C327.27,133.69,325,132.15,326.05,128.91z"/>
		<path class="st3" d="M123.02,175.73c0.99-2.26-0.25-4.16-0.96-6.16c-3.13-8.91-4.63-18.17-5.69-27.5
			c-0.16-1.39-0.56-3.01,0.59-4.4c1.67,0.47,1.97,2.01,2.34,3.18c2.5,8.04,8.04,14.15,13.03,20.6c0.99,1.29,2.33,2.39,4.13,2.55
			c3.23,1.31,4.49,4.67,6.97,6.76c0.58,0.49,0.35,1.29-0.25,1.81c-0.94,0.82-2.13,0.84-3.16,0.51c-4.22-1.37-8.19-3.21-11.43-6.4
			c-0.92-0.91-1.75-2.84-3.18-2.13c-1.61,0.79-0.22,2.42,0,3.69c0.34,2.03,0.81,4.07,0.89,6.11c0.05,1.12,1.33,2.65-0.21,3.39
			C124.4,178.55,123.82,176.78,123.02,175.73z"/>
		<path class="st39" d="M207.94,145.87c0,0.13,0.02,0.27,0,0.4c-0.08,0.51-10.24,9.06-10.79,9.06c-0.86,0.01-1.12-0.67-1.45-1.27
			c-0.61-1.1-1.26-2.17-1.83-3.28c-1.56-3.06-5.63-6.62-4.26-9c2.29-3.99,6.89-6.67,10.53-9.89c0.62-0.55,1.32-0.57,1.69,0.25
			C203.89,136.71,205.91,141.3,207.94,145.87z"/>
		<path class="st40" d="M247.72,187.53l-0.34,0.07c0,0-0.31-0.15-0.31-0.15c9.77-21.61,12.69-44.06,7.95-68.1
			c4.03,3.4,4,7.63,4.61,11.58c2.23,14.42-0.4,28.35-4.12,42.21c-0.99,3.68-2.62,7.03-4.4,10.31c-1.22,2.25-1.37,3.56,1.72,3.79
			C251.12,187.34,249.42,187.43,247.72,187.53z"/>
		<path class="st41" d="M209.88,185.93c-2.36-0.32-3.83,0.49-4.6,2.93c-0.56,1.79-1.36,3.61-3.7,5.9c0.84-3.14,1.4-5.25,1.96-7.35
			c0.85-3.29,1.7-6.58,2.61-10.12c-3.48-0.15-5.03,2.6-7.39,3.75c-0.79,0.39-1.52,1.61-2.4,0.27c-0.59-0.89,0.14-1.61,0.76-2.14
			c1.47-1.26,2.84-2.92,4.57-3.58c7.12-2.72,6.79-9.08,7.61-14.86c0.27-1.91,0.03-3.9,0.09-5.85c0.03-0.99,0.25-2.14,1.49-2.11
			c1.14,0.02,1,1.17,0.97,1.95c-0.14,3.89,0.65,7.86-0.43,11.64c-0.99,3.48,0.09,4.71,3.53,4.34c0.69-0.07,1.4-0.05,2.09,0.01
			c0.93,0.07,2.17-0.12,2.1,1.34c-0.06,1.1-1.09,1.21-1.91,1.12c-6.15-0.68-8.08,3.04-9.15,8.19c-0.54,2.62-0.19,3.71,2.6,3.58
			c1.78-0.09,3.56-0.02,5.35,0.58C213.99,185.65,211.94,185.79,209.88,185.93z"/>
		<path class="st42" d="M326.05,128.91c1.1,2.14,2.2,4.27,3.3,6.4c-1.43,2.31-1.09,4.8-0.76,7.3c1.85,13.77-1.04,26.7-7.04,39.05
			c-0.97,1.99-3.57,4.09-6.54,5.71c2.2-5.01,5.07-9.15,6.75-13.89c2.72-7.67,4.43-15.45,4.04-23.59c-0.29-6.06,1.13-12.25-1.4-18.16
			C323.81,130.33,324.6,129.33,326.05,128.91z"/>
		<path class="st43" d="M351.01,190.63c-11.46-0.24-22.92-0.48-34.37-0.72c1.69-1.51,3.74-0.74,5.61-0.77
			c7.67-0.1,15.35-0.09,23.02-0.02c2.59,0.02,3.64-0.48,2.43-3.36c-1.38-3.27-3.37-6.02-5.72-8.58c-0.47-0.51-1.07-1.08-0.58-1.78
			c0.48-0.69,1.32-0.54,1.86-0.09c4.34,3.67,7.65,8.04,8.83,13.73C352.18,189.47,351.39,190.1,351.01,190.63z"/>
		<path class="st44" d="M321.2,103.99c4.59,8.45,4.57,8.67-0.89,15.45C315.26,112.39,315.32,111.06,321.2,103.99z"/>
		<path class="st3" d="M115.48,174.05c-3.29-2.81-2.1-6.94-3.01-10.43c-0.93-3.54-0.35-13.75,0.76-16.54
			c3.03,4.46,1.67,9.96,3.93,14.44c-2.03,0.27-1.64,1.85-1.65,3.14C115.46,167.79,115.48,170.92,115.48,174.05z"/>
		<path class="st45" d="M164.81,296.96c-5.39-6.97-7.94-15.19-9.8-23.56c-0.92-4.13,0.76-8.36,1.54-12.51
			c0.93,0.88,0.77,2.06,0.68,3.12c-0.91,10.54,2.1,20.18,6.71,29.45C164.49,294.57,165.19,295.62,164.81,296.96z"/>
		<path class="st46" d="M365.2,135.57c1.01,9.75,1.14,19.51-0.01,29.26c-1.17-0.95-0.79-2.27-0.8-3.46
			c-0.03-7.44-0.03-14.89,0-22.33C364.4,137.84,364.04,136.52,365.2,135.57z"/>
		<path class="st3" d="M168.28,264.41c0,5.02-0.01,10.04-0.01,15.06C166.91,274.45,166.91,269.43,168.28,264.41z"/>
		<path class="st47" d="M118.46,306.54c-2.89-6.19-4.38-12.68-4.55-19.27c-0.32-12.67-0.65-25.38,0.08-38.02
			c0.63-10.87,0.29-21.89,2.98-32.62c0.49-1.98,0.14-4.16,0.2-6.25c0.03-1.08-0.32-2.44,0.88-3.02c1.2-0.57,2,0.72,2.88,1.26
			c1.89,1.16,3.55,2.68,5.43,3.85c1.41,0.88,1.91,2.02,1.63,3.51c-1.18,6.38-1.86,12.84-3.03,19.23
			c-1.94,10.59-3.13,21.32-4.41,32.01c-1.5,12.55-0.82,25.22-1.74,37.81C118.78,305.56,118.58,306.05,118.46,306.54z"/>
		<path class="st48" d="M141.67,308.82c-8.96-26.77-4.17-54.1-3.37-81.28c1.31-0.12,1.25,0.83,1.49,1.61
			c2.81,9.19,1.98,18.41,1.16,27.84c-1.06,12.08-1.18,24.29,0.27,36.42C141.83,298.52,142.98,303.63,141.67,308.82z"/>
		<path class="st20" d="M86.37,230.25c-1.07,0.26-2.14,0.52-3.21,0.78c-5.83,0.11-10.98,3.14-16.79,3.65
			c-6.78,0.6-13.46,0.6-20.19-0.4c-2.2-0.33-1.86-2.27-2.83-3.34c0.58-5.04,3.41-9.07,5.89-13.27c5.21-8.61,11.56-16.53,14.53-26.44
			c2.79-9.3,4.96-18.74,7.07-28.18c4.21-18.84,12.81-35.25,25.57-49.61c2.59-2.91,11.85-5.55,15.53-4.29
			c2.3,0.79,3.31,1.8,2.89,4.81c-0.81,5.71-3.68,10.39-6.27,15.22c-5.08,9.48-6.96,19.77-8.19,30.25c-0.08,0.7-0.83,1.89,0.58,1.87
			c1.35-0.02,1.06-1.36,1.15-2.29c2.27,0.32,1.78,2.19,1.8,3.55c0.08,4.59,0.62,9.13,1.7,13.55c1.41,5.78,0.98,11.46-0.16,17.18
			c-3.31,13.16-10.62,23.96-19.83,33.67C84.47,228.15,82.57,229.99,86.37,230.25z"/>
		<path class="st3" d="M105.44,193.29c1.07-9.64-1.94-18.9-2.72-28.37c-0.16-1.95,1.34-4.15-0.62-5.91
			c0.66-8.2,3.62-15.82,6.03-23.58c0.2-0.65,0.65-1.29,1.51-1.13c0.73,0.13,0.72,0.75,0.65,1.3c-1.51,12.91-0.06,25.88-0.75,38.79
			C109.19,180.84,107.81,187.2,105.44,193.29z"/>
		<path class="st49" d="M49.24,217.67c-0.91,4.89-4.25,8.7-5.89,13.27c-0.98,1.5-2.16,1.89-3.68,0.72c-1.2-0.92-2.43-1.8-4.15-3.07
			C40.7,225.44,44.54,221.05,49.24,217.67z"/>
		<path class="st50" d="M110.5,189.95c-0.24-0.23-0.47-0.46-0.71-0.68c0.45-3.64,0.89-7.29,1.34-10.93
			C112.45,182.36,111.51,186.16,110.5,189.95z"/>
		<path class="st3" d="M167.37,328.84c-4.71-1.23-7.55-4.95-10.16-8.5c-1.68-2.28-3.34-4.75-4.69-7.27
			c-3.48-6.48-5.73-13.38-6.06-20.85c-0.68-15.92,3.6-30.95,7.89-46.01c0.68-2.39,1.54-4.77,1.37-7.32c-0.1-1.55,0.9-2.28,2.16-2.67
			c1.2-0.37,2.56-0.64,3.58,0.31c1.13,1.06,0.07,2.12-0.45,2.97c-4.01,6.61-5.26,14.2-7.51,21.4c-2.6,8.34-1.32,16.7,1.96,24.76
			c1.24,3.05,1.93,6.31,4.34,8.85c1.11,1.18,1.22,2.83,1.06,4.66c-0.7,7.79-0.24,15.47,3.22,22.71c0.38,0.79,0.76,1.46,1.53,1.89
			C164.56,326.03,167.49,326.91,167.37,328.84z"/>
		<path class="st51" d="M215.93,200.38c0.02-5.35,3.62-9.26,8.53-9.26c4.65,0,9.01,4.99,8.94,10.22c-0.06,4.2-4.28,8.63-8.12,8.53
			C219.68,209.72,215.91,205.9,215.93,200.38z"/>
		<path class="st51" d="M317.52,204.19c0-5.31,3.69-9.28,8.64-9.27c5.04,0,8.87,4.42,8.82,10.14c-0.04,4.41-3.62,8.27-7.73,8.32
			C321.57,213.45,317.52,209.64,317.52,204.19z"/>
		<path class="st52" d="M202.34,212.59c1.06,0.09,3.01-0.36,4.87,0.54c1.68,0.81,3.17,1.51,3.03,3.86c-0.14,2.3-1.8,3.3-3.41,3.65
			c-3.72,0.81-7.48,0.26-10.84-1.57c-1.17-0.64-2.8-1.62-2.29-3.52c0.47-1.79,1.83-2.76,3.63-2.93
			C198.7,212.48,200.1,212.59,202.34,212.59z"/>
		<path class="st53" d="M288.99,225.04c-4.08-2.81-8.54-0.14-13.19,0.94c-3.42,0.8-6.64-0.19-9.06-2.98
			c-0.9-1.04-1.39-2.34-0.25-3.33c1.31-1.14,1.78,0.3,2.48,1.15c2.27,2.74,5.15,3.14,8.26,1.7c3.63-1.7,7.13-2.89,11.15-0.88
			c1.99,1,3.9,0.47,3.93-2.44c0.01-0.89,0.39-1.71,1.4-1.72c1.31-0.01,1.43,1.12,1.6,2.06C295.9,222.87,293.65,225.11,288.99,225.04
			z"/>
		<path class="st54" d="M344.34,215.07c3.27-0.49,5.95,1.53,8.76,2.89c1.91,0.92,1.24,2.48-0.03,3.72
			c-2.95,2.88-11.13,2.18-13.73-1.12c-0.86-1.09-1.22-2.21-0.6-3.45C339.9,214.78,342.08,214.98,344.34,215.07z"/>
		<path class="st55" d="M156.61,202.88c2.6-5.39,7.65-6.37,10.85-2.45c3.62,4.45,4.71,9.74,4.03,15.34
			c-0.24,1.96-1.32,3.75-3.17,4.7c-2.34,1.19-4.4,1.04-5.23-1.93c-1.12-4-0.76-7.78,2.26-10.88c0.98-1,2.97-1.25,1.36-3.33
			c-1.42-1.84-2.32-4.43-5.4-3.52C159.89,201.22,158.58,202,156.61,202.88z"/>
		<path class="st56" d="M168.44,208.5c0.23,1.47,0.37,2.11,0.42,2.75c0.19,2.36,0.32,4.73-1.81,6.42c-0.21,0.17-1,0.04-1.05-0.1
			c-0.77-2.47-0.67-4.87,0.88-7.07C167.2,210.06,167.55,209.64,168.44,208.5z"/>
	</g>
</g>
</svg>
