<?xml version="1.0" encoding="utf-8"?>
<!-- Generator: Adobe Illustrator 26.0.0, SVG Export Plug-In . SVG Version: 6.00 Build 0)  -->
<svg version="1.1" id="圖層_1" xmlns="http://www.w3.org/2000/svg" xmlns:xlink="http://www.w3.org/1999/xlink" x="0px" y="0px"
	 viewBox="0 0 400 400" style="enable-background:new 0 0 400 400;" xml:space="preserve">
<style type="text/css">
	.st0{fill:#669170;}
	.st1{fill:#A7C0D4;}
	.st2{fill:#212121;}
	.st3{fill:#212021;}
	.st4{fill:#F8E07E;}
	.st5{fill:#222122;}
	.st6{fill:#A8C0D4;}
	.st7{fill:#91A9B9;}
	.st8{fill:#93AAB9;}
	.st9{fill:#212120;}
	.st10{fill:#F6E17F;}
	.st11{fill:#FEE8CE;}
	.st12{fill:#211F1E;}
	.st13{fill:#20201F;}
	.st14{fill:#94ABBC;}
	.st15{fill:#F6F8F8;}
	.st16{fill:#98ADBE;}
	.st17{fill:#545D65;}
	.st18{fill:#444C52;}
	.st19{fill:#FBFCFC;}
	.st20{fill:#F8F9F9;}
	.st21{fill:#7D8185;}
	.st22{fill:#D3D6D8;}
	.st23{fill:#E8CFAD;}
	.st24{fill:#E7CFAE;}
	.st25{fill:#E8EDEF;}
	.st26{fill:#222222;}
	.st27{fill:#FDFDFD;}
	.st28{fill:#212122;}
	.st29{fill:#212223;}
	.st30{fill:#202122;}
	.st31{fill:#787778;}
	.st32{fill:#1F2022;}
	.st33{fill:#262727;}
	.st34{fill:#E6CFAE;}
	.st35{fill:#252526;}
	.st36{fill:#787777;}
	.st37{fill:#757475;}
	.st38{fill:#7A7877;}
	.st39{fill:#E5CEAE;}
	.st40{fill:#171718;}
	.st41{fill:#262524;}
	.st42{fill:#8897A4;}
	.st43{fill:#454C52;}
	.st44{fill:#8998A5;}
	.st45{fill:#8999A5;}
	.st46{fill:#E9EBEC;}
	.st47{fill:#B4B7B9;}
	.st48{fill:#FCE9CF;}
	.st49{fill:#242524;}
	.st50{fill:#E6D1B1;}
	.st51{fill:#DFCBAC;}
	.st52{fill:#C8C5B1;}
	.st53{fill:#141515;}
	.st54{fill:#F4C0DC;}
	.st55{fill:#555D64;}
	.st56{fill:#F9ECD1;}
	.st57{fill:#E9D3B1;}
	.st58{fill:#535B62;}
	.st59{fill:#F1E2C6;}
	.st60{fill:#55595B;}
	.st61{fill:#E3D5B9;}
	.st62{fill:#F0A4A3;}
	.st63{fill:#191919;}
	.st64{fill:#232325;}
	.st65{fill:#E6D0AF;}
	.st66{fill:#242424;}
	.st67{fill:#FAF5F9;}
	.st68{fill:#F3EAF0;}
	.st69{fill:#C9C2A9;}
</style>
<g>
	<path class="st0" d="M77.4,47.17c8.4-8.51,18.23-15.14,28.44-21.19C136.67,7.69,170.1-1.09,205.9,0.11
		c34.41,1.15,66.2,11.15,95.09,30.1c31.65,20.75,54.86,48.64,69.32,83.49c15.39,37.08,18.34,75.36,8.87,114.48
		c-8.13,33.59-24.56,62.58-48.95,86.94c-24.91,24.89-54.69,41.23-89.04,49.16c-0.67,0.16-1.33,0.35-2,0.53
		c-1.39-0.49-1.82-1.7-1.83-2.93c-0.08-7.38-1.19-14.66-1.74-22c-0.06-0.82,0.11-1.63,0.4-2.4c3.19-2.49,7.68-2.68,9.43,0.26
		c3.92,6.56,9.64,6.32,15.57,4.46c3.51-1.11,6.3-1.34,9.73,0.5c5.31,2.85,9.69,1.28,12.56-3.94c1.24-2.25,2.74-3.52,5.31-4.02
		c6.13-1.2,6.68-1.91,7.49-8.31c0.17-1.35,0.89-2.24,1.71-3.19c3.59-4.15,3.12-8.83-1.69-11.37c-3.6-1.9-5.42-3.95-5.04-8.27
		c0.32-3.53-3.14-6.5-7.38-7.04c-3.16-0.4-6.35-0.44-9.34,1.02c-1.55,0.76-3.22,1.2-4.7-0.01c-3.7-3.04-7.77-2-11.41-0.51
		c-7.18,2.94-12.85,8.63-20.17,11.52c-3.01,1.19-3.94,5.22-6.95,6.82c-2-1.62-2.05-3.79-1.39-5.95c1.01-3.31-0.53-5.09-3.24-6.57
		c-2.32-1.27-5.35-1.57-6.56-4.49c0.4-1.36,1.5-1.32,2.59-1.31c4.97,0.57,9.47-1.57,14.14-2.58c10.17-2.19,19.87-5.88,29.12-10.66
		c11.04-5.71,19.53-13.95,24.7-25.33c1.51-3.32,3.74-5.04,7.25-6.02c20.23-5.61,32-24.22,28.89-45.17
		c-0.85-5.7-2.3-11.07-6.06-15.63c-1.71-2.07-2.02-4.2,0.4-6.12c15.27-12.08,18.15-28.66,16.53-46.65
		c-0.68-7.56-2.23-15.03-3.68-22.49c-3.47-17.91-12.88-32.83-23.81-46.86c-8.94-11.47-18.81-22.2-31.02-30.3
		c-17.24-11.44-35.9-19.59-56.58-22.29c-8.71-1.13-17.34,0.67-25.94,2.03c-1.36,0.21-2.68,0.78-4.07,0.7
		c-0.81-0.05-1.61-0.36-1.31,0.98c-2.11,1.75-4.7,1.06-7.06,1.33c-4.59,0.51-8.92,2.33-13.55,2.52c-10.58-4.8-20.98-2.85-31.32,0.88
		c-15.47,1-28.75,8.43-42.43,14.62c-5.16,2.33-10.01,5.32-15.47,6.98C80.02,47.42,78.74,48.3,77.4,47.17z"/>
	<path class="st0" d="M119.83,350.08c-9.85-3.5-18.41-9.36-26.79-15.36c-28.63-20.49-50-46.95-63.38-79.55
		c-15.11-36.82-18.38-74.71-9.01-113.54c6-24.87,16.5-47.61,32.09-67.94c0.31-0.41,0.39-0.99,0.57-1.49
		c0.53-0.75,1.33-0.97,2.16-1.04c1.52-0.12,3.4-0.47,4.24,0.91c1.06,1.74-0.98,2.56-1.92,3.6c-13.67,15.11-24.63,31.83-27.49,52.4
		c-2.42,17.45-0.85,34.76,6.18,51.22c2.85,6.67,7.53,11.91,13.59,15.79c3,1.92,3.16,3.76,1.59,6.82
		c-5.66,10.98-7.42,22.47-3.59,34.48c3.41,10.7,11.19,17.15,21.15,21.32c2.53,1.06,5.3,1.68,8.07,0.54
		c0.86-0.24,1.71-0.26,2.56,0.07c0.91,0.47,1.45,1.27,1.81,2.18c4.59,11.52,13.59,18.9,23.72,25.2
		c11.7,7.29,24.75,10.79,38.06,13.53c4.87,1.01,9.76,1.92,14.69,2.59c0.96,0.13,2.04,0.24,2.48,1.24c0.56,1.27-0.43,2.07-1.24,2.8
		c-2.66,2.41-5.02,5.14-7.92,7.3c-2.64,1.97-4.84,3.97-5.72,7.65c-0.85,3.57-4.53,5.8-6.99,8.56c-5.25,5.88-10.29,11.91-15,18.23
		C122.79,348.86,121.9,350.46,119.83,350.08z"/>
	<path class="st1" d="M135.59,398.87c-3.08-0.25-6.15-0.51-9.23-0.76c-0.49-2.23-1.83-3.42-4.07-4.13c-4.48-1.41-8.67-3.56-12.7-6
		c-1.18-0.72-2.44-1.37-2.62-2.97c2.18-5.96,4.48-11.87,7.15-17.64c0.75-1.63,1.71-3.17,1.82-5.02
		c5.43-9.36,12.37-17.62,19.11-26.01c3.2-3.98,6.67-7.75,10.32-11.34c2.55-2.51,3.75-2.56,5.4,0.42c2.88,5.19,6.69,9.85,8.77,15.5
		c0.4,1.09,0.64,2.64,2.23,2.63c1.27,0,1.68-1.28,2.3-2.17c1.73-2.47,2.63-5.52,5.21-7.4c3.15-1.26,5.76-2.98,6.24-6.77
		c0.11-0.84,0.62-2.01,1.93-0.92c1.22,4.36,0.88,8.77,0.21,13.12c-2.04,13.41-5.64,26.46-9.28,39.5c-0.43,1.54-1.34,3.07-0.49,4.82
		c1.45-0.3,1.37-1.6,1.64-2.54c4.4-15.55,8.77-31.1,10.61-47.23c0.13-1.16-0.05-2.83,1.61-2.9c1.43-0.06,1.94,1.4,2.34,2.58
		c0.89,2.62,1.46,5.32,2.08,8.02c0.26,1.16,0.21,2.47,1.59,3.59c1.05-4.14-0.19-7.89-1.75-10.97c-3.37-6.65-2.85-12.06,2.32-17.53
		c2.41-2.54,3.98-5.96,5.26-9.34c0.89-2.34,2.49-3.19,4.91-2.34c0.52,0.18-0.13-0.04,0.39,0.13c14.63,4.71,12.18,5.09,7.78,15.73
		c-3.8,9.17-8.27,18.08-13.92,26.32c-0.6,0.87-1.36,1.71-0.88,3.2c3.21-1.55,3.82-5.17,6.3-7.06c1.52,0.61,3.28-0.79,4.73,0.55
		c2.06,6.63,1.12,13.38,0.66,20.07c-0.37,5.36-0.49,10.75-1.18,16.09c-0.25,1.92,0.02,3.87,1,5.63c0.96,2.27,2.26,4.58-0.55,6.53
		c-14.89,1.2-29.09,6.62-44.04,7.32c-6.38,0.3-12.84,1-19.21-0.47c3.31-1.33,4.05-3.83,3.95-7.23c-0.15-5.52,0.73-11.01,1.23-16.51
		c0.26-2.9,0.64-5.77-0.18-8.63c-0.22-4.01,1.69-7.48,2.87-11.13c0.8-2.47,1.82-4.86,2.25-7.84c-1.86,0.37-2.12,1.65-2.49,2.7
		c-3.38,9.78-6.73,19.58-8.42,29.84c-0.23,1.38-0.52,2.72,0.22,4.03c0.43,0.84,1.12,1.64,0.66,2.66
		C137.94,390.83,138.28,395.37,135.59,398.87z"/>
	<path class="st2" d="M77.66,258.61c-0.87,1.64-2.18,1.66-3.87,1.39c-15.21-2.38-28.21-17.2-28.73-32.64
		c-0.33-9.89,1.35-19.25,6.66-27.74c0.6-0.96,0.98-1.6-0.26-2.31c-15.72-8.94-19.73-24.35-22.18-40.51
		c-2.78-18.34-0.53-36.19,7.31-52.97c5.28-11.3,13.08-21.06,21.81-30c0.35-0.36,1.05-0.38,1.58-0.56c-0.23-0.36-0.46-0.72-0.69-1.09
		c-2,0-3.99,0-5.99,0c-6.17-0.61-11.95-2.15-16.37-6.9c-0.81-0.87-2.02-1.67-1.34-3.14c0.62-1.34,1.86-1.46,3.17-1.42
		c6.93,0.18,13.33-2.22,19.58-4.65c6.52-2.53,12.72-5.9,19.05-8.9c10.41-2.95,19.49-8.91,29.37-13.04
		c10.38-4.34,20.48-9.69,32.22-9.37c5.23-1.74,10.26-0.72,14.62,2.15c3.1,2.04,5.24,1.89,8.08-0.22c2.5-1.86,5.37-3.43,8.8-2.67
		c6.67-2.47,13.68-3.16,20.67-3.98c7.17-2.19,14.43-1.69,21.51,0c19.24,4.6,37.55,11.78,53.09,24.16
		c15.58,12.42,29.64,26.49,38.35,44.94c0.77,1.62,1.65,3.2,1.68,5.06c-0.09,1.56-0.21,3.24-2.27,3.31c-2.12,0.06-3.24-1.51-3.8-3.26
		c-1.71-5.33-4.66-9.93-7.94-14.38c-7.95-10.81-17.23-20.35-27.49-28.96C251,39.86,235.43,33.23,219.22,27.96
		c-10-3.25-20.37-3.6-30.7-2.42c-5.15,0.59-10.39,1.02-15.39,2.91c-4.46,1.68-8.62,3.67-12.12,6.91c-2.36,2.18-4.52,2.31-6.7-0.3
		c-3.05-3.66-7.18-4.61-11.77-5.04c-11.08-1.03-20.81,3.23-30.66,7.18c-2.43,0.97-4.83,2.04-7.22,3.1
		c-4.12,1.77-8.05,3.93-12.06,5.94c-3.61,1.83-7.31,3.47-11.05,5.03c-9.88,3.57-18.86,9.29-29.03,12.2c-2.4,0.69-4.74,1.52-7.5,1.51
		c2.77,1.55,5.56,2.02,8.48,1.88c5.79,0.05,11.57,0.28,17.3-0.9c1.07-0.22,2.19-0.42,3.26,0c1.09,0.43,1.89,1.19,2.12,2.35
		c0.25,1.27-0.43,2.37-1.51,2.63c-14.33,3.43-20.3,16.02-28.63,26.03c-5.36,8.38-8.92,17.63-10.66,27.25
		c-3.49,19.22-2.48,38.19,6.2,56.21c1.6,3.33,4.39,5.65,6.64,8.42c2.92,3.25,7.03,4.64,10.63,6.81c1.96,1.18,3.46,2.41,1.71,4.85
		c-5.72,1.42-7.06,6.28-8.58,10.98c-2.27,6.98-2.59,14.21-0.85,21.18c2.82,11.3,10.39,18.42,21.56,21.79
		C74.8,255.09,77.96,254.89,77.66,258.61z"/>
	<path class="st3" d="M198.77,343.5c-1.43,2.18-2.8,4.42-4.33,6.54c-0.91,1.27-1.87,3.29-3.86,1.92c-2.06-1.42-0.37-2.86,0.51-4.19
		c7.03-10.64,12.76-21.93,17.17-33.91c1-2.72,0.36-4.02-2.26-4.9c-3.14-1.05-6.32-3.45-9.28-3.18c-3.43,0.32-2.75,5.32-4.91,7.65
		c-0.55,0.59-0.81,1.45-1.27,2.13c-2.23,3.3-5.9,6.41-6.32,9.92c-0.42,3.53,2.47,7.41,3.75,11.19c0.7,2.09,1.18,4.27,1.55,6.44
		c0.26,1.56,0.78,3.67-1.62,3.96c-2.06,0.25-2.09-1.64-2.42-3.15c-0.94-4.21-1.48-8.56-3.94-13.29
		c-1.54,18.32-6.59,34.93-11.04,51.67c-0.18,0.67-0.34,1.34-0.56,1.99c-0.39,1.13-1.1,2.1-2.4,1.78c-1.47-0.36-1.84-1.57-1.46-2.94
		c0.77-2.8,1.63-5.57,2.38-8.37c2.81-10.4,5.48-20.84,7.56-31.42c1.13-5.73,1.63-11.49,0.97-17.31c-0.28-1.45-1.14-2.48-2.37-3.25
		c-2.99-4.5-5.01-9.51-7.43-14.3c-0.58-1.16-1.36-2.6,0.49-3.54c0.76-0.03,1.38,0.29,1.62,1c1.4,4.19,4.03,7.84,5.58,11.97
		c-0.96-2.78-2.6-5.27-3.75-7.97c-0.56-1.31-1.92-2.52-0.73-4.16c0.9-0.43,1.55-0.02,2.13,0.61c2.52,4.9,5.43,9.6,7.73,15.07
		c3.61-5.01,7.64-9.47,9.32-15.67c-1.99-0.76-3.93-0.16-5.79-0.38c-2.49-0.3-3.97-1.25-3.02-4.06c1.37-1.97,3.46-2.01,5.55-2.18
		c19.4-1.57,38.25-5.26,56.11-13.48c16.95-7.81,26.6-21.04,30.28-38.96c2.09-10.16,3.59-20.39,2.54-30.84
		c-0.22-2.18,0.14-4.35,3.34-3.76c2.74,2.21,3.2,5.29,3.35,8.54c0.57,12.01-1.38,23.64-5.07,35.02
		c-8.79,25.93-29.04,37.2-54.13,42.27c-0.92-0.15-1.81-0.14-2.54,0.56c-2.52,2.6-6.05,2.33-9.17,3.21c-1.58,0.45-3.26,0.5-5.13,1.23
		c1.38,1.13,2.94,1.54,4.27,2.33c3.05,1.8,4.8,4.1,3.53,7.84c-0.45,1.34-0.41,2.73,0.15,4.05c4.32,10.19,5.39,21.05,6.45,31.88
		c1.03,10.41,1.52,20.87,1.85,31.33c0.06,1.9,0.28,3.9-1.17,5.51c-0.82,2.13-2.02,3.24-4.25,1.57c-1.07-1.09-1.08-2.5-1.09-3.87
		c-0.12-11.02-0.91-22-1.62-32.98c-0.43-6.76-1.6-13.4-2.57-20.06c-0.61-2.09-0.94-4.25-1.61-6.56c-2.35,4.76-4.62,9.4-7,14
		C201.79,340.03,200.89,342.23,198.77,343.5z"/>
	<path class="st4" d="M220.98,385.9c-0.4-14.62-0.74-29.24-2.6-43.77c-1.11-8.62-2.12-17.28-6.02-25.23
		c-0.64-1.3-0.43-2.4,0.09-3.54c1.64-3.59,0.05-5.81-3.12-7.26c-2.45-1.11-4.98-2.04-8.36-3.4c7.01-1.52,13.12-2.85,19.23-4.17
		c2.65,1.37,5.33,2.68,7.94,4.12c2.67,1.47,4.38,3.54,2.72,6.68c-1.14,2.15,0.25,3.97,0.25,5.95c0.86,2.61,0.17,5.16-0.48,7.63
		c-1.93,7.36-1.65,8.27,4.65,12.56c0.58,0.39,1.1,0.82,1.32,1.51c0.87,9.28,1.73,18.56,2.59,27.84c0,4.17-0.01,8.35-0.01,12.52
		c0,7.55-1.23,8.89-8.84,9.18C227.22,386.64,224.06,386.65,220.98,385.9z"/>
	<path class="st5" d="M170.81,305.26c-0.62,3.47,2.04,5.78,3.1,8.66c0.59,1.6,1.45,3.1,1.76,4.86c-3.57-3.94-5.22-8.97-7.72-13.5
		c-2.12-1.37-2.96,0.71-3.99,1.67c-3.5,3.24-6.67,6.84-10.51,9.71c-1.37,1.16-1.55,2.54-0.74,4.07c2.72,5.12,5.79,10.02,8.86,14.93
		c0.24,0.38,0.72,0.27,1.08-0.02c2.15-3.17,3.66-6.74,6.15-9.64c1.46-1.7,3.12-3.38,5.34-0.83c0.52,4.05-1.82,6.68-4.5,9.16
		c-1.73,2.81-3.47,5.62-5.2,8.43c-0.71,1.16-1.25,2.7-2.85,2.68c-1.78-0.01-1.85-1.7-2.35-2.96c-2.69-6.82-7.28-12.54-10.73-19.17
		c-12.15,12.17-22.51,25.3-31.88,39.24c-1.67,4.55-4.39,8.52-6.85,12.64c-1.81,3.04-4.13,5.99-2.61,9.93
		c5.28,3.82,11.08,6.59,17.31,8.46c2.41,0.73,4.36,1.73,1.89,4.53c-8.79-2.11-16.83-5.76-23.8-11.61c-2.12-1.78-2.33-3.76-1.08-6.22
		c4.42-8.73,9.61-16.98,15.28-24.93c1.18-1.66,2.8-3.07,3.06-5.27c4.73-4.08,7.57-9.74,11.83-14.24c3.41-3.6,6.66-7.36,9.89-11.12
		c1.75-2.04,4.86-3.38,3.51-7.13c-0.33-0.92,1.21-1.67,2.09-2.34c4.6-3.52,8.99-7.27,13.3-11.9c-5.9-1.06-11.5-1.98-17.07-3.07
		c-13.88-2.73-27.32-6.66-39.48-14.21c-10.8-6.71-19.83-14.93-24.05-27.4c-3.75-5.15-4.04-11.37-5.01-17.29
		c-1.37-8.34-1.18-16.8-1.01-25.23c0.06-3.21,0.51-6.36,2.45-9.06c0.58-0.81,1.41-1.54,2.42-1.33c1.11,0.22,1.28,1.37,1.4,2.31
		c0.38,3.03,0.21,6.08,0.18,9.12c-0.09,10.65,0.34,21.21,2.47,31.74c3.29,16.28,13.29,26.86,27.35,34.46
		c17.26,9.33,35.99,13.1,55.25,14.86c3.3,0.3,6.57,0.89,9.9,1c2.05,0.07,4.07,0.76,3.94,3.28c-0.13,2.5-2.23,2.83-4.25,3
		C173.55,305.64,172.19,305.31,170.81,305.26z"/>
	<path class="st6" d="M211.94,329.29c3.04,9.68,3.39,19.74,4,29.73c0.58,9.47,0.55,18.97,0.79,28.46c-2.39,2.71-5.6,3.62-9.01,4.06
		c-2.26-5.11-0.59-10.43-0.84-15.65c-0.03-0.71,0.39-1.46,0.62-2.18c-0.72,0.07-0.28,1.71-1.28,1.13c-1.34-0.78-1.2-2.33-1.38-3.67
		c-0.22-10.26,0.23-20.51-0.29-30.76C205.85,335.93,208.84,332.57,211.94,329.29z"/>
	<path class="st7" d="M145.47,365.78c2.25,6.39-0.27,12.74-0.32,19.11c-0.02,2.93-0.7,6.01-0.39,8.96c0.44,4.22-1.12,5.81-5.19,5.26
		c-1.33-0.08-2.66-0.15-3.99-0.23c0.63-4.1,1.52-8.15,3.09-11.97c0.52-1.27-0.55-1.23-0.68-1.85c2.7-3.2,2.85-7.3,4.05-11.04
		C142.95,371.2,142.29,367.65,145.47,365.78z"/>
	<path class="st8" d="M205.97,371.47c0.12,0.88,0.25,1.75,0.41,2.92c0.42-0.81,0.69-1.33,1.34-2.59c0,7.09,0,13.41,0,19.73
		c-1.63,0.24-3.26,0.48-4.89,0.72c1-1.89,1.08-3.77-0.09-5.63c1.6-3.3,1.2-6.84,1.35-10.33
		C204.17,374.55,203.54,372.37,205.97,371.47z"/>
	<path class="st4" d="M222.74,297.96c9.79-2.81,19.33-6.27,28.17-11.4c11.5-6.68,19.74-16.11,24.09-28.78
		c0.18-0.51,0.5-0.97,0.75-1.46c0.7-0.64,1.53-0.83,2.45-0.78c8.3-0.45,14.82-4.75,19.97-10.62c11.54-13.17,13.65-28.2,7.16-44.45
		c-0.84-2.09-2.22-3.82-3.56-5.57c-1.65-2.16-1.54-3.82,0.67-5.62c14.76-12.03,18.38-27.98,16.62-46.12
		c-1.02-10.51-2.93-20.77-5.62-30.93c-1.14-4.3-2.43-8.55-6.27-11.37c-1.83-1.8-1.85-4.22-2.19-6.53
		c-3.32-10.83-10.19-19.41-17.48-27.75c-11.33-12.96-23.65-24.74-39.35-32.31c-12.43-5.99-25.06-11.53-38.82-13.8
		c-6.04-1-12.11-0.62-18.17-0.42c-0.12-0.08-0.23-0.16-0.35-0.23c-0.4-0.22-0.7-0.54-0.02-0.68c5.13-1.07,10.27-2,15.47-2.73
		c21.8-3.05,40.99,4.81,59.94,13.93c16.96,8.17,30.02,20.97,41.89,35.14c9.43,11.26,17.69,23.35,22.91,37.18
		c3.96,10.51,5.87,21.55,7.14,32.67c1.23,10.75,1.7,21.44-2.4,31.87c-3.01,7.66-7.4,14.22-13.98,19.12
		c-2.12,1.58-2.16,2.47-0.62,4.48c15.15,19.82,5.59,52.79-18.18,61.04c-6.72,2.33-10.86,5.6-14.09,11.91
		c-6.42,12.53-17.93,19.48-30.46,24.91c-10.58,4.58-21.77,7.04-32.92,9.69C224.55,298.57,223.57,298.71,222.74,297.96z"/>
	<path class="st9" d="M236.6,336.98c-8.43-2.99-9.84-6.07-6.69-14.5c0.86-2.31-0.12-4.95,1.2-7.2c3.38-5.52,7.1-10.59,14.38-11
		c1.28-0.07,1.85-1.09,2.58-1.89c4.28-4.71,9.69-7.13,15.95-7.75c0.68-0.07,1.62-0.28,2.03,0.06c4.16,3.48,8.47,1.38,12.84,0.66
		c2.83-0.47,5.76-0.24,8.5,1.11c3.61,1.78,5.8,4.52,4.96,8.57c-0.62,2.98,0.53,4.06,2.98,5.14c4.4,1.93,7.35,5.86,5.87,9.2
		c-1.89,4.27-3.64,8.48-5.05,12.96c-0.93,2.95-4.81,3.35-7.89,3.55c-1.64,0.11-2.67,0.4-3.44,2.19c-3.17,7.39-9.75,9.33-16.48,4.77
		c-1.79-1.21-2.96-1.17-4.7-0.3c-3.41,1.7-7.08,2.16-10.88,1.91c-2.51-0.16-5.18-1.03-6-3.1
		C244.7,336.14,240.69,336.76,236.6,336.98z"/>
	<path class="st10" d="M170.48,24.03c-4.19,1.41-8.42,2.79-11.7,5.96c-0.9,0.87-1.54,0.82-2.4-0.01c-4.9-4.7-11.13-5.03-17.39-5.21
		c9.6-4.72,19.52-5.31,29.71-2.3C169.48,22.7,170.25,23.1,170.48,24.03z"/>
	<path class="st11" d="M170.81,305.26c1.1-2.34,3.05-0.63,4.57-0.88c1.53-0.25,3.35,0,3.42-2.05c0.07-2.11-1.77-2.05-3.32-2.12
		c-16.62-0.72-32.98-3.12-48.81-8.35c-14.49-4.79-27.79-11.7-37.27-24.13c-5.84-7.66-7.8-16.95-9.16-26.29
		c-1.62-11.12-1.42-22.3-0.93-33.49c0.03-0.63-0.07-1.27-0.14-2.42c-3.18,2.2-3.74,5.15-3.9,8.1c-0.74,14.26-0.35,28.44,3.94,42.24
		c0.28,0.91,0.44,1.86,0.65,2.8c-0.73-0.02-1.47-0.04-2.2-0.06c-0.22-1.87-1.52-2.3-3.15-2.65c-21.78-4.58-30.04-25.69-23.39-45.69
		c0.26-0.78,0.63-1.53,0.95-2.28c1.61-3.75,2.48-8.27,8.09-7.95c1.72-1.73,3.59-0.53,5.41-0.28c0.98,0.26,1.92,0.61,2.85,1.02
		c3.22,1.52,4.53-0.51,5.2-3.06c0.43-1.61,0.79-2.85,2.75-2.75c2.85,0.59,5.58,1.39,7.54,3.76c0.7,5.72-0.88,11.4-0.31,17.12
		c-0.67,7.68-0.53,15.21,1.64,22.78c2.83,9.88,12.64,18.44,23.99,17.4c3.84,0.02,7.63,1.48,11.5,0.27c1.91-0.36,3.84-0.39,5.75-0.05
		c7.83,1.38,15.36-0.1,22.72-2.58c5.25-1.77,8.76-5.42,10.71-10.69c3.66-9.92,3.49-20.24,3.52-30.56c0.01-2.41-0.62-5,1.27-7.11
		c5.66-1.72,11.47-1.81,17.31-1.59c3.58,0.02,7.18-0.5,10.72,0.43c2.74,1.63,1.96,4.2,1.75,6.61c-0.75,8.6-0.91,17.17,1.38,25.6
		c1.1,3.38,1.84,6.87,3.83,9.96c4.86,7.52,12.27,9.67,20.59,10.03c9.42,0.79,18.83,0.68,28.24,0.14c5.04-0.86,10.06-1.8,14.59-4.39
		c5.15-2.3,7.42-6.79,8.81-11.83c1.85-6.7,1.96-13.59,1.93-20.49c-0.01-2.88-0.38-5.78,0.4-8.63c0.37-0.87,1.01-1.44,1.89-1.75
		c2.65-0.23,2.68,1.27,2.09,3.17c-2.62,0.06-2.05,1.73-1.96,3.47c1.08,21.14-1.4,41.44-15.83,58.27
		c-7.89,9.2-18.85,13.82-30.01,17.56c-14.71,4.93-29.91,7.72-45.43,8.65c-1.54,0.09-3.05,0.19-4.12,1.52
		c-0.16,2.54-1.54,4-4.04,4.19c-1.6,0.12-3.07,1.04-4.73,0.73C171.67,306.35,171.24,305.8,170.81,305.26z"/>
	<path class="st12" d="M205.97,371.47c-1.08,3.77-0.63,7.66-0.82,11.49c-0.08,1.76-0.18,3.38-2.41,3.66
		c-1.98-1.14-1.56-3.06-1.52-4.81c0.24-10.22,1.78-20.37,1.36-30.62c-0.11-2.61-0.36-5.22-0.54-7.82c-1.02-3.65-0.22-4.66,3.04-3.83
		c1.14,1.24,0.96,2.79,1.05,4.29C206.68,353.05,206.3,362.26,205.97,371.47z"/>
	<path class="st13" d="M145.47,365.78c-1.4,5.3-2.8,10.61-4.2,15.91c-0.46,1.73-0.69,3.68-3.27,3.36c-1.1-0.94-1.04-2.09-0.77-3.4
		c2.28-11.1,5.64-21.9,9.23-32.62c0.51-1.52,0.77-4.14,3.33-3.21c2.53,0.92,1.04,2.98,0.53,4.59
		C148.73,355.54,147.1,360.66,145.47,365.78z"/>
	<path class="st14" d="M205.09,339.54c-3.21-0.46-2.84,1.91-3.04,3.83c-1.08,0.28-2.1,2.3-3.28,0.13
		c3.61-7.07,7.22-14.15,11.08-21.71c1.23,2.62,2.12,4.91,2.09,7.49C210.7,333.4,207.64,336.3,205.09,339.54z"/>
	<path class="st15" d="M107.16,385.12c-2.3-1.24-2.36-2.71-1.14-5c3.23-6.05,6.83-11.85,10.6-17.57c0.16,0.21,0.51,0.51,0.46,0.61
		C113.33,370.29,111.44,378.25,107.16,385.12z"/>
	<path class="st16" d="M169.64,334.33c0.37-3.5,4.64-5.26,4.1-9.16c0.01-1.22,0.42-2.17,1.69-2.57c1.3,0.79,2.61,1.57,1.57,3.43
		c-0.68,3.36-1.73,6.43-5.13,8.15C171.01,334.61,170.42,334.72,169.64,334.33z"/>
	<path class="st17" d="M65.84,200.52c-1.94,0.41-3.72-1.17-5.68-0.49c1.16-2.14-0.33-2.77-1.88-3.58
		c-3.71-1.93-7.63-3.52-10.65-6.56c-5-7.68-7.95-16.17-10.21-24.98c-4-15.62-3.24-31.07,0.8-46.57c1.95-7.47,4.51-14.71,7.02-21.97
		c6.22-8.31,11.97-16.98,20.56-23.26c2.31-1.69,4.82-1.72,7.22-2.55c1.16-0.4,2.75-0.41,2.38-2.12c-0.33-1.54-1.52-2-3.2-1.64
		c-6.21,1.34-12.51,1.5-18.84,1.15c-0.22-1.02,0.49-1.53,1.18-1.95c8.98-5.37,18.05-10.56,27.47-15.14
		c3.34-1.61,6.71-3.17,10.04-4.82c3.9-2.25,8.23-3.69,11.89-6.37c12.49-5.78,24.85-11.94,39.27-10.76c4.88,0.4,9.24,1.7,12.2,5.87
		c1.25,1.77,2.53,2.09,4.05,0.54c7.09-7.25,16.31-9.04,25.8-10.58c20.43-3.31,38.98,2.41,57.04,11.08
		c8.21,3.94,16.05,8.38,22.71,14.67c16.76,17.25,31.52,35.83,39.53,58.96c1.08,3.13,2.39,6.17,3.2,9.39
		c0.34,1.35,0.85,3.01-0.57,3.78c-1.35,0.74-2.11-0.82-2.92-1.71c-0.56-0.62-1.2-1.14-1.79-1.72
		c-6.72-12.86-16.62-22.62-29.16-29.76c-1.1-0.62-2.08-1.85-3.71-1.22c0.44,1.8,2.09,2.15,3.29,2.93
		c9.77,6.4,19.18,13.19,24.78,23.89c8.45,16.14,11.97,33.28,8.96,51.32c-1.69,10.12-6.72,18.95-13.31,26.83
		c-0.98,1.17-2.04,2.28-3.73,2.37c-1.35-0.18-1.97-0.89-1.67-2.28c4.37-4.98,4.21-11.26,4.61-17.23c0.93-13.7-0.32-27.02-8.64-38.69
		c-0.78-1.1-1.29-2.47-3.3-2.87c11.25,16,12.54,33.53,8.56,51.87c-1.54,2.95-2.91,2.08-4.37-0.13c-2.73-4.11-5.14-8.45-8.8-11.89
		c-1.21-1.14-2.45-2.19-3.89-3c-16.62-13.89-34.45-26.4-48.84-42.83c-0.42-0.48-0.85-1.09-2.08-0.8c1.14,2.31,2.73,4.15,4.39,5.91
		c10.27,10.88,21.49,20.68,33.67,29.38c7.68,5.49,13.89,12.18,17.63,20.98c1.21,2.86,1.97,5.76,1.51,8.87
		c-0.36,2.39-1.59,2.71-3.41,1.28c-1.23-0.97-2.27-2.15-2.45-3.72c-0.33-2.96-2.3-4.21-4.83-4.09c-8.25,0.38-15.4-2.66-22.33-6.59
		c-1.36-0.77-2.96-0.67-4.37-1.23c-1.11-0.44-1.78-1.37-1.79-2.57c-0.01-1.53,1.27-1.63,2.34-1.8c1.99-0.32,4.1-0.16,6.51-1.65
		c-3.09-0.83-5.69-0.59-8.2-0.74c-2.69-0.16-4.33-1.17-5.32-3.71c-0.88-2.25-1.75-4.61-3.95-6.58c-0.9,2.18,0.38,3.48,0.97,4.87
		c1.78,4.24,1.03,5.39-3.64,5.64c-3.07,0.16-6.22-0.5-9.23,0.89c3.73,1.82,7.77,1.38,11.58,0.95c3.72-0.42,5.79,0.84,7.1,4.08
		c0.41,1.02,1.02,1.96,1.57,2.92c2.44,4.32,2.43,4.32-1.79,7.1c0.73,1.29,1.9,0.76,2.88,0.65c1.62-0.19,3.05,0.13,4.18,1.31
		c1.33,1.38,3.28,2.94,2.47,4.86c-0.84,1.99-3.14,0.89-4.87,0.77c-4.58-0.32-9.02-1.31-13.38-2.67c-1.53-0.48-3.16-0.88-4.09-2.29
		c1.03-2.03,3.57-1.04,4.76-2.97c-2.4-1.17-4.82-0.9-7-0.6c-6.88,0.95-12.15-1.97-16.63-6.62c-13.3-13.82-24.14-29.14-28.78-48.15
		c-0.32-1.3-0.31-2.77-1.68-4c-1.46,1.48-0.59,3.02-0.24,4.45c3.38,13.67,10.11,25.63,18.67,36.66c3.64,4.69,6.99,9.62,11.66,13.42
		c0.92,0.74,2.29,1.5,1.76,2.95c-0.43,1.18-1.82,1.07-2.88,1.25c-0.82,0.14-1.64,0.25-2.47,0.24c-1.63-0.23-3.26,0.02-4.89,0.01
		c-1.24-0.1-2.49-0.36-3.72-0.21c-12.56,1.6-22.06-4.04-29.68-13.18c-9.33-11.18-16.31-23.54-18.06-38.44
		c-0.98-8.37-1.12-16.8-2.5-25.13c-0.78-4.69-1.94-9.21-5.02-12.99c-1.19-1.46-2.38-2.95-5.67-3.12
		c10.95,8.9,9.69,20.96,10.39,31.97c1.3,20.54,8.77,37.99,23.03,52.66c1.35,1.39,2.92,2.53,4.42,3.76c0.73,0.6,1.75,1.29,1.34,2.34
		c-0.37,0.96-1.54,1.05-2.51,1.15c-11.87,1.31-22.62-0.33-31.43-9.69c-4.43-4.7-9.22-9.1-13.55-13.93
		c-0.42-0.47-0.81-1.17-1.91-0.77c0.42,2.45,2.43,3.84,3.76,5.66c1.04,1.42,2.73,2.82,2.06,4.72c-0.76,2.14-3.12,2.07-4.97,2.3
		c-3.85,0.47-7.73,0.1-11.6,0.24c-1.02,0.04-2.25-0.29-3.14,1.5c4.98,0.67,9.7,0.56,14.46-0.15c4.22-0.63,5.36,0.11,6.15,3.51
		c1.44,6.22,0.58,6.88-5.83,7.59c-17.82,1.98-27.74-8.74-36.29-21.92c-0.28-2.49-1.32-4.73-2.32-6.99
		c-3.17-7.84-3.78-16.26-5.54-24.42c-0.02-7.98,1.7-15.69,4.24-23.6c-1.86,0.49-2.04,1.53-2.33,2.41
		c-7.4,22.55-5.28,43.5,10.51,62.13c2.51,2.96,5.42,5.49,8.49,7.84c1.05,0.8,2.64,1.69,2.05,3.21c-0.56,1.44-2.33,1.21-3.68,1.26
		c-2.2,0.08-4.41,0.05-6.62,0.04c-1.47-0.02-2.92,0.2-4.37,0.35c-2.67-0.11-2.13,1.96-2.34,3.49c-0.57,4.05-1.39,4.55-5.1,2.94
		c-14.82-6.44-21.12-18.62-22.79-33.91c-0.2-1.86,0.49-3.85-0.77-5.63c-1.51,0.5-1.13,1.78-1.16,2.75
		c-0.21,6.92,1.44,13.45,4.58,19.57c1.73,3.37,2.9,6.75,2.98,10.64C62.19,191.82,65.11,195.89,65.84,200.52z"/>
	<path class="st18" d="M303.11,118.6c1.78,0.58,2.29,2.57,3.93,4.04c0.43-3.55-0.97-6.2-1.83-8.79c-6.7-20.07-18-37.39-31.99-53.14
		c-2.89-3.25-6.22-6.24-8.21-10.24c1.21,0.07,1.97,0.88,2.77,1.64c10.25,9.77,20.21,19.83,28.15,31.64
		c2.14,3.18,3.73,6.73,4.79,10.47c0.39,1.39,1.21,2.62,2.8,2.61c1.64-0.01,1.14-1.57,1.46-2.51c0.84,1.93,1.69,3.86,2.53,5.78
		c1.25,6.39,4.63,12.05,5.95,18.48c2.58,12.63,4.8,25.29,4.02,38.21c-0.61,10.09-4.43,19.04-11.06,26.73
		c-0.54,0.63-1.11,1.24-1.82,1.68c-0.69,0.42-1.48,1.05-2.24,0.36c-0.71-0.64-0.39-1.55-0.06-2.31c0.93-2.15,2.07-4.2,2.92-6.41
		c5.17-13.53,5.13-27.28,1.83-41.16c-1.05-4.44-2.07-8.89-3.69-13.17C302.87,121.27,302.12,119.97,303.11,118.6z"/>
	<path class="st19" d="M45.24,96.36c1.74,1.64-0.13,3.02-0.55,4.29c-4.82,14.71-9.22,29.47-8.69,45.22
		c0.49,14.58,4,28.31,11.07,41.1c0.6,1.08,0.61,1.08,0.56,2.92c-10.08-9.24-12.71-21.65-14.4-34.36
		C30.42,134.46,33.98,114.61,45.24,96.36z"/>
	<path class="st20" d="M82.38,51.24c-9.67,5.57-19.34,11.13-29.02,16.7c-3.86,0.38-7.21-0.9-11.21-3.45
		c14.83-1.43,26.3-9.73,39.25-14.08C82.28,50.04,82.49,50.45,82.38,51.24z"/>
	<path class="st21" d="M103.94,39.65c0.08,0.24,0.26,0.66,0.23,0.68c-3.95,2.01-7.92,3.99-11.89,5.97c-0.21-0.22-0.26-0.42-0.16-0.6
		c0.1-0.17,0.19-0.25,0.28-0.25C96.24,43.52,100.09,41.59,103.94,39.65z"/>
	<path class="st22" d="M92.4,45.46c-0.04,0.28-0.08,0.56-0.12,0.85c-3.3,1.64-6.6,3.29-9.9,4.93c-0.32-0.28-0.65-0.55-0.97-0.83
		C85.07,48.76,88.73,47.11,92.4,45.46z"/>
	<path class="st6" d="M175.42,322.59c-0.56,0.86-1.12,1.71-1.69,2.57c-2.32-1.59-3.48,0.08-4.53,1.71
		c-2.12,3.28-4.15,6.62-6.22,9.94c-0.39,0.21-0.91,0.27-1.12-0.07c-3.56-5.84-7.66-11.42-9.17-18.29c-0.19-0.85,0.06-1.63,0.25-2.43
		c3.76-3.79,8.11-6.97,11.58-11.09c1.04-1.24,2.59-2.79,3.42,0.33c-1.48,1.41-0.03,2.5,0.5,3.57
		C170.72,313.46,173.09,318.02,175.42,322.59z"/>
	<path class="st23" d="M278.22,212.52c-0.62-0.89,0.23-2.67-1.7-2.75c0.57-2.33,2.72-2.38,4.43-3.07c3-1.03,4.51,0.39,4.77,3.2
		c0.35,3.79,1.62,7.55,0.41,11.41c-0.2,0.64-0.2,1.38-0.1,2.05c1.5,9.98-1.27,19.24-4.65,28.41c-0.65,1.86-2.46,2.86-3.38,4.53
		c-0.75,0.01-1.49,0.01-2.24,0.02c2.92-11.19,5.58-22.41,5.23-34.11C280.89,218.7,280.52,215.36,278.22,212.52z"/>
	<path class="st24" d="M172.1,306.9c0.92-0.99,1.84-1.95,3.41-1.66c2.74,0.5,4.19-1.16,5.36-3.26c-0.21,2.1,0.97,2.61,2.79,2.49
		c2.44-0.16,4.88-0.26,7.61-0.41c-1.73,7.9-7.08,13.3-11.42,19.87C178.06,317.44,173.94,312.7,172.1,306.9z"/>
	<path class="st25" d="M152.95,316.03c2.05,7.56,4.87,14.74,10.04,20.79c-0.31,1.01-0.43,2.76-1.73,0.58
		c-3.31-5.56-6.51-11.18-9.86-16.7C149.98,318.36,150.48,316.93,152.95,316.03z"/>
	<path class="st26" d="M280.81,207.54c-1.43,0.75-2.86,1.49-4.29,2.24c-0.54,0.3-1.09,0.6-1.63,0.9c-0.76,4.15,0.02,8.48-1.33,12.54
		c-0.52,1.57-0.14,4.08-3.01,3.95c-1.23-1.7-0.99-3.67-0.95-5.56c0.2-8.23-0.07-16.43-1.62-24.55c-0.24-1.25-0.48-2.41-1.39-3.33
		c-1.11-1.09-2.48-1.71-3.94-2.17c-4.51-1.57-7.27-1.73-11.36-0.57c1.01,2.42,3.6,4.78,1.3,7.51c-2.2,2.61-5.33,1.58-8.18,1.33
		c-9.15-0.8-18.01-2.75-26.39-6.63c-3.28-2.3-6.92-3.08-10.9-2.99c-2.21,0.05-4.75,0.75-6.44-1.6c-0.2-0.73-0.12-1.4,0.45-1.96
		c1.44-1.42,3.45-0.48,5.15-1.21c-11.31-10.63-20.09-23.02-27.06-36.74c-2.89-5.69-4.16-11.96-6.19-17.96
		c-0.52-1.55-1-4.02,1.5-4.43c2.32-0.38,2.13,1.97,2.51,3.5c5.2,21.19,16.68,38.46,32.8,52.92c3.37,3.02,7.12,3.19,11.16,3.04
		c2.35-0.09,4.7-0.09,7.05-0.01c1.1,0.04,2.8-0.56,2.72,1.48c-0.06,1.49-0.81,2.64-2.58,2.61c-0.96-0.02-1.91,0-2.92,0.31
		c6.54,3.13,13.54,4.09,21.08,4.74c-1.74-3.73-3.37-6.63-8.04-5.14c-0.99,0.32-2.8,0.62-3.04-1.14c-0.23-1.67,0.55-3.01,2.59-2.91
		c2.28,0.11,2.26-0.94,1.29-2.5c-0.15-0.23-0.35-0.45-0.42-0.71c-2.02-6.71-6.52-8.87-13.24-7.66c-2.24,0.4-4.67-0.06-6.99-0.32
		c-1.06-0.12-2.28-0.66-2.15-2.07c0.14-1.42,1.35-1.59,2.49-1.6c3.46-0.03,6.91-0.06,10.37,0c2.37,0.04,3.08-0.77,1.86-2.96
		c-0.74-1.33-1.31-2.74-2.02-4.08c-0.7-1.31-1.23-2.9,0.2-3.71c1.73-0.97,2.72,0.63,3.45,1.97c1,1.82,2.07,3.62,2.77,5.56
		c0.74,2.04,1.53,2.96,4.07,2.88c2.27-0.07,4.66,0.19,6.99,0.31c1.34,0.07,3.1-0.24,3.22,1.69c0.11,1.67-1.51,1.56-2.7,1.86
		c-1.76,0.43-3.5,0.69-5.32,0.65c-0.68-0.02-1.87-0.47-1.77,0.91c0.05,0.8,0.49,1.94,1.39,1.82c4.45-0.58,7.29,2.88,10.89,4.33
		c4.43,1.79,8.75,3.03,13.56,3.05c3.51,0.01,7.83-0.5,7.58,5.45c-0.07,1.73,1.88,2.87,3.72,4.02c1.55-6.57-1.65-11.6-4.59-16.6
		c-4.83-8.23-12.81-13.2-20.13-18.78c-11.56-8.81-22.22-18.56-31.69-29.6c-1.06-1.23-2.09-2.55-0.42-3.88
		c1.7-1.35,2.34,0.47,3.2,1.42c12.8,14.23,27.41,26.4,42.74,37.77c2.29,1.7,4.19,3.93,6.28,5.92c7.08,6.51,10.69,14.46,10.04,24.18
		c-0.23,3.48-2.13,6-4.27,7.93c4.24-1.55,6.81-6.44,11.63-8c9.72-9.71,15.65-21.33,16.44-35.07c0.99-17.16-2.53-33.38-11.93-48.05
		c-5.74-8.96-14.37-14.63-23.01-20.33c-1.65-1.09-5.15-1.81-3.46-4.5c1.42-2.25,3.64,0.24,5.32,1.2c9.55,5.45,18,12.22,24.42,21.24
		c2.06,2.89,3.64,6.11,5.44,9.18c4.2,10.83,7.02,22.03,7.37,33.63c0.35,11.52-1.78,22.65-8.09,32.88
		c4.2-2.51,9.69-10.97,11.57-16.54c3.6-10.66,2.85-21.47,1.44-32.26c-0.96-7.32-2.57-14.57-4.14-21.8
		c-0.82-3.76-2.25-7.41-4.41-10.64c-1.13-1.68-0.85-2.73,0.65-3.77c3.06,0.89,4.21,3.54,5.06,6.1c5.9,17.7,9.33,35.8,7.25,54.51
		c-1.45,13-7.71,22.74-18.92,31.13c14.93,16.23,10.93,45.4-7.2,58.71c-3.97,2.91-8.45,4.58-13,6.21c-1.06,0.38-1.87,0.11-2.7-0.46
		c-1.44-3.15,1.68-2.87,2.97-3.96c1.21-1.89,3.4-2.25,5.17-3.25c11.71-6.65,18.14-16.49,18.42-30.13c0.1-5.12,0.05-10.21-1.95-15.05
		c-0.55-1.57-1.31-3.02-2.26-4.39c-2.52-3.64-3.16-3.72-6.71-0.73C289.48,201.89,285.89,205.8,280.81,207.54z"/>
	<path class="st27" d="M275.23,341.03c-2.43,0.21-4.57-0.77-6.15-2.62c-1.88-2.2-3.48-2.66-5.78-0.43
		c-2.04,1.98-4.89,2.53-7.66,2.78c-3.49,0.31-6.28-0.71-7.29-4.55c-0.69-2.63-1.99-3.82-5.13-3.12c-3.05,0.68-6.31,0.49-9.1-1.62
		c-2.48-1.87-2.97-4.19-0.91-6.34c1.68-1.75,1.67-3.18,1.28-5.42c-0.82-4.65,5.84-11.29,11.47-11.61c1.84-0.11,2.92-0.64,4.13-2.04
		c3.2-3.73,7.13-6.5,12.14-7.3c2.33-0.37,4.6-0.58,6.36,1.75c1.59,2.11,3.61,1.44,5.53,0.24c2.98-1.86,6.22-2.13,9.58-1.4
		c4.04,0.87,5.64,2.98,4.36,6.82c-1.3,3.9-0.06,5.66,3.64,6.61c1.42,0.36,2.84,1.17,3.96,2.12c2.93,2.48,2.32,5.69-1.39,6.69
		c-2.58,0.69-2.57,1.87-1.76,3.9c1.82,4.56,1.02,6.07-4.02,6.15c-4.36,0.07-7.01,1.34-7.78,5.97
		C280.25,340.33,277.96,341.2,275.23,341.03z"/>
	<path class="st26" d="M86.73,164.03c5.45,8.64,12,16.22,21.5,20.5c6.01,2.71,12.5,0.79,18.77,0.91c0.31,0.01,0.91-0.47,0.89-0.67
		c-0.27-2.45-0.24-5.04-1.11-7.27c-0.57-1.48-2.8-0.92-4.19-0.62c-4.39,0.97-8.81,0.44-13.21,0.59c-1.49,0.05-3.43,0.26-3.47-1.9
		c-0.05-2.42,2.03-2.17,3.66-2.2c4.28-0.07,8.57,0.04,12.84-0.23c1.51-0.1,3.78,0.07,4.35-1.49c0.47-1.27-1.26-2.56-2.16-3.74
		c-1.25-1.64-2.63-3.19-3.92-4.79c-0.93-1.16-1.61-2.58-0.09-3.57c1.44-0.95,2.42,0.16,3.38,1.36c6.67,8.34,14.45,15.48,23.18,21.62
		c2.6,1.83,5.28,2.69,8.49,2.56c4.91-0.2,9.84-0.05,15.6-0.05c-12.31-8.91-19.35-20.77-25.05-33.56
		c-3.47-7.81-3.92-16.26-4.77-24.59c-0.73-7.12-1.17-14.27-2.71-21.27c-0.86-3.9-2.87-7.16-6.31-9.34c-1.12-0.71-2.3-1.33-1.66-2.83
		c0.8-1.87,2.35-1.09,3.54-0.54c4.37,2.02,6.36,6.07,7.76,10.25c1.75,5.22,2.31,10.71,2.72,16.23c0.82,10.95,0.95,22.1,5.84,32.3
		c5.95,12.42,12.74,24.2,25.38,31.24c3.32,1.85,6.68,2.92,10.56,2.93c3.48,0.01,7.12-1.11,10.47,0.8c1.71,3.88-0.67,7.31-1.32,10.91
		c-0.27,1.49-1.8,0.51-2.79,0.42c-8.22-0.72-16.48,0.36-24.71-0.96c-3.96-0.64-1.84,2.98-2.45,4.69c0.08,1.49-0.15,2.89-1.1,4.09
		c-0.3,10.18,0.48,20.42-1.54,30.49c-2.77,13.78-8.39,18.86-22.33,20.93c-6.75,1-13.43,0.24-20.15-0.01
		c-1.14-1.52-0.56-2.72,0.71-3.79c2.49-1.16,5.15-0.73,7.75-0.73c5.42,0,10.73-0.69,15.95-2.09c6.4-1.72,10.64-5.56,11.86-12.34
		c2.49-13.78,3.11-27.62,1.48-41.55c-0.22-1.86-1.29-2.84-2.78-3.8c-5.14-3.3-10.84-2.64-16.47-2.55c-1.31,0.02-1.92,0.78-2.2,2.02
		c-0.44,1.94-1.79,2.66-3.7,2.47c-0.42-0.07-0.81-0.23-1.17-0.45c-1.29-0.99-2.16-2.33-3.13-3.87c0.5,1.84-0.43,2.74-1.81,3.38
		c-0.42,0.18-0.85,0.29-1.29,0.36c-2.48,0.22-4.98,0.31-7.31-0.59c-7.35-2.85-15-2.6-22.67-2.54c-2.12,0.02-4.44,0.5-6.17-1.39
		c-0.61-1.63,0.02-2.87,1.24-3.91c3.27,0,6.53,0,10.92,0c-6.65-5.03-11.91-9.92-15.98-16c-9.04-13.51-13.01-28.07-9.79-44.28
		c0.94-4.72,1.72-9.48,3.33-14.03c0.55-1.54,0.65-4.2,3.19-3.39c2.62,0.83,1.14,3,0.55,4.53c-2.64,6.75-3.16,13.87-3.97,20.95
		c0.81,8.42,1.98,16.77,5.19,24.68C85.08,160.22,86.34,161.95,86.73,164.03z"/>
	<path class="st26" d="M65.84,200.52c-2.23-3.31-4.45-7.12-4.39-10.81c0.12-7.36-4.05-13.05-6.07-19.53
		c-1.55-4.97-2.08-9.95-1.95-15.07c0.04-1.42,0.06-3.04,1.92-3.11c2.19-0.08,2.21,1.72,2.12,3.26c-0.6,10.26,2.94,19.13,8.77,27.38
		c3.79,5.37,9.22,8.15,14.89,10.75c1.75,0.8,2.24,0.09,2.21-1.54c-0.02-1.24-0.15-2.52,0.07-3.72c0.34-1.85,1.08-3.34,3.24-1.5
		c0.31,4.27-1.15,8.03-3.39,11.56c-2.8,0.15-4.78-2.23-7.46-2.44c-3.45-0.77-6.23-2.64-8.78-5.38c0.5,2.36,1.67,4.25,2.36,6.3
		c0.6,1.77,1.48,3.8-1.3,4.73C67.34,201.11,66.59,200.82,65.84,200.52z"/>
	<path class="st28" d="M108.99,257.14c-6.35,0.14-12.15-1.45-17.01-5.68c-7.61-6.6-9.35-15.64-9.94-25.01
		c-0.21-3.28,0.3-6.61,0.48-9.92c1.24-4.46,0.17-9.46,3.21-13.5c0.5-0.12,0.91,0.01,1.24,0.4c0.99,1.64,0.78,3.47,0.79,5.25
		c0.03,6.35,0.05,12.69,0,19.04c-0.03,4.51,1.02,8.8,2.87,12.83c3.63,7.95,10.35,10.98,18.72,11.27c2.21,0.08,4.78-0.81,6.45,1.62
		C114.18,255.87,110.34,254.21,108.99,257.14z"/>
	<path class="st29" d="M56.68,214.97c-0.78-1.05-1.43-2.17-0.17-3.27c1.12-0.98,2.38-1.09,3.84-0.51
		c6.55,2.59,12.46,13.75,10.89,20.56c-0.6,2.6-2.16,4.46-4.34,5.76c-1.98,1.18-4.26,1.45-6.28,0.18c-2.63-1.65-2.44-4.39-2.2-7.05
		c0.42-2.82,2.27-4.59,4.59-5.82c2.08-1.1,1.75-2.15,0.68-3.85C61.94,218.2,59.4,216.52,56.68,214.97z"/>
	<path class="st30" d="M219.32,257.12c-12.51,0.4-21.63-7.09-24.12-19.82c-1.67-9.05-0.98-25.61,1.63-29.74
		c2.62,7.5,0.38,14.83,1.56,21.83c0.64,2.67,1.37,5.32,2.07,7.98c2.11,8.02,7.36,12.64,15.33,14.4c1.07,0.24,2.18,0.34,3.12,1.01
		C220.23,254.11,220.59,255.54,219.32,257.12z"/>
	<path class="st31" d="M197.67,230.65c-1.46-5.12-0.39-10.34-0.68-15.51c-0.11-2.03-0.02-4.07-0.71-6.11
		c-0.36,9.42-0.72,18.85-1.08,28.27c-2.16-3.72-2.02-7.9-2.16-11.94c-0.19-5.45-0.29-10.93,0.27-16.39c0.14-1.39,0.77-3.01-0.6-4.25
		c-0.56-1.46-0.09-2.96-0.19-4.44c-0.01-1.34,0.11-2.65,1.09-3.7c0.5-0.55,1.39,1.71,1.43-0.01c0.08-3.46,1.76-6.54,1.97-9.94
		c1.38-0.72,2.75-1.56,4.12,0.02c-0.04,0.51-0.07,1.02-0.11,1.53c-0.58,2.57-1.68,5.07-1.21,7.81c-1.15,9.6-0.59,19.23-0.76,28.85
		C199.02,226.85,199.42,229.02,197.67,230.65z"/>
	<path class="st32" d="M184.13,267.59c-4.9,0.06-11.12-5.72-11.56-9.96c-0.18-1.71,0.62-2.58,2.24-2.86
		c4.35-0.74,8.69-1.59,13.06-2.17c3.02-0.4,4.5,0.85,3.59,4.13c-0.48,1.72-0.81,3.5-1.13,5.26
		C189.63,265.93,187.19,267.62,184.13,267.59z"/>
	<path class="st33" d="M270.85,227.27c1.84-4.21,3.33-8.49,3.28-13.18c-0.01-1.18-0.33-2.47,0.76-3.43
		c-0.29,8.24,0.72,16.54-0.71,24.73c-1.27,7.27-2.91,14.43-10.82,17.69c-1.36-2.12,0.37-3.92,0.62-5.88
		c3.6-4.63,4.54-10.21,5.64-15.74C269.9,230.03,269.5,228.4,270.85,227.27z"/>
	<path class="st34" d="M56.68,214.97c6.08,0.25,7.38,5.52,10.46,9.55c-4.35,0.56-6.6,3.26-8.72,6.13
		C54.47,228.03,53.56,219.82,56.68,214.97z"/>
	<path class="st35" d="M264.05,247.98c1.07,1.88-0.88,3.35-0.7,5.11c-4.29,2.72-9.12,3.61-14.05,4.16c-1.85,0.61-3.77,0.12-5.64,0.3
		c-2.95,0.3-3.7-0.94-2.56-3.56c0.86-1.45,2.27-2.01,3.83-2.02c5.86-0.06,11.45-1.19,16.72-3.82
		C262.39,247.78,263.22,247.66,264.05,247.98z"/>
	<path class="st36" d="M85.85,203.21c-1.17,4.43-1.45,9.07-3.32,13.32c-0.66-6.15,0.3-12.24,0.74-18.35
		c0.48-4.04,2.13-7.74,3.39-11.56c1.29-0.93,2.76-0.95,4.26-0.82c-0.35,1.09-0.71,2.18-1.07,3.27c-1.42,2.11-1.4,4.51-1.39,6.91
		C88.1,198.59,87.21,200.99,85.85,203.21z"/>
	<path class="st37" d="M164.64,205.77c0-1.43,0.01-2.86,0.01-4.3c6.02-1.87,12.19-2.2,18.42-1.7c3.99,2.53-0.51,3.34-1.02,4.97
		C176.26,205.09,170.45,205.43,164.64,205.77z"/>
	<path class="st38" d="M241.65,253.71c-0.55,2.6-0.05,4.14,3.15,3.54c1.45-0.27,3-0.02,4.5-0.01c-10,1.03-19.99,1.3-29.98-0.13
		c-0.17-1.35,0.5-2.9-0.89-3.98c2.95-2.29,5.86-0.43,8.78,0.06c3.78,3.98,6.29,4.01,10.56,0.1
		C239.14,252.77,240.46,252.69,241.65,253.71z"/>
	<path class="st39" d="M68.09,201.4c1.41-1.28,1.58-2.54,0.62-4.36c-1.45-2.74-2.47-5.7-3.36-8.75c3.27,2.95,6.99,5.03,10.46,7.45
		c-1.63,0.1-0.8,1.24-0.93,2.05C74.29,201.56,71.09,203.23,68.09,201.4z"/>
	<path class="st40" d="M108.99,257.14c-0.28-2.44,0.65-3.6,3.25-3.32c1.21,0.13,2.46-0.1,3.69-0.17c1.88-1.21,3.72-1.28,5.5,0.19
		c-0.59,1.04-1,2.12-0.81,3.34C116.75,258.12,112.87,257.57,108.99,257.14z"/>
	<path class="st41" d="M182.06,204.75c-0.7-2.29,1.91-2.42,2.51-3.86c2.97-2.22,5.99-1.85,9.05-0.2c0.24,1.46,0.17,2.86-0.9,4.03
		C189.17,204.72,185.61,204.74,182.06,204.75z"/>
	<path class="st42" d="M45.92,111.9c-0.72-6.99,3.39-12.25,8.89-16.59c4.45-3.51,11.73-2.1,15.14,2.31
		c3.83,4.96,4.7,10.58,5.14,16.64c0.47,6.43-8.76,15.37-16.14,14.91c-6.53-0.41-12.68-5.36-13.03-14.54
		C45.9,113.93,45.92,113.24,45.92,111.9z"/>
	<path class="st2" d="M288.13,186.61c3.21-17.8,3.25-35.08-8.41-50.39c-0.9-1.18-1.87-2.19-0.35-3.48c1.83-1.55,2.73,0.01,3.58,1.23
		c5.94,8.47,9.99,17.46,10.5,28.16c0.4,8.44,0.43,16.75-1.28,25c-0.49,2.36-0.58,5.44-3.97,6.13c-2.36-0.55-1.84-2.29-1.35-3.75
		C287.2,188.53,287.8,187.62,288.13,186.61z"/>
	<path class="st43" d="M288.13,186.61c0.47,2.21-2.18,4.46,0.08,6.64c0.04,1.09,0.6,1.64,1.68,1.68c-4.36,4.08-8.59,8.34-14.42,10.3
		c-0.58-0.74-0.23-1.27,0.21-1.52c7.94-4.55,6.56-14.12,4.17-20.59c-1.69-4.57-4.9-8.2-7.35-12.29c3.77,0.98,5.64,4.21,7.83,6.91
		c2.23,2.75,4.26,5.72,5.92,8.85C287.25,188.45,287.52,186.88,288.13,186.61z"/>
	<path class="st44" d="M88.76,126.12c-1.96,0-2.85-2.17-3.01-4.86c-0.2-3.4,2.58-7,5.32-6.66c2.47,0.31,3.72,2.07,3.84,4.58
		C95.09,123.04,93.01,126.02,88.76,126.12z"/>
	<path class="st45" d="M256.58,122.53c0.03-2.49-0.08-5.44,2.89-5.17c3.11,0.29,4.88,2.73,4.78,6.22c-0.07,2.61-0.54,5.15-3.63,4.85
		C257.28,128.1,256.4,125.35,256.58,122.53z"/>
	<path class="st46" d="M84.24,159.17c-3.85-8.1-5.72-16.58-5.06-25.57c1.72,2.24,1.22,4.98,1.59,7.5
		c0.86,5.89,2.62,11.54,4.25,17.23C85.38,159.19,84.96,159.32,84.24,159.17z"/>
	<path class="st47" d="M84.24,159.17c0.26-0.28,0.52-0.56,0.78-0.84c0.95,1.79,2.19,3.48,1.71,5.7
		C85.9,162.41,85.07,160.79,84.24,159.17z"/>
	<path class="st48" d="M303.21,203.18c8.72,18.97-2.35,43.43-22.24,49.16c-1.41-2.51,0.9-4.22,1.33-6.34
		c1.28-6.32,3.95-12.34,2.73-19.15c-0.88-4.89,0.89-9.95-0.04-15.02c-0.49-2.66-0.44-5.11-4.18-4.3c4.09-3.21,8.18-6.42,12.27-9.62
		C297.61,197.45,300.33,200.47,303.21,203.18z"/>
	<path class="st11" d="M241.65,253.71c-1.34,0.02-2.67,0.04-4.01,0.05c-3.3,1.95-6.62,1.92-9.95,0.09
		c-3.08-0.24-6.17-0.48-9.25-0.72c-11.32-1.3-16.78-6.27-19.82-18.08c-0.37-1.46-0.64-2.94-0.95-4.41
		c0.02-11.83-0.16-23.66,0.96-35.46c1.33-1.89,3.33-1.61,5.22-1.57c3.68,0.06,7.37,0.63,10.77-1.57c1.18-0.77,2.65-0.25,3.9,0.41
		c9.53,3.81,19.37,6.21,29.68,6.38c1.66,0.03,3.35,0.41,4.24-1.6c0.87-1.95-0.37-3.06-1.48-4.33c-0.87-0.99-2.2-1.65-2.53-3.6
		c5.08,0.32,10.14-1.34,14.88,1.47c1.04,1.57,2.09,3.14,3.63,4.58c-0.68-1.05-1.75-1.77-0.95-3.03c0.05-0.07,0.22-0.11,0.32-0.1
		c0.13,0.02,0.25,0.11,0.38,0.16c2.68,1.37,1.97,3.94,2.58,6.24c2.51,9.49,0.92,19.11,1.58,28.64c0.22,5.3-1.34,10.26-2.88,15.24
		c-0.72,2.32-1.77,4.24-3.91,5.47C257.27,252.57,249.43,253.01,241.65,253.71z"/>
	<path class="st49" d="M218.52,192.45c-6.36,2.92-13.24,2-19.9,2.73c-0.83-2.89,0.36-5.1,2.4-7.01c2.29,1.8,4.97,0.9,7.43,0.84
		C212.33,188.92,215.62,189.97,218.52,192.45z"/>
	<path class="st50" d="M303.21,203.18c-0.51,0.12-1.43,0.44-1.47,0.34c-1.75-3.65-5.63-3.98-8.66-5.6c3.66-3.83,4.88-3.8,7.6,0.26
		C301.72,199.73,302.96,201.21,303.21,203.18z"/>
	<path class="st51" d="M266.69,192.39c-0.96,1.45,0.77,1.72,1.17,2.56c0.45,0.94,0.52,1.78-0.05,3.27c-1.56-2.81-4.85-3.92-4.5-7.45
		C264.65,190.86,265.79,191.39,266.69,192.39z"/>
	<path class="st52" d="M243.23,182.36c2.12,0.93,3.56,1.55,5.42,2.37C246.03,185.92,244.56,185.25,243.23,182.36z"/>
	<path class="st53" d="M275.01,325.93c1.69,0.93,2.57,2.56,0.32,3.16c-6.56,1.75-13.38,2.88-19.84-0.18
		c-6.47-3.07-10.06-10.31-1.44-16.54c0.89-0.64,1.78-1.28,2.67-1.92c4-2.95,8.62-4.22,13.45-4.48c4.49-0.24,9.63,3.7,10.44,7.43
		c0.91,4.2-1.29,8.12-5.98,10.67c-6.59,3.57-11.86,2.94-15.86-1.89c-0.6-4.22,0.21-5.47,4.98-7.7c1.92-0.39,3.84-0.51,5.61,0.51
		c1.26,0.72,2.19,1.82,1.92,3.36c-0.33,1.87-1.83,1.73-3.25,1.61c-1.03-0.09-2.12-0.5-3.33,0.63c2.99,1.61,5.15-0.08,7.41-1.06
		c2.02-1.1,3.89-2.34,3.01-5.09c-0.8-2.53-2.92-3.03-5.24-3.12c-5.18-0.19-9.71,1.5-13.66,4.78c-3.4,2.82-3.28,5.87,0.3,8.4
		c2.2,1.55,4.68,2.23,7.39,2.04C267.67,327.27,271.24,324.73,275.01,325.93z"/>
	<path class="st54" d="M275.01,325.93c-3.81,1.22-7.66,2.13-11.71,1.65c-2.07-1.49-5.42-2.11-4.03-5.94
		c5.1,5.54,16.96,3.67,20.21-3.19c2.18-4.61-2.07-10.64-8.11-11.29c-3.6-0.39-7.12,0.18-10.48,1.6c-1.38,0.58-2.77,1.13-4.16,1.7
		c2.37-4.17,7.04-3.8,10.72-5.07c5.9-2.04,10.97,0.58,13.48,6.08c1.84,4.03-0.62,10.13-5.2,13.1
		C275.35,324.8,275.24,325.46,275.01,325.93z"/>
	<path class="st11" d="M121.44,253.85c-1.82-0.52-3.66-0.41-5.5-0.19c-3-0.22-6.02-0.33-9.01-0.67
		c-12.87-1.5-19.11-9.41-20.23-23.69c-0.67-8.65-0.19-17.38-0.23-26.08c-0.21-3.56,1.79-4.7,4.94-4.32c3.3,0.4,6.58,0.78,9.91,0.62
		c1.72-0.08,3.23-0.65,4.67-1.52c0.6-0.3,1.23-0.42,1.89-0.35c1.02,0.67,1.68,1.47,3.41,1.11c7.04-1.47,14.3-1.99,21.02-4.86
		c1.35,0.6,2.61,0.88,3.61-0.65c1.08-1.64-0.99-2.26-1.28-3.91c7.8-0.24,15.36-1.17,22.48,2.83c1.55,0.87,2.23,1.76,2.38,3.43
		c1.32,14.34,1.23,28.61-1.4,42.84c-1.2,6.48-4.77,10.66-10.91,12.77C138.81,254.06,130.1,253.72,121.44,253.85z"/>
	<path class="st55" d="M108.09,198.17c-0.5,0.05-1,0.09-1.5,0.14c-4.62-0.83-9.34-0.18-13.96-0.91c-1.73-0.28-3.6-0.25-5.06-1.5
		c0.4-2.39-1.76-5.65,2.29-6.81c2.37,1.62,5.05,0.73,7.56,0.76c6.97,0.08,13.94-0.35,20.59,2.53c2.94,1.27,6.2,0.74,9.31,1
		c-0.03,0.59-0.3,1.18-0.85,1.25C120.24,195.35,114.47,198.34,108.09,198.17z"/>
	<path class="st56" d="M193.62,200.69c-3.02,0.07-6.03,0.13-9.05,0.2c-6.66-0.59-13.26,0.98-19.92,0.59
		c-0.66-6.54-0.67-6.5,5.47-5.46c7.8,1.32,15.66,0.74,23.5,0.55C193.62,197.94,193.62,199.32,193.62,200.69z"/>
	<path class="st57" d="M108.09,198.17c6.31-1.97,12.6-4.04,19.22-4.8c0,0,0.03-0.03,0.03-0.03c1.6-1.02,3.21-1,4.82-0.01
		c0.13,0.16,0.18,0.34,0.15,0.54c-0.46,1.3-1.56,1.94-2.73,2.3c-6.8,2.06-13.86,2.77-20.84,3.86
		C105.6,200.53,110.02,198.22,108.09,198.17z"/>
	<path class="st58" d="M187.9,192.57c-8.14,0.84-16.05,0.06-23.75-2.64C172.27,189.01,180.35,188.32,187.9,192.57z"/>
	<path class="st59" d="M143.3,184.88c-3.57,1.92-6.82,0.19-9.97,0.04c-2.22-0.1-1.33-3.11-1.77-4.82c-0.24-0.95-0.77-2.43,0.33-3.02
		c1.43-0.75,2.56,0.55,3.6,1.38C138.05,180.49,140.54,182.6,143.3,184.88z"/>
	<path class="st60" d="M132.16,193.34c-1.61-0.38-3.21-0.41-4.82,0.01c2.2-1.46-0.16-2.65-0.43-3.94
		C130.67,188.29,130.37,192.15,132.16,193.34z"/>
	<path class="st49" d="M87.57,195.9c5.49,0.23,10.97,0.46,16.46,0.67c1.24,0.05,2.08,0.62,2.57,1.74c-0.54,2.04-2.07,2.3-3.87,2.26
		c-3.59-0.07-7.23,0.37-10.73-0.51c-3.04-0.76-4.93-0.11-5.52,3.15l-0.31,0c0,0-0.31,0-0.31,0
		C85.53,200.57,87.29,198.41,87.57,195.9z"/>
	<path class="st61" d="M67.44,229.47c-0.22,2.97-1.35,4.39-3.41,4.97c-1.25,0.35-1.91-0.45-1.72-1.56c0.35-2.07,1.84-3.31,3.72-3.97
		C67.09,228.53,67.45,229.29,67.44,229.47z"/>
	<path class="st62" d="M185.12,256.73c1.87-0.39,2.39,0.31,2.03,1.47c-0.71,2.31-0.29,5.61-4.16,5.49c-2.98-0.1-5.42-3.51-4.92-4.5
		C179.38,256.61,183.04,257.52,185.12,256.73z"/>
	<path class="st63" d="M227.69,253.86c3.31-0.49,6.63-0.33,9.95-0.09c-0.59,5.75-5.02,3.02-7.9,3.46
		C226.92,257.67,227.98,255.24,227.69,253.86z"/>
	<path class="st64" d="M298.95,223.21c2.22,3.16,0.29,5.43-1.66,7.67c-1.85,2.13-4.04,3.34-6.96,2.41c-3.14-1-4.13-3.6-4.3-6.45
		c-0.42-6.7,2.04-12.44,6.48-17.35c2.13-2.36,3.79-1.69,4.82,1.15c-1.77,3.86-5.3,6.79-5.94,11.41
		C294.03,221.76,296.86,220.31,298.95,223.21z"/>
	<path class="st65" d="M298.95,223.21c-2.83-1.11-5.64-0.71-8.99,0.41c1.03-5.46,3.36-9.66,7.36-12.97
		C301.6,214.35,299.93,218.82,298.95,223.21z"/>
	<path class="st66" d="M229.87,215.49c4.81,0.02,8.59,4.26,8.62,9.68c0.03,4.36-3.94,8.63-7.9,8.51c-5.44-0.16-9.21-3.88-9.25-9.13
		C221.3,219.13,224.75,215.47,229.87,215.49z"/>
	<path class="st67" d="M259.27,321.64c-0.17,3.01,3.13,3.66,4.03,5.94c-0.95-0.05-1.95,0.05-2.85-0.19
		c-3.53-0.96-7.14-2.26-7.93-6.29c-0.83-4.24,2.93-5.79,5.69-7.67c3.51-2.38,7.49-3.34,11.71-3.31c3.37,0.02,6.06,1.3,6.81,4.75
		c0.69,3.19-1.73,4.6-4.22,5.7c0.07-5.62-1.87-6.86-8.38-5.35C261.6,316.66,258.63,317.78,259.27,321.64z"/>
	<path class="st68" d="M264.14,315.23c0.96-1.14,2.41-1.43,3.67-1.53c2.44-0.19,4.59,1.03,6.14,2.76c1.64,1.83-1.67,2.47-1.44,4.12
		c-2.15,1.31-4.44,2.32-7,2.03c-1.34-0.16-3.04-0.8-2.94-2.37c0.1-1.55,1.84-1.76,3.2-1.95c0.84-0.12,1.64-0.04,2.34,0.55
		c1,0.84,2.06,1.04,2.66-0.36c0.55-1.27-0.37-2.05-1.37-2.65C267.75,314.81,265.9,315.45,264.14,315.23z"/>
	<path class="st66" d="M125.73,216.05c4.6-0.08,8.6,4.29,8.82,9.64c0.18,4.26-3.67,8.74-7.58,8.83c-5.46,0.12-9.57-3.78-9.61-9.12
		C117.31,220.13,120.9,216.13,125.73,216.05z"/>
	<path class="st69" d="M290.36,228.68c1.44-1.64,2.99-1.83,4.65-1.81C294.04,228.42,293.27,230.34,290.36,228.68z"/>
</g>
</svg>
