<?xml version="1.0" encoding="utf-8"?>
<!-- Generator: Adobe Illustrator 26.0.0, SVG Export Plug-In . SVG Version: 6.00 Build 0)  -->
<svg version="1.1" id="圖層_1" xmlns="http://www.w3.org/2000/svg" xmlns:xlink="http://www.w3.org/1999/xlink" x="0px" y="0px"
	 viewBox="0 0 50 50" style="enable-background:new 0 0 50 50;" xml:space="preserve">
<style type="text/css">
	.st0{fill:#503934;}
</style>
<path class="st0" d="M4.19,24.98C4.21,13.46,13.5,4.18,25,4.18c11.53,0.01,20.86,9.36,20.81,20.86
	c-0.05,11.53-9.36,20.82-20.84,20.78C13.44,45.78,4.17,36.48,4.19,24.98z M17.69,30.21c0.05,0.86,0.45,1.53,1.26,1.91
	c0.8,0.37,1.67,0.21,2.34-0.44c1.12-1.11,2.24-2.22,3.33-3.36c0.32-0.34,0.49-0.29,0.79,0.02c1.07,1.11,2.17,2.2,3.26,3.29
	c0.5,0.5,1.1,0.76,1.81,0.66c0.84-0.12,1.44-0.6,1.72-1.41c0.28-0.81,0.08-1.55-0.51-2.15c-1.11-1.12-2.22-2.24-3.36-3.33
	c-0.34-0.32-0.29-0.49,0.02-0.79c1.1-1.06,2.17-2.15,3.26-3.23c0.51-0.51,0.79-1.12,0.69-1.84c-0.12-0.84-0.6-1.44-1.41-1.71
	c-0.81-0.28-1.55-0.08-2.15,0.52c-1.13,1.12-2.26,2.25-3.37,3.39c-0.25,0.26-0.4,0.3-0.68,0.01c-1.09-1.14-2.22-2.24-3.33-3.36
	c-0.5-0.5-1.1-0.76-1.81-0.65c-0.84,0.12-1.44,0.6-1.71,1.41c-0.28,0.81-0.08,1.55,0.52,2.15c1.12,1.13,2.25,2.26,3.39,3.37
	c0.26,0.26,0.3,0.4,0.01,0.68c-1.14,1.09-2.24,2.22-3.36,3.33C17.95,29.08,17.73,29.59,17.69,30.21z"/>
</svg>
