<?xml version="1.0" encoding="utf-8"?>
<!-- Generator: Adobe Illustrator 25.0.1, SVG Export Plug-In . SVG Version: 6.00 Build 0)  -->
<svg version="1.1" id="圖層_1" xmlns="http://www.w3.org/2000/svg" xmlns:xlink="http://www.w3.org/1999/xlink" x="0px" y="0px"
	 viewBox="0 0 500 500" style="enable-background:new 0 0 500 500;" xml:space="preserve">
<style type="text/css">
	.st0{fill:#FFFFFF;}
</style>
<g>
	<path class="st0" d="M101.74,124.74c0.75-5.64,1.96-11.66,2.26-17.71c0.35-7.05-0.22-14.14-0.19-21.21
		c0.05-10.34,0.19-20.69,0.47-31.03c0.42-15.68,1-31.36,1.48-47.04c0.17-5.59,0.13-5.62,5.75-6.95c1.37-0.33,2.79-0.43,4.18-0.66
		c3.03-0.51,4.57,0.81,5.87,3.63c2.19,4.72,3.06,9.48,3.16,14.66c0.59,30.21,0.28,60.39-1.68,90.55c-0.18,2.75-0.07,5.83,1,8.28
		c2.14,4.89,7.45,6.42,12.59,4.37c3.93-1.57,8.13-2.64,11.78-4.69c3.08-1.73,6.1-4.14,8.19-6.96c6.64-8.96,9.49-19.64,12.75-30.11
		c4.58-14.72,5.91-30.03,8.61-45.1c1.11-6.21,3.28-12.24,5.03-18.33c0.82-2.87,2.75-3.06,4.82-1.45c4.3,3.33,7.32,7.77,7.08,13.22
		c-1.07,24.76-3.37,49.4-9.83,73.43c-3.05,11.34-7.18,22.31-16.42,30.33c-3.61,3.14-7.27,6.49-11.49,8.58
		c-3.98,1.97-8.67,2.72-13.14,3.43c-3.7,0.59-7.54,0.22-11.3,0.46c-5.54,0.35-8.3,2.29-9.57,7.65c-0.97,4.08-1.66,8.43-1.37,12.58
		c0.71,10.21,2.07,20.37,3.21,31.03c1.49,0,2.74,0.02,3.99,0c15.81-0.33,31.61-0.65,47.42-1.03c2.05-0.05,3.95-0.27,5.04,2.12
		c0.33,0.71,1.46,1.16,2.31,1.52c5.43,2.35,7.15,6.26,5.26,12.15c-1.55,4.83-8.67,9.6-13.73,9.89c-3.47,0.2-6.93,1.22-10.32,2.13
		c-4.42,1.19-8.74,2.17-12.89-0.79c-0.43-0.31-1.11-0.51-1.61-0.43c-6.44,1.14-12.88,2.31-19.3,3.55c-5.71,1.1-8.18,4.2-8.43,9.88
		c-0.32,6.95-0.97,13.88-1.26,20.83c-0.24,5.59,1.57,8.07,6.76,10.19c9.99,4.08,17.09,11.56,23.3,20.02
		c9.28,12.63,15.97,26.66,22.22,40.95c0.69,1.57,2,3.11,3.42,4.08c3.72,2.54,6.11,6.03,7.16,10.21c2.12,8.45,3.23,17.18,5.84,25.46
		c5.61,17.8,5.87,36.51,10,54.5c3.04,13.27,2.75,26.41,1.13,39.66c-0.55,4.48-2.3,8.65-5.89,11.78c-2.37,2.07-4.7,2.29-7.34,0.42
		c-4.83-3.42-7.42-8.06-8.07-13.9c-2.11-18.98-3.82-38.02-6.47-56.92c-3.38-24.1-8.67-47.77-19.03-70.03
		c-4.71-10.13-10.65-19.44-18.25-27.63c-3.18-3.43-6.78-6.48-10.2-9.69c-1.92-1.79-3.45-1.48-4.08,1.09
		c-0.53,2.14-1.27,4.46-0.94,6.54c2.21,14.19,2.45,28.48,1.5,42.71c-1.45,21.8-1.68,43.59-1.21,65.42
		c0.2,9.13-1.32,18.29-1.85,27.44c-0.33,5.77-0.22,11.56-0.41,17.33c-0.34,10.59-0.45,21.21-1.31,31.76
		c-0.31,3.83-2.24,7.64-3.96,11.2c-0.53,1.1-2.86,2.05-4.24,1.91c-8.71-0.91-9.39-1.38-10.41-10.14
		c-0.68-5.83-0.59-11.77-0.49-17.65c0.45-26.06,1-52.12,1.6-78.18c0.04-1.91,0.93-3.78,1.23-5.71c0.3-1.95,0.45-3.93,0.47-5.9
		c0.01-1.4-0.85-3.05-0.37-4.17c2.87-6.66,0.1-13.18-0.18-19.74c-0.61-14.26-1.36-28.51-2.09-42.76c-0.1-1.88-0.24-3.79-0.68-5.61
		c-0.26-1.09-0.96-2.67-1.77-2.88c-1.1-0.28-3.04,0.12-3.65,0.94c-3.49,4.71-7.61,9.26-9.81,14.57
		c-4.62,11.18-8.08,22.84-12.21,34.23c-3.49,9.61-7.27,19.12-10.91,28.67c-0.21,0.54-0.53,1.11-0.52,1.66
		c0.21,13.59-4.8,26.08-7.93,38.99c-1.88,7.74-2.62,15.76-3.93,23.65c-0.24,1.47-0.5,3.03-1.18,4.33c-2.08,3.97-4.27,7.88-6.6,11.71
		c-2.19,3.6-5.03,6.57-9.39,7.5c-3.23,0.69-5.9-0.25-7.45-3.27c-0.84-1.65-1.66-3.46-1.86-5.27c-0.91-8.14-0.48-16.03,2.91-23.82
		c7.15-16.39,10.92-33.82,14.82-51.19c3.46-15.4,6.97-30.79,10.48-46.18c0.23-1.03,0.47-2.11,0.95-3.03
		c7.41-14.08,14.45-28.38,22.44-42.12c5.5-9.46,12.61-17.93,21.32-24.8c7.38-5.81,10.04-13.38,8.81-22.53
		c-0.14-1.03,0.02-2.09,0.01-3.14c-0.03-3.36,0.12-6.73-0.17-10.06c-0.27-3.15-1.12-6.24-1.5-9.38c-0.5-4.14-3.57-6.1-7.14-4.17
		c-3.16,1.7-6,2.95-8.57-0.9c-0.31-0.47-1.69-0.42-2.54-0.31c-14.49,1.88-28.98,3.75-43.45,5.78c-2.28,0.32-4.42,1.57-6.68,2.13
		c-4.34,1.07-7.53,0.05-9.62-3.84c-1.93-3.59-3.41-7.53-4.44-11.48c-0.96-3.68,4.21-9.24,8.16-8.19
		c11.01,2.92,21.43-1.31,32.13-1.83c13.17-0.64,26.29-2.13,39.42-3.4c0.96-0.09,2.43-1.25,2.6-2.13c1-4.93,2.42-9.94,2.3-14.88
		c-0.22-8.92-1.49-17.81-2.16-26.72c-0.17-2.2,0.18-4.46,0.47-6.67c0.5-3.82-0.53-5.19-3.84-3.67c-8.74,4.01-17.63,1.73-26.48,1.37
		c-4.02-0.16-6.29-3.27-8.69-6.07c-1.78-2.08-4.11-3.72-5.7-5.91c-3.49-4.82-8.16-9.45-9.64-14.9c-2.94-10.85-4.19-22.18-5.86-33.35
		c-1.63-10.87-3.27-21.76-4.21-32.7c-0.57-6.54,0.05-13.19,0.41-19.78c0.12-2.18,3.36-3.43,5.75-1.89c2.39,1.54,4.52,3.74,6.23,6.04
		c2.37,3.21,4.32,6.75,6.29,10.24c0.6,1.07,0.87,2.43,0.95,3.68c1,14.36,2.09,28.77,6.34,42.57c2.62,8.49,6.6,16.57,10.01,24.82
		c1.58,3.83,4.85,5.06,8.61,4.88c3.51-0.17,7.01-0.78,10.5-1.27C95.28,125.84,97.92,125.36,101.74,124.74z"/>
	<path class="st0" d="M365.84,274.76c-4.44,1.35-5.64,4.19-4.18,8.27c0.12,0.33,0.29,0.78,0.16,1.03
		c-2.31,4.42,1.24,8.26,1.18,12.41c-0.06,4.35-0.81,8.7-0.77,13.05c0.03,3.63,1.15,7.25,1.11,10.87
		c-0.1,10.24-0.53,20.48-0.85,30.72c-0.09,3.06-0.13,6.13-0.39,9.18c-0.17,1.95-0.67,3.88-1.08,5.8c-0.29,1.38-0.95,2.74-0.98,4.11
		c-0.16,7.86-0.18,15.72-0.25,23.58c-0.06,6.91,0.62,13.79,1.23,20.66c0.29,3.22,1.38,6.37,2.12,9.55c0.11,0.45,0.57,1.03,0.42,1.3
		c-3.18,5.89,2.73,11.4,0.69,17.22c3.61,3.69,1.13,7.69,0.63,11.6c-0.07,0.57-0.1,1.33,0.2,1.72c4.52,5.86,1.2,13.56,4.61,19.7
		c0.31,0.55,0.03,1.68-0.34,2.31c-1.44,2.42-9.52,4.36-12.12,3.13c-7.98-3.8-11.24-10.62-12.39-18.91
		c-1.12-8.14-2.6-16.23-3.51-24.39c-0.45-4.05-0.14-8.21,0.11-12.31c0.28-4.61,0.78-9.19-1.77-13.42c-0.23-0.38-0.46-0.97-0.31-1.32
		c2.37-5.79-0.33-11.39-0.5-17.08c-0.07-2.2,0.49-4.42,0.9-7.67c-1.89-1.45-4.36-4.05-8.37-3.98c-19.33,0.3-38.67,0.66-58.01,0.78
		c-3.81,0.02-5.78,1.46-6.24,5.07c-0.49,3.85-0.71,7.74-1.32,11.57c-0.49,3.11-1.38,6.16-2.09,9.24c-0.16,0.68-0.44,1.34-0.49,2.02
		c-0.47,5.95-0.94,11.9-1.33,17.85c-0.25,3.87-0.1,7.77-0.59,11.6c-0.36,2.83-1.17,5.7-2.32,8.33c-1.69,3.88-3.26,7.37-2.62,12.07
		c0.45,3.26-1.33,7.59-3.55,10.26c-3.09,3.71-7.4,6.48-11.44,9.3c-1.4,0.98-3.57,1.31-5.34,1.2c-4.9-0.3-6.28-2.38-5.36-7.22
		c2.78-14.58,6.24-29.07,8.08-43.77c1.72-13.77,3.36-27.55,5.18-41.31c0.8-6.03-0.76-12.35-1.02-18.55
		c-0.17-3.97,0.33-7.97,0.09-11.93c-0.25-4.04-1.03-8.05-1.58-12.07c-0.11-0.79-0.47-1.64-0.31-2.37
		c2.79-13.08,0.85-26.06-0.72-39.06c-0.62-5.15-1.05-10.32-1.81-15.45c-0.39-2.63-1.11-5.25-2.03-7.74
		c-1.41-3.78-0.14-6.14,3.93-6.12c1.79,0.01,3.64,0.77,5.35,1.46c1.74,0.7,3.26,2.23,5.02,2.53c4.73,0.82,5.6,4,6.2,8.04
		c1.21,8.14,1.44,8,9.45,8.52c11.8,0.77,23.52,0.44,35.28-1.02c4.09-0.51,8.39,1.09,12.6,1.13c5.5,0.05,11.01-0.57,16.52-0.75
		c1.8-0.06,3.71,0.02,5.39,0.59c6.33,2.13,8.34,0.92,8.44-5.55c0.07-4.59,0.09-9.18-0.08-13.76c-0.26-7.25,2.79-10.01,9.75-7.92
		c3.88,1.17,7.47,3.32,11.19,5.03C365.7,274.19,365.77,274.47,365.84,274.76z M342.88,305.44c-1.07,0-2.22-0.04-3.36,0.01
		c-23.31,0.9-46.62,1.79-69.92,2.72c-5.73,0.23-8.9,2.92-7.78,8.22c1.57,7.5-0.7,15.19,1.89,22.54c0.61,1.72,0.4,3.73,0.6,5.6
		c0.7,6.67,1.36,13.34,2.15,20c0.27,2.28,1.35,3.87,4.03,4.02c4.09,0.22,8.17,0.78,12.26,1.03c5.04,0.31,10.1,0.73,15.14,0.6
		c5.5-0.14,10.98-0.9,16.48-1.31c6.21-0.46,12.46-0.56,18.64-1.3c4.98-0.6,7.03-3.42,7.02-8.5c-0.01-4.48-0.24-8.96-0.16-13.43
		c0.04-2.31,0.05-4.82,0.92-6.89c2.42-5.75,3.5-11.26-0.72-16.57C343.54,319.34,344.59,313.05,342.88,305.44z"/>
	<path class="st0" d="M318.41,207.59c-3.02-3.6-6-7.19-9.03-10.74c-3.57-4.17-7.76-5.56-13.25-3.83c-10.78,3.4-21.6,6.72-32.57,9.45
		c-9.99,2.48-20.19,3.7-30.39,0.56c-10.21-3.15-14.07-8.45-13.39-19.06c0.43-6.69,0.87-13.42,2-20.02c0.55-3.24,2.67-6.21,4.09-9.34
		c3.55,1.91,6.39,3.1,8.79,4.87c1.28,0.94,2.22,2.79,2.59,4.4c0.62,2.73,0.76,5.59,0.93,8.41c0.35,6.06,2.56,9.61,8.49,10.48
		c6.21,0.91,12.68,1.19,18.91,0.51c6.74-0.74,13.53-2.34,19.93-4.62c7.27-2.58,14.13-6.31,21.15-9.58c2.69-1.26,3.76-3.55,4.3-6.41
		c0.58-3.06,3.24-3.85,5.07-1.38c3.92,5.3,7.68,10.79,6.57,18.04c-1.27,8.27-0.28,16.43,1.43,24.56c0.57,2.72,2.1,4.37,4.58,5.33
		c7.28,2.84,14.35,2.28,21.07-1.62c7.92-4.59,13.09-10.9,13.17-20.67c0.05-5.4,0.81-10.81,1.3-16.2c0.12-1.28,0.07-2.89,0.79-3.74
		c1.34-1.58,3.07-3.5,4.89-3.81c1.63-0.28,4.15,0.97,5.27,2.36c1.57,1.94,2.26,4.61,3.24,7c1.59,3.91,4.27,6.29,8.57,6.98
		c12.98,2.07,25.99,3.16,39.07,1.35c5.78-0.8,6.43-1.67,6.95-7.39c0.31-3.4,0.36-6.82,0.46-10.24c0.19-6.38,5.2-11.35,12.41-12.27
		c7.08-0.9,10.97,1.5,12.76,8.57c1.15,4.55,1.99,9.25,2.26,13.93c0.46,7.93-5.05,15.15-13.55,18.93
		c-10.32,4.6-21.14,5.58-32.21,4.53c-9.73-0.92-19.43-2.16-29.14-3.3c-7.07-0.83-10.34,0.77-13.27,7.2
		c-3.52,7.72-6.74,15.57-12.29,22.16c-1.74,2.07-1.81,4.32-0.92,6.93c1.33,3.93-0.95,7.02-4.88,6.3c-11.83-2.15-23.74-4.25-33.6-12
		c-0.74-0.58-1.5-1.15-2.17-1.81C312.94,216.68,312.91,212.78,318.41,207.59z"/>
	<path class="st0" d="M478.39,315.68c-0.3,5.51-1.84,7.52-7.18,9.17c-0.79,0.24-1.58,0.5-2.34,0.81c-6.52,2.72-7.06,5.95-1.91,10.72
		c2.59,2.4,5.01,4.97,7.51,7.47c0.41,0.41,0.77,0.92,1.25,1.22c5.43,3.38,6.97,9.04,3.2,14.1c-6.61,8.88-13.57,17.5-20.39,26.23
		c-3.48,4.46-6.9,8.97-10.46,13.37c-3.64,4.49-7.33,8.64-9.32,14.51c-5.89,17.38-12.82,34.4-19.02,51.67
		c-1.77,4.93-2.41,10.25-3.61,15.39c-1.34,5.69-6.14,9.46-11.9,9.42c-5.7-0.04-8.79-3.39-7.39-8.94c1.29-5.11,1.76-10.3,4.05-15.4
		c3.64-8.11,4.96-17.22,7.81-25.72c4.01-11.94,8.1-23.88,13.01-35.46c2.08-4.92,6.33-8.93,9.56-13.38c1.23-1.7,2.19-3.63,3.56-5.2
		c5.27-6.03,10.63-11.97,15.99-17.91c3.9-4.33,7.41-8.85,8.47-14.82c1.28-7.22-3.47-15.34-9.88-15.87c-2.79-0.23-5.97,0.42-8.5,1.64
		c-12.06,5.85-23.95,12.08-34.44,20.57c-1.83,1.48-3.61,3.05-5.22,4.76c-4.26,4.54-14.36,5.77-19.52,2.28
		c-4.23-2.87-5.18-9.7-1.28-12.92c3.56-2.94,6.68-7.26,12.35-6.39c0.5,0.08,1.12-0.29,1.62-0.57c7.86-4.41,15.62-9.01,23.59-13.21
		c8.41-4.44,17.18-8.22,25.48-12.85c4.26-2.38,7.88-5.91,11.68-9.06c1.95-1.62,1.49-3.49,0.49-5.69
		c-2.49-5.44-0.05-10.27,4.97-10.13c3.66,0.1,6.9,1.43,9.17,4.54c2.49,3.4,5.16,6.69,7.38,10.26
		C478.08,311.77,478.01,313.86,478.39,315.68z"/>
	<path class="st0" d="M392.9,134.02c9.14,0.74,18.32,1.23,27.41,2.34c3.28,0.4,6.48,2.07,9.49,3.61c1.03,0.53,2.03,2.58,1.81,3.69
		c-0.22,1.08-1.96,2.57-3.12,2.65c-12.82,0.86-25.4,6.07-38.51,2.27c-1.54-0.44-3.33-0.45-4.92-0.16
		c-9.85,1.77-16.36-4.67-23.46-9.52c-1.13-0.77-1.76-2.51-2.25-3.94c-2.01-5.79-6.25-8.91-12.08-9.46
		c-5.71-0.54-11.52-0.86-17.21-0.39c-6.85,0.57-9.38,3.69-10.02,10.49c-0.57,6.11-2.35,8.71-6.68,9.51
		c-2.66,0.49-5.39,0.4-6.95-2.16c-1.48-2.42-0.45-4.77,1.21-6.83c0.44-0.55,0.91-1.08,1.37-1.63c3.74-4.45,3.47-8.16-1.74-10.81
		c-3.28-1.66-7.35-1.83-11.09-2.5c-1.11-0.2-2.41,0.48-3.49,0.22c-7.54-1.86-14.65,0.41-21.96,1.72
		c-8.12,1.45-15.97-0.02-22.96-4.77c-2.98-2.02-4.75-4.87-5.3-8.44c-0.57-3.66,0.98-5.88,4.66-5.94
		c16.49-0.27,32.98-0.44,49.46-0.55c16.98-0.11,33.97,0.17,50.95-0.21c19.09-0.43,38.17-1.6,57.26-2.01
		c6.31-0.13,12.67,0.91,18.96,1.82c2.73,0.39,5.87,1.45,6.15,4.91c0.3,3.75-2.38,6.06-5.53,6.9c-4.51,1.2-9.24,1.63-13.88,2.34
		c-3.48,0.53-7.04,0.69-10.44,1.54c-6.16,1.54-12.21,3.48-18.32,5.23c-4.46,1.28-7.58,3.83-7.08,6.34c0.88,4.37,4.91,3.65,7.95,4.35
		c1.24,0.29,2.58,0.18,3.88,0.2c2.12,0.03,4.25,0.01,6.37,0.01C392.86,134.58,392.88,134.3,392.9,134.02z"/>
	<path class="st0" d="M321.67,65.72c-1.38-0.98-2.25-1.66-3.19-2.24c-2.39-1.5-4.93-2.79-7.19-4.46c-3.83-2.83-7.96-3.72-12.32-1.91
		c-5.31,2.21-10.37,5.06-15.71,7.18c-4.87,1.93-9.89,3.75-15.01,4.69c-4.22,0.78-6.78-1.81-7.62-6.09c-0.2-1.04-0.43-2.11-0.4-3.15
		c0.22-6.88,1.55-12.98,11.66-10.66c13.74,3.15,27.19-0.3,40.74-1.72c3.28-0.34,6.55-0.9,9.84-1.06c5.37-0.25,9.75-2.27,13.31-6.32
		c1.53-1.75,3.32-3.41,5.3-4.6c3.88-2.33,8.7-1.72,10.67,1.94c3.67,6.8,9.76,7.98,16.42,8.22c15.19,0.54,30.39,0.96,45.59,1.46
		c1.65,0.05,3.29,0.24,4.93,0.4c2.68,0.25,4.86,1.23,5.38,4.19c0.53,3.03-0.69,5.77-3.35,6.76c-3.9,1.46-8.12,2.86-12.21,2.85
		c-8.94-0.04-17.87-1.33-26.81-1.46c-8.33-0.12-16.75,0.06-24.99,1.16c-4.05,0.54-8.97,2.5-11.45,5.51
		c-12.67,15.38-30.31,21.63-48.27,27.09c-9.29,2.83-19.05,4.15-28.64,5.89c-4.05,0.74-7.39-1.1-8.3-3.82
		c-1.08-3.27,0-6.81,3.92-8.51c5.79-2.51,11.84-4.7,18-5.98c12.53-2.62,24.8-5.7,35.69-12.78
		C318.83,67.55,319.98,66.81,321.67,65.72z"/>
	<path class="st0" d="M301.83,29c-12.26,0-24.53,0.02-36.79-0.02c-2-0.01-4.03-0.05-5.99-0.42c-2.6-0.49-5.12-1.4-5.64-4.53
		c-0.51-3.1,1.34-5.04,3.8-6.11c3.43-1.49,6.99-3.02,10.64-3.62c9.76-1.6,19.56-3.12,29.41-3.89c8.65-0.67,17.39-0.12,26.08-0.41
		c7.42-0.25,14.82-1.25,22.23-1.33c13.55-0.14,27.1,0.2,40.66,0.22c5.03,0.01,10.1-0.78,15.08-0.37c5,0.41,9.92,1.82,14.87,2.87
		c3.11,0.66,6.16,1.58,9.28,2.14c2.3,0.41,3.75,1.42,3.83,3.82c0.09,2.67-1.71,3.82-3.98,4.12c-2.91,0.39-5.87,0.44-8.81,0.69
		c-24.89,2.11-49.76,4.6-74.69,6.19c-13.27,0.85-26.64,0.15-39.97,0.15C301.83,28.66,301.83,28.83,301.83,29z"/>
	<path class="st0" d="M388.87,325.04c-3.81-1.09-7.79-1.79-11.39-3.38c-3.77-1.67-3.93-3.96-0.96-6.71c1.45-1.34,3.1-2.62,4.88-3.44
		c8.23-3.78,16.66-7.16,24.8-11.12c7.8-3.8,15.55-7.82,22.93-12.38c6.29-3.89,11.95-8.8,18.04-13.04c2.67-1.86,3.92-4.2,4.27-7.3
		c0.65-5.71,3.64-7.34,9.01-4.9c1.26,0.57,2.43,1.44,3.51,2.33c3.16,2.61,6.23,5.32,9.38,7.95c3.07,2.56,3.62,6.11,0.42,8.41
		c-5.84,4.21-11.41,9.01-19.08,10.04c-8.31,1.12-15.89,4.11-22.17,10.02c-1.56,1.47-3.86,2.18-5.83,3.21
		c-5.43,2.84-10.95,5.51-16.26,8.55c-3.73,2.14-7.29,4.62-10.73,7.22C396.49,322.93,393.17,324.69,388.87,325.04z"/>
	<path class="st0" d="M467.65,65.48c-1.17,5.71-2.24,11.44-3.53,17.12c-1.03,4.58-2.23,9.14-3.51,13.66
		c-0.74,2.62-1.64,5.54-5.07,5.47c-3.44-0.07-4.7-2.95-5.41-5.71c-0.67-2.59-0.77-5.34-1.08-8.02c-1.09-9.44-2.01-18.91-3.28-28.33
		c-1-7.44-2.53-14.8-3.56-22.23c-0.32-2.31-1.07-3.8-3.05-5.11c-1.45-0.96-2.78-2.65-3.32-4.29c-1.02-3.1,1.2-5.47,4.49-5.36
		c10.27,0.35,16.64,6.27,21.1,14.83c4.54,8.72,5.65,18.12,5.29,27.79C467.03,65.36,467.34,65.42,467.65,65.48z"/>
	<path class="st0" d="M250.05,36.32c-1.12,1.85-2.04,3.86-3.41,5.5c-1.34,1.61-3.45,2.62-4.65,4.3c-1.14,1.6-2.51,3.96-2.11,5.58
		c2.47,10.1,0.42,19.92-1.1,29.81c-0.68,4.42-0.93,8.9-1.43,13.34c-0.31,2.75-0.68,5.68-4.1,6.17c-1.28,0.18-2.73-0.7-4.08-1.14
		c-0.17-0.06-0.22-0.42-0.4-0.57c-8.59-7.14-11.29-16.24-10.92-27.31c0.19-5.49,0.84-10.35,3.2-15.17
		c2.48-5.08,4.85-10.22,7.23-15.35c2.38-5.13,6.41-8.72,11.15-11.49C245.07,26.7,249.52,29.44,250.05,36.32z"/>
	<path class="st0" d="M403.68,224.88c10.06,0.91,20.13,1.63,30.15,2.84c2.93,0.35,5.88,1.77,8.49,3.29
		c5.2,3.01,5.13,8.72-0.45,10.76c-5.21,1.91-10.99,3.39-16.47,3.22c-13.27-0.41-26.52-1.76-39.75-3.01
		c-4.26-0.4-7.48-2.84-8.61-7.27c-1.2-4.69,0.9-8.27,5.72-8.56c6.92-0.41,13.89-0.1,20.84-0.1
		C403.63,225.65,403.65,225.27,403.68,224.88z"/>
	<path class="st0" d="M279,135.54c6.59-0.39,11.7,2.6,15.85,7.2c1.19,1.32,2,4.13,1.41,5.62c-0.67,1.67-3.02,3.52-4.84,3.75
		c-14.11,1.78-28.26,3.26-42.42,4.66c-3.22,0.32-6.68,0-7.93-3.74c-1.21-3.62,0.64-6.44,3.51-8.5c6.3-4.52,13.73-6.01,21.13-7.37
		C270.1,136.36,274.57,136.06,279,135.54z"/>
	<path class="st0" d="M379.29,71.76c10.67,0.36,21.59,1.86,32.09,5.77c4.06,1.51,6.83,4.04,7.42,8.55c0.52,3.93-0.2,5.77-4.13,6.43
		c-5.05,0.85-10.47,1.86-15.35,0.88c-8-1.6-15.77-4.55-23.48-7.34c-2.42-0.88-4.88-2.72-6.37-4.8c-1.15-1.61-1.58-4.56-0.9-6.4
		c0.53-1.44,3.13-2.42,4.99-2.98C375.19,71.37,377.07,71.76,379.29,71.76z"/>
	<path class="st0" d="M305.8,347.39c-6.81-0.48-13.63-0.8-20.41-1.54c-1.91-0.21-4.06-1.3-5.45-2.65c-3.71-3.64-2.83-7.17,2.2-7.96
		c7.75-1.23,15.59-1.87,23.42-2.53c4.56-0.39,9.19-0.07,13.74-0.54c4.1-0.42,5.01,2.19,5.78,5.1c0.93,3.54-0.2,6.6-3.4,7.52
		c-5.14,1.47-10.45,2.31-15.69,3.42C305.92,347.93,305.86,347.66,305.8,347.39z"/>
</g>
</svg>
