<?xml version="1.0" encoding="utf-8"?>
<!-- Generator: Adobe Illustrator 25.0.1, SVG Export Plug-In . SVG Version: 6.00 Build 0)  -->
<svg version="1.1" id="圖層_1" xmlns="http://www.w3.org/2000/svg" xmlns:xlink="http://www.w3.org/1999/xlink" x="0px" y="0px"
	 viewBox="0 0 500 500" style="enable-background:new 0 0 500 500;" xml:space="preserve">
<style type="text/css">
	.st0{fill:#FFFFFF;}
</style>
<g>
	<path class="st0" d="M343.69,217.57c3.49,3.4,6.9,6.16,9.64,9.57c2.62,3.28,5.04,7,6.63,10.97c1.67,4.16-0.05,8.34-3.37,11.07
		c-3.62,2.98-7.16,6.08-10.86,8.94c-6.12,4.72-12.96,6.95-20.38,5.45c-1.86-0.37-3.51-2.52-5-4.14c-0.27-0.29,0.48-2.39,1.21-3
		c3.39-2.88,7-5.44,10.39-8.31c1.72-1.45,3.43-3.1,4.62-5.05c1.6-2.61,1.84-5.61-0.64-7.91c-2.32-2.15-6.04-1.59-8.39,0.01
		c-17.08,11.69-33.81,24.3-54.51,27.23c-2.06,0.29-4.16,0.33-6.24,0.44c-0.44,0.02-0.88-0.18-1.28-0.26
		c-0.73-5.56,1.77-8.84,6.88-11.74c12.03-6.82,23.58-14.59,34.32-24.21c-0.79,0-1.6-0.14-2.35,0.02
		c-16.09,3.46-31.82,8.07-46.28,16.94c-2.82,1.73-12.08-0.46-13.85-3.38c-0.47-0.77-0.14-2.67,0.44-3.56
		c4.22-6.53,10.06-10.8,16.62-14.01c12.43-6.08,25.67-8.53,39.02-10.43c5.97-0.85,11.96-1.6,17.94-2.35
		c2.25-0.28,3.72-1.19,3.23-4.86c-5.19,0.51-10.32,0.53-15.25,1.61c-9.38,2.06-17.34-1.15-24.81-6.88c-2.08-1.6-3.19-3.56-2.33-6.53
		c0.6-2.06,0.84-4.24,1.3-6.34c1.25-5.7,4.29-9.43,9.63-10.8c3.26-0.84,6.51-1.83,9.66-3.09c1.61-0.64,2.98-2.02,4.46-3.07
		c-0.11-0.56-0.21-1.12-0.32-1.68c-6.6,0-13.23-0.37-19.81,0.09c-9.36,0.65-18.67,2.45-28.03,2.74c-7.1,0.22-14.31-0.69-21.35-1.94
		c-4.65-0.83-6.69-4.03-6.18-7.73c0.16-1.19,1.24-2.63,2.24-3.18c1.28-0.71,2.92-0.8,4.41-0.88c13.51-0.73,27.03-1.65,40.55-1.98
		c8.19-0.2,16.41,0.81,24.61,0.71c3.35-0.04,6.71-1.53,10.02-2.52c0.71-0.21,1.37-0.98,1.85-1.67c2.43-3.41,2.38-14.89-0.03-18.33
		c-1.49-2.11-3-3.28-5.87-2.52c-6.19,1.63-17.96-2.94-21.48-11.98c-2.67-6.87-0.71-14.48,5.52-19.49
		c5.63-4.53,12.25-5.92,18.94-6.86c15.89-2.23,31.83-2.31,47.85-1.78c16.9,0.55,33.84-0.65,50.74-0.27
		c5.22,0.12,10.55,2.44,15.56,4.54c5.56,2.34,8.09,7.64,8.95,13.98c0.8,5.87-0.9,10.5-5.29,13.99c-6.58,5.25-13.94,8.56-21.8,10.54
		c-2.33,0.59-3.69,1.56-3.71,4.47c-0.03,3.52-0.75,7.07-0.5,10.56c0.17,2.42,1.59,4.39,4.42,4.39c17.03-0.01,34.06,0.19,51.09,0.07
		c6.94-0.05,13.88-1,20.82-0.96c2.58,0.01,5.43,1.17,7.67,2.69c3.17,2.16,2.95,5.32-0.52,6.84c-3.04,1.33-6.49,2.04-9.78,2.14
		c-16.67,0.53-33.35,0.73-50.02,1.13c-23.96,0.57-47.91,1.23-71.87,1.79c-2.64,0.06-4.52,0.8-5.86,3.61
		c-2.17,4.53-5.74,7.28-10.35,8.24c-9.67,2.02-19.35,3.94-29,6.04c-2.48,0.54-4.93,1.44-7.29,2.47c-1.01,0.44-1.75,1.64-2.62,2.49
		c1.07,1.15,2.12,3.26,3.23,3.3c5.99,0.22,12,0.01,18-0.23c3.7-0.15,7.39-0.66,11.08-0.91c8.74-0.6,13.54,6.01,18,12.63
		c0.97,1.44,0.24,4.8-0.48,6.96C346.81,213.58,345.12,215.36,343.69,217.57z M309.06,107.17c0,2.68,0.07,6.22-0.02,9.75
		c-0.08,2.78,1.22,4.08,3.52,4.1c1.83,0.02,3.67-0.32,5.5-0.61c2.62-0.41,5.25-1.35,7.85-1.29c10.4,0.27,20.83,1.58,31.19,1.15
		c14.92-0.62,29.8-2.4,44.68-3.77c3.09-0.28,5.91-4.31,5.57-7.53c-0.36-3.45-4.84-7.55-7.66-7.28c-3.33,0.32-6.69,0.34-10.03,0.49
		c-7.14,0.32-14.28,0.7-21.42,0.92c-5.2,0.16-10.41,0.1-15.62,0.15c-10.52,0.1-21.04,0.22-31.57,0.33c-0.8,0.01-1.65-0.1-2.39,0.15
		C315.67,104.74,312.7,105.86,309.06,107.17z M333.42,137.71c0.55,4.47,0.99,8.63,1.58,12.76c0.3,2.05,0.76,3.83,3.43,3.74
		c11.81-0.43,23.62-0.6,35.43-0.96c5.18-0.16,7.17-3.2,5.91-8.8c-0.53-2.35-1.33-4.64-1.73-7.01c-0.76-4.58-1.38-5.13-5.7-4.88
		c-8.55,0.49-17.13,1.41-25.66,1.11C341.6,133.49,337.41,134.73,333.42,137.71z"/>
	<path class="st0" d="M54.57,253.71c-1.41-31.22,1.6-62.21,3.55-93.26c1.19-18.8,0.65-37.52-5.87-55.39
		c-0.65-1.77-1.41-3.5-2.25-5.17c-1.4-2.77-3.5-3.03-5.12-0.42c-1.22,1.97-2.03,4.29-2.84,6.53c-5.37,14.78-6.55,30.4-7.74,46.06
		c-1.31,17.14-3.2,34.22-4.67,51.34c-0.45,5.2-0.26,10.45-0.5,15.67c-1.24,27.26-2.92,54.5-3.66,81.77
		c-0.52,19.11,0.1,38.27,0.48,57.4c0.1,5.06,1.38,10.08,1.79,15.16c0.37,4.62,0.42,9.2-4.23,11.93c-2.31,1.36-4.35,1.26-5.36-1.09
		c-2.03-4.76-4.9-9.75-5.02-14.71c-0.57-24.62-0.36-49.26-0.42-73.89c0-1.27-0.19-2.64,0.15-3.81c3.86-13.02,2.24-26.27,1.5-39.49
		c-0.55-9.99-0.36-19.86,3.19-29.36c0.59-1.58-0.08-3.71-0.04-5.58c0.19-8.14,0.26-16.3,0.69-24.42
		c0.72-13.36,1.35-26.74,2.64-40.04c1.69-17.37,3.99-34.66,6.04-51.98c0.33-2.78,0.65-5.57,1.04-8.34c0.67-4.84,1.03-9.53,3.7-14.01
		c3.38-5.69,3.32-12.26,0.72-18.69c-5.73-14.15-10.1-28.72-11.85-44.22c-0.63-5.57,0.8-9.98,3.57-14.22
		c1.38-2.11,2.81-2.02,3.31,0.6c0.65,3.35,0.71,6.84,1.37,10.19c0.42,2.12,1.54,4.07,2.26,6.14c1.36,3.91,2.77,7.8,3.95,11.77
		c0.9,3.02,1.35,6.2,2.21,9.24c0.84,2.98,2.09,5.69,5.29,6.49c0.63,0.16,1.27,0.96,1.64,1.64c4.47,8.31,8.23,17.21,13.46,24.88
		c13.62,19.99,17.48,42.15,14.93,66.53c-1.28,12.24-0.89,24.69-1.53,37.02c-0.36,6.99-1.26,13.95-1.97,20.92
		c-2.34,23.12-2.69,46.32-2.12,69.55c0.52,21.17,1.13,42.33,1.79,63.49c0.23,7.26,0.87,14.51,1.02,21.77
		c0.07,3.28-0.61,6.58-0.93,9.87c-0.28,2.91-0.95,5.85-0.76,8.72c1.46,21.42,2.26,42.96,4.93,64.21
		c2.36,18.75,6.89,37.17,10.46,55.74c0.07,0.37,0.21,0.73,0.31,1.09c1.2,4.08,0.38,7.56-1.94,8.31c-3.85,1.23-7.52-0.75-8.8-4.8
		c-0.26-0.83-0.48-1.74-0.48-2.61c0.02-11.15-2.85-21.67-5.96-32.09c-4.45-14.92-6.57-30.04-6.27-45.87
		c0.26-13.59-1.43-27.22-1.97-40.85c-0.43-10.82-0.38-21.65-0.6-32.48c-0.07-3.29,0.22-6.75-0.61-9.82
		c-3.84-14.24-4.66-28.59-3.55-43.39c0.84-11.27,0.17-22.69,0.17-34.04C53.99,253.7,54.28,253.7,54.57,253.71z"/>
	<path class="st0" d="M171.25,75.03c-4.89,5.89-11.16,6.36-17.66,6.56c-4.01,0.12-7.99,1.18-11.99,1.84
		c-0.45,0.07-0.94,0.48-1.33,0.37c-7.28-2.07-14.22,2.36-21.3,1.5c-6-0.73-11.6,0.48-17.39,1.56c-9,1.68-16.39-7.21-14.43-16.99
		c0.21-1.03,1.24-2.3,2.14-2.64c3.58-1.36,7.25-2.48,10.92-3.54c4.47-1.29,8.93-2.77,13.49-3.51c2.49-0.4,5.23,0.28,7.75,0.97
		c5.79,1.59,10.61-0.34,15.14-4.17c0.9-0.76,2.33-1.09,3.51-1.08c5.33,0.05,10.67,0.66,15.98,0.37c7.47-0.42,14.98-1.02,22.33-2.42
		c3.86-0.74,3.74,2.29,5.71,5.18c0.42-0.97,0.64-1.82,1.1-2.48c1.82-2.65,4.14-3.49,7.05-2.3c2.67,1.09,5.14,0.75,8.02-0.03
		c5.27-1.43,10.84-1.91,16.3-2.05c4.81-0.12,8.95,8.35,6.87,13.4c-3.48,8.42-9.72,16.16-21.8,10.32c-0.42-0.2-1.04-0.65-1.26-0.48
		c-3.53,2.64-7.22,0.31-10.81,0.43c-2.42,0.08-3.38,0.92-2.98,3.64c1.5,10.32,2.37,20.79,4.55,30.92c1.59,7.38,2.1,14.78,3.06,22.19
		c2.03,15.75,4.69,31.41,6.98,47.12c0.5,3.45,0.74,6.98,0.73,10.47c-0.03,8.79-0.21,17.58-0.44,26.37
		c-0.3,11.19-0.45,22.4-1.16,33.56c-0.97,15.09-5.84,29.01-11.15,42.81c-5.15,13.37-10.51,26.66-12.97,41.1
		c-3.73,21.93-0.66,43.1,6.85,63.34c7,18.86,15.46,37.06,22.93,55.71c3.87,9.66,6.97,19.7,10.48,29.55
		c1.53,4.29,0.25,8.09-1.77,11.57c-2.85,4.92-6.46,5.19-9.25,0.3c-2.37-4.15-3.9-8.91-5.61-13.48c-1.79-4.8-2.67-10.08-6.95-13.35
		c-0.74-0.56-1-1.96-1.35-3.03c-8.2-24.66-16.77-49.19-24.47-74.04c-7.72-24.88-8.18-50.01,0.44-74.94
		c7.86-22.76,15.73-45.53,23.38-68.38c1.07-3.2,1.52-6.97,1.24-10.36c-2.39-28.32-4.68-56.66-7.72-84.91
		c-1.66-15.38-4.89-30.55-7.04-45.88c-0.75-5.38-0.23-10.96-0.61-16.42C176.4,84.35,175.46,79.11,171.25,75.03z"/>
	<path class="st0" d="M366.05,449.24c1.72,0.91,3.23,1.71,4.74,2.51c0.22,0.32,0.45,0.63,0.67,0.95c-7.37,2.46-8.19,9.24-9.86,15.61
		c-1.37,5.23-5.2,7.58-9.88,8.36c-1.14,0.19-2.31,0.16-3.47,0.19c-5.97,0.18-6.29-0.34-7.56-6.61c-0.99-4.9-1.71-9.37,3.16-12.31
		c0.26-0.16,0.44-0.6,0.53-0.96c3.12-11.31,7.39-22.1,9.32-33.97c1.71-10.48,5.68-20.87,15.8-26.02
		c5.96-3.04,10.22-11.94,10.36-21.74c-2.3,0.52-4.55,0.7-6.55,1.57c-3.33,1.46-6.46,3.46-9.75,5.05c-3.99,1.92-7.81,1.48-10.83-2.12
		c-0.72-0.86-0.61-2.79-0.49-4.19c0.06-0.73,0.87-1.52,1.51-2.02c8.28-6.43,16.07-13.82,26.5-16.03c4.43-0.94,8.75-2.43,13.15-3.57
		c0.96-0.25,2.01,0,3.02-0.09c0.98-0.09,2.03-0.1,2.92-0.5c3.25-1.47,6.34-3.46,9.68-4.57c8.87-2.95,18.44-4.19,26.58-8.67
		c7.87-4.33,14.12-2.84,20.92,0.96c1.76,0.98,3.31,2.44,4.95,3.67c-1.63,2.04-2.93,4.74-4.97,5.97c-3.1,1.88-6.69,2.76-10.09,4.03
		c-2.74,1.03-5.58,1.79-8.23,3.05c-3.54,1.69-6.24,3.92-5.77,9.18c0.26,2.89-1.06,5.95-1.66,8.93c-1.12,5.52,0.93,9.47,5.8,11.31
		c5.48,2.07,11.11,3.77,16.33,6.45c2.99,1.54,5.5,4.48,7.83,7.21c1.47,1.72,1.11,3.85-0.72,5.7c-2.03,2.05-3.56,4.71-5.64,6.7
		c-1.41,1.35-3.3,2.43-5.12,2.88c-3.83,0.93-7.78,1.28-11.66,2.03c-3.41,0.66-6.85,1.31-10.16,2.4c-3.37,1.11-6.45,5.93-5.92,9.69
		c0.24,1.73,1.84,4.06,3.3,4.62c8.31,3.17,16.91,5.44,25.1,8.93c5.19,2.21,9.9,5.88,14.67,9.17c1.01,0.69,2.08,2.7,1.88,3.85
		c-0.93,5.45,1.91,9.51,3.73,13.94c1.93,4.69,1.68,5.28-2.87,6.97c-2.28,0.85-4.44,2.11-6.73,2.93c-0.86,0.31-2.2,0.31-2.85-0.23
		c-2.82-2.36-5.69-4.73-8.11-7.56c-3.55-4.14-7.44-8.24-9.88-13.14c-2.82-5.66-7.51-8.13-11.96-11.1c-2.92-1.95-6.32-3.05-9.52-4.48
		c-6.77-3.04-12.82-7.16-17.14-13.84c-3.11-4.81-3.07-8.16,0.2-12.88c3.4-4.91,7.62-8.5,13.32-9.66c4.22-0.86,8.45-1.68,12.6-2.85
		c6.53-1.85,7.47-5.98,3.16-11.56c-6.89-8.93-13.58-18.05-20.29-27.15c-1.65-2.24-4.6-2.73-7.46-0.76
		c-2.01,1.38-3.52,2.63-1.97,6.08c1.09,2.43,0.82,5.95,0.33,8.81c-0.79,4.6-2.14,9.1-3.51,13.55c-0.41,1.32-1.57,2.48-2.61,3.41
		c-5.58,4.97-11.36,9.69-16.81,14.82c-3.32,3.12-5.59,7.16-5.65,12.27c-0.08,7.7-2.18,14.81-5.16,21.67
		C366.84,447.08,366.48,448.13,366.05,449.24z"/>
	<path class="st0" d="M338.26,65.94c0-2.17,0.01-4.32,0-6.47c-0.02-4.49-1.59-5.9-5.93-5.59c-6.82,0.49-13.64,1.22-20.45,1.22
		c-7.66,0.01-15.52-0.36-22.32-4.64c-6.87-4.32-14.17-8.12-19.52-15.02c-1.99-2.57-4.6-4.56-7.23-7.1c2.38-2.82,5.39-4.27,8.37-3.75
		c4.72,0.83,9.51,2.11,13.86,4.22c5.05,2.45,9.5,6.41,14.52,8.96c6.17,3.14,12.67,5.18,19.71,4.37c2.21-0.26,4.61,0.34,6.79,1.04
		c8.71,2.82,13.81,0.35,11.42-10.8c-2.04-9.51,0.61-13.58,11.67-13.68c2.77-0.03,5.69,1.19,8.31,2.43c3.72,1.76,4.02,5.9,4.51,9.66
		c0.23,1.75-0.11,3.57,0.01,5.35c0.22,3.31,2.29,5.65,5.23,5.35c12.46-1.3,24.98-2.49,36.4-8.85c2.65-1.48,5.24-3.41,7.32-5.72
		c5.5-6.12,12.18-6.43,19.06-4.89c4.57,1.02,5.2,4.41,2.93,9.01c-5.13,10.4-14.12,14.69-23.46,18.35
		c-12.41,4.86-25.29,5.99-38.36,5.23c-1.39-0.08-2.78-0.21-4.17-0.16c-4.36,0.15-7.15,4.3-5.73,8.74c0.29,0.91,1.64,1.95,2.55,2
		c5.17,0.32,10.34,0.41,15.52,0.47c7.03,0.08,14.07,0.29,21.08,0c8.9-0.36,17.78-1.05,26.66-1.79c8.18-0.68,16.42-2.66,24.44,0.5
		c2.82,1.12,5.49,3.21,7.75,5.45c2.7,2.67,2,5.03-1.65,5.75c-4.32,0.85-8.72,1.41-13.11,1.68c-14,0.84-28,1.76-42,2.16
		c-27.1,0.79-54.22,1.18-81.32,1.89c-5.9,0.16-11.77,1.34-17.67,1.46c-11.57,0.22-23.15,0.08-34.72-0.04
		c-4.37-0.05-8.75-0.25-13.08-0.82c-1.59-0.21-3.38-1.35-4.47-2.67c-1.02-1.25-2.11-3.78-1.61-4.87c0.75-1.63,2.82-3.46,4.41-3.55
		c15.27-0.91,30.55-1.4,45.83-2.16c12.15-0.61,24.29-1.42,36.44-2.16C336.84,66.46,337.38,66.19,338.26,65.94z"/>
	<path class="st0" d="M159.51,255.65c-0.86-0.59-1.9-1.31-3.34-2.3c-1.86,3.19-3.63,6.28-5.46,9.32c-2.81,4.68-5.4,9.55-8.56,13.92
		c-4.11,5.69-8.19,6.37-14.05,3.31c-0.9-0.47-1.97-0.72-2.98-0.76c-7.72-0.3-16.98-7.94-17.89-18.67
		c-0.41-4.89-1.75-9.68-2.67-14.52c-0.07-0.37-0.2-0.76-0.15-1.12c1.23-9.59-1.36-18.74-2.8-28c-1.59-10.23-0.06-20,2.45-29.81
		c0.99-3.86,2.32-8.38,1.4-11.95c-3.86-14.89-0.48-29.49,0.64-44.14c0.59-7.72,3.34-11.92,7.22-14.71c2.47,2.36,3.81,5.28,3.79,8.97
		c-0.03,6.25-0.11,12.5-0.01,18.75c0.04,2.66,0.24,5.38,0.83,7.94c1.14,5.01,3.03,5.69,7.37,3.95c3.01-1.21,6.29-1.62,9.42-2.5
		c5.54-1.55,5.76-2.03,6-8.18c0.34-8.65,0.58-17.32,1.4-25.93c0.3-3.12,1.74-6.37,3.39-9.01c2.14-3.43,5.58-3.16,7.19,0.56
		c1.25,2.88,2.37,6.43,2.01,9.47c-1.81,15.22,1.51,29.94,2.83,44.87c1.46,16.46,2.95,32.91,2.34,49.56
		c-0.31,8.55,1.22,17.19,1.93,25.79c0.04,0.5,0.39,1.02,0.3,1.47C161.31,246.45,160.42,250.95,159.51,255.65z M146.34,204.51
		c-0.42-3.23-1.18-9.41-2.04-15.56c-0.13-0.91-0.6-2.36-1.14-2.49c-2.78-0.69-5.61-1.14-8.45-1.46c-1.66-0.19-3.37,0.18-5.05,0.05
		c-3.32-0.27-6.65-1.16-9.93-0.95c-2.92,0.18-4.75,2.43-4.61,6.01c0.45,10.95,0.8,21.91,1.38,32.86c0.46,8.55,1.49,17.02,4.98,24.86
		c2.25,5.05,5.17,6.05,9.56,3.39c2.44-1.48,5.01-2.74,7.26-4.51c1.37-1.08,2.74-2.76,3.23-4.48
		C144.73,230.94,145.96,219.31,146.34,204.51z"/>
	<path class="st0" d="M287.87,480.11c-3.9,2.84-7.65,5.98-11.76,8.39c-2.01,1.18-4.17,0.42-5.93-2.18
		c-2.76-4.06-6.28-7.47-9.32-11.32c-2.5-3.16-4.33-7.14-7.23-9.7c-4.82-4.25-5.53-10.42-8-15.85c-1.9-4.19-3.83-7.71-3-12.48
		c0.14-0.78-0.19-1.87-0.65-2.52c-4.68-6.75-5.87-15.11-8.65-22.73c-1.91-5.22-1.84-10.78-0.56-16.21
		c1.24-5.28,2.69-10.5,4.05-15.75c0.16-0.61,0.5-1.29,0.39-1.85c-1.3-6.66,1.97-11.92,4.25-17.53c2.99-7.34,8.38-12.09,14.76-14.93
		c7.25-3.23,14.85-5.74,22.49-7.6c8.64-2.1,17.25-3.9,24.93-9.08c2.64-1.78,4.59-3.71,3.81-7.65c-1.01-5.15-2.07-7.16-6.43-7.67
		c-8.6-1.01-17.27-1.32-25.89-2.17c-4.11-0.4-8.24-1.05-12.24-2.14c-5.27-1.43-10.46-3.26-15.59-5.22
		c-1.12-0.43-2.51-2.08-2.55-3.23c-0.05-1.2,1.2-3.24,2.21-3.54c2.16-0.63,4.79-1.16,6.77-0.35c9.03,3.7,18.41,3.92,27.79,3.79
		c11.9-0.17,23.16,2.84,34.38,6.75c12.41,4.33,12.47,4.12,18.28,16.75c1.87,4.07,1.6,8.3-1.83,10.58
		c-5.82,3.87-12.03,7.05-18.24,10.15c-1.39,0.69-3.41-0.12-5.13-0.3c-11.08-1.2-22.01-0.8-32.51,3.83
		c-3.44,1.51-6.92,3.05-8.58,7.22c-0.27,0.66-0.85,1.22-1.38,1.7c-5.7,5.15-9.35,11.57-10.18,19.76c-0.04,0.37-0.11,0.79-0.3,1.09
		c-4.19,6.8-2.75,13.69-0.69,20.83c0.8,2.77,0.26,6,0.34,9.02c0.02,0.86-0.07,1.76,0.1,2.58c0.94,4.43,2.27,8.8,2.84,13.28
		c0.66,5.16,1.98,9.85,4.55,14.27c5.62,9.67,10.93,19.56,16.51,29.26C282.03,471.49,284.77,475.34,287.87,480.11z"/>
	<path class="st0" d="M422.02,256.26c-7.7-0.85-15.41-1.56-23.08-2.64c-2.35-0.33-4.68-1.47-6.85-2.62
		c-4.72-2.5-7.65-6.33-8.78-12.35c-3.13-16.74-3.04-33.4-0.48-50.17c0.4-2.61,1.46-4,3.79-4.7c7.08-2.13,12.06,1.37,13.06,9.37
		c0.62,4.98,1.41,5.74,6.01,5.74c10.31,0.01,20.62-0.16,30.92,0.09c3.49,0.08,4.54-1.61,4.64-4.91c0.04-1.27,0.08-2.55,0.1-3.82
		c0.12-6.43,1.88-9.44,6.35-10.89c4.51-1.47,9.82,0.7,12.38,5.3c3.81,6.84,6.38,14.09,5.86,22.35c-0.76,11.82-1.37,23.65-2.26,35.46
		c-0.11,1.41-1.34,3.34-2.5,3.91c-4.21,2.07-8.72,3.41-12.91,5.51C439.84,256.11,431,256.1,422.02,256.26z M443.83,220.25
		c-0.17-0.05-0.35-0.09-0.52-0.14c0-0.64,0.01-1.28,0-1.91c-0.16-6.32-0.96-6.91-6.62-6.23c-2.96,0.36-6,0.12-8.99-0.11
		c-5.3-0.4-10.66-1.87-15.86-1.32c-9.33,1-11.2,4.45-8.94,13.43c0.12,0.49,0.14,1.02,0.29,1.49c4.43,14.34,13.47,17.17,25.54,12.27
		c2.49-1.01,4.38-2.1,6.99-0.8c2.37,1.19,4.31,0.49,5-2.65C441.74,229.61,442.79,224.93,443.83,220.25z"/>
	<path class="st0" d="M321.59,375.37c-3.34,0.2-6.71,0.21-10.03,0.67c-3.92,0.54-6.5,3.05-7.61,7.33
		c-2.59,9.95-0.77,18.96,4.93,27.01c1.58,2.23,2.25,4.07,1.96,7.13c-0.31,3.18,0.73,6.76,1.9,9.83c1.79,4.68,4.71,8.88,6.21,13.65
		c1.33,4.22,2.54,8.17,5.29,11.64c1.99,2.51,2.96,6,1.27,9.26c-1.15,2.22-8.14,4.56-10.22,3.42c-1.8-0.98-3.29-2.69-4.83-4.19
		c-2.83-2.76-5.48-5.76-8.43-8.37c-2.48-2.19-3.64-4.72-3.51-8.23c0.31-8.23-2.41-15.3-7.22-21.48c-1.28-1.65-2.89-3.07-3.86-4.91
		c-1.12-2.14-2.71-4.9-2.27-6.9c0.81-3.7-0.53-6.41-1.61-9.42c-7.91-22.08,6.46-35.92,21.34-37.73c7.12-0.87,14.34-1.16,21.5-1.04
		c2.98,0.05,6.05,1.59,8.86,3c2.47,1.24,2.19,5.69-0.48,7.66c-1.29,0.95-2.97,1.55-4.52,1.7c-2.87,0.26-5.78,0.08-8.67,0.08
		C321.6,375.43,321.6,375.4,321.59,375.37z"/>
	<path class="st0" d="M451.02,317.41c-2.86,10.2-8.92,14.59-18.2,13.87c-1.92-0.15-3.98,0.23-5.82,0.9c-9.46,3.45-19.3,4.09-29.11,5
		c-7.31,0.67-13.69,2.75-19.29,8.91c-5.91,6.5-14.36,8.05-22.49,8.85c-1.84,0.18-3.94-2.1-5.78-3.47c-0.4-0.29-0.42-1.61-0.23-2.34
		c0.22-0.81,0.81-1.55,1.35-2.2c6.4-7.72,14.23-14.17,23.18-16.11c7.5-1.63,14.05-5.34,21.2-7.42c3.8-1.11,7.59-2.82,11.45-3.04
		c6.95-0.4,13.32-2.58,19.76-5.18c3.75-1.52,7.86-2.04,11.85-2.71C443.73,311.64,447.68,313.79,451.02,317.41z"/>
	<path class="st0" d="M353.54,321.42c-0.94-0.33-2.75-0.47-3.89-1.51c-0.96-0.88-1.61-2.84-1.5-4.23c0.08-1.1,1.52-2.09,2.39-3.09
		c0.13-0.16,0.45-0.11,0.66-0.2c13.09-6.04,27.02-8.8,40.66-12.74c1.89-0.55,3.69-1.49,5.56-2.18c0.85-0.32,1.95-0.95,2.59-0.62
		c3.58,1.87,6.83,0.22,10.11-0.88c9.53-3.2,19.03-6.52,28.54-9.78c4.39-1.51,10.14,0.8,12.32,5.14c0.34,0.67,0.15,2.1-0.3,2.76
		c-4.6,6.76-9.79,12.56-18.18,13.01c-22.08,1.19-43.78,4.76-64.92,12.18C363.34,320.74,358.67,320.68,353.54,321.42z"/>
</g>
</svg>
