<?xml version="1.0" encoding="utf-8"?>
<!-- Generator: Adobe Illustrator 25.0.1, SVG Export Plug-In . SVG Version: 6.00 Build 0)  -->
<svg version="1.1" id="圖層_1" xmlns="http://www.w3.org/2000/svg" xmlns:xlink="http://www.w3.org/1999/xlink" x="0px" y="0px"
	 viewBox="0 0 500 500" style="enable-background:new 0 0 500 500;" xml:space="preserve">
<style type="text/css">
	.st0{fill:#FFFFFF;}
</style>
<g>
	<path class="st0" d="M126.38,337.49c-1.58,2.97-2.98,5.15-3.95,7.5c-3.35,8.16-6.16,16.56-9.94,24.53
		c-3.26,6.87-7.27,13.46-11.49,19.83c-7.75,11.7-16.12,23.01-23.82,34.74c-6.25,9.51-11.85,19.42-17.86,29.08
		c-1.1,1.76-2.69,3.27-4.23,4.72c-6.17,5.78-12.16,11.78-18.72,17.11c-3.96,3.21-8.67,5.74-13.39,7.84
		c-4.31,1.92-7.27,0.06-8.48-4.47c-1.62-6.05-0.3-11.58,3.69-16.42c1.59-1.93,3.39-3.86,5.48-5.22c6.59-4.28,12.45-9.25,16.94-15.63
		c2.27-3.22,4.37-6.54,6.55-9.81c2.06-3.09,3.87-6.39,6.26-9.21c6.63-7.82,13.07-15.74,17.57-24.95c0.05-0.11,0.12-0.21,0.21-0.29
		c11.53-10.26,17.05-24.15,23.88-37.23c4.14-7.93,8.38-15.86,11.68-24.13c1.86-4.64,2.37-9.94,2.67-14.99
		c0.66-11.47-0.67-23.05,2.23-34.43c0.39-1.54-0.92-3.49-1.37-5.02c-0.81-0.13-1.09-0.26-1.28-0.19
		c-18.24,7.05-36.77,13.63-50.85,27.81c-1.02,1.03-2.08,2.03-3.02,3.12c-8.15,9.44-16.28,18.91-24.42,28.36
		c-1.18,1.37-2.29,2.8-3.57,4.07c-2.3,2.27-4.79,4.24-8.42,2.77c-3.01-1.21-6.11-5.7-5.98-8.79c0.41-9.76,3.54-18.54,11.15-25.19
		c10.73-9.37,22.29-17.9,32.46-27.79c4.82-4.69,10.4-7.64,15.87-10.96c7.03-4.27,14.45-8,21.9-11.58c8-3.84,13.53-10.42,18.5-16.92
		c7.03-9.19,2.12-17.44-8.64-21.23c-3.59-1.26-7.99-0.69-11.99-0.47c-4.15,0.22-8.26,1.06-12.4,1.58
		c-5.78,0.73-10.55-1.45-14.87-4.88c-9.36-7.43-15.48-16.54-17.2-28.46c-1.52-10.55-4.43-20.91-5.78-31.48
		c-3.09-24.32-4.32-48.72-2.59-73.26c0.47-6.64-1.61-13.42-1.92-20.16c-0.43-9.37-0.45-18.76-0.31-28.14
		c0.04-2.39,1.01-4.92,2.13-7.1c2.26-4.37,6.15-4.75,9.35-0.97c3.94,4.67,5.64,10.19,5.84,16.18c0.71,21.49,1.97,42.99,2.02,64.48
		c0.06,24.88,5.03,49.13,8.91,73.52c0.54,3.41,4.04,6.47,6.49,9.45c1.09,1.33,3.1,1.9,4.47,3.06c4.69,3.95,9.34,4.99,15.81,3.22
		c7.54-2.06,15.7-2.34,23.63-2.65c6.93-0.27,11.97,3.64,14.74,9.55c1.94,4.14,3.37,8.7,3.96,13.2c0.87,6.58,0.76,13.28,1.14,19.92
		c0.26,4.47,4.85,9.11,9.37,9.85c8.22,1.34,16.53,2.37,24.62,4.27c16.6,3.91,28.82,14.19,39.59,26.49
		c6.8,7.76,13.83,15.33,20.98,22.8c5.94,6.21,4.2,18.78-3.38,22.77c-2.55,1.34-4.4,1.46-6.53-1.17
		c-14.56-17.89-32.55-31.86-53.28-42.5c-6.98-3.58-14.43-5.29-22.41-3.14c-1.46,0.39-3.15,0.16-4.71-0.01
		c-5.37-0.59-8.47,1.95-7.61,7.18c1.05,6.43,2.73,12.77,4.34,19.1c2.35,9.21,4.62,18.46,7.45,27.54c1.44,4.62,3.77,9.02,6.11,13.31
		c7.5,13.76,15.1,27.47,22.85,41.1c10.82,19.03,21.77,38,32.77,56.93c1.67,2.88,3.85,5.51,5.96,8.13
		c10.36,12.87,11.59,27.02,6.33,42.05c-1.6,4.57-5.09,5.46-8.67,2.1c-1.88-1.77-3.44-4.07-4.48-6.41
		c-2.62-5.88-4.59-12.02-7.32-17.84c-2.26-4.81-5.22-9.31-7.87-13.95c-1.13-1.97-2.24-3.95-3.42-5.89
		c-9.05-14.86-16.66-30.38-23.89-46.15c-5.66-12.34-12.44-24.27-19.56-35.9c-5.91-9.66-11.3-19.41-14.55-30.21
		C127.72,340.49,127.19,339.44,126.38,337.49z"/>
	<path class="st0" d="M426.79,475.43c6.37-0.28,12.74-0.76,19.11-0.79c9.55-0.05,19.1,0.07,28.64,0.43c2.6,0.1,5.34,0.97,7.68,2.13
		c3.2,1.58,3.12,4.14,0.07,6.02c-7.44,4.6-15.87,5.41-24.39,5.64c-10.29,0.28-20.59,0.34-30.89,0.64
		c-6.36,0.18-12.71,0.86-19.07,0.92c-31.9,0.32-63.8,0.74-95.7,0.63c-11.87-0.04-23.74-1.34-35.58-2.3c-2.47-0.2-5.06-1.1-7.21-2.31
		c-1.24-0.69-2.28-2.65-2.3-4.05c-0.01-0.78,2.13-1.92,3.49-2.35c8.77-2.77,17.92-2.31,26.97-2.74c9.06-0.42,18.14-1.55,27.16-1.18
		c6.25,0.26,11.74-1.76,17.59-2.68c3.05-0.48,6.39-0.31,9.4,0.39c2.4,0.56,4.17,0.39,5.5-1.4c1.48-1.99,2.98-4.1,3.79-6.38
		c0.73-2.07,0.82-4.46,0.71-6.68c-0.6-11.49-2.21-12.9-13.91-13.26c-13.85-0.43-27.71-0.86-41.55-1.55
		c-3.36-0.17-6.81-0.96-9.96-2.11c-2.92-1.07-2.94-3.34-0.02-4.48c3.34-1.31,6.97-2.44,10.53-2.61c11.35-0.53,22.72-0.49,34.07-0.89
		c3.02-0.11,6.09-0.76,8.99-1.63c6.26-1.88,10.11-6.05,11.34-12.37c0.41-2.1,0.74-4.22,1.29-6.29c1.42-5.29,15.52-18.44,21.03-19.71
		c6.09-1.4,12.16-2.85,18.26-4.2c11.12-2.47,22.27-4.81,33.38-7.34c4.67-1.06,4.95-5.43,6.38-8.79c1.25-2.94-1.16-4.33-3.21-5.63
		c-6.49-4.14-13.79-6.17-21.37-7.25c-10.2-1.45-20.4-3.03-30.65-3.87c-5.66-0.46-11.47,0.25-17.16,0.89
		c-3.11,0.35-4.79,2.74-6.78,5.26c-5.99,7.57-11.19,16.03-20.17,20.9c-1.78,0.97-3.85,1.86-5.84,1.97
		c-10.2,0.56-19.3,4.19-28.15,8.75c-6.06,3.13-12.25,6.02-18.33,9.11c-0.87,0.44-1.57,1.3-2.17,2.09c-1.98,2.61-3.43,5.79-5.91,7.83
		c-8.95,7.38-14.74,16.14-16.52,27.65c-0.91,5.88-3.36,11.61-5.74,17.16c-1.91,4.45-6.06,5.94-10.98,5.26
		c-2.19-0.3-4.39-0.77-6.57-0.73c-4.23,0.08-6.22-2.43-6.55-5.82c-0.33-3.33-0.08-6.9,0.82-10.12c1.63-5.83,3.93-11.49,5.95-17.22
		c0.08-0.22,0.13-0.48,0.27-0.66c9.91-12.92,17.64-27.72,31.94-36.92c6.05-3.89,12.88-6.82,19.67-9.43
		c10.48-4.03,21.38-7.07,31.81-11.21c5.37-2.13,9.36-6.51,11.86-11.72c1.78-3.71,0.54-6.58-3.42-7.98c-2.61-0.92-5.45-1.63-8.2-1.69
		c-6.55-0.14-12.9-0.81-19.07-3.14c-3.64-1.38-7.52-2.16-11.27-3.28c-1.52-0.46-3.03-1-4.44-1.7c-2.44-1.2-5.03-2.52-4.68-5.71
		c0.37-3.42,3.61-3.12,5.97-3.63c7.95-1.72,15.79-1.05,23.66,0.86c11.88,2.89,23.71,6.5,35.8,7.99c18.95,2.34,38.12,3.04,57.17,4.67
		c10.99,0.94,21.96,2.27,32.9,3.63c1.62,0.2,3.2,1.4,4.61,2.38c3.48,2.42,6.87,4.96,10.26,7.5c3.71,2.79,7.81,5.42,5.67,11.05
		c-0.11,0.29-0.04,0.78,0.16,1.01c4.14,4.96,1.17,9.8-0.53,14.45c-1.54,4.21-5.45,6.56-9.68,7.59c-7.47,1.82-15.03,3.56-22.66,4.45
		c-11.74,1.36-22.6,5.26-33.41,9.48c-1.7,0.66-3.3,1.59-4.86,2.52c-6.99,4.19-9.06,8.96-6.94,16.58c0.24,0.87,1.86,1.88,2.92,1.97
		c10.85,0.97,21.7,2.15,32.58,2.52c13.6,0.46,27.22,0.19,40.84,0.26c0.98,0,1.98,0.05,2.92,0.28c2.25,0.55,5.01,0.93,4.98,3.84
		c-0.03,2.87-1.47,5.35-4.55,6.23c-1.6,0.46-3.38,0.36-5.09,0.43c-14.32,0.55-28.64,1-42.95,1.68c-2.9,0.14-5.89,0.8-8.59,1.84
		c-3.72,1.44-7.14,1.25-10.67-0.27c-1-0.43-2.08-0.72-3.15-0.97c-6.45-1.48-8.56-0.06-9.24,6.23c-0.45,4.14-0.9,8.27-1.24,12.42
		c-0.6,7.24,2.16,10.6,9.7,10.79c11.15,0.28,22.31,0.07,33.47,0.07C426.78,475.02,426.79,475.23,426.79,475.43z"/>
	<path class="st0" d="M479.89,98.34c-3.67,5.42-9.69,5.21-14.73,7.54c1.84,0.97,3.42,1.6,4.74,2.57c0.78,0.57,1.68,1.74,1.56,2.51
		c-0.11,0.72-1.39,1.65-2.3,1.84c-13.42,2.85-26.82,5.7-40.74,5.31c-13.6-0.38-27.24-0.68-40.82-0.13
		c-23.28,0.95-46.53,2.59-69.79,3.94c-0.49,0.03-0.98,0.08-1.47,0.14c-14.56,1.69-19.06,4.74-22.45,21.26
		c-0.93,4.53-0.92,9.23-1.7,13.79c-0.26,1.54-1.28,3.39-2.56,4.24c-3.1,2.08-4.27,4.67-3.99,8.19c0.73,9.31-1.19,18.03-5.92,26.24
		c-1.96,3.41-4.57,6.67-3.17,11.29c0.4,1.33-1.56,3.54-2.8,5.08c-2.52,3.15-6.08,5.68-5.7,10.36c0.04,0.5-0.77,1.11-1.28,1.59
		c-3.06,2.89-5.94,6.01-9.27,8.58c-3.97,3.07-8.14,5.98-12.57,8.37c-4.44,2.39-9.48,3.72-13.91,6.11c-3.26,1.76-5.73,0.48-8.17-0.89
		c-2.31-1.3-2.15-3.99,0.31-5.55c2.34-1.49,4.99-2.52,7.51-3.73c2.97-1.43,6.12-2.65,6.99-6.29c0.1-0.41,0.53-0.81,0.91-1.08
		c7.74-5.54,11.78-13.51,15.3-21.83c1.72-4.07,3.78-7.8,7.16-11.01c5.58-5.3,7.59-12.3,8.29-19.72c0.6-6.38,0.5-13.02,2.4-19.05
		c2.33-7.37,3.09-14.51,2.79-22.17c-0.37-9.64,4.34-17.14,13.55-21.52c1.39-0.66,2.99-1.11,4.53-1.25
		c40.32-3.63,80.64-7.25,121.21-6.87c12.01,0.11,24.03-0.66,36.04-1.23c1.58-0.07,3.1-1.36,4.64-2.08c-0.93-1.28-1.67-2.75-2.83-3.8
		c-4.23-3.83-9.55-5.63-14.97-7.27c-18.51-5.6-37.09-11-55.39-17.18c-5.87-1.98-10.75-1.9-16.1,0.6c-8.12,3.81-16.68,6-25.66,7.31
		c-6.36,0.92-12.59,3.11-18.66,5.3c-11.18,4.03-22.34,7.65-34.34,9.02c-7.6,0.87-14.88,4.08-22.46,5.48
		c-10.69,1.98-21.5,3.4-32.3,4.7c-1.85,0.22-4.16-1.02-5.86-2.15c-1.98-1.32-1.52-2.77,0.85-3.48c4.1-1.23,8.16-2.62,12.3-3.71
		c16.81-4.44,33.64-8.8,50.45-13.19c0.83-0.22,1.78-0.29,2.44-0.74c7.1-4.98,15.55-6.14,23.73-8.22c7.43-1.89,14.64-4.6,21.98-6.84
		c4.05-1.24,8.18-2.26,12.27-3.38c0.04-0.32,0.09-0.65,0.13-0.97c-0.96-0.54-1.86-1.21-2.88-1.59
		c-12.58-4.74-25.15-9.48-37.79-14.08c-1.37-0.5-3.22-0.43-4.65,0c-9.49,2.82-19.03,5.54-28.35,8.83c-12,4.23-23.76,9.2-36.65,10.28
		c-5.23,0.44-10.53,0.28-15.79,0.1c-1.14-0.04-3.01-1.21-3.14-2.06c-0.15-1.04,1.04-2.39,1.91-3.4c0.5-0.58,1.48-0.82,2.29-1.07
		c32.71-9.96,63.91-23.66,95.57-36.2c5.54-2.19,11.36-3.72,17.02-5.66c2.42-0.83,4.83-1.76,7.1-2.91c3.07-1.55,5.25-3.77,5.31-7.48
		c0.07-4.55,2.2-7.89,7.03-8.73c5.36-0.94,10.56-0.45,14.7,3.55c0.6,0.58,1.04,1.77,0.89,2.57c-0.65,3.55,1.23,5.92,4.05,7.31
		c5.11,2.52,10.27,5.26,15.75,6.72c25.79,6.85,51.7,13.3,77.56,19.9c3.56,0.91,7.11,1.86,10.65,2.84c0.93,0.26,2.25,0.41,2.65,1.05
		c1.49,2.34,2.66,4.86,3.95,7.32c-2.22,1.04-4.54,3.13-6.65,2.94c-6.9-0.62-13.9-1.48-20.53-3.34c-10.11-2.83-19.77-7.19-30.46-8.04
		c-3.32-0.26-6.09,0.17-7.57,3.58c-0.32,0.73-1.3,1.35-2.12,1.7c-6.6,2.85-13.22,5.65-19.86,8.41c-5.25,2.19-10.54,4.31-16.46,6.73
		c1.48,0.44,2.45,0.98,3.43,0.98c4.95,0.01,9.22,1.74,13.46,4.09c2.94,1.63,6.33,2.57,9.61,3.53c13.25,3.88,26.54,7.65,39.82,11.47
		C460.69,86.77,469.83,92.81,479.89,98.34z M325.15,39.64c1.52,3.22,4.01,4.61,7.2,5.17c3.23,0.57,6.48,1.1,9.64,1.94
		c9.21,2.44,18.39,5.01,27.57,7.54c3.21,0.88,5.85,0.57,8.78-1.59c3.35-2.47,7.57-3.82,11.35-5.76c2.92-1.49,5.86-2.98,8.58-4.77
		c1.36-0.89,2.24-2.46,3.01-3.35c-9.58-3.33-18.69-6.34-27.68-9.66c-7.98-2.94-15.67-3.41-23.23,1.07
		c-1.56,0.92-3.32,1.51-4.97,2.31c-5.44,2.64-10.65,5.86-17.04,6.08C327.34,38.67,326.34,39.26,325.15,39.64z"/>
	<path class="st0" d="M180.1,74.61c-0.64,16.97-1.15,33.95-1.96,50.92c-0.5,10.32-4.01,20-8.06,29.42c-1,2.32-3.38,4.29-5.54,5.9
		c-3.59,2.68-7.54,4.89-11.28,7.38c-6.21,4.13-12.94,5.55-20.3,3.75c-5.83-1.42-11.6-3.03-17.46-4.33
		c-3.45-0.76-7.03-1.62-10.49-1.45c-3.42,0.17-5.11-1.15-6.72-3.68c-6.59-10.37-9.53-21.87-10.61-33.77
		c-0.69-7.64-0.07-15.38-0.21-23.08c-0.27-14.72-0.73-29.44-0.97-44.16c-0.13-8.07,0.29-16.15-0.05-24.21
		c-0.18-4.44-1.68-8.82-2.1-13.27c-0.44-4.59-0.33-9.23-0.38-13.86c-0.01-0.8,0.16-1.8,0.66-2.36c1.84-2.09,3.51-5.04,5.87-5.78
		c3.15-0.99,5.07,2.25,6.64,4.63c3.98,6.02,4.72,12.91,5.23,19.8c0.6,8.17,0.91,16.36,1.54,24.53c0.2,2.57,0.76,5.2,1.67,7.62
		c1.49,3.93,4.41,5.38,8.48,3.96c3.13-1.09,5.7-0.81,8.73,0.37c6.24,2.42,12.74,2.11,19.18,0.53c3.17-0.78,6.83-0.98,9.33-2.71
		c3.81-2.63,7.6-5.99,8.32-10.87c0.75-5.14,1.04-10.38,1.1-15.58c0.09-8.06-0.6-16.15-0.12-24.18c0.18-3,2.46-6.01,4.26-8.73
		c1.07-1.62,2.86-1.53,4.79-0.24c8.32,5.55,11.9,13.11,11.57,22.83c-0.58,16.86-0.86,33.72-1.27,50.59
		C180.01,74.6,180.05,74.6,180.1,74.61z M106.27,104.58c-0.21,0.04-0.42,0.08-0.63,0.13c1.44,8.65,2.85,17.3,4.34,25.94
		c0.37,2.13,1.71,3.26,3.91,4.17c6.96,2.89,13.5,6.11,21.74,4.61c4.59-0.84,9.17-1.15,12.27-4.59c2.76-3.07,5.56-6.59,6.78-10.39
		c3.49-10.78,5.98-21.81,4.38-33.29c-0.7-4.99-1.26-5.97-6.4-6.61c-3.73-0.46-7.57-0.13-11.35-0.09c-5.6,0.06-11.2,0.18-16.79,0.29
		c-0.59,0.01-1.2,0.04-1.76,0.19c-2.75,0.72-5.45,1.83-8.24,2.14c-5.18,0.58-8.08,3.19-8.21,8.25
		C106.2,98.4,106.27,101.49,106.27,104.58z"/>
	<path class="st0" d="M425.27,266.52c-1.12-1.74-1.49-2.65-2.15-3.27c-3.25-3.05-1.78-6.49-0.5-9.56c1.27-3.03,4.42-3.76,7.5-3.08
		c5.35,1.18,10.64,2.63,15.9,4.15c0.82,0.24,1.64,1.3,1.97,2.16c0.94,2.41,1.94,4.86,2.37,7.38c2.07,12.04,6.41,23.99,2.78,36.37
		c-3.55,12.12-13.46,18.41-24.76,21.94c-8.74,2.73-18.19,3.7-27.41,4.6c-21.18,2.07-42.39,2.23-63.4-1.74
		c-9.18-1.73-18.1-4.56-25.86-9.82c-2.86-1.94-5.39-4.49-7.58-7.14c-2.07-2.51-2.83-5.43-2.2-8.98c0.63-3.54-0.09-7.31-0.27-10.97
		c-0.19-3.89-0.41-7.79-0.71-11.67c-0.1-1.27-0.39-2.55-0.76-3.78c-0.55-1.82-1.59-3.56-1.8-5.4c-0.49-4.33-1.53-9.48,2.27-12.39
		c5.05-3.88,11.25-5.83,17.98-3.41c3.07,1.11,4.86,3.1,5.09,6.31c0.05,0.71,0.14,1.42,0.18,2.13c0.46,7.28,0.46,7.21,7.81,7.35
		c7.6,0.15,15.24,1.13,22.77,0.57c21.26-1.59,42.58,0.4,63.82-1.3C420.33,266.8,422.35,266.71,425.27,266.52z M373.73,313.65
		c13.01-0.65,26.02-1.01,38.42-5.5c9.5-3.44,15.55-11.66,15.95-21.47c0.17-4.11-2.47-6.31-6.67-5.87c-3.28,0.34-6.59,0.29-9.89,0.44
		c-7.19,0.32-14.37,0.66-21.56,0.95c-0.83,0.03-1.67-0.19-2.5-0.28c-3.99-0.44-7.98-1.16-11.98-1.24
		c-5.14-0.09-10.49,1.31-15.39,0.33c-9.3-1.86-18.31,1.37-27.47,0.39c-1.57-0.17-3.33,0.68-4.89,1.31
		c-2.72,1.11-3.82,3.07-3.09,6.02c0.91,3.69,1.68,7.42,2.34,11.17c0.58,3.34,2.33,5.93,5.55,6.99c10.51,3.44,20.91,7.47,32.37,6.79
		C367.85,313.5,370.8,313.65,373.73,313.65z"/>
	<path class="st0" d="M468.67,197.14c-1.63,1.07-2.93,2.15-4.42,2.85c-1.98,0.93-4.07,1.65-6.16,2.3
		c-19.6,6.06-39.17,12.2-58.84,18.04c-7.24,2.15-14.74,3.48-22.09,5.31c-5.58,1.39-11.1,2.99-16.65,4.47
		c-17.62,4.68-35.23,9.42-52.91,13.9c-2,0.51-4.61-0.02-6.56-0.87c-2.98-1.3-3.01-4.05-0.24-5.78c1.41-0.88,3.1-1.62,4.74-1.83
		c18.56-2.39,35.62-9.73,53.16-15.33c23.99-7.66,47.64-16.29,71.48-24.38c8.73-2.97,17.72-4.84,27.08-4.08
		C462.44,192.15,465.56,193.61,468.67,197.14z"/>
	<path class="st0" d="M311.33,210.18c3.21-2.47,6.17-5.35,9.69-7.3c5.3-2.94,10.87-5.5,16.53-7.74
		c24.17-9.59,48.4-19.05,72.65-28.45c7.74-3,15.6-5.71,23.41-8.55c4.71-1.71,8.98-0.36,12.9,2.11c3.31,2.09,3.5,5.36,0.25,7.6
		c-2.1,1.45-4.79,2.44-7.36,2.88c-10.25,1.73-19.62,5.57-28.9,9.98c-7.01,3.34-14.37,6.04-21.72,8.63
		c-8.42,2.96-16.89,5.58-24.25,10.9c-2.63,1.9-6.33,2.45-9.58,3.5c-11.04,3.57-22.1,7.07-33.15,10.63
		C318.53,215.42,314.61,214.08,311.33,210.18z"/>
	<path class="st0" d="M447.15,134.13c-5.87,4.81-12.65,7.27-19.6,9.18c-14.64,4.01-29.38,7.63-44.03,11.59
		c-12.05,3.26-24.03,6.76-36.02,10.25c-2.33,0.68-4.44,2.06-6.78,2.67c-7.54,1.97-15.1,3.88-22.72,5.5
		c-2.29,0.49-4.51-0.65-4.84-3.28c-0.31-2.44,0.07-4.39,3.26-5.4c38.11-12.12,76.18-24.4,114.25-36.65
		C437.02,125.95,441.78,127.65,447.15,134.13z"/>
</g>
</svg>
